<svg xmlns="http://www.w3.org/2000/svg" xml:space="preserve" width="800" height="800" viewBox="0 0 512 512"><circle cx="256" cy="256" r="247.83" style="fill:#ffad38"/><path d="m256 128 24.267 12.789-7.155 17.441h-34.224l-7.155-17.441zM298.849 205.549c-17.604 0-33.18-8.592-42.85-21.73-9.749 13.138-25.286 21.73-42.886 21.73-17.603 0-33.179-8.592-42.849-21.73v133.704c0 65.356 57.031 49.54 85.736 70.007 28.705-20.467 85.736-4.652 85.736-70.007V183.82c-9.707 13.137-25.288 21.729-42.887 21.729" style="fill:#fcde65"/><path d="m256 223.198 18.555 32.134 37.107.002-18.552 32.137 18.552 32.136-37.107.003L256 351.743l-18.555-32.133-37.107-.003 18.552-32.136-18.552-32.137 37.107-.002z" style="fill:#ffad38"/><path d="M437.019 74.981C388.668 26.628 324.38 0 256 0S123.332 26.628 74.981 74.981C26.628 123.332 0 187.62 0 256s26.628 132.668 74.981 181.019C123.332 485.372 187.62 512 256 512s132.668-26.628 181.019-74.981C485.372 388.668 512 324.38 512 256s-26.628-132.668-74.981-181.019M256 495.66C123.851 495.66 16.34 388.15 16.34 256S123.851 16.34 256 16.34 495.66 123.851 495.66 256 388.149 495.66 256 495.66m64.751-58.998a8.17 8.17 0 0 1-5.368 10.231c-19.169 5.975-39.148 9.005-59.382 9.005-19.757 0-39.285-2.89-58.04-8.591a8.17 8.17 0 0 1 4.752-15.634c17.214 5.232 35.142 7.885 53.288 7.885 18.583 0 36.926-2.78 54.519-8.264a8.17 8.17 0 0 1 10.231 5.368M86.87 149.538c17.708-28.036 42.317-51.463 71.167-67.746 29.773-16.807 63.648-25.69 97.963-25.69s68.19 8.883 97.963 25.689c28.85 16.285 53.459 39.712 71.167 67.746a8.17 8.17 0 0 1-6.9 12.535 8.17 8.17 0 0 1-6.916-3.808C377.372 104.525 319.312 72.443 256 72.443s-121.372 32.083-155.315 85.821a8.17 8.17 0 0 1-11.272 2.545 8.17 8.17 0 0 1-2.543-11.271M256 84.97c-94.306 0-171.03 76.724-171.03 171.03 0 71.581 45.237 136.176 112.567 160.738 18.721 6.829 38.39 10.292 58.463 10.292 20.071 0 39.74-3.463 58.462-10.291C381.792 392.178 427.03 327.582 427.03 256c0-94.306-76.724-171.03-171.03-171.03m52.861 316.417c-16.921 6.172-34.706 9.302-52.861 9.302-18.156 0-35.942-3.13-52.863-9.303C142.231 379.169 101.311 320.743 101.311 256c0-85.296 69.393-154.689 154.689-154.689S410.689 170.704 410.689 256c0 64.743-40.922 123.17-101.828 145.387m35.432-225.328a8.17 8.17 0 0 0-9.127 2.904 45.5 45.5 0 0 1-14.384 12.641l19.407-33.613a8.17 8.17 0 0 0-14.15-8.17l-27.453 47.55c-14.132-.085-27.576-6.944-36.006-18.395-.034-.046-.074-.086-.11-.132a8 8 0 0 0-.383-.462q-.102-.117-.208-.229a9 9 0 0 0-.476-.452c-.057-.05-.109-.103-.167-.151a8 8 0 0 0-.707-.529c-.039-.026-.081-.047-.12-.072a8 8 0 0 0-.647-.377q-.109-.055-.22-.106a8 8 0 0 0-1.46-.537q-.131-.036-.265-.069a9 9 0 0 0-.647-.117c-.084-.012-.166-.028-.249-.038a8 8 0 0 0-.831-.05q-.037-.002-.074-.004h-.015c-.308 0-.612.021-.911.053-.08.009-.158.024-.236.036a8 8 0 0 0-.66.118q-.129.032-.256.066a8 8 0 0 0-1.459.534q-.113.053-.224.108a9 9 0 0 0-.62.358c-.049.031-.1.058-.148.09q-.37.245-.71.528c-.047.039-.089.083-.135.122a9 9 0 0 0-.507.478q-.102.109-.202.222a8 8 0 0 0-.389.464c-.033.042-.071.08-.103.123-8.629 11.629-21.746 18.325-36.024 18.419l-27.452-47.548a8.17 8.17 0 0 0-14.151 8.171l19.423 33.643c-5.574-3.112-10.516-7.394-14.39-12.658a8.17 8.17 0 0 0-14.75 4.844v34.052a8.17 8.17 0 0 0 16.34 0v-14.958c8.575 5.878 18.576 9.546 29.022 10.529.122.017.245.023.367.036 1.753.154 3.516.241 5.289.241 12.653 0 24.632-3.808 34.717-10.769v18.059l-15.102 26.153-32.39.002a8.172 8.172 0 0 0-7.075 12.255l11.476 19.881h-26.304v-28.749a8.17 8.17 0 0 0-16.34 0v66.97c0 51.362 32.928 59.371 59.387 65.807 11.361 2.764 22.092 5.374 29.776 10.852.019.013.039.022.058.035q.466.326.977.587.089.045.179.086a8 8 0 0 0 1.067.431c.356.113.727.194 1.101.257q.121.02.242.037c.366.05.739.086 1.119.086a8 8 0 0 0 1.361-.123 8 8 0 0 0 1.101-.257h.001a8 8 0 0 0 1.066-.43q.09-.042.179-.086.511-.26.977-.587c.019-.013.039-.022.058-.035 7.683-5.478 18.415-8.089 29.776-10.852 26.458-6.436 59.387-14.445 59.387-65.807V183.821a8.18 8.18 0 0 0-5.616-7.762m-45.444 37.661c1.744 0 3.479-.084 5.205-.233.178-.014.354-.025.528-.051 10.425-.996 20.41-4.666 28.982-10.543v76.409H307.26l11.476-19.881a8.172 8.172 0 0 0-7.075-12.255l-32.39-.002-15.102-26.154v-18.116c10.117 6.937 22.203 10.826 34.68 10.826m-61.404 49.782a8.17 8.17 0 0 0 7.075-4.085L256 239.536l11.48 19.881a8.17 8.17 0 0 0 7.075 4.085l22.957.001-11.478 19.882q-.016.033-.032.065a8 8 0 0 0-.441.895q-.012.033-.023.065a8 8 0 0 0-.496 1.834q-.021.127-.039.255a8 8 0 0 0-.062.961v.019c0 .326.025.646.062.961.01.086.026.17.039.255q.055.371.144.732.03.123.063.246.121.438.289.856.012.033.023.065.194.464.441.895.016.033.032.065l11.478 19.882-22.957.001a8.17 8.17 0 0 0-7.075 4.085L256 335.405l-11.48-19.881a8.17 8.17 0 0 0-7.075-4.085l-22.957-.001 11.478-19.882c.012-.022.02-.044.032-.065.163-.289.313-.587.441-.895q.012-.033.024-.065a8.5 8.5 0 0 0 .352-1.103q.088-.36.144-.731.021-.127.039-.255c.037-.316.062-.635.062-.961v-.019c0-.326-.025-.646-.062-.961-.01-.086-.026-.17-.039-.255a8 8 0 0 0-.144-.731q-.03-.125-.063-.248a8 8 0 0 0-.289-.855q-.012-.033-.024-.065a8 8 0 0 0-.441-.895c-.012-.022-.02-.044-.032-.065l-11.478-19.882zm-59.011 54.021v-21.882h26.304l-11.476 19.881a8.172 8.172 0 0 0 7.075 12.255l32.39.002 15.102 26.153v20.111c-7.204-2.855-14.92-4.751-22.488-6.591-26.206-6.374-46.907-11.409-46.907-49.929m108.224 49.93c-7.567 1.84-15.283 3.735-22.488 6.591v-20.111l15.102-26.153 32.39-.002a8.172 8.172 0 0 0 7.075-12.255l-11.476-19.881h26.304v21.882c.001 38.519-20.7 43.554-46.907 49.929m-49.715-79.982a8.17 8.17 0 0 1 8.17-8.17h2.717v-2.717c0-4.513 3.658-8.17 8.17-8.17s8.17 3.657 8.17 8.17v2.717h2.717a8.17 8.17 0 0 1 0 16.34h-2.717v2.717a8.17 8.17 0 0 1-16.34 0v-2.717h-2.717a8.17 8.17 0 0 1-8.17-8.17m-5.613-126.14a8.17 8.17 0 0 0 7.558 5.069h34.222a8.17 8.17 0 0 0 7.558-5.069l7.156-17.441a8.17 8.17 0 0 0-3.75-10.328l-24.267-12.789a8.17 8.17 0 0 0-7.618 0l-24.267 12.789a8.17 8.17 0 0 0-3.75 10.328zM256 137.236l13.89 7.321-2.258 5.503h-23.263l-2.258-5.503zm-8.715-101.832c0-4.805 3.91-8.715 8.715-8.715s8.715 3.91 8.715 8.715-3.91 8.715-8.715 8.715-8.715-3.91-8.715-8.715m-45.672 6.639c-.995-4.709 2.015-9.34 6.705-10.341a8.65 8.65 0 0 1 6.564 1.215 8.66 8.66 0 0 1 3.779 5.505c.482 2.275.05 4.6-1.217 6.551a8.66 8.66 0 0 1-5.505 3.779 8.7 8.7 0 0 1-1.812.192c-4.014-.001-7.642-2.81-8.514-6.901m-43.299 15.975c-1.953-4.39.029-9.552 4.421-11.505a8.65 8.65 0 0 1 6.664-.174 8.65 8.65 0 0 1 4.841 4.595c1.952 4.387-.028 9.547-4.415 11.503a8.7 8.7 0 0 1-3.535.753c-3.343 0-6.534-1.93-7.976-5.172m-39.026 24.641a8.65 8.65 0 0 1-1.558-6.493 8.66 8.66 0 0 1 3.491-5.688 8.66 8.66 0 0 1 6.484-1.551 8.66 8.66 0 0 1 5.688 3.491 8.65 8.65 0 0 1 1.552 6.478 8.66 8.66 0 0 1-3.475 5.68 8.7 8.7 0 0 1-5.124 1.665 8.7 8.7 0 0 1-7.058-3.582m-33.7 19.903c3.215-3.572 8.736-3.862 12.308-.648l.008.007c3.563 3.216 3.851 8.733.639 12.301a8.65 8.65 0 0 1-6.488 2.886 8.65 8.65 0 0 1-5.827-2.245c-3.564-3.207-3.855-8.729-.64-12.301m-13.082 47.499a8.72 8.72 0 0 1-11.904 3.188c-4.161-2.403-5.592-7.744-3.189-11.906 2.404-4.16 7.743-5.592 11.906-3.189 4.16 2.404 5.59 7.745 3.187 11.907m-18.54 33.815a8.65 8.65 0 0 1 .527 6.64 8.67 8.67 0 0 1-4.34 5.084 8.68 8.68 0 0 1-6.648.521 8.66 8.66 0 0 1-5.069-4.329 8.66 8.66 0 0 1-.523-6.654 8.65 8.65 0 0 1 4.332-5.07 8.66 8.66 0 0 1 6.639-.526 8.65 8.65 0 0 1 5.082 4.334m-24.124 54.552a8.66 8.66 0 0 1-1.897-6.397 8.67 8.67 0 0 1 3.183-5.863 8.66 8.66 0 0 1 6.407-1.892c4.772.509 8.245 4.801 7.744 9.577-.47 4.471-4.26 7.805-8.66 7.805a9 9 0 0 1-.916-.048 8.67 8.67 0 0 1-5.861-3.182m7.681 49.297a8.65 8.65 0 0 1-6.394-1.894 8.66 8.66 0 0 1-3.182-5.851 8.66 8.66 0 0 1 1.894-6.409 8.66 8.66 0 0 1 5.861-3.181c4.79-.502 9.077 2.978 9.578 7.757.502 4.781-2.978 9.077-7.757 9.578m16.966 33.748a8.67 8.67 0 0 1-.523 6.653 8.66 8.66 0 0 1-5.082 4.335 8.7 8.7 0 0 1-2.69.428 8.7 8.7 0 0 1-3.949-.954 8.67 8.67 0 0 1-4.332-5.07 8.66 8.66 0 0 1 .523-6.654 8.66 8.66 0 0 1 5.069-4.329 8.66 8.66 0 0 1 6.648.521 8.65 8.65 0 0 1 4.336 5.07m18.017 40.466c2.403 4.161.973 9.502-3.189 11.906a8.717 8.717 0 0 1-11.904-3.188c-2.403-4.161-.973-9.503 3.189-11.906 4.159-2.403 9.5-.973 11.904 3.188m26.043 35.846c3.204 3.56 2.917 9.078-.646 12.295a8.7 8.7 0 0 1-5.836 2.239 8.7 8.7 0 0 1-6.48-2.88c-3.213-3.569-2.925-9.084.639-12.3a8.7 8.7 0 0 1 6.295-2.232 8.65 8.65 0 0 1 6.028 2.878m36.396 35.317a8.66 8.66 0 0 1-1.564 6.495 8.65 8.65 0 0 1-5.676 3.475 8.65 8.65 0 0 1-6.491-1.556 8.65 8.65 0 0 1-3.485-5.682 8.65 8.65 0 0 1 1.556-6.49l.002-.002c2.821-3.881 8.277-4.75 12.165-1.93a8.66 8.66 0 0 1 3.493 5.69m39.293 27.965a8.66 8.66 0 0 1-4.841 4.595 8.7 8.7 0 0 1-3.124.583 8.7 8.7 0 0 1-3.544-.759c-4.385-1.951-6.368-7.111-4.415-11.503 1.953-4.391 7.116-6.374 11.505-4.421 4.391 1.957 6.371 7.117 4.419 11.505m43.206 5.961a8.66 8.66 0 0 1 1.215 6.565 8.65 8.65 0 0 1-3.776 5.491 8.65 8.65 0 0 1-6.565 1.214c-4.691-1.001-7.7-5.632-6.709-10.325l.003-.016c1.002-4.699 5.642-7.707 10.341-6.705a8.65 8.65 0 0 1 5.491 3.776m47.271 9.568c0 4.805-3.91 8.715-8.715 8.715s-8.715-3.91-8.715-8.715 3.91-8.715 8.715-8.715 8.715 3.91 8.715 8.715m45.672-6.639c.995 4.709-2.015 9.34-6.705 10.341a8.643 8.643 0 0 1-6.565-1.214 8.66 8.66 0 0 1-3.779-5.505 8.66 8.66 0 0 1 1.217-6.551 8.66 8.66 0 0 1 5.505-3.779c4.683-1.001 9.325 2.008 10.327 6.708m43.299-15.975c1.953 4.39-.029 9.552-4.421 11.505a8.7 8.7 0 0 1-3.538.757 8.7 8.7 0 0 1-3.125-.583 8.65 8.65 0 0 1-4.841-4.595c-1.952-4.387.028-9.547 4.415-11.501 4.397-1.958 9.557.027 11.51 4.417m39.026-24.641a8.66 8.66 0 0 1 1.558 6.493 8.66 8.66 0 0 1-3.491 5.688 8.64 8.64 0 0 1-5.096 1.661q-.692 0-1.388-.11a8.66 8.66 0 0 1-5.688-3.491 8.65 8.65 0 0 1-1.552-6.478 8.66 8.66 0 0 1 3.475-5.68c3.905-2.829 9.36-1.964 12.182 1.917m33.7-19.903a8.7 8.7 0 0 1-6.482 2.881 8.68 8.68 0 0 1-5.826-2.233l-.008-.007c-3.563-3.216-3.851-8.735-.639-12.301a8.65 8.65 0 0 1 6.02-2.874 8.65 8.65 0 0 1 6.295 2.232c3.564 3.208 3.855 8.73.64 12.302m28.176-38.782a8.72 8.72 0 0 1-11.904 3.188c-4.161-2.403-5.592-7.744-3.189-11.906 2.404-4.161 7.744-5.592 11.906-3.189 4.16 2.405 5.591 7.746 3.187 11.907m18.975-50.447a8.66 8.66 0 0 1 .523 6.654 8.65 8.65 0 0 1-4.332 5.07 8.7 8.7 0 0 1-3.947.953 8.7 8.7 0 0 1-2.692-.428 8.66 8.66 0 0 1-5.082-4.335 8.65 8.65 0 0 1-.527-6.64 8.67 8.67 0 0 1 4.34-5.084 8.67 8.67 0 0 1 6.648-.521 8.66 8.66 0 0 1 5.069 4.331m10.492-40.241a8.67 8.67 0 0 1-3.183 5.863 8.65 8.65 0 0 1-6.406 1.892c-4.772-.509-8.245-4.801-7.744-9.577.501-4.779 4.803-8.257 9.578-7.757a8.66 8.66 0 0 1 5.861 3.181 8.68 8.68 0 0 1 1.894 6.398m-9.578-55.693a8.65 8.65 0 0 1 6.395 1.893 8.66 8.66 0 0 1 3.182 5.851 8.66 8.66 0 0 1-1.894 6.409 8.66 8.66 0 0 1-5.861 3.181 9 9 0 0 1-.916.048c-4.401 0-8.192-3.333-8.66-7.805-.505-4.78 2.975-9.076 7.754-9.577m-16.966-33.748a8.67 8.67 0 0 1 .523-6.653 8.66 8.66 0 0 1 5.082-4.335 8.66 8.66 0 0 1 6.639.526 8.67 8.67 0 0 1 4.332 5.07 8.66 8.66 0 0 1-.523 6.654 8.66 8.66 0 0 1-5.069 4.329 8.665 8.665 0 0 1-6.648-.521 8.65 8.65 0 0 1-4.336-5.07m-2.923-49.183c2.403 4.161.973 9.502-3.189 11.906a8.717 8.717 0 0 1-11.904-3.188c-2.403-4.161-.973-9.503 3.189-11.906 4.159-2.404 9.501-.974 11.904 3.188m-41.137-27.129c-3.204-3.56-2.917-9.078.646-12.293 3.58-3.221 9.101-2.93 12.315.641 3.213 3.569 2.925 9.084-.639 12.3a8.65 8.65 0 0 1-6.295 2.233 8.65 8.65 0 0 1-6.027-2.881m-36.396-35.317a8.66 8.66 0 0 1 1.564-6.495 8.65 8.65 0 0 1 5.676-3.475 8.65 8.65 0 0 1 6.49 1.556 8.65 8.65 0 0 1 3.485 5.682 8.65 8.65 0 0 1-1.556 6.49l-.002.002a8.71 8.71 0 0 1-7.061 3.586 8.67 8.67 0 0 1-5.103-1.656 8.66 8.66 0 0 1-3.493-5.69m-39.293-27.965a8.66 8.66 0 0 1 4.841-4.595 8.66 8.66 0 0 1 6.669.178c4.385 1.951 6.368 7.111 4.415 11.503-1.442 3.243-4.635 5.172-7.975 5.172a8.7 8.7 0 0 1-3.53-.752c-4.392-1.958-6.372-7.118-4.42-11.506m-43.206-5.961a8.66 8.66 0 0 1-1.215-6.564 8.65 8.65 0 0 1 3.776-5.491 8.65 8.65 0 0 1 6.564-1.215c4.691 1.001 7.7 5.632 6.709 10.325l-.003.016c-.873 4.089-4.498 6.898-8.521 6.898q-.902.002-1.82-.193a8.65 8.65 0 0 1-5.49-3.776M135.053 397.101c0 4.806-3.91 8.715-8.715 8.715s-8.715-3.909-8.715-8.715c0-4.805 3.91-8.715 8.715-8.715s8.715 3.909 8.715 8.715m259.324 0c0 4.806-3.91 8.715-8.715 8.715s-8.715-3.909-8.715-8.715c0-4.805 3.91-8.715 8.715-8.715s8.715 3.909 8.715 8.715"/></svg>