<svg xmlns="http://www.w3.org/2000/svg" xml:space="preserve" width="800" height="800" viewBox="0 0 512 512"><path d="M256 8.17C119.127 8.17 8.17 119.127 8.17 256S119.127 503.83 256 503.83 503.83 392.873 503.83 256 392.873 8.17 256 8.17m0 316.365c-37.851 0-68.535-30.684-68.535-68.535s30.684-68.535 68.535-68.535 68.535 30.684 68.535 68.535-30.684 68.535-68.535 68.535" style="fill:#c9a413"/><path d="M384.573 150.586H127.427s3.495 16.09 14.187 31.403c10.444 14.958 19.001 20.429 35.955 26.98.939.363 28.606 0 28.606 0 12.495-13.232 30.189-21.504 49.825-21.504s37.33 8.272 49.825 21.504c0 0 27.667.363 28.606 0 16.955-6.551 28.456-16.127 38.9-31.085 10.693-15.313 11.242-27.298 11.242-27.298" style="fill:#ffe991"/><path d="M256 84.898c-11.398 1.691-20.143 11.512-20.143 23.381S244.602 129.97 256 131.66c11.398-1.69 20.143-11.513 20.143-23.381S267.398 86.588 256 84.898" style="fill:#fcde65"/><path d="M264.17 153.312v-83.13a8.17 8.17 0 0 0-16.34 0v83.131c-51.639 17.274-89.261 65.975-89.261 123.385 0 60.573 41.391 111.475 97.431 125.973 56.04-14.497 97.431-65.4 97.431-125.973 0-57.411-37.622-106.111-89.261-123.386M256 313.641c-31.834 0-57.641-25.807-57.641-57.641s25.807-57.641 57.641-57.641 57.641 25.807 57.641 57.641-25.807 57.641-57.641 57.641" style="fill:#fcde65"/><path d="M437.019 74.981C388.668 26.628 324.38 0 256 0S123.332 26.628 74.981 74.981C26.628 123.332 0 187.62 0 256s26.628 132.668 74.981 181.019C123.332 485.372 187.62 512 256 512s132.668-26.628 181.019-74.981C485.372 388.668 512 324.38 512 256s-26.628-132.668-74.981-181.019M256 495.66C123.851 495.66 16.34 388.15 16.34 256S123.851 16.34 256 16.34 495.66 123.851 495.66 256 388.149 495.66 256 495.66m-8.715-460.256c0-4.805 3.91-8.715 8.715-8.715s8.715 3.91 8.715 8.715-3.91 8.715-8.715 8.715-8.715-3.91-8.715-8.715m-45.672 6.639c-.995-4.709 2.015-9.34 6.705-10.341a8.65 8.65 0 0 1 6.564 1.215 8.66 8.66 0 0 1 3.779 5.505c.482 2.275.05 4.6-1.217 6.551a8.66 8.66 0 0 1-5.505 3.779 8.7 8.7 0 0 1-1.812.192c-4.014-.001-7.642-2.81-8.514-6.901m-43.299 15.975c-1.953-4.39.029-9.552 4.421-11.505a8.65 8.65 0 0 1 6.664-.174 8.65 8.65 0 0 1 4.841 4.595c1.952 4.387-.028 9.547-4.415 11.503a8.7 8.7 0 0 1-3.535.753c-3.343 0-6.534-1.93-7.976-5.172m-39.026 24.641a8.65 8.65 0 0 1-1.558-6.493 8.66 8.66 0 0 1 3.491-5.688 8.65 8.65 0 0 1 6.484-1.551 8.66 8.66 0 0 1 5.688 3.491 8.65 8.65 0 0 1 1.552 6.478 8.66 8.66 0 0 1-3.475 5.68 8.7 8.7 0 0 1-5.124 1.665 8.7 8.7 0 0 1-7.058-3.582m-33.7 19.903c3.215-3.572 8.736-3.862 12.308-.648l.008.007c3.563 3.216 3.851 8.733.639 12.301a8.65 8.65 0 0 1-6.488 2.886 8.65 8.65 0 0 1-5.827-2.245c-3.564-3.207-3.855-8.729-.64-12.301m-13.082 47.499a8.72 8.72 0 0 1-11.904 3.188c-4.161-2.403-5.592-7.744-3.189-11.906 2.404-4.161 7.744-5.593 11.906-3.189 4.16 2.404 5.59 7.745 3.187 11.907m-18.54 33.815a8.65 8.65 0 0 1 .527 6.64 8.67 8.67 0 0 1-4.34 5.084 8.68 8.68 0 0 1-6.648.521 8.66 8.66 0 0 1-5.069-4.329 8.66 8.66 0 0 1-.523-6.654 8.65 8.65 0 0 1 4.332-5.07 8.66 8.66 0 0 1 6.639-.526 8.65 8.65 0 0 1 5.082 4.334m-24.124 54.552a8.66 8.66 0 0 1-1.897-6.397 8.67 8.67 0 0 1 3.183-5.863 8.65 8.65 0 0 1 6.407-1.892c4.772.509 8.245 4.801 7.744 9.577-.47 4.471-4.26 7.805-8.66 7.805a9 9 0 0 1-.916-.048 8.67 8.67 0 0 1-5.861-3.182m7.681 49.297a8.65 8.65 0 0 1-6.394-1.894 8.66 8.66 0 0 1-3.182-5.851 8.66 8.66 0 0 1 1.894-6.409 8.66 8.66 0 0 1 5.861-3.181c4.784-.507 9.075 2.978 9.578 7.757.502 4.781-2.978 9.077-7.757 9.578m16.966 33.748a8.67 8.67 0 0 1-.523 6.653 8.66 8.66 0 0 1-5.082 4.335 8.7 8.7 0 0 1-2.69.428 8.7 8.7 0 0 1-3.949-.954 8.67 8.67 0 0 1-4.332-5.07 8.66 8.66 0 0 1 .523-6.654 8.66 8.66 0 0 1 5.069-4.329 8.66 8.66 0 0 1 6.648.521 8.65 8.65 0 0 1 4.336 5.07m18.017 40.466c2.403 4.161.973 9.502-3.189 11.906a8.717 8.717 0 0 1-11.904-3.188c-2.403-4.161-.973-9.503 3.189-11.906 4.161-2.403 9.5-.973 11.904 3.188m26.043 35.846c3.204 3.56 2.917 9.078-.646 12.295a8.7 8.7 0 0 1-5.836 2.239 8.7 8.7 0 0 1-6.48-2.88c-3.213-3.569-2.925-9.084.639-12.3a8.66 8.66 0 0 1 6.295-2.232 8.64 8.64 0 0 1 6.028 2.878m36.396 35.317a8.66 8.66 0 0 1-1.564 6.495 8.65 8.65 0 0 1-5.676 3.475 8.65 8.65 0 0 1-6.491-1.556 8.65 8.65 0 0 1-3.485-5.682 8.65 8.65 0 0 1 1.556-6.49l.002-.002c2.821-3.881 8.276-4.749 12.165-1.93a8.66 8.66 0 0 1 3.493 5.69m39.293 27.965a8.66 8.66 0 0 1-4.841 4.595 8.7 8.7 0 0 1-3.124.583 8.7 8.7 0 0 1-3.544-.759c-4.385-1.951-6.368-7.111-4.415-11.503 1.952-4.391 7.117-6.374 11.505-4.421 4.391 1.957 6.371 7.117 4.419 11.505m43.206 5.961a8.66 8.66 0 0 1 1.215 6.565 8.65 8.65 0 0 1-3.776 5.491 8.65 8.65 0 0 1-6.565 1.214c-4.691-1.001-7.7-5.632-6.709-10.325l.003-.016c1.002-4.699 5.64-7.709 10.341-6.705a8.65 8.65 0 0 1 5.491 3.776m47.271 9.568c0 4.805-3.91 8.715-8.715 8.715s-8.715-3.91-8.715-8.715 3.91-8.715 8.715-8.715 8.715 3.91 8.715 8.715m45.672-6.639c.995 4.709-2.015 9.34-6.705 10.341a8.643 8.643 0 0 1-6.565-1.214 8.66 8.66 0 0 1-3.779-5.505 8.66 8.66 0 0 1 1.217-6.551 8.66 8.66 0 0 1 5.505-3.779c4.682-.999 9.324 2.008 10.327 6.708m43.299-15.975c1.953 4.39-.029 9.552-4.421 11.505a8.7 8.7 0 0 1-3.538.757 8.7 8.7 0 0 1-3.125-.583 8.65 8.65 0 0 1-4.841-4.595c-1.952-4.387.028-9.547 4.415-11.503 4.398-1.955 9.557.029 11.51 4.419m39.026-24.641a8.65 8.65 0 0 1 1.558 6.493 8.66 8.66 0 0 1-3.491 5.688 8.64 8.64 0 0 1-5.096 1.661q-.692 0-1.388-.11a8.66 8.66 0 0 1-5.688-3.491 8.65 8.65 0 0 1-1.552-6.478 8.66 8.66 0 0 1 3.475-5.68c3.904-2.83 9.361-1.964 12.182 1.917m33.7-19.903a8.7 8.7 0 0 1-6.482 2.881 8.68 8.68 0 0 1-5.826-2.233l-.008-.007c-3.563-3.216-3.851-8.735-.639-12.301a8.65 8.65 0 0 1 6.02-2.874 8.7 8.7 0 0 1 6.295 2.232c3.564 3.208 3.855 8.73.64 12.302m28.176-38.782a8.72 8.72 0 0 1-11.904 3.188c-4.161-2.403-5.592-7.744-3.189-11.906 2.403-4.16 7.743-5.593 11.906-3.189 4.16 2.405 5.591 7.746 3.187 11.907m18.975-50.447a8.66 8.66 0 0 1 .523 6.654 8.65 8.65 0 0 1-4.332 5.07 8.7 8.7 0 0 1-3.947.953 8.7 8.7 0 0 1-2.692-.428 8.66 8.66 0 0 1-5.082-4.335 8.65 8.65 0 0 1-.527-6.64 8.67 8.67 0 0 1 4.34-5.084 8.67 8.67 0 0 1 6.648-.521 8.66 8.66 0 0 1 5.069 4.331m10.492-40.241a8.67 8.67 0 0 1-3.183 5.863 8.65 8.65 0 0 1-6.406 1.892c-4.772-.509-8.245-4.801-7.744-9.577.501-4.779 4.803-8.257 9.578-7.757a8.66 8.66 0 0 1 5.861 3.181 8.68 8.68 0 0 1 1.894 6.398m-9.578-55.693a8.66 8.66 0 0 1 6.395 1.893 8.66 8.66 0 0 1 3.182 5.851 8.66 8.66 0 0 1-1.894 6.409 8.66 8.66 0 0 1-5.861 3.181 9 9 0 0 1-.916.048c-4.401 0-8.192-3.333-8.66-7.805-.505-4.78 2.975-9.076 7.754-9.577m-16.966-33.748a8.67 8.67 0 0 1 .523-6.653 8.66 8.66 0 0 1 5.082-4.335 8.66 8.66 0 0 1 6.639.526 8.67 8.67 0 0 1 4.332 5.07 8.66 8.66 0 0 1-.523 6.654 8.66 8.66 0 0 1-5.069 4.329 8.665 8.665 0 0 1-6.648-.521 8.65 8.65 0 0 1-4.336-5.07m-2.923-49.183c2.403 4.161.973 9.502-3.189 11.906a8.717 8.717 0 0 1-11.904-3.188c-2.403-4.161-.973-9.503 3.189-11.906s9.5-.974 11.904 3.188m-41.137-27.129c-3.204-3.56-2.917-9.078.646-12.293 3.58-3.221 9.101-2.93 12.315.641 3.213 3.569 2.925 9.084-.639 12.3a8.65 8.65 0 0 1-6.295 2.233 8.65 8.65 0 0 1-6.027-2.881m-36.396-35.317a8.66 8.66 0 0 1 1.564-6.495 8.65 8.65 0 0 1 5.676-3.475 8.65 8.65 0 0 1 6.49 1.556 8.65 8.65 0 0 1 3.485 5.682 8.65 8.65 0 0 1-1.556 6.49l-.002.002a8.71 8.71 0 0 1-7.061 3.586 8.67 8.67 0 0 1-5.103-1.656 8.66 8.66 0 0 1-3.493-5.69m-39.293-27.965a8.66 8.66 0 0 1 4.841-4.595 8.66 8.66 0 0 1 6.669.178c4.385 1.951 6.368 7.111 4.415 11.503-1.442 3.243-4.635 5.172-7.975 5.172a8.7 8.7 0 0 1-3.53-.752c-4.392-1.958-6.372-7.118-4.42-11.506m-43.206-5.961a8.66 8.66 0 0 1-1.215-6.564 8.65 8.65 0 0 1 3.776-5.491 8.65 8.65 0 0 1 6.564-1.215c4.691 1.001 7.7 5.632 6.709 10.325l-.003.016c-.873 4.089-4.498 6.898-8.521 6.898q-.902.002-1.82-.193a8.65 8.65 0 0 1-5.49-3.776M256 190.188c-36.289 0-65.812 29.524-65.812 65.812 0 36.289 29.523 65.812 65.812 65.812s65.812-29.523 65.812-65.812-29.523-65.812-65.812-65.812m0 115.283c-27.279 0-49.471-22.192-49.471-49.471s22.192-49.471 49.471-49.471 49.471 22.192 49.471 49.471-22.192 49.471-49.471 49.471m170.963-28.773c0-38.068-15.631-74.236-43.108-100.312 7.697-13.601 11.747-28.896 11.747-44.727a8.17 8.17 0 0 0-16.34 0c0 3.631-.278 7.222-.801 10.756H264.17v-4.551c11.861-4.718 20.143-16.399 20.143-29.586s-8.284-24.869-20.143-29.586v-8.511a8.17 8.17 0 0 0-16.34 0v8.511c-11.861 4.717-20.143 16.399-20.143 29.586s8.284 24.869 20.143 29.586v4.551H133.54a73.4 73.4 0 0 1-.801-10.756 8.17 8.17 0 0 0-16.34 0c0 15.83 4.048 31.124 11.745 44.725-23.203 22.005-38.049 51.201-42.028 82.955a8.17 8.17 0 0 0 16.214 2.032c3.401-27.147 15.819-52.18 35.235-71.37a90.7 90.7 0 0 0 28.503 22.757 138 138 0 0 0-15.669 63.939c0 52.704 29.642 98.61 73.127 121.94l-.205.002c-61.359 0-113.374-45.836-120.989-106.618a8.167 8.167 0 0 0-9.123-7.091 8.17 8.17 0 0 0-7.091 9.123c8.635 68.939 67.62 120.926 137.201 120.926 11.256 0 22.198-1.362 32.681-3.912a138 138 0 0 0 32.681 3.912c76.25.001 138.282-62.031 138.282-138.281m-89.458-78.004c-10.925-15.999-25.168-29.671-41.904-39.938h78.495c-6.75 17.168-19.729 31.618-36.591 39.938M256 93.207c6.904 1.599 11.973 7.874 11.973 15.071S262.905 121.751 256 123.35c-6.905-1.599-11.973-7.875-11.973-15.072S249.096 94.806 256 93.207m-118.096 65.549H216.4c-16.737 10.267-30.979 23.939-41.904 39.938-16.863-8.32-29.842-22.77-36.592-39.938m28.835 117.942c0-54.832 36.627-102.892 89.261-117.492 52.636 14.599 89.261 62.66 89.261 117.492 0 55.922-37.842 103.168-89.261 117.489-51.42-14.321-89.261-61.567-89.261-117.489M288.681 398.64l-.205-.002c43.484-23.33 73.127-69.235 73.127-121.94 0-22.849-5.612-44.662-15.669-63.939a90.7 90.7 0 0 0 28.496-22.749c23.098 22.849 36.195 53.972 36.195 86.688-.002 67.24-54.704 121.942-121.944 121.942"/></svg>