<svg xmlns="http://www.w3.org/2000/svg" xml:space="preserve" width="800" height="800" viewBox="0 0 512 512"><circle cx="256" cy="256" r="247.83" style="fill:#8c8484"/><circle cx="256" cy="256" r="220.596" style="fill:#d2cfce"/><path d="M197.473 136.17h-25.149c-12.656 0-23.078 9.18-25.271 21.219-3.725 20.436-14.343 81.633-14.343 81.633-7.77 40.949 19.973 74.452 61.654 74.452h78.368l84.63-49.387-144.849-36.265z" style="fill:#8c8484"/><path d="M437.019 74.981C388.667 26.628 324.38 0 256 0S123.332 26.628 74.981 74.981C26.628 123.332 0 187.62 0 256s26.628 132.668 74.981 181.019C123.332 485.372 187.62 512 256 512s132.667-26.628 181.019-74.981C485.372 388.668 512 324.38 512 256s-26.628-132.668-74.981-181.019M256 495.66C123.851 495.66 16.34 388.15 16.34 256S123.851 16.34 256 16.34 495.66 123.851 495.66 256 388.149 495.66 256 495.66m-21.399-150.473-75.802 44.236a8.162 8.162 0 0 1-11.173-2.94 8.17 8.17 0 0 1 2.938-11.175l75.802-44.236a8.171 8.171 0 1 1 8.235 14.115m-32.281 41.297a8.17 8.17 0 0 1 2.938-11.175l143.929-83.992a8.17 8.17 0 1 1 8.237 14.113l-143.93 83.993a8.164 8.164 0 0 1-11.174-2.939m221.398-161.12a8.17 8.17 0 0 0-11.175-2.938l-56.425 32.928-136.374-34.144c-1.416-8.872-5.015-30.888-14.21-86.375a8.17 8.17 0 0 0-8.06-6.835h-25.149c-16.352 0-30.361 11.743-33.309 27.924-.088.479-.181.99-.275 1.514h-17.257a8.17 8.17 0 0 0 0 16.34h14.341c-4.5 25.457-10.845 62.005-11.153 63.784-4.198 22.215.783 43.256 14.03 59.254 13.259 16.011 33.027 24.829 55.663 24.829h78.368a8.2 8.2 0 0 0 4.118-1.113l143.929-83.993a8.17 8.17 0 0 0 2.938-11.175m-153.195 79.941h-76.158c-17.68 0-32.978-6.716-43.078-18.911-10.098-12.194-13.845-28.478-10.549-45.848l.023-.126c.093-.538 8.274-47.678 12.74-72.726.115-.439.2-.89.242-1.355.51-2.856.966-5.391 1.348-7.485 1.533-8.41 8.78-14.512 17.234-14.512h18.221c5.72 34.545 13.393 81.071 13.844 84.347a8.17 8.17 0 0 0 6.141 7.059L335.92 267.14zM484.766 256c0 126.142-102.624 228.766-228.766 228.766-58.151 0-113.575-21.841-156.061-61.5-42.273-39.46-67.872-92.847-72.08-150.329a8.17 8.17 0 0 1 7.551-8.745c4.501-.338 8.415 3.05 8.745 7.551C52.232 382.033 145.285 468.426 256 468.426c117.131 0 212.426-95.294 212.426-212.426S373.131 43.574 256 43.574c-110.715 0-203.768 86.393-211.844 196.682-.33 4.5-4.246 7.886-8.745 7.551a8.17 8.17 0 0 1-7.551-8.745c4.209-57.481 29.808-110.869 72.08-150.329 42.486-39.658 97.91-61.5 156.061-61.5C382.142 27.234 484.766 129.858 484.766 256"/></svg>