<svg xmlns="http://www.w3.org/2000/svg" xml:space="preserve" viewBox="0 0 512 512"><circle cx="256" cy="256" r="247.83" style="fill:#ffad38"/><circle cx="256" cy="256" r="220.596" style="fill:#ebeaea"/><path d="m356.04 184.81-178.314-32.681V338.87l-19.025 48.749c38.087 2.344 72.391 18.661 97.849 43.896 4.016-10.305 27.604-70.749 27.604-70.749l50.549.179c17.849 0 32.319-14.469 32.319-32.319v-94.928c.001-17.497-3.939-34.072-10.982-48.888" style="fill:#a8a2a2"/><path d="M253.005 105.797c-67.367 0-122.732 52.355-127.556 118.512-14.715 11.848-24.139 30-24.139 50.362 0 35.699 28.94 64.638 64.639 64.638s64.638-28.94 64.638-64.638c0-3.128-.234-6.197-.662-9.206 2.187.375 4.432.581 6.727.581 21.865 0 39.591-17.725 39.591-39.591 0-.437-.02-.868-.033-1.301.521.033 1.037.078 1.565.078 13.681 0 24.77-11.09 24.77-24.769l66.938-19.586c-20.141-44.245-64.775-75.08-116.478-75.08" style="fill:#8c8484"/><path d="M198.645 146.526h170.926v23.81H198.645z" style="fill:#a8a2a2" transform="rotate(-16.307 284.1 158.425)"/><path d="M437.019 74.981C388.667 26.628 324.38 0 256 0S123.333 26.628 74.981 74.981C26.628 123.332 0 187.62 0 256s26.628 132.668 74.981 181.019C123.333 485.372 187.62 512 256 512s132.667-26.628 181.019-74.981C485.372 388.668 512 324.38 512 256s-26.628-132.668-74.981-181.019M256 495.66C123.851 495.66 16.34 388.15 16.34 256S123.851 16.34 256 16.34 495.66 123.851 495.66 256 388.149 495.66 256 495.66M130.573 230.672a8.17 8.17 0 0 0 3.025-5.769c4.535-62.207 56.986-110.935 119.406-110.935 12.917 0 25.627 2.055 37.78 6.106a8.17 8.17 0 0 0 10.335-5.167 8.17 8.17 0 0 0-5.167-10.335c-13.822-4.608-28.271-6.945-42.948-6.945-34.55 0-67.51 13.015-92.808 36.646-24.318 22.715-39.361 53.134-42.598 85.978-15.587 13.835-24.457 33.473-24.457 54.419 0 40.03 32.474 72.61 72.46 72.8l-14.509 37.178a8.17 8.17 0 0 0 7.109 11.125c34.853 2.146 67.74 16.9 92.6 41.544a8.17 8.17 0 0 0 13.365-2.837c3.293-8.452 19.753-50.63 25.566-65.524l44.974.159c22.325 0 40.489-18.164 40.489-40.491v-10.73a8.163 8.163 0 0 0 0-14.234v-29.794l1.602 2.329a8.16 8.16 0 0 0 6.739 3.539 8.17 8.17 0 0 0 6.723-12.802l-15.064-21.893v-11.344c0-15.114-2.701-29.747-8.023-43.63l4.609-1.349a8.174 8.174 0 0 0 5.142-11.227 136 136 0 0 0-12.398-21.657l7.256-2.123a8.175 8.175 0 0 0 5.547-10.137l-6.686-22.852-1.939-6.629a8.17 8.17 0 0 0-10.135-5.547c-3.917 1.146-6.314 4.969-5.799 8.894l-25.536 7.472c-1.682-3.583-5.757-5.51-9.678-4.365-3.917 1.146-6.313 4.97-5.798 8.894l-25.535 7.471c-1.682-3.583-5.761-5.51-9.679-4.365-3.917 1.146-6.312 4.969-5.798 8.894l-25.535 7.471c-1.683-3.582-5.761-5.51-9.679-4.364-3.917 1.146-6.312 4.969-5.799 8.894l-25.534 7.471c-1.682-3.582-5.759-5.51-9.679-4.365a8.17 8.17 0 0 0-5.547 10.137l1.937 6.617.002.011c.118.403.272.784.444 1.154q.047.104.096.205.261.523.587.996.063.088.127.173c.221.301.456.588.712.853.02.02.035.04.053.059.27.272.562.52.865.751q.093.073.191.143.454.328.947.59.088.045.178.087.474.237.975.412c.044.015.086.035.131.049.357.117.724.204 1.097.271q.123.022.248.04c.374.056.749.09 1.133.093q.029.002.056.004c.054 0 .111-.011.166-.012q.403-.007.808-.058.151-.017.303-.04c.328-.052.657-.119.984-.214q.018-.003.036-.008l.015-.005 40.982-11.991.015-.003.022-.008 115.172-33.698 2.097 7.168-156.206 45.705a8.17 8.17 0 0 0-5.547 10.135 8.17 8.17 0 0 0 7.838 5.878c.758 0 1.532-.107 2.297-.331l140.11-40.995a120 120 0 0 1 9.934 15.074l-57.528 16.833a8.17 8.17 0 0 0-5.876 7.841c0 9.153-7.446 16.599-16.599 16.599-.22 0-.437-.022-.655-.036l-.394-.026a8.1 8.1 0 0 0-6.203 2.287 8.16 8.16 0 0 0-2.479 6.128l.011.304c.008.245.019.489.019.736 0 17.325-14.094 31.42-31.42 31.42a32 32 0 0 1-5.35-.464 8.173 8.173 0 0 0-9.465 9.209 57 57 0 0 1 .582 8.05c0 31.137-25.332 56.468-56.468 56.468s-56.469-25.332-56.469-56.468c-.002-17.167 7.687-33.204 21.09-43.997m105.228 64.497a37.85 37.85 0 0 0 20.204 5.841c2.067 0 4.156-.169 6.244-.515a8.171 8.171 0 0 0-2.672-16.121 21.57 21.57 0 0 1-20.853-8.396c.008-.436.033-.869.033-1.308l-.002-.5c23.23-1.013 42.207-18.697 45.235-41.355 13.159-2.523 23.563-12.904 26.12-26.052l41.314-12.089c4.926 12.385 7.428 25.479 7.428 39.023v5.714h-27.278a8.168 8.168 0 0 0-7.375 11.685l4.137 8.678a8.167 8.167 0 0 0 10.89 3.859 8.17 8.17 0 0 0 4.641-7.882h14.984v46.857h-7.896a8.17 8.17 0 0 0-8.17 8.17 8.17 8.17 0 0 0 8.17 8.17h7.896v9.677c0 13.316-10.833 24.15-24.121 24.15l-50.549-.179h-.028a8.17 8.17 0 0 0-7.61 5.2s-15.19 38.921-23.267 59.625a160.4 160.4 0 0 0-83.039-36.893l13.784-35.321c24.837-6.368 44.579-25.545 51.78-50.038M484.766 256c0 126.142-102.624 228.766-228.766 228.766-58.152 0-113.576-21.842-156.061-61.501-42.273-39.46-67.872-92.847-72.08-150.329a8.17 8.17 0 0 1 7.551-8.745 8.165 8.165 0 0 1 8.745 7.551C52.232 382.033 145.285 468.426 256 468.426c117.131 0 212.426-95.294 212.426-212.426S373.131 43.574 256 43.574c-42.538 0-83.586 12.532-118.702 36.243a8.172 8.172 0 0 1-9.145-13.543C165.982 40.735 210.19 27.234 256 27.234c126.142 0 228.766 102.624 228.766 228.766M27.859 239.063c4.266-58.274 30.437-112.184 73.691-151.799a8.17 8.17 0 1 1 11.036 12.05c-40.167 36.789-64.47 86.843-68.43 140.943a8.171 8.171 0 0 1-16.297-1.194"/></svg>