<svg xmlns="http://www.w3.org/2000/svg" xml:space="preserve" width="800" height="800" viewBox="0 0 512 512"><ellipse cx="256" cy="256" rx="247.566" ry="247.838" style="fill:#f70"/><path d="M256 476.604c-121.508 0-220.361-98.962-220.361-220.604S134.492 35.396 256 35.396 476.361 134.358 476.361 256 377.508 476.604 256 476.604" style="fill:#eb550c"/><path d="m281.22 325.346-50.431-.001c-38.268 6.357-71.732 26.944-94.791 56.144l50.741-8.323 56.111 8.323h29.391l47.088-9.299 56.675 9.299c-23.059-29.199-56.52-49.785-94.784-56.143M297.86 175.635h-83.72c-17.737 0-34.058-10.043-42.241-25.496h-7.978c-4.508 0-8.162-3.654-8.162-8.162s3.653-8.162 8.162-8.162h13.221a8.16 8.16 0 0 1 7.626 5.253c4.618 12.108 16.423 20.244 29.372 20.244h83.72c12.949 0 24.753-8.135 29.372-20.244a8.16 8.16 0 0 1 7.626-5.253h13.221c4.508 0 8.162 3.654 8.162 8.162s-3.653 8.162-8.162 8.162h-7.978c-8.184 15.453-24.504 25.496-42.241 25.496" style="fill:#f70"/><path d="M269.468 188.094h-26.937l-17.001 28.687L256 227.663l30.47-10.882z" style="fill:#ff9233"/><path d="M291.137 141.976h-70.274a37 37 0 0 0-1.866 11.615c0 20.459 16.567 37.045 37.003 37.045s37.003-16.585 37.003-37.045c0-4.059-.661-7.96-1.866-11.615" style="fill:#ffad66"/><path d="M174.082 246.072c-16.231-1.139-41.637-17.702-41.637-34.239H90.157c3.045 37.591 25.321 63.036 59.183 69.29 3.793 3.514 8.816 5.743 14.368 5.893 11.835-.317 21.333-10.013 21.333-21.937 0-2.044-.309-4.083-.832-5.961a25 25 0 0 0-.712-2.107l-5.01-6.528c-2.663-3.491-4.405-4.411-4.405-4.411M339.52 246.072c16.231-1.139 41.636-17.702 41.636-34.239h42.29c-3.045 37.591-25.322 63.036-59.183 69.29-3.795 3.514-8.817 5.743-14.368 5.893-11.835-.317-21.333-10.013-21.333-21.937 0-2.044.309-4.083.831-5.961.196-.676.457-1.459.713-2.107l5.009-6.528c2.661-3.491 4.405-4.411 4.405-4.411" style="fill:#ff9233"/><ellipse cx="255.51" cy="128.909" rx="13.603" ry="13.618" style="fill:#ffad66"/><path d="M210.197 217.118v61.103c0 7.128.947 13.472 2.567 19.098h86.47c1.62-5.626 2.567-11.97 2.567-19.098v-61.103z" style="fill:#ffad66"/><path d="M299.223 297.319c-9.652 33.506-43.223 41.82-43.223 41.82s-33.571-8.314-43.234-41.82c.012 0 43.234-39.241 43.234-39.241z" style="fill:#ff9233"/><path d="M436.83 74.984C388.529 26.629 324.309 0 256 0S123.471 26.629 75.17 74.984C26.871 123.336.272 187.622.272 256S26.871 388.664 75.17 437.016C123.471 485.371 187.69 512 256 512s132.529-26.629 180.83-74.984c48.299-48.352 74.898-112.638 74.898-181.016S485.129 123.336 436.83 74.984M256 495.677C123.991 495.677 16.595 388.158 16.595 256S123.991 16.323 256 16.323 495.405 123.842 495.405 256 388.009 495.677 256 495.677m0-468.443C129.993 27.234 27.477 129.859 27.477 256S129.993 484.766 256 484.766 484.523 382.141 484.523 256 382.008 27.234 256 27.234m0 441.208C138.993 468.442 43.8 373.14 43.8 256S138.993 43.558 256 43.558 468.2 138.859 468.2 256 373.007 468.442 256 468.442m89.248-46.948a8.16 8.16 0 0 1-3.76 10.913c-26.781 13.057-55.544 19.677-85.488 19.677-29.948 0-58.712-6.621-85.495-19.68a8.161 8.161 0 1 1 7.154-14.672c24.536 11.963 50.894 18.028 78.341 18.028 27.445 0 53.8-6.065 78.335-18.026a8.16 8.16 0 0 1 10.913 3.76M313.64 76.951a8.16 8.16 0 0 1 10.497-4.799c48.867 18.206 89.179 55.985 110.602 103.651a8.16 8.16 0 0 1-7.44 11.509 8.16 8.16 0 0 1-7.449-4.819c-19.645-43.711-56.608-78.355-101.411-95.046a8.16 8.16 0 0 1-4.799-10.496m-99.293-4.393a8.16 8.16 0 0 1 6.569-9.489c22.668-4.121 46.463-4.182 69.149-.183a8.16 8.16 0 0 1 6.62 9.454 8.155 8.155 0 0 1-9.454 6.621c-20.788-3.665-42.617-3.608-63.393.166q-.742.135-1.47.134a8.16 8.16 0 0 1-8.021-6.703M77.261 175.805c21.421-47.666 61.732-85.445 110.595-103.65 4.22-1.577 8.922.573 10.497 4.798a8.16 8.16 0 0 1-4.799 10.497c-44.8 16.692-81.761 51.335-101.405 95.045a8.16 8.16 0 0 1-7.449 4.819 8.162 8.162 0 0 1-7.439-11.509m306.681 207.548q.037-.169.069-.338a7 7 0 0 0 .107-.753q.026-.258.036-.514.002-.134.001-.267.002-.258-.014-.514c-.007-.099-.019-.198-.027-.297a8 8 0 0 0-.058-.469q-.031-.174-.067-.347-.04-.204-.09-.406a8 8 0 0 0-.113-.386c-.038-.121-.075-.242-.119-.36a8 8 0 0 0-.153-.383q-.075-.18-.158-.355a9 9 0 0 0-.176-.341 8 8 0 0 0-.217-.383 7 7 0 0 0-.18-.276 8 8 0 0 0-.296-.417c-.028-.038-.052-.078-.082-.115a162.3 162.3 0 0 0-25.917-26.106v-36.518a8.16 8.16 0 0 0-8.162-8.162 8.16 8.16 0 0 0-8.162 8.162v25.036a160 160 0 0 0-43.296-18.49c4.145-5.646 7.808-12.513 10.196-20.791.034-.122.072-.244.101-.367 1.749-6.186 2.792-13.145 2.792-20.967v-61.106a8.16 8.16 0 0 0-8.162-8.162H291.32l-10.461-17.652a45.5 45.5 0 0 0 14.587-15.737q1.205.063 2.413.065c17.737 0 34.058-10.043 42.241-25.496h7.978c4.508 0 8.162-3.654 8.162-8.162s-3.653-8.162-8.162-8.162h-13.221a8.16 8.16 0 0 0-7.626 5.253c-4.265 11.18-14.66 18.958-26.422 20.086.225-1.825.355-3.679.355-5.564 0-1.382-.07-2.759-.196-4.129a8.161 8.161 0 0 0-3.247-15.649h-20.682c.453-1.747.719-3.569.719-5.456 0-9.12-5.637-16.937-13.603-20.176V96.683a8.16 8.16 0 0 0-8.162-8.162 8.16 8.16 0 0 0-8.162 8.162v11.502c-7.966 3.24-13.603 11.056-13.603 20.176 0 1.887.267 3.709.719 5.456h-20.678a8.162 8.162 0 0 0-3.247 15.649 45 45 0 0 0-.196 4.129c0 1.885.13 3.739.355 5.564-11.762-1.128-22.157-8.906-26.422-20.086a8.16 8.16 0 0 0-7.626-5.253h-13.221c-4.508 0-8.162 3.654-8.162 8.162s3.653 8.162 8.162 8.162h7.978c8.184 15.452 24.505 25.496 42.241 25.496q1.207-.002 2.413-.065a45.5 45.5 0 0 0 14.587 15.737l-10.461 17.652h-10.478a8.16 8.16 0 0 0-8.162 8.162v61.106c0 7.826 1.045 14.791 2.796 20.979.024.102.057.204.084.305 2.389 8.3 6.057 15.185 10.211 20.841a160 160 0 0 0-43.296 18.49v-25.036a8.16 8.16 0 0 0-8.162-8.162 8.16 8.16 0 0 0-8.162 8.162v36.518a162.3 162.3 0 0 0-25.917 26.106q-.044.06-.086.121a8.4 8.4 0 0 0-.868 1.416q-.08.17-.153.346-.085.195-.158.392c-.042.115-.077.233-.114.351q-.063.197-.116.395a8 8 0 0 0-.087.394q-.04.18-.07.361-.033.226-.056.456-.018.154-.028.31a7 7 0 0 0-.014.5q-.001.141.002.282c.004.165.018.332.034.498l.03.3a11 11 0 0 0 .149.81q.046.193.103.385.06.212.132.42c.021.055.033.112.053.168.022.055.048.108.07.163a9 9 0 0 0 .342.749q.099.191.21.378a7 7 0 0 0 .424.649q.13.18.269.354a9 9 0 0 0 .555.616q.104.104.212.205.194.181.398.349c.038.032.072.066.112.097.023.018.049.029.072.048.329.252.673.482 1.034.682.062.034.124.063.186.096.358.186.726.354 1.109.485q.052.016.102.03.54.177 1.107.277.09.018.181.035c.385.061.778.09 1.172.096.03 0 .062.008.091.008.053 0 .106-.008.159-.009a8 8 0 0 0 .877-.064 8 8 0 0 0 .534-.089q.172-.033.343-.071c.151-.037.3-.083.452-.128.136-.041.272-.079.406-.128q.038-.012.077-.024c15.677-5.831 32.175-8.787 49.038-8.787 16.861 0 33.359 2.957 49.037 8.787a8.1 8.1 0 0 0 2.843.515 8.164 8.164 0 0 0 2.846-15.813c-17.503-6.511-35.915-9.811-54.726-9.811-8.734 0-17.382.721-25.894 2.135a144 144 0 0 1 6.205-5.034q.409-.275.781-.595a143.8 143.8 0 0 1 59.55-26.488c12.53 9.715 24.988 12.88 25.518 13.012a8.2 8.2 0 0 0 3.922 0c.53-.132 12.99-3.296 25.518-13.012a143.8 143.8 0 0 1 59.548 26.487c.249.213.51.415.785.597a144 144 0 0 1 6.204 5.033 158 158 0 0 0-25.894-2.135c-18.811 0-37.223 3.301-54.726 9.811a8.16 8.16 0 0 0-4.804 10.495 8.16 8.16 0 0 0 10.495 4.804c15.677-5.831 32.175-8.787 49.037-8.787s33.36 2.957 49.038 8.787c.028.011.057.017.085.027q.159.055.319.103a9 9 0 0 0 .792.208q.307.063.614.102.098.015.197.026c.281.028.559.048.838.048.432 0 .861-.038 1.282-.106.141-.023.28-.067.42-.097.276-.06.552-.119.819-.206.165-.054.325-.128.489-.193.243-.096.482-.194.714-.313.151-.078.296-.169.444-.257q.36-.213.699-.46c.063-.047.131-.078.193-.127.123-.097.235-.205.35-.307.071-.063.146-.122.214-.187q.383-.366.71-.77.085-.107.163-.215.302-.394.548-.817c.024-.041.053-.081.076-.123.186-.333.341-.679.478-1.031.014-.038.036-.07.05-.109.022-.058.035-.116.055-.175q.069-.2.126-.403c.047-.142.084-.276.115-.41m-165.58-105.126v-52.944h75.275v52.944c0 .998-.03 1.97-.073 2.932l-32.079-29.123a8.16 8.16 0 0 0-10.971 0l-32.082 29.127c-.041-.97-.07-1.945-.07-2.936m8.796-124.636c0-1.159.091-2.309.23-3.454h57.224c.137 1.145.23 2.295.23 3.454 0 15.926-12.939 28.883-28.842 28.883s-28.842-12.957-28.842-28.883m23.399-25.232c0-3.009 2.441-5.456 5.441-5.456s5.441 2.447 5.441 5.456-2.441 5.456-5.441 5.456-5.441-2.448-5.441-5.456m-4.253 69.379c3.126.687 6.368 1.06 9.696 1.06s6.569-.373 9.695-1.06l6.651 11.222h-32.693zm9.724 132.873c-3.37-1.146-10.656-4.057-17.875-9.749a58 58 0 0 1-1.982-1.652q-.04-.034-.081-.067c-6.292-5.46-10.93-11.93-13.877-19.369L256 269.101l33.751 30.639c-3.242 8.166-8.142 14.352-13.294 18.977a8.3 8.3 0 0 0-1.106.958c-7.68 6.536-15.67 9.723-19.323 10.936M439.46 211.833a8.16 8.16 0 0 1-8.162 8.162h-2.69c-2.892 29.06-21.084 54.104-47.765 65.799l22.881 55.518a8.16 8.16 0 0 1-4.437 10.656 8.1 8.1 0 0 1-3.106.618 8.165 8.165 0 0 1-7.55-5.054l-26.088-63.298a8.164 8.164 0 0 1 5.095-10.895c24.325-7.659 41.441-28.54 44.548-53.345h-25.32c-3.756 17.818-19.56 31.242-38.447 31.302-7.465.246-13.3 6.283-13.3 13.783 0 7.526 5.882 13.578 13.391 13.778a8.163 8.163 0 0 1-.435 16.318c-16.418-.437-29.278-13.657-29.278-30.095 0-5.479 1.434-10.596 3.947-15.007l23.261-48.6h-8.612c-4.508 0-8.162-3.654-8.162-8.162s3.653-8.162 8.162-8.162h21.566a8.163 8.163 0 0 1 7.362 11.685l-18.256 38.143h.011l.218-.002c12.736 0 23.099-10.381 23.099-23.141a8.16 8.16 0 0 1 8.162-8.162H431.3a8.16 8.16 0 0 1 8.16 8.161M129.022 320.544a8.1 8.1 0 0 1-3.106-.618 8.16 8.16 0 0 1-4.437-10.656l9.676-23.476c-26.681-11.695-44.871-36.739-47.765-65.799H80.7c-4.508 0-8.162-3.654-8.162-8.162s3.653-8.162 8.162-8.162h51.744a8.16 8.16 0 0 1 8.162 8.162c0 12.76 10.362 23.141 23.099 23.141l.218.002h.012l-18.258-38.142a8.164 8.164 0 0 1 7.362-11.685h42.437c4.508 0 8.162 3.654 8.162 8.162s-3.653 8.162-8.162 8.162h-29.483l23.261 48.6c2.513 4.41 3.947 9.527 3.947 15.007 0 16.437-12.86 29.657-29.278 30.095l-.222.003a8.16 8.16 0 0 1-8.154-7.945 8.16 8.16 0 0 1 7.941-8.376c7.509-.2 13.391-6.252 13.391-13.778 0-7.5-5.834-13.536-13.3-13.783-18.887-.06-34.691-13.485-38.447-31.302h-25.32c3.106 24.803 20.222 45.685 44.548 53.345a8.164 8.164 0 0 1 5.095 10.895l-12.882 31.255a8.17 8.17 0 0 1-7.551 5.055"/></svg>