<svg xmlns="http://www.w3.org/2000/svg" xml:space="preserve" viewBox="0 0 512 512"><circle cx="256" cy="256" r="247.83" style="fill:#8c8484"/><circle cx="256" cy="256" r="220.596" style="fill:#a8a2a2"/><path d="M256 289.495c-7.617 0-21.504 16.147-24.857 37.611l-.01 18.92c3.335 21.497 17.243 37.678 24.868 37.678 7.616 0 21.504-16.147 24.857-37.611l.01-18.919c-3.335-21.498-17.244-37.679-24.868-37.679M236.49 106.398h39.027v152.206H236.49z" style="fill:#ebeaea"/><path d="M437.019 74.981C388.668 26.628 324.38 0 256 0S123.332 26.628 74.981 74.981C26.628 123.332 0 187.62 0 256s26.628 132.668 74.981 181.019C123.332 485.372 187.62 512 256 512s132.668-26.628 181.019-74.981C485.372 388.668 512 324.38 512 256s-26.628-132.668-74.981-181.019M256 495.66C123.851 495.66 16.34 388.15 16.34 256S123.851 16.34 256 16.34 495.66 123.851 495.66 256 388.149 495.66 256 495.66m0-468.426C129.858 27.234 27.234 129.858 27.234 256S129.858 484.766 256 484.766 484.766 382.142 484.766 256 382.142 27.234 256 27.234m0 441.192c-117.131 0-212.426-95.294-212.426-212.426S138.869 43.574 256 43.574 468.426 138.869 468.426 256 373.131 468.426 256 468.426m-19.686-370.19a8 8 0 0 0-1.269.125 7.816 7.816 0 0 0-.756.174 7 7 0 0 0-.407.124q-.172.06-.343.125-.195.074-.386.159-.18.081-.354.171c-.113.058-.224.114-.333.176a8 8 0 0 0-.376.229q-.14.089-.277.182-.194.136-.38.284-.121.093-.239.194a8.3 8.3 0 0 0-1.617 1.871c-.034.054-.073.103-.107.159l-20.395 34.168a8.17 8.17 0 0 0 7.008 12.359 8.17 8.17 0 0 0 7.023-3.984l5.209-8.727v122.576a8.17 8.17 0 0 0 8.17 8.17h39.027a8.17 8.17 0 0 0 8.17-8.17V106.398a8.17 8.17 0 0 0-8.17-8.17h-39.027c-.056 0-.113.007-.171.008m8.342 16.332h22.687v135.864h-22.687zm86.808 278.873a8.14 8.14 0 0 0 5.89-2.507 8.17 8.17 0 0 0-.225-11.552 117.7 117.7 0 0 0-18.089-14.264v-53.007a8.17 8.17 0 0 0-16.34 0V356.4a116 116 0 0 0-17.895-6.118c.991-4.388 1.555-8.987 1.555-13.685 0-8.507-1.834-16.698-4.763-23.876l13.427-20.292a8.172 8.172 0 0 0-13.628-9.018l-9.11 13.767c-5.144-5.965-10.994-9.582-16.286-9.582s-11.143 3.617-16.286 9.582l-9.11-13.767a8.17 8.17 0 0 0-11.323-2.305 8.17 8.17 0 0 0-2.305 11.323l13.427 20.292c-2.928 7.178-4.763 15.369-4.763 23.876 0 4.696.563 9.296 1.555 13.685a116 116 0 0 0-17.895 6.117V312.11a8.17 8.17 0 0 0-16.34 0v53.006a117.7 117.7 0 0 0-18.088 14.264 8.17 8.17 0 0 0-.225 11.552 8.14 8.14 0 0 0 5.89 2.507 8.14 8.14 0 0 0 5.663-2.281c11.283-10.851 24.725-18.807 39.411-23.439l-8.632 13.045a8.17 8.17 0 0 0 13.626 9.018l9.11-13.767c5.144 5.964 10.995 9.582 16.287 9.582s11.142-3.618 16.286-9.582l9.11 13.767a8.16 8.16 0 0 0 6.82 3.662 8.17 8.17 0 0 0 6.806-12.68l-8.632-13.045c14.686 4.632 28.128 12.588 39.411 23.439a8.14 8.14 0 0 0 5.661 2.283M256 304.159c3.454 1.941 10.885 11.3 13.265 24.271h-26.53c2.379-12.972 9.811-22.331 13.265-24.271m0 64.881c-3.454-1.941-10.886-11.3-13.265-24.271h26.53c-2.38 12.971-9.811 22.33-13.265 24.271M66.183 264.17a8.17 8.17 0 0 1 0-16.34h32.404a8.17 8.17 0 0 1 0 16.34zM453.987 256a8.17 8.17 0 0 1-8.17 8.17h-32.404a8.17 8.17 0 0 1 0-16.34h32.404a8.17 8.17 0 0 1 8.17 8.17M355.893 94.366a8.17 8.17 0 0 1 11.351-2.158c40.163 27.331 68.816 68.178 80.685 115.018a8.17 8.17 0 0 1-5.913 9.926 8.2 8.2 0 0 1-2.013.253 8.17 8.17 0 0 1-7.914-6.166c-10.887-42.964-37.18-80.44-74.037-105.522a8.17 8.17 0 0 1-2.159-11.351M64.071 207.226c20.692-81.663 90.977-141.338 174.895-148.493 4.496-.39 8.451 2.95 8.835 7.446a8.17 8.17 0 0 1-7.446 8.835c-76.983 6.564-141.46 61.309-160.443 136.226a8.174 8.174 0 0 1-7.914 6.166 8.2 8.2 0 0 1-2.013-.253 8.17 8.17 0 0 1-5.914-9.927M264.2 66.179a8.163 8.163 0 0 1 8.835-7.446c22.378 1.907 44.073 7.557 64.483 16.789a8.171 8.171 0 0 1-6.736 14.889c-18.715-8.467-38.611-13.646-59.136-15.397a8.17 8.17 0 0 1-7.446-8.835m183.729 238.595C425.668 392.631 346.743 453.991 256 453.991c-31.496 0-62.851-7.591-90.675-21.952a8.17 8.17 0 0 1 7.494-14.52c25.882 13.358 53.868 20.131 83.18 20.131 83.256 0 155.667-56.292 176.09-136.89a8.17 8.17 0 0 1 9.926-5.913 8.17 8.17 0 0 1 5.914 9.927M147.936 412.287a8.16 8.16 0 0 1-6.517 3.234 8.14 8.14 0 0 1-4.93-1.66c-35.743-27.102-61.462-65.843-72.419-109.087a8.17 8.17 0 0 1 5.913-9.926 8.166 8.166 0 0 1 9.926 5.913c10.052 39.666 33.65 75.208 66.452 100.081a8.166 8.166 0 0 1 1.575 11.445"/></svg>