<svg xmlns="http://www.w3.org/2000/svg" xml:space="preserve" width="800" height="800" viewBox="0 0 512 512"><circle cx="256" cy="256" r="247.83" style="fill:#bcb6b8"/><circle cx="256" cy="256" r="220.596" style="fill:#ebeaea"/><path d="M256 417.77c66.966 0 124.427-40.691 149.011-98.695H106.989C131.573 377.079 189.034 417.77 256 417.77" style="fill:#d2cfce"/><path d="M332.825 211.858c-22.484-17.556-31.461-37.467-31.461-37.467l-29.509 115.546s67.296-10.962 104.945-56.64c0 .001-21.492-3.882-43.975-21.439" style="fill:#a8a2a2"/><path d="m257.104 289.938 24.959 29.137h72.949l24.96-29.137z" style="fill:#8c8484"/><path d="M181.163 168.851a183.2 183.2 0 0 0-49.135 6.722l9.993 60.477h78.285l9.993-60.477a183.2 183.2 0 0 0-49.136-6.722" style="fill:#bcb6b8"/><path d="M220.306 236.051h-78.285l-2.182 132.371h82.648z" style="fill:#a8a2a2"/><path d="M437.019 74.981C388.668 26.628 324.38 0 256 0S123.332 26.628 74.981 74.981C26.628 123.332 0 187.62 0 256s26.628 132.668 74.981 181.019C123.332 485.372 187.62 512 256 512s132.668-26.628 181.019-74.981C485.372 388.668 512 324.38 512 256s-26.628-132.668-74.981-181.019M256 495.66C123.851 495.66 16.34 388.15 16.34 256S123.851 16.34 256 16.34 495.66 123.851 495.66 256 388.149 495.66 256 495.66m-.898-432.245a8.17 8.17 0 0 1 0 11.554l-12.193 12.193-1.935 9.992a8.17 8.17 0 0 1-6.469 6.468l-9.992 1.935-12.193 12.193a8.15 8.15 0 0 1-5.777 2.393 8.14 8.14 0 0 1-5.777-2.393 8.17 8.17 0 0 1 0-11.554l13.961-13.961a8.17 8.17 0 0 1 4.223-2.244l7.029-1.362 1.362-7.029a8.17 8.17 0 0 1 2.244-4.223l13.961-13.961a8.17 8.17 0 0 1 11.556-.001m-19.616 72.596 21.385-21.385a8.17 8.17 0 0 1 4.223-2.244l13.648-2.643 2.643-13.648a8.17 8.17 0 0 1 2.244-4.223l21.385-21.385a8.17 8.17 0 0 1 11.554 0 8.17 8.17 0 0 1 0 11.554l-19.616 19.617-3.217 16.612a8.175 8.175 0 0 1-6.468 6.468l-16.612 3.217-19.617 19.616c-1.595 1.595-3.686 2.393-5.777 2.393s-4.182-.797-5.777-2.393a8.173 8.173 0 0 1 .002-11.556m119.043 258.461a171 171 0 0 1-16.059 10.158l18.35 1.685a8.171 8.171 0 0 1-1.495 16.272l-48.255-4.432a168 168 0 0 1-18.556 4.689l16.922 7.269a8.171 8.171 0 0 1-6.45 15.014L256 426.663l-42.986 18.466a8.1 8.1 0 0 1-3.221.666 8.173 8.173 0 0 1-3.229-15.68l16.922-7.269a168 168 0 0 1-18.556-4.689l-48.255 4.432a8.17 8.17 0 1 1-1.495-16.272l18.35-1.685a171 171 0 0 1-16.059-10.158l-47.413-10.731a8.17 8.17 0 0 1-6.165-9.773 8.166 8.166 0 0 1 9.773-6.165l18.01 4.076a169 169 0 0 1-12.235-14.67L77.726 332.39a8.17 8.17 0 0 1-2.843-11.199 8.17 8.17 0 0 1 11.199-2.843l15.824 9.415a171 171 0 0 1-7.569-19.237 8.17 8.17 0 0 1 15.54-5.046 154 154 0 0 0 21.101 41.918 8 8 0 0 1 1.381 1.909 153 153 0 0 0 32.268 32.301 8 8 0 0 1 2.051 1.489 153 153 0 0 0 40.894 20.741 8 8 0 0 1 1.827.586 154.3 154.3 0 0 0 46.535 7.177h.124a154.3 154.3 0 0 0 46.549-7.178 8 8 0 0 1 1.827-.586 153.1 153.1 0 0 0 40.888-20.74 8.1 8.1 0 0 1 2.051-1.489 153 153 0 0 0 32.268-32.301 8 8 0 0 1 1.381-1.909 154 154 0 0 0 21.101-41.918 8.167 8.167 0 0 1 10.293-5.247 8.167 8.167 0 0 1 5.247 10.293 171 171 0 0 1-7.569 19.237l15.824-9.415a8.17 8.17 0 1 1 8.356 14.042l-41.715 24.821a169 169 0 0 1-12.235 14.67l18.01-4.076a8.17 8.17 0 0 1 3.608 15.938zM129.84 167.702a8.17 8.17 0 0 0-5.873 9.204l9.873 59.746-1.289 77.437a8.17 8.17 0 0 0 8.034 8.305l.138.001a8.17 8.17 0 0 0 8.167-8.034l1.167-70.141h3.231a8.17 8.17 0 0 0 0-16.34h-4.336l-7.642-46.249a175.25 175.25 0 0 1 79.706 0l-7.642 46.249h-27.406a8.17 8.17 0 0 0 0 16.34h26.3l1.912 116.032h-21.813a8.17 8.17 0 0 0 0 16.34H256a8.17 8.17 0 0 0 0-16.34h-25.476l-.545-33.008h62.977a8.17 8.17 0 0 0 0-16.34h-7.134l-10.962-12.797h87.355l-10.962 12.797h-25.615a8.17 8.17 0 0 0 0 16.34h43.073a8.165 8.165 0 0 0 3.413-15.586l14.053-16.406a8.172 8.172 0 0 0-6.204-13.486h-55.8c19.995-9.106 42.116-22.869 58.933-43.274a8.172 8.172 0 0 0-4.852-13.237c-.195-.036-19.746-3.71-40.4-19.838-20.455-15.972-28.967-34.224-29.041-34.385a8.17 8.17 0 0 0-15.364 1.337L265.51 281.767h-8.407a8.17 8.17 0 0 0-6.204 13.486l13.408 15.652h-34.595l-1.223-74.25 9.873-59.749a8.17 8.17 0 0 0-5.873-9.204c-33.519-9.316-69.131-9.318-102.649 0m174.744 27.1a128.8 128.8 0 0 0 23.213 23.496c12.718 9.932 25.148 15.778 34.113 19.097-25.551 24.796-60.437 36.73-78.832 41.619zM484.766 256c0 54.829-19.699 107.864-55.469 149.336a8.17 8.17 0 1 1-12.374-10.672c33.211-38.507 51.503-87.751 51.503-138.664 0-117.131-95.294-212.426-212.426-212.426S43.574 138.869 43.574 256 138.869 468.426 256 468.426c50.912 0 100.157-18.291 138.665-51.503a8.17 8.17 0 0 1 11.523.851 8.17 8.17 0 0 1-.851 11.523c-41.473 35.77-94.509 55.469-149.337 55.469-126.142 0-228.766-102.624-228.766-228.766S129.858 27.234 256 27.234 484.766 129.858 484.766 256"/></svg>