<svg xmlns="http://www.w3.org/2000/svg" xml:space="preserve" width="800" height="800" viewBox="0 0 512 512"><circle cx="256" cy="256" r="247.83" style="fill:#bcb6b8"/><circle cx="256" cy="256" r="220.596" style="fill:#ebeaea"/><path d="m339.602 300.629-7.075 4.085-24.206 13.975-7.075 4.085c5.609 9.715 13.749 23.994 24.234 23.994 5.14 0 8.797-.076 13.558-2.826 7.013-4.048 8.229-5.651 10.325-13.472s-5.712-22.829-9.761-29.841" style="fill:#8c8484"/><path d="M75.531 226.128v46.745c4.205 2.905 9.059 5.673 14.661 8.223 18.795 8.556 43.218 13.268 68.771 13.268 25.554 0 49.977-4.713 68.772-13.268 5.434-2.474 10.166-5.152 14.283-7.963v-47.004z" style="fill:#a8a2a2"/><ellipse cx="158.96" cy="226.13" rx="83.434" ry="37.984" style="fill:#d2cfce"/><path d="M437.019 74.981C388.668 26.628 324.38 0 256 0S123.332 26.628 74.981 74.981C26.628 123.332 0 187.62 0 256s26.628 132.668 74.981 181.019C123.332 485.372 187.62 512 256 512s132.668-26.628 181.019-74.981C485.372 388.668 512 324.38 512 256s-26.628-132.668-74.981-181.019M256 495.66C123.851 495.66 16.34 388.15 16.34 256S123.851 16.34 256 16.34 495.66 123.851 495.66 256 388.149 495.66 256 495.66m82.237-371.496c16.237-1.965 33.074 3.562 44.836 15.841a8.17 8.17 0 1 1-11.801 11.301c-8.682-9.065-21.366-12.802-33.279-10.601 38.682 32.178 64.126 78.933 71.124 131.088h33.044a8.17 8.17 0 0 1 0 16.34h-75.096a8.17 8.17 0 0 1 0-16.34h25.556c-7.035-48.432-31.279-91.602-67.81-120.771-3.84 12.936-.325 27.437 9.703 37.04a8.17 8.17 0 0 1-5.652 14.072 8.15 8.15 0 0 1-5.651-2.269c-12.283-11.763-17.809-28.603-15.841-44.842-7.5 6.975-12.039 16.972-11.809 27.644a8.17 8.17 0 0 1-7.992 8.345l-.18.002a8.17 8.17 0 0 1-8.165-7.994c-.367-17.003 7.633-32.818 20.507-42.91-10.236-.371-20.515 3.489-27.897 11.198a8.15 8.15 0 0 1-5.901 2.52 8.17 8.17 0 0 1-5.9-13.821c14.711-15.362 37.363-20.152 56.851-12.931 8.673-18.89 28.084-31.536 49.342-31.056a8.17 8.17 0 0 1 7.992 8.345c-.097 4.511-3.826 8.112-8.345 7.992-10.67-.213-20.662 4.318-27.636 11.807M484.766 256c0 126.142-102.624 228.766-228.766 228.766-54.829 0-107.864-19.699-149.337-55.469a8.17 8.17 0 1 1 10.672-12.374c38.508 33.211 87.752 51.503 138.665 51.503 117.131 0 212.426-95.294 212.426-212.426S373.131 43.574 256 43.574 43.574 138.869 43.574 256c0 50.912 18.291 100.157 51.503 138.665a8.17 8.17 0 0 1-.851 11.523 8.17 8.17 0 0 1-11.523-.851C46.933 363.864 27.234 310.829 27.234 256 27.234 129.858 129.858 27.234 256 27.234S484.766 129.858 484.766 256m-41.116 56.647a8.17 8.17 0 0 1-8.17 8.17h-35.734a8.17 8.17 0 0 1 0-16.34h35.734a8.17 8.17 0 0 1 8.17 8.17m-326.577 5.246v-19.647a190 190 0 0 0 17.033 2.82v22.788a8.17 8.17 0 0 0 16.34 0v-21.503c2.824.112 5.663.181 8.517.181s5.693-.069 8.517-.181v21.503a8.17 8.17 0 0 0 16.34 0v-22.788a190 190 0 0 0 17.033-2.82v19.647a8.17 8.17 0 0 0 16.34 0v-24.004c4.885-1.587 9.554-3.367 13.926-5.359 1.057-.48 2.082-.986 3.108-1.49v16.398a8.17 8.17 0 0 0 16.34 0v-77.312c0-26.311-39.382-46.154-91.604-46.154S67.36 199.814 67.36 226.126v77.312a8.17 8.17 0 0 0 16.34 0v-16.4c1.026.504 2.05 1.011 3.107 1.492 4.373 1.991 9.041 3.771 13.926 5.357v24.004a8.17 8.17 0 0 0 8.17 8.17 8.167 8.167 0 0 0 8.17-8.168m41.89-121.579c43.077 0 75.264 15.74 75.264 29.814s-32.187 29.814-75.264 29.814-75.264-15.74-75.264-29.814 32.187-29.814 75.264-29.814M83.699 268.43v-15.326c16.267 11.763 43.358 19.177 75.264 19.177s58.998-7.415 75.264-19.177v15.334a92 92 0 0 1-9.877 5.221c-5.44 2.477-11.398 4.608-17.742 6.379l-.02.005c-14.355 4.006-30.703 6.149-47.625 6.149s-33.271-2.144-47.626-6.149l-.017-.005c-6.344-1.771-12.303-3.903-17.745-6.38a92 92 0 0 1-9.876-5.228m217.709-6.006 6.128 10.613a8.17 8.17 0 0 1-7.067 12.256 8.17 8.17 0 0 1-7.083-4.086l-6.128-10.613a8.17 8.17 0 0 1 2.99-11.161 8.17 8.17 0 0 1 11.16 2.991M196.265 378.008a8.17 8.17 0 0 0 8.17 8.17h45.108l-62.993 36.369a8.17 8.17 0 0 0 4.093 15.246 8.1 8.1 0 0 0 4.077-1.096l87.504-50.52h114.668a8.17 8.17 0 0 0 0-16.34h-86.367l32.59-18.817.008-.003c7.013-4.048 12.029-10.585 14.125-18.407s1.021-15.992-3.028-23.004l-7.542-13.063-21.125-36.587a8.17 8.17 0 0 0-11.161-2.99 8.17 8.17 0 0 0-2.99 11.16l17.04 29.512-24.206 13.975-17.039-29.512a8.17 8.17 0 1 0-14.15 8.171l21.124 36.587 7.542 13.063a30.2 30.2 0 0 0 9.935 10.401l-33.802 19.514h-73.411a8.17 8.17 0 0 0-8.17 8.171m128.084-39.745a13.88 13.88 0 0 1-8.486-6.512l-3.457-5.987 24.207-13.974 3.457 5.987a13.9 13.9 0 0 1 1.397 10.605 13.89 13.89 0 0 1-6.509 8.485h-.001l-.005.003a13.9 13.9 0 0 1-10.603 1.393M215.824 137.486a8.17 8.17 0 0 1 0 16.34h-61.146a8.17 8.17 0 0 1 0-16.34zm17.43-16.34h-96.005a8.17 8.17 0 0 1 0-16.34h96.005a8.17 8.17 0 0 1 0 16.34"/></svg>