<svg xmlns="http://www.w3.org/2000/svg" xml:space="preserve" width="800" height="800" viewBox="0 0 512 512"><circle cx="256" cy="256" r="247.83" style="fill:#8c8484"/><circle cx="256" cy="256" r="220.596" style="fill:#bcb6b8"/><path d="M256 69.197C152.832 69.197 69.197 152.831 69.197 256c0 25.898 5.274 50.565 14.8 72.987L256 350.774l172.002-21.787c9.528-22.422 14.801-47.089 14.801-72.987 0-103.168-83.635-186.803-186.803-186.803" style="fill:#8c8484"/><path d="M256 442.803c77.27 0 143.579-46.917 172.002-113.815H83.997C112.421 395.886 178.73 442.803 256 442.803" style="fill:#a8a2a2"/><path d="m135.352 199.367 45.003 45.003h151.29l45.003-45.003z" style="fill:#d2cfce"/><circle cx="256" cy="122.989" r="21.517" style="fill:#bcb6b8"/><path d="m304.484 301.753 10.894 27.234h44.695l10.894-27.234zM256 176.98c-8.727 0-15.8 7.074-15.8 15.8v87.932c0 8.726 7.073 15.8 15.8 15.8s15.8-7.074 15.8-15.8V192.78c0-8.726-7.074-15.8-15.8-15.8M271.8 328.987h-31.6l-19.964 40.536h71.528z" style="fill:#bcb6b8"/><path d="m360.83 369.523-56.349-40.536H271.8l19.964 40.536zM207.519 328.987l-56.349 40.536h69.066l19.964-40.536zM220.236 369.523l-15.842 32.169h103.212l-15.842-32.169z" style="fill:#d2cfce"/><path d="M437.019 74.981C388.667 26.628 324.38 0 256 0S123.333 26.628 74.981 74.981C26.628 123.332 0 187.62 0 256s26.628 132.668 74.981 181.019C123.333 485.372 187.62 512 256 512s132.667-26.628 181.019-74.981C485.372 388.668 512 324.38 512 256s-26.628-132.668-74.981-181.019M256 495.66C123.851 495.66 16.34 388.15 16.34 256S123.851 16.34 256 16.34 495.66 123.851 495.66 256 388.149 495.66 256 495.66M450.973 256c0-107.507-87.464-194.973-194.973-194.973S61.027 148.493 61.027 256 148.491 450.973 256 450.973 450.973 363.508 450.973 256M256 434.632c-98.498 0-178.632-80.135-178.632-178.632S157.502 77.368 256 77.368 434.632 157.502 434.632 256 354.498 434.632 256 434.632m0-281.958c16.37 0 29.688-13.319 29.688-29.687 0-16.37-13.319-29.687-29.688-29.687s-29.688 13.317-29.688 29.687S239.63 152.674 256 152.674m0-43.034c7.36 0 13.348 5.987 13.348 13.347S263.36 136.334 256 136.334s-13.348-5.988-13.348-13.347c0-7.36 5.988-13.347 13.348-13.347m142.792 81.557h-118.88c-.819-12.482-11.228-22.387-23.913-22.387s-23.093 9.907-23.913 22.387h-118.88a8.17 8.17 0 0 0-8.17 8.17 8.17 8.17 0 0 0 8.17 8.17h18.76l6.022 6.021h-11.366c-4.513 0-8.17 3.658-8.17 8.17s3.657 8.17 8.17 8.17h27.707l6.3 6.3h-17.698a8.17 8.17 0 0 0-8.17 8.17 8.17 8.17 0 0 0 8.17 8.17h89.098v28.172c0 13.217 10.753 23.97 23.97 23.97s23.97-10.753 23.97-23.97v-28.172h89.098a8.17 8.17 0 0 0 8.17-8.17 8.17 8.17 0 0 0-8.17-8.17H351.37l6.3-6.3h27.707c4.513 0 8.17-3.658 8.17-8.17s-3.657-8.17-8.17-8.17h-11.366l6.021-6.021h18.761a8.17 8.17 0 0 0 8.17-8.17 8.17 8.17 0 0 0-8.171-8.17M263.63 280.712c0 4.207-3.423 7.63-7.63 7.63s-7.63-3.423-7.63-7.63V244.37a8.17 8.17 0 0 0-8.17-8.17h-56.462l-6.454-6.454a8.17 8.17 0 0 0-1.568-16.186h-14.617l-6.02-6.021h76.953v4.152c0 4.512 3.657 8.17 8.17 8.17s8.17-3.658 8.17-8.17v-18.909c0-4.206 3.423-7.63 7.63-7.63s7.63 3.424 7.63 7.63v87.931h-.002zm87.272-67.152h-14.617a8.17 8.17 0 0 0-1.57 16.186l-6.453 6.454H279.97v-28.662h76.954zm41.332 107.257h-20.092l6.412-16.029a8.17 8.17 0 0 0-.82-7.615 8.17 8.17 0 0 0-6.766-3.589h-25.072v-15.997a8.17 8.17 0 0 0-8.17-8.17 8.17 8.17 0 0 0-8.17 8.17v15.996h-25.072a8.17 8.17 0 0 0-7.586 11.204l6.412 16.029h-121.2v-26.638l1.01.777a8.14 8.14 0 0 0 4.975 1.695 8.15 8.15 0 0 0 6.482-3.19 8.17 8.17 0 0 0-1.494-11.458l-14.162-10.894c-.032-.024-.069-.041-.101-.065a8 8 0 0 0-1.036-.667q-.029-.015-.058-.027a8 8 0 0 0-1.104-.474c-.045-.015-.087-.034-.131-.048a8 8 0 0 0-1.365-.316 8 8 0 0 0-1.189-.096c-.405 0-.8.039-1.19.096q-.11.016-.218.033a8 8 0 0 0-1.146.283q-.066.024-.131.048a8 8 0 0 0-1.105.474l-.057.027a8 8 0 0 0-1.036.667c-.033.024-.069.04-.101.065l-14.162 10.894a8.171 8.171 0 0 0 9.964 12.953l1.01-.777v26.639h-46.003a8.17 8.17 0 0 0-8.17 8.17 8.17 8.17 0 0 0 8.17 8.17h62.404l-35.772 25.734a8.17 8.17 0 0 0 4.771 14.803h55.937l-10.042 20.388a8.17 8.17 0 0 0 7.329 11.78h103.213a8.172 8.172 0 0 0 7.329-11.78l-10.042-20.388h55.937a8.172 8.172 0 0 0 4.771-14.803l-35.771-25.734h30.196l.046.002.028-.002h32.134a8.17 8.17 0 0 0 8.17-8.17 8.164 8.164 0 0 0-8.166-8.17m-75.682-10.894h42.347l-4.357 10.894H320.91zm-49.836 27.234 11.915 24.196h-45.265l11.917-24.196zm-90.198 24.196 33.635-24.196h16.915l-11.915 24.196zm117.957 32.169h-76.951l7.794-15.828h61.362zm2.372-32.169-11.915-24.196h16.916l33.635 24.196zM481.486 256c0 57.274-21.499 111.873-60.537 153.737-38.839 41.652-91.401 66.909-148.003 71.117a8.17 8.17 0 0 1-1.21-16.296C380.191 456.496 465.147 364.885 465.147 256c0-115.323-93.822-209.145-209.145-209.145S46.855 140.677 46.855 256c0 108.886 84.956 200.496 193.411 208.558a8.17 8.17 0 0 1 7.543 8.754c-.336 4.499-4.27 7.873-8.753 7.542-56.602-4.208-109.164-29.464-148.003-71.117C52.013 367.873 30.514 313.274 30.514 256 30.514 131.667 131.667 30.514 256 30.514S481.486 131.667 481.486 256"/></svg>