<svg xmlns="http://www.w3.org/2000/svg" xml:space="preserve" width="800" height="800" viewBox="0 0 512 512"><circle cx="256" cy="256" r="247.83" style="fill:#ffad38"/><circle cx="256" cy="256" r="220.596" style="fill:#ffc066"/><path d="M184.587 209.921c-12.097-2.914-19.543-15.083-16.63-27.182s15.083-19.544 27.181-16.63l59.525 14.335 62.831-25.868 25.173 6.062-15.858 5.584-44.043 41.973zM238.119 298.348c-12.098-2.914-19.544-15.083-16.631-27.182s15.083-19.543 27.182-16.631l58.465 14.08 63.89-25.612 25.172 6.061L381.998 256l-47.64 40.804z" style="fill:#ffad38"/><path d="M437.019 74.981C388.667 26.628 324.38 0 256 0S123.333 26.628 74.981 74.981C26.628 123.332 0 187.62 0 256s26.628 132.668 74.981 181.019C123.333 485.372 187.62 512 256 512s132.667-26.628 181.019-74.981C485.372 388.668 512 324.38 512 256s-26.628-132.668-74.981-181.019M256 495.66C123.851 495.66 16.34 388.15 16.34 256S123.851 16.34 256 16.34 495.66 123.851 495.66 256 388.149 495.66 256 495.66m0-468.426C129.858 27.234 27.234 129.858 27.234 256S129.858 484.766 256 484.766 484.766 382.142 484.766 256 382.142 27.234 256 27.234m0 441.192c-117.131 0-212.426-95.294-212.426-212.426S138.869 43.574 256 43.574 468.426 138.869 468.426 256 373.131 468.426 256 468.426m-62.638-83.337v45.753c0 4.512-3.657 8.17-8.17 8.17s-8.17-3.658-8.17-8.17v-45.753c0-4.512 3.657-8.17 8.17-8.17s8.17 3.658 8.17 8.17m39.761-8.17c-17.119 0-31.047 13.927-31.047 31.047s13.928 31.047 31.047 31.047 31.047-13.927 31.047-31.047-13.927-31.047-31.047-31.047m0 45.753c-8.109 0-14.706-6.597-14.706-14.706s6.597-14.706 14.706-14.706 14.706 6.597 14.706 14.706c.001 8.109-6.596 14.706-14.706 14.706m70.809-45.753c-17.119 0-31.047 13.927-31.047 31.047s13.927 31.047 31.047 31.047c17.119 0 31.047-13.927 31.047-31.047s-13.928-31.047-31.047-31.047m0 45.753c-8.109 0-14.706-6.597-14.706-14.706s6.597-14.706 14.706-14.706 14.706 6.597 14.706 14.706-6.597 14.706-14.706 14.706M184.593 218.093l.024-.002h105.634l-7.165 13.445a8.17 8.17 0 0 0 3.368 11.053 8.17 8.17 0 0 0 11.053-3.368l13.566-25.457a8.17 8.17 0 0 0-7.211-12.012h-1.549l37.555-33.382.886.212c4.385 1.058 8.799-1.644 9.857-6.031a8.17 8.17 0 0 0-6.031-9.855l-18.97-4.568c-1.271-8.836-7.151-18.829-21.36-22.251-4.389-1.059-8.799 1.644-9.857 6.031a8.17 8.17 0 0 0 6.031 9.855c5.911 1.424 8.103 4.571 8.817 7.376l-55.239 22.742-56.95-13.715c-16.455-3.966-33.073 6.202-37.038 22.662-1.762 7.321-.723 14.668 2.414 20.923h-21.074a8.17 8.17 0 0 0-7.183 4.278l-25.552 47.152a8.17 8.17 0 0 0 14.367 7.785l23.234-42.874h38.339q.017 0 .034.001m-8.694-33.44c1.855-7.699 9.627-12.451 17.326-10.601l59.525 14.335a8.17 8.17 0 0 0 5.023-.388l60.382-24.859 2.362.569-42.797 38.043h-91.99c-7.237-2.175-11.622-9.664-9.831-17.099m222.213 56.47-4.912-1.183-.02-.004-14.04-3.381c-1.271-8.836-7.152-18.829-21.361-22.25-4.387-1.059-8.8 1.644-9.857 6.031a8.17 8.17 0 0 0 6.031 9.855c5.874 1.414 8.078 4.534 8.806 7.325l-56.247 22.549-55.931-13.47c-16.457-3.966-33.073 6.202-37.037 22.66-1.716 7.121-.855 14.455 2.394 20.924h-21.055a8.17 8.17 0 0 0-7.183 4.278l-25.552 47.152a8.17 8.17 0 0 0 14.367 7.785l23.234-42.875h38.339l.036.002.025-.002h105.633l-7.165 13.446a8.173 8.173 0 0 0 3.368 11.053 8.17 8.17 0 0 0 11.053-3.368l13.566-25.458a8.17 8.17 0 0 0-7.211-12.012h-1.549l37.555-33.382.886.214c4.386 1.058 8.8-1.644 9.857-6.03a8.17 8.17 0 0 0-6.03-9.859m-66.861 49.055h-91.994a14.24 14.24 0 0 1-8.112-6.24 14.27 14.27 0 0 1-1.712-10.858c1.855-7.699 9.628-12.453 17.326-10.601l58.465 14.08a8.18 8.18 0 0 0 4.953-.359l61.472-24.644 2.402.578zm102.985-78.993a8.2 8.2 0 0 1-2.342.344 8.17 8.17 0 0 1-7.825-5.832c-7.888-26.394-22.19-50.931-41.363-70.958a8.17 8.17 0 1 1 11.804-11.3c20.953 21.889 36.588 48.714 45.214 77.579a8.17 8.17 0 0 1-5.488 10.167m-346.305-5.49a8.17 8.17 0 0 1-7.825 5.832 8.168 8.168 0 0 1-7.83-10.511c11.688-39.106 36.234-74.167 69.117-98.724a8.17 8.17 0 0 1 11.434 1.657 8.17 8.17 0 0 1-1.657 11.435c-30.091 22.473-52.549 54.546-63.239 90.311m78.86-110.354a8.17 8.17 0 0 1 3.659-10.96c26.717-13.344 55.5-20.109 85.55-20.109 1.645 0 3.373.027 5.437.085a8.17 8.17 0 0 1 7.938 8.396 8.14 8.14 0 0 1-8.396 7.939c-1.909-.054-3.49-.08-4.979-.08-27.492 0-53.819 6.186-78.249 18.386a8.17 8.17 0 0 1-10.96-3.657M285.67 74.645c.921-4.418 5.247-7.255 9.666-6.33 26.667 5.561 51.391 16.548 73.486 32.655a8.17 8.17 0 0 1-4.818 14.774 8.13 8.13 0 0 1-4.806-1.569C338.989 99.445 316.38 89.396 292 84.311a8.17 8.17 0 0 1-6.33-9.666"/></svg>