<svg xmlns="http://www.w3.org/2000/svg" xml:space="preserve" width="800" height="800" viewBox="0 0 512 512"><circle cx="256" cy="256" r="247.83" style="fill:#8c8484"/><circle cx="256" cy="256" r="162.587" style="fill:#fbcd18"/><path d="M234.213 234.213 321.155 256c0 45.655-29.173 82.661-65.155 82.661z" style="fill:#fef7d8"/><path d="m256 173.339 21.787 104.448L190.845 256c0-45.655 29.173-82.661 65.155-82.661" style="fill:#fef7d8"/><path d="M321.155 256H256v-82.661c35.982 0 65.155 37.006 65.155 82.661M256 256v82.661c-35.982 0-65.155-37.006-65.155-82.661z" style="fill:#ffe991"/><path d="M437.019 74.981C388.668 26.628 324.38 0 256 0S123.332 26.628 74.981 74.981C26.628 123.332 0 187.62 0 256s26.628 132.668 74.981 181.019C123.332 485.372 187.62 512 256 512s132.668-26.628 181.019-74.981C485.372 388.668 512 324.38 512 256s-26.628-132.668-74.981-181.019M256 16.34c132.149 0 239.66 107.51 239.66 239.66 0 42.972-11.377 83.333-31.264 118.244h-85.331c29.514-30.707 47.687-72.391 47.687-118.244 0-94.154-76.598-170.752-170.752-170.752S85.248 161.846 85.248 256c0 45.853 18.173 87.538 47.687 118.244H47.604C27.718 339.333 16.34 298.972 16.34 256 16.34 123.851 123.851 16.34 256 16.34M101.588 256c0-85.143 69.268-154.412 154.412-154.412S410.412 170.857 410.412 256 341.143 410.412 256 410.412 101.588 341.143 101.588 256M256 495.66c-82.296 0-155.03-41.7-198.201-105.075h93.233c28.977 22.65 65.423 36.168 104.968 36.168s75.991-13.517 104.968-36.168h93.233C411.03 453.96 338.296 495.66 256 495.66m72.794-34.454a8.17 8.17 0 0 1-8.17 8.17H191.376a8.17 8.17 0 0 1 0-16.34h129.248a8.17 8.17 0 0 1 8.17 8.17m77.179-332.985a8.17 8.17 0 0 1 .915-11.518 8.17 8.17 0 0 1 11.518.915c32.868 38.538 50.97 87.684 50.97 138.383 0 34.342-7.912 67.137-23.516 97.473a8.17 8.17 0 0 1-11.003 3.529A8.17 8.17 0 0 1 431.329 346c14.404-28.001 21.707-58.281 21.707-89.998 0-46.817-16.714-92.197-47.063-127.781M66.137 353.468C50.535 323.134 42.623 290.34 42.623 256c0-50.699 18.102-99.844 50.97-138.383a8.17 8.17 0 0 1 12.433 10.603C75.678 163.805 58.964 209.185 58.964 256c0 31.716 7.303 61.994 21.704 89.994a8.171 8.171 0 0 1-14.531 7.474m50.565-248.357a8.17 8.17 0 0 1 .915-11.518c38.538-32.868 87.684-50.97 138.383-50.97 19.177 0 38.225 2.56 56.614 7.609a8.172 8.172 0 0 1-4.326 15.758A197.5 197.5 0 0 0 256 58.964c-46.815 0-92.195 16.714-127.779 47.063a8.14 8.14 0 0 1-5.298 1.953 8.15 8.15 0 0 1-6.221-2.869M333.74 65.863a8.17 8.17 0 0 1 10.826-4.036 213.5 213.5 0 0 1 49.815 31.767 8.17 8.17 0 1 1-10.603 12.433 197.1 197.1 0 0 0-46.003-29.337 8.17 8.17 0 0 1-4.035-10.827M208.552 166.509l14.958 4.86a33 33 0 0 0-.065 1.966c0 .427.021.854.037 1.28-24.161 14.873-40.812 45.759-40.812 81.385 0 50.087 32.895 90.835 73.329 90.835s73.329-40.749 73.329-90.835c0-35.624-16.649-66.508-40.807-81.383.017-.427.033-.855.033-1.283 0-.66-.026-1.315-.065-1.966l14.958-4.86a8.17 8.17 0 0 0 5.245-10.294c-1.394-4.291-6.007-6.643-10.294-5.245l-14.971 4.864a33 33 0 0 0-2.304-3.178l9.251-12.732a8.17 8.17 0 0 0-1.808-11.412 8.17 8.17 0 0 0-11.412 1.808l-9.247 12.728a32 32 0 0 0-3.738-1.226V126.1a8.17 8.17 0 0 0-16.34 0v15.721a32 32 0 0 0-3.738 1.226l-9.247-12.728a8.171 8.171 0 0 0-13.22 9.604l9.251 12.732a33 33 0 0 0-2.304 3.178l-14.972-4.864c-4.291-1.398-8.9.954-10.294 5.245a8.17 8.17 0 0 0 5.247 10.295m62.401.559A59.8 59.8 0 0 0 256 165.164c-5.123 0-10.123.659-14.953 1.904 2.455-5.837 8.232-9.947 14.953-9.947s12.496 4.11 14.953 9.947m-23.123 15.214v65.548h-48.469c2.828-33.72 22.936-60.734 48.469-65.548m-48.469 81.888h48.469v65.548c-25.533-4.814-45.641-31.828-48.469-65.548m64.809 65.548V264.17h48.469c-2.828 33.72-22.936 60.734-48.469 65.548m48.469-81.888H264.17v-65.548c25.533 4.814 45.641 31.828 48.469 65.548M256 383.281l-6.946 7.397a8.17 8.17 0 0 1-11.912-11.186l1.534-1.633c-16.324-3.128-31.791-10.627-45.097-21.833l-32.793-6.474a8.17 8.17 0 1 1 3.165-16.031l10.821 2.136c-4.726-6.553-8.801-13.626-12.226-21.085l-27.235-18.752a8.17 8.17 0 0 1-2.096-11.363 8.17 8.17 0 0 1 11.363-2.096l9.144 6.297a143.5 143.5 0 0 1-3.453-24.085l-18.821-27.047a8.171 8.171 0 0 1 13.413-9.333l6.346 9.119a141 141 0 0 1 5.222-23.916l-7.599-32.362a8.17 8.17 0 0 1 15.908-3.736l2.543 10.83c3.132-5.579 6.643-10.899 10.562-15.872a8.17 8.17 0 0 1 12.834 10.114c-15.7 19.919-24.346 46.067-24.346 73.628s8.646 53.709 24.346 73.627a95.5 95.5 0 0 0 11.596 12.315c.317.242.619.5.895.783 15.201 13.147 33.747 20.451 52.834 20.451s37.634-7.303 52.834-20.452c.276-.282.577-.54.893-.781a95.6 95.6 0 0 0 11.597-12.317c15.7-19.918 24.346-46.065 24.346-73.626s-8.646-53.709-24.346-73.627a8.17 8.17 0 0 1 12.834-10.114c3.92 4.973 7.431 10.293 10.562 15.872l2.543-10.832a8.17 8.17 0 0 1 9.822-6.086 8.17 8.17 0 0 1 6.086 9.822l-7.598 32.363a141 141 0 0 1 5.222 23.915l6.346-9.119a8.17 8.17 0 0 1 13.413 9.333l-18.821 27.047a143.5 143.5 0 0 1-3.453 24.085l9.145-6.297a8.17 8.17 0 0 1 9.267 13.459l-27.236 18.752c-3.424 7.459-7.499 14.532-12.225 21.085l10.821-2.136a8.17 8.17 0 0 1 3.165 16.031l-32.792 6.474c-13.308 11.206-28.773 18.704-45.097 21.833l1.534 1.633a8.17 8.17 0 0 1-11.913 11.187z"/></svg>