<svg xmlns="http://www.w3.org/2000/svg" xml:space="preserve" width="800" height="800" viewBox="0 0 512 512"><circle cx="256" cy="256" r="247.83" style="fill:#fd9a0c"/><circle cx="256" cy="256" r="220.596" style="fill:#fcde65"/><path d="M225.246 138.536c-47.015 17.112-76.992 60.311-79.536 107.301-3.534.447 29.478 91.147 32.473 89.218 32.155 34.361 82.886 48.185 129.9 31.072zm-27.585 139.253c-.036-.101-.065-.205-.102-.306s-.081-.199-.118-.3l.354.215z" style="fill:#ffad38"/><path d="M415.19 198.274a8.17 8.17 0 0 0-10.472-4.884l-110.674 40.282a17.14 17.14 0 0 0-13.344-4.154c-.007-.016-134.997 16.373-134.997 16.373l32.439 89.127 113.944-74.216a17.19 17.19 0 0 0 7.547-11.775l110.674-40.282a8.17 8.17 0 0 0 4.883-10.471" style="fill:#fd9a0c"/><path d="M437.019 74.981C388.667 26.628 324.38 0 256 0S123.333 26.628 74.981 74.981C26.628 123.332 0 187.62 0 256s26.628 132.668 74.981 181.019C123.333 485.372 187.62 512 256 512s132.667-26.628 181.019-74.981C485.372 388.668 512 324.38 512 256s-26.628-132.668-74.981-181.019M256 495.66C123.851 495.66 16.34 388.15 16.34 256S123.851 16.34 256 16.34 495.66 123.851 495.66 256 388.149 495.66 256 495.66M112.425 284.584c3.223-13.218 12.764-23.881 25.52-28.525a38 38 0 0 1 2.474-.8l27.653 75.979a39 39 0 0 1-2.41.977c-12.755 4.643-26.919 2.607-37.883-5.447a8.17 8.17 0 0 0-9.673 13.168c9.935 7.298 21.743 11.071 33.685 11.071a56.9 56.9 0 0 0 19.458-3.438c1.9-.691 3.704-1.47 5.477-2.346a129.1 129.1 0 0 0 89.855 36.41c14.831 0 29.813-2.558 44.292-7.829a8.17 8.17 0 0 0 4.883-10.472l-31.834-87.465 12.641-8.233c7.481-4.905 11.621-13.136 11.436-21.653l102.304-37.237a8.171 8.171 0 0 0-5.589-15.356l-102.302 37.235c-5.336-6.653-13.801-10.287-22.693-9.218l.011.083c-1.058.04-2.095.166-3.047.28l-11.924 1.446-31.839-87.474a8.17 8.17 0 0 0-10.472-4.884 129.11 129.11 0 0 0-84.374 108.119 54 54 0 0 0-5.72 1.727c-17.901 6.515-31.286 21.471-35.805 40.008a8.17 8.17 0 0 0 7.943 10.107 8.166 8.166 0 0 0 7.933-6.233m185.084 76.385a112.78 112.78 0 0 1-106.372-24.664l78.73-51.281zm-77.046-211.685 27.644 75.951-38.996 4.728a8.17 8.17 0 0 0-7.126 9.095c.544 4.479 4.622 7.664 9.096 7.127 23.605-2.866 68.475-8.31 70.46-8.538q.07-.006.137-.015a8.88 8.88 0 0 1 9.445 5.8 8.91 8.91 0 0 1-3.496 10.527L182.303 322.56 156.9 252.763l21.739-2.638a8.173 8.173 0 0 0 7.126-9.096c-.544-4.479-4.618-7.665-9.096-7.127l-21.838 2.652a112.77 112.77 0 0 1 65.632-87.27m-19.296 260.101a8.17 8.17 0 0 1-4.942-10.444 8.17 8.17 0 0 1 10.445-4.942c15.813 5.654 32.41 8.52 49.331 8.52s33.519-2.866 49.331-8.52a8.17 8.17 0 0 1 10.445 4.942 8.17 8.17 0 0 1-4.942 10.444c-17.584 6.287-36.032 9.474-54.833 9.474s-37.251-3.187-54.835-9.474m-50.654-8.185c30.808 22.421 67.286 34.272 105.487 34.272s74.679-11.851 105.487-34.272a8.17 8.17 0 0 1 11.414 1.799 8.17 8.17 0 0 1-1.799 11.413c-33.621 24.467-73.422 37.401-115.103 37.401s-81.482-12.934-115.102-37.401a8.17 8.17 0 0 1-1.799-11.413 8.17 8.17 0 0 1 11.415-1.799m97.317-300.043V83.622a8.172 8.172 0 0 1-5.161-14.224l7.852-7.099a8.171 8.171 0 0 1 13.649 6.059v32.8c4.364.169 7.852 3.75 7.852 8.154a8.17 8.17 0 0 1-8.17 8.17h-15.704a8.17 8.17 0 0 1-8.17-8.17c0-4.405 3.488-7.986 7.852-8.155M484.766 256c0 126.142-102.624 228.766-228.766 228.766-54.828 0-107.864-19.699-149.337-55.469a8.17 8.17 0 1 1 10.672-12.374c38.508 33.211 87.754 51.503 138.665 51.503 117.131 0 212.426-95.294 212.426-212.426S373.131 43.574 256 43.574 43.574 138.869 43.574 256c0 50.911 18.29 100.157 51.503 138.665a8.171 8.171 0 0 1-12.374 10.672C46.933 363.863 27.234 310.828 27.234 256 27.234 129.858 129.858 27.234 256 27.234S484.766 129.858 484.766 256"/></svg>