<svg xmlns="http://www.w3.org/2000/svg" xml:space="preserve" width="800" height="800" viewBox="0 0 512 512"><path d="M256 8.17C119.127 8.17 8.17 119.127 8.17 256S119.127 503.83 256 503.83 503.83 392.873 503.83 256 392.873 8.17 256 8.17m0 308.29c-33.391 0-60.46-27.068-60.46-60.46s27.068-60.46 60.46-60.46 60.46 27.068 60.46 60.46-27.069 60.46-60.46 60.46" style="fill:#bcb6b8"/><path d="M256 35.404C134.168 35.404 35.404 134.168 35.404 256S134.168 476.596 256 476.596c121.831 0 220.596-98.764 220.596-220.596S377.831 35.404 256 35.404m0 270.162c-27.375 0-49.566-22.191-49.566-49.566s22.191-49.566 49.566-49.566 49.566 22.191 49.566 49.566-22.191 49.566-49.566 49.566" style="fill:#ebeaea"/><path d="M256 78.938c-18.175 0-33.705 11.277-40.002 27.212L256 117.044l40.002-10.893C289.705 90.217 274.175 78.938 256 78.938" style="fill:#8c8484"/><path d="m209.121 106.153 11.617 29.017h70.524l11.616-29.017z" style="fill:#a8a2a2"/><path d="M78.938 256c0 18.175 11.277 33.704 27.212 40.002L117.044 256l-10.893-40.002C90.217 222.295 78.938 237.825 78.938 256" style="fill:#8c8484"/><path d="m106.153 302.878 29.017-11.616v-70.524l-29.017-11.617z" style="fill:#a8a2a2"/><path d="M433.062 256c0-18.175-11.278-33.704-27.212-40.002L394.956 256l10.893 40.002c15.934-6.297 27.213-21.827 27.213-40.002" style="fill:#8c8484"/><path d="m405.847 209.121-29.017 11.617v70.524l29.017 11.616z" style="fill:#a8a2a2"/><path d="M255.998 59.915a8.17 8.17 0 0 0-8.17 8.17v3.332c-15.839 2.519-29.517 12.275-37.051 26.565h-1.655a8.17 8.17 0 0 0-7.585 11.207l11.617 29.017a8.17 8.17 0 0 0 7.585 5.133h70.523a8.17 8.17 0 0 0 7.585-5.133l11.617-29.017a8.17 8.17 0 0 0-7.585-11.207h-1.655c-7.535-14.292-21.214-24.05-37.057-26.566v-3.331a8.17 8.17 0 0 0-8.169-8.17m-8.17 28.16v9.908h-17.144a34.5 34.5 0 0 1 17.144-9.908M285.732 127h-59.464l-5.075-12.677h69.613zm-4.415-29.017h-17.149v-9.91a34.5 34.5 0 0 1 17.149 9.91m155.702-23.002C388.668 26.628 324.38 0 256 0S123.332 26.628 74.981 74.981C26.628 123.332 0 187.62 0 256s26.628 132.668 74.981 181.019C123.332 485.372 187.62 512 256 512s132.668-26.628 181.019-74.981C485.372 388.668 512 324.38 512 256s-26.628-132.668-74.981-181.019M256 495.66C123.851 495.66 16.34 388.15 16.34 256S123.851 16.34 256 16.34 495.66 123.851 495.66 256 388.149 495.66 256 495.66M105.375 355.778l44.206 4.621a8.17 8.17 0 0 1 7.227 6.891l5.322 34.793 33.864-9.573a8.17 8.17 0 0 1 9.257 3.707l17.896 30.298 27.858-21.519a8.17 8.17 0 0 1 9.989 0l27.858 21.519 17.896-30.298a8.17 8.17 0 0 1 9.257-3.707l33.864 9.573 5.322-34.793a8.17 8.17 0 0 1 7.227-6.891l44.206-4.622c4.484-.463 8.507 2.789 8.975 7.277s-2.789 8.506-7.277 8.975l-37.933 3.966-5.766 37.702a8.166 8.166 0 0 1-10.299 6.626l-36.708-10.377-19.402 32.846a8.17 8.17 0 0 1-12.03 2.311L256 421.786l-30.187 23.318a8.171 8.171 0 0 1-12.03-2.31l-19.402-32.846-36.708 10.377a8.17 8.17 0 0 1-10.299-6.626l-5.766-37.701-37.933-3.965a8.17 8.17 0 0 1-7.277-8.975c.471-4.491 4.49-7.753 8.977-7.28M71.416 247.832h-3.331a8.17 8.17 0 0 0 0 16.34h3.332c2.519 15.839 12.274 29.517 26.565 37.051v1.655a8.17 8.17 0 0 0 11.207 7.585l29.017-11.617a8.17 8.17 0 0 0 5.133-7.585v-70.523a8.17 8.17 0 0 0-5.133-7.585l-29.017-11.617a8.17 8.17 0 0 0-11.207 7.585v1.655c-14.292 7.534-24.048 21.214-26.566 37.056m26.567-17.149v17.15h-9.91a34.5 34.5 0 0 1 9.91-17.15m-9.908 33.489h9.908v17.144a34.5 34.5 0 0 1-9.908-17.144m26.248-42.979L127 226.268v59.464l-12.677 5.075zm34.464 10.439a8.17 8.17 0 0 0 8.17 8.17h43.438c-1.501 5.145-2.321 10.576-2.321 16.198s.82 11.054 2.321 16.198h-43.438a8.17 8.17 0 0 0 0 16.34h51.148a58.4 58.4 0 0 0 15.358 15.358v51.148a8.17 8.17 0 0 0 16.34 0v-43.438c5.144 1.501 10.576 2.321 16.198 2.321s11.054-.82 16.198-2.321v43.438a8.17 8.17 0 0 0 16.34 0v-51.148a58.4 58.4 0 0 0 15.358-15.358h51.148a8.17 8.17 0 0 0 0-16.34h-43.439A57.7 57.7 0 0 0 313.927 256c0-5.622-.82-11.053-2.321-16.198h43.439a8.17 8.17 0 0 0 0-16.34h-51.148a58.4 58.4 0 0 0-15.358-15.358v-51.148a8.17 8.17 0 0 0-16.34 0v43.438c-5.144-1.501-10.576-2.321-16.198-2.321s-11.054.82-16.198 2.321v-43.438a8.17 8.17 0 0 0-16.34 0v51.148a58.4 58.4 0 0 0-15.358 15.358h-51.148a8.17 8.17 0 0 0-8.17 8.17M297.585 256c0 22.93-18.655 41.585-41.585 41.585S214.415 278.93 214.415 256 233.07 214.415 256 214.415 297.585 233.07 297.585 256m-148.807 56.345a8.17 8.17 0 0 1 11.242 2.669c20.701 33.592 56.581 53.647 95.979 53.647s75.278-20.055 95.979-53.647a8.17 8.17 0 0 1 13.911 8.573C342.191 362.042 301.11 385 256 385s-86.191-22.958-109.889-61.414a8.167 8.167 0 0 1 2.667-11.241m50.878-163.565a8.17 8.17 0 0 1-2.669 11.242c-14.962 9.22-27.745 22.003-36.966 36.965a8.164 8.164 0 0 1-11.241 2.669 8.17 8.17 0 0 1-2.669-11.241c10.553-17.124 25.181-31.752 42.304-42.304a8.165 8.165 0 0 1 11.241 2.669m115.357 11.242a8.17 8.17 0 0 1-2.669-11.242 8.17 8.17 0 0 1 11.241-2.669c17.124 10.553 31.752 25.181 42.304 42.304a8.17 8.17 0 0 1-2.669 11.241 8.162 8.162 0 0 1-11.241-2.669c-9.22-14.962-22.003-27.745-36.966-36.965m95.414 42.333a8.17 8.17 0 0 0-7.616-.819l-29.017 11.617a8.17 8.17 0 0 0-5.133 7.585v70.523a8.17 8.17 0 0 0 5.133 7.585l29.017 11.617a8.16 8.16 0 0 0 7.616-.819 8.17 8.17 0 0 0 3.591-6.766v-1.655c14.292-7.535 24.049-21.215 26.566-37.057h3.331a8.17 8.17 0 0 0 0-16.34h-3.332c-2.519-15.839-12.274-29.517-26.565-37.051v-1.655a8.17 8.17 0 0 0-3.591-6.765m-12.75 88.452L385 285.732v-59.464l12.677-5.075zm16.34-9.49v-17.15h9.91a34.5 34.5 0 0 1-9.91 17.15m9.908-33.489h-9.908v-17.144a34.5 34.5 0 0 1 9.908 17.144m-165.344-88.147a8.17 8.17 0 0 1 0 16.34h-5.161a8.17 8.17 0 0 1 0-16.34zm-90.73 107.07a8.17 8.17 0 0 1-8.17-8.17v-5.161a8.17 8.17 0 0 1 16.34 0v5.161a8.17 8.17 0 0 1-8.17 8.17m90.73 69.228a8.17 8.17 0 0 1 0 16.34h-5.161a8.17 8.17 0 0 1 0-16.34zm85.568-90.73a8.17 8.17 0 0 1 8.17 8.17v5.161a8.17 8.17 0 0 1-16.34 0v-5.161a8.17 8.17 0 0 1 8.17-8.17M484.766 256c0 126.142-102.624 228.766-228.766 228.766S27.234 382.142 27.234 256c0-54.829 19.699-107.864 55.469-149.336a8.17 8.17 0 1 1 12.374 10.672C61.866 155.843 43.574 205.088 43.574 256c0 117.131 95.294 212.426 212.426 212.426S468.426 373.131 468.426 256 373.131 43.574 256 43.574c-50.912 0-100.157 18.291-138.665 51.503a8.17 8.17 0 0 1-10.672-12.374C148.136 46.933 201.171 27.234 256 27.234c126.142 0 228.766 102.624 228.766 228.766"/></svg>