<svg xmlns="http://www.w3.org/2000/svg" xml:space="preserve" viewBox="0 0 512 512"><circle cx="256" cy="256" r="247.83" style="fill:#f70"/><circle cx="256" cy="256" r="220.596" style="fill:#eb550c"/><path d="M132.39 194.113h247.22v106.932H132.39z" style="fill:#ffad66"/><path d="M148.251 164.679h215.498v29.435H148.251z" style="fill:#f70"/><path d="M386.4 304.314H125.6l-9.707 27.034h280.214z" style="fill:#ff9233"/><path d="M402.903 319.91h-1.048l-4.296-11.964a8.16 8.16 0 0 0 3.807-6.899 8.17 8.17 0 0 0-8.17-8.17h-5.42v-90.939c3.368-1.009 5.825-4.129 5.825-7.824a8.17 8.17 0 0 0-8.17-8.17h-13.509v-21.268a8.17 8.17 0 0 0-8.17-8.17H148.25a8.17 8.17 0 0 0-8.17 8.17v21.268h-13.509a8.17 8.17 0 0 0-8.17 8.17c0 3.696 2.457 6.815 5.825 7.824v90.939h-5.42a8.17 8.17 0 0 0-8.17 8.17 8.15 8.15 0 0 0 3.807 6.899l-4.296 11.964h-1.048a8.17 8.17 0 0 0 0 16.34h6.744l.05.002.027-.002h280.16l.027.002.05-.002h6.744a8.17 8.17 0 0 0 8.17-8.17 8.17 8.17 0 0 0-8.168-8.17M156.42 172.846h199.16v13.097H156.42zm-15.854 29.436h230.87v90.592h-33.101v-66.082a8.17 8.17 0 0 0-8.17-8.17 8.17 8.17 0 0 0-8.17 8.17v66.082h-33.101v-66.082a8.17 8.17 0 0 0-8.17-8.17 8.17 8.17 0 0 0-8.17 8.17v66.082H239.45v-66.082c0-4.513-3.658-8.17-8.17-8.17s-8.17 3.657-8.17 8.17v66.082h-33.101v-66.082c0-4.513-3.658-8.17-8.17-8.17s-8.17 3.657-8.17 8.17v66.082h-33.101v-90.592zm-9.218 106.934h249.305l3.84 10.693H127.508zM256 27.234C129.858 27.234 27.234 129.858 27.234 256S129.858 484.766 256 484.766 484.766 382.142 484.766 256 382.142 27.234 256 27.234m0 441.192c-117.131 0-212.426-95.294-212.426-212.426S138.869 43.574 256 43.574 468.426 138.869 468.426 256 373.131 468.426 256 468.426m180.125-233.571a8.172 8.172 0 0 1-9.372-6.757c-5.97-36.825-23.353-70.1-50.269-96.23a8.17 8.17 0 0 1-.171-11.553 8.17 8.17 0 0 1 11.553-.171c29.456 28.596 48.48 65.022 55.016 105.34a8.17 8.17 0 0 1-6.757 9.371M320.087 86.305a8.17 8.17 0 0 1 10.736-4.272 189.4 189.4 0 0 1 30.016 16.292 8.17 8.17 0 0 1-4.538 14.971 8.13 8.13 0 0 1-4.522-1.372 173 173 0 0 0-27.419-14.883 8.17 8.17 0 0 1-4.273-10.736M85.247 228.099a8.173 8.173 0 0 1-9.372 6.757 8.17 8.17 0 0 1-6.757-9.373c7.111-43.873 29.698-84.067 63.598-113.178C166.986 82.878 210.769 66.67 256 66.67c14.094 0 28.151 1.557 41.78 4.627a8.17 8.17 0 0 1 6.174 9.766 8.17 8.17 0 0 1-9.766 6.175 174 174 0 0 0-38.189-4.228c-85.312 0-157.124 61.019-170.752 145.089m309.034 151.467c-.333 4.5-4.254 7.888-8.752 7.545l-40.789-3.023-9.491 39.787a8.167 8.167 0 0 1-11.827 5.293l-35.995-19.429-24.952 32.404a8.17 8.17 0 0 1-12.946 0l-24.95-32.403-35.995 19.429a8.172 8.172 0 0 1-11.827-5.293l-9.489-39.786-40.787 3.026c-4.495.339-8.419-3.044-8.752-7.544a8.17 8.17 0 0 1 7.544-8.752l47.724-3.54a8.18 8.18 0 0 1 8.551 6.252l8.636 36.205 32.749-17.678a8.17 8.17 0 0 1 10.354 2.205L256 423.768l22.718-29.503a8.17 8.17 0 0 1 10.354-2.205l32.749 17.677 8.638-36.207a8.175 8.175 0 0 1 8.552-6.252l47.726 3.537a8.17 8.17 0 0 1 7.544 8.751m42.738-304.585C388.668 26.628 324.38 0 256 0S123.332 26.628 74.981 74.981C26.628 123.332 0 187.62 0 256s26.628 132.668 74.981 181.019C123.332 485.372 187.62 512 256 512s132.668-26.628 181.019-74.981C485.372 388.668 512 324.38 512 256s-26.628-132.668-74.981-181.019M256 495.66C123.851 495.66 16.34 388.15 16.34 256S123.851 16.34 256 16.34 495.66 123.851 495.66 256 388.149 495.66 256 495.66"/></svg>