<svg xmlns="http://www.w3.org/2000/svg" xml:space="preserve" width="800" height="800" viewBox="0 0 512 512"><circle cx="256" cy="256" r="247.83" style="fill:#f70"/><circle cx="256" cy="256" r="220.596" style="fill:#ff9233"/><path d="M180.922 162.315v140.447c0 9.678 7.376 20.478 16.391 23.999L256 349.685l58.687-22.925c9.014-3.521 16.391-14.321 16.391-23.999V162.314H180.922z" style="fill:#ffc066"/><circle cx="84.908" cy="242.525" r="13.617" style="fill:#ffad38"/><circle cx="88.543" cy="293.55" r="13.617" style="fill:#ffad38"/><circle cx="107.052" cy="341.243" r="13.617" style="fill:#ffad38"/><circle cx="138.796" cy="381.364" r="13.617" style="fill:#ffad38"/><circle cx="427.095" cy="242.525" r="13.617" style="fill:#ffad38"/><circle cx="423.468" cy="293.55" r="13.617" style="fill:#ffad38"/><circle cx="404.948" cy="341.243" r="13.617" style="fill:#ffad38"/><circle cx="373.204" cy="381.364" r="13.617" style="fill:#ffad38"/><path d="M284.677 214.794c-7.578 0-13.719 6.143-13.719 13.721h-29.915c0-7.578-6.143-13.721-13.719-13.721-7.577 0-13.719 6.143-13.719 13.721v68.527l27.439-31.624c0 8.261 6.696 14.957 14.957 14.957s14.957-6.696 14.957-14.957l27.439 31.624v-68.527c0-7.578-6.143-13.721-13.72-13.721" style="fill:#f70"/><path d="M437.019 74.981C388.668 26.628 324.38 0 256 0S123.332 26.628 74.981 74.981C26.628 123.332 0 187.62 0 256s26.628 132.668 74.981 181.019C123.332 485.372 187.62 512 256 512s132.668-26.628 181.019-74.981C485.372 388.668 512 324.38 512 256s-26.628-132.668-74.981-181.019M256 495.66C123.851 495.66 16.34 388.15 16.34 256S123.851 16.34 256 16.34 495.66 123.851 495.66 256 388.149 495.66 256 495.66m-45.254-190.964a8.17 8.17 0 0 0 9.03-2.3l18.852-21.728a23.2 23.2 0 0 0 9.203 6.379v26.555a8.17 8.17 0 0 0 16.34 0v-26.555a23.23 23.23 0 0 0 9.203-6.379l18.853 21.728a8.17 8.17 0 0 0 9.029 2.3 8.17 8.17 0 0 0 5.312-7.654v-68.528c0-12.07-9.82-21.89-21.89-21.89-9.183 0-17.065 5.684-20.309 13.719h-.199v-24.114a8.17 8.17 0 0 0-8.17-8.17h-10.622a8.17 8.17 0 0 0 0 16.34h2.452v15.944h-.198c-3.244-8.035-11.125-13.719-20.309-13.719-12.07 0-21.89 9.821-21.89 21.89v68.528a8.17 8.17 0 0 0 5.313 7.654m11.027-76.183a5.555 5.555 0 0 1 5.549-5.549 5.555 5.555 0 0 1 5.549 5.549 8.17 8.17 0 0 0 8.17 8.17h29.915a8.17 8.17 0 0 0 8.17-8.17 5.555 5.555 0 0 1 5.549-5.549 5.555 5.555 0 0 1 5.549 5.549v46.645l-13.097-15.095a8.17 8.17 0 0 0-9.029-2.3 8.17 8.17 0 0 0-5.312 7.654 6.795 6.795 0 0 1-6.787 6.787 6.795 6.795 0 0 1-6.787-6.787 8.17 8.17 0 0 0-14.342-5.354l-13.097 15.095zm-40.851-74.368a8.17 8.17 0 0 0-8.17 8.17v140.447c0 12.996 9.483 26.88 21.588 31.609l58.687 22.925c.955.374 1.964.56 2.973.56a8.2 8.2 0 0 0 2.973-.56l58.687-22.925c12.105-4.728 21.588-18.613 21.588-31.609V162.315a8.17 8.17 0 0 0-8.17-8.17zm141.986 148.617c0 6.289-5.335 14.1-11.193 16.388L256 340.914l-55.715-21.764c-5.857-2.289-11.192-10.099-11.192-16.388V170.485h133.815zm20.132-198.024-30.197 8.574a8.17 8.17 0 0 1-8.992-3.27l-17.628-25.969-25.432 18.41a8.17 8.17 0 0 1-9.582 0l-25.431-18.411-17.627 25.969a8.175 8.175 0 0 1-8.992 3.271l-30.197-8.575-7.68 30.443a8.17 8.17 0 0 1-7.35 6.152l-31.328 2.199 3.088 31.251a8.17 8.17 0 0 1-4.823 8.275l-36.403 16.119a8.171 8.171 0 0 1-6.617-14.941l30.999-13.726-3.335-33.734a8.17 8.17 0 0 1 7.559-8.954l33.812-2.373 8.291-32.866a8.168 8.168 0 0 1 10.153-5.861l32.614 9.262 19.042-28.053a8.17 8.17 0 0 1 11.552-2.03L256 85.779l27.462-19.881a8.167 8.167 0 0 1 11.552 2.03l19.042 28.053 32.616-9.261a8.17 8.17 0 0 1 10.153 5.861l8.291 32.866 33.812 2.374a8.17 8.17 0 0 1 7.558 8.954l-3.335 33.734 30.999 13.726a8.17 8.17 0 0 1 4.162 10.779 8.17 8.17 0 0 1-7.475 4.865 8.15 8.15 0 0 1-3.304-.703l-36.403-16.119a8.17 8.17 0 0 1-4.823-8.275l3.088-31.251-31.329-2.199a8.17 8.17 0 0 1-7.35-6.152zM106.695 242.525c0-12.013-9.774-21.787-21.787-21.787s-21.787 9.774-21.787 21.787 9.774 21.787 21.787 21.787 21.787-9.774 21.787-21.787m-27.234 0c0-3.003 2.443-5.447 5.447-5.447s5.447 2.443 5.447 5.447-2.443 5.447-5.447 5.447-5.447-2.444-5.447-5.447m9.09 72.818c2.121 0 4.278-.313 6.409-.971 11.48-3.54 17.937-15.762 14.397-27.241-3.542-11.479-15.76-17.941-27.242-14.397-11.48 3.54-17.937 15.762-14.397 27.242 2.885 9.348 11.524 15.367 20.833 15.367m-1.619-26.994a5.4 5.4 0 0 1 1.602-.243 5.46 5.46 0 0 1 5.208 3.841 5.453 5.453 0 0 1-3.599 6.811 5.45 5.45 0 0 1-6.811-3.599 5.455 5.455 0 0 1 3.6-6.81m20.147 74.678c4.226 0 8.494-1.224 12.241-3.779 9.925-6.767 12.495-20.348 5.728-30.274-6.767-9.925-20.348-12.497-30.276-5.728-9.925 6.767-12.495 20.348-5.728 30.276 4.214 6.175 11.066 9.505 18.035 9.505m-3.101-26.281a5.4 5.4 0 0 1 3.061-.944c1.742 0 3.455.832 4.509 2.377a5.454 5.454 0 0 1-1.431 7.569 5.454 5.454 0 0 1-7.569-1.431 5.454 5.454 0 0 1 1.43-7.571m21.229 61.651c3.897 3.108 8.63 4.756 13.542 4.756a22 22 0 0 0 2.483-.139c5.783-.651 10.965-3.516 14.594-8.066s5.267-10.241 4.616-16.023a21.64 21.64 0 0 0-8.066-14.594c-9.392-7.489-23.127-5.942-30.618 3.45-7.49 9.39-5.944 23.126 3.449 30.616m9.326-20.43a5.44 5.44 0 0 1 4.264-2.048 5.42 5.42 0 0 1 3.39 1.186 5.4 5.4 0 0 1 2.016 3.648 5.41 5.41 0 0 1-1.154 4.006 5.4 5.4 0 0 1-3.648 2.016 5.42 5.42 0 0 1-4.006-1.154 5.45 5.45 0 0 1-.862-7.654m292.559-157.23c-12.014 0-21.787 9.774-21.787 21.787s9.774 21.787 21.787 21.787 21.787-9.774 21.787-21.787-9.775-21.787-21.787-21.787m0 27.234c-3.003 0-5.447-2.443-5.447-5.447s2.443-5.447 5.447-5.447 5.447 2.443 5.447 5.447-2.445 5.447-5.447 5.447m17.19 52.004c3.54-11.48-2.918-23.7-14.398-27.242-11.48-3.54-23.7 2.919-27.241 14.397-3.54 11.48 2.918 23.7 14.398 27.242 2.132.658 4.287.97 6.409.97 9.307.001 17.947-6.018 20.832-15.367m-15.615-4.816a5.457 5.457 0 0 1-6.811 3.6 5.453 5.453 0 0 1-3.599-6.811 5.455 5.455 0 0 1 6.81-3.599 5.453 5.453 0 0 1 3.6 6.81m-5.713 58.36c6.767-9.926 4.197-23.507-5.729-30.274s-23.507-4.197-30.274 5.728-4.197 23.507 5.729 30.274a21.66 21.66 0 0 0 12.24 3.779c6.969.001 13.822-3.329 18.034-9.507m-22.501-15.341a5.454 5.454 0 0 1 7.569-1.433 5.454 5.454 0 0 1 1.433 7.569 5.453 5.453 0 0 1-7.569 1.433 5.453 5.453 0 0 1-1.433-7.569M256 437.379c-29.341 0-58.507-7.204-84.344-20.831a8.17 8.17 0 0 1-3.415-11.037c2.105-3.991 7.048-5.521 11.037-3.415 23.498 12.391 50.027 18.943 76.722 18.943s53.224-6.55 76.722-18.943a8.17 8.17 0 0 1 11.037 3.415 8.17 8.17 0 0 1-3.415 11.037c-25.838 13.627-55.004 20.831-84.344 20.831m114.769-34.365q1.246.14 2.483.139c4.911 0 9.645-1.648 13.542-4.756 9.392-7.49 10.939-21.226 3.45-30.619-7.489-9.391-21.224-10.939-30.618-3.45a21.65 21.65 0 0 0-8.066 14.594 21.65 21.65 0 0 0 4.616 16.023 21.65 21.65 0 0 0 14.593 8.069m-2.972-22.26a5.4 5.4 0 0 1 2.016-3.648 5.42 5.42 0 0 1 3.39-1.186c1.602 0 3.19.702 4.264 2.048a5.453 5.453 0 0 1-.863 7.655 5.4 5.4 0 0 1-4.006 1.154 5.4 5.4 0 0 1-3.648-2.016 5.42 5.42 0 0 1-1.153-4.007M484.221 256c0 125.842-102.379 228.221-228.221 228.221-25.628 0-50.815-4.232-74.861-12.579a8.17 8.17 0 0 1-5.039-10.398c1.479-4.263 6.135-6.517 10.398-5.039 22.319 7.748 45.702 11.676 69.502 11.676 116.832 0 211.881-95.049 211.881-211.881 0-17.95-2.247-35.78-6.68-52.993a8.17 8.17 0 0 1 5.875-9.949c4.368-1.129 8.824 1.504 9.949 5.875 4.775 18.543 7.196 37.744 7.196 57.067M161.065 454.727a8.17 8.17 0 0 1-11.032 3.435C74.623 418.555 27.779 341.091 27.779 256 27.779 130.158 130.158 27.779 256 27.779c91.763 0 174.247 54.579 210.136 139.046a8.17 8.17 0 1 1-15.04 6.39C417.776 94.793 341.196 44.119 256 44.119 139.168 44.119 44.119 139.168 44.119 256c0 79.001 43.495 150.921 113.511 187.695a8.17 8.17 0 0 1 3.435 11.032"/></svg>