<svg xmlns="http://www.w3.org/2000/svg" xml:space="preserve" viewBox="0 0 512 512"><circle cx="256" cy="256" r="247.83" style="fill:#8c8484"/><circle cx="256" cy="256" r="167.882" style="fill:#fbcd18"/><circle cx="256" cy="145.648" r="15.647" style="fill:#fcde65"/><path d="M216.652 329.172h78.685v31.591h-78.685z" style="fill:#fcde65"/><path d="M61.996 220.596v70.809a8.17 8.17 0 0 1-16.34 0v-41.061a8.17 8.17 0 0 1-10.863 2.344 8.17 8.17 0 0 1-2.86-11.194l14.865-25.064a8.171 8.171 0 0 1 15.198 4.166M512 256c0 68.38-26.628 132.668-74.981 181.019C388.668 485.372 324.38 512 256 512s-132.668-26.628-181.019-74.981C26.628 388.668 0 324.38 0 256S26.628 123.332 74.981 74.981C123.332 26.628 187.62 0 256 0s132.668 26.628 181.019 74.981C485.372 123.332 512 187.62 512 256m-16.34 0c0-132.149-107.51-239.66-239.66-239.66S16.34 123.851 16.34 256 123.851 495.66 256 495.66 495.66 388.149 495.66 256M201.052 63.968c17.784-5.079 36.271-7.654 54.948-7.654s37.166 2.575 54.949 7.654a8.2 8.2 0 0 0 2.247.316 8.174 8.174 0 0 0 7.852-5.928 8.17 8.17 0 0 0-5.612-10.099c-19.244-5.495-39.24-8.281-59.437-8.281s-40.193 2.787-59.437 8.281a8.17 8.17 0 1 0 4.49 15.711m172.689 353.329c-34.342 25.113-75.056 38.387-117.74 38.387-42.686 0-83.4-13.275-117.743-38.389a8.17 8.17 0 0 0-11.418 1.771 8.17 8.17 0 0 0 1.771 11.418c37.161 27.175 81.212 41.54 127.389 41.54 46.175 0 90.224-14.363 127.386-41.537a8.17 8.17 0 0 0-9.645-13.19M474.325 247.83h-21.032a8.17 8.17 0 0 0 0 16.34h21.032a8.17 8.17 0 0 0 0-16.34m-277.5 100.903a8.17 8.17 0 0 0 0 16.34h118.35a8.17 8.17 0 0 0 0-16.34zm171.466-65.654h-59.642a8.17 8.17 0 0 1-8.17-8.17c0-4.333 3.377-7.87 7.641-8.144l21.902-68.575H264.17v68.664c3.888.628 6.861 3.99 6.861 8.056s-2.973 7.428-6.861 8.056v40.714h31.172a8.17 8.17 0 0 1 0 16.34h-78.685a8.17 8.17 0 0 1 0-16.34h31.172v-40.714c-3.888-.627-6.861-3.99-6.861-8.056s2.973-7.428 6.861-8.056V198.19h-65.851l21.902 68.575c4.265.273 7.641 3.811 7.641 8.144a8.17 8.17 0 0 1-8.17 8.17h-5.422l-.027.002-.026-.002h-59.642a8.17 8.17 0 0 1-8.17-8.17c0-4.333 3.377-7.87 7.641-8.144l25.278-79.144.023-.073.004-.014q.002-.008.007-.015c.122-.381.277-.747.451-1.101q.037-.078.075-.156.263-.505.59-.965.068-.093.137-.184c.225-.298.464-.586.727-.851l.017-.019c.268-.268.56-.51.863-.739a7.6 7.6 0 0 1 1.134-.724q.067-.034.136-.065a8 8 0 0 1 1-.42q.059-.02.119-.044a8 8 0 0 1 1.114-.272q.115-.02.231-.035a8 8 0 0 1 1.181-.095h77.039v-13.833c-9.121-3.341-15.646-12.109-15.646-22.373 0-13.133 10.684-23.817 23.817-23.817 13.132 0 23.817 10.684 23.817 23.817 0 10.264-6.526 19.032-15.647 22.373v13.833h77.038c.402 0 .794.039 1.181.095q.116.016.231.035.573.099 1.114.272.059.02.119.044.517.178 1 .42l.136.065a8 8 0 0 1 1.134.724 8 8 0 0 1 .879.758c.264.265.502.552.727.851q.07.091.137.184.327.46.59.965.038.076.075.156a8 8 0 0 1 .459 1.116l.004.014.024.073 25.278 79.144c4.265.273 7.641 3.811 7.641 8.144a8.17 8.17 0 0 1-8.17 8.17h-5.422l-.027.002q-.016 0-.029-.002M248.524 145.643c0 4.123 3.354 7.476 7.476 7.476s7.476-3.353 7.476-7.476-3.354-7.476-7.476-7.476-7.476 3.354-7.476 7.476m-93.657 121.096h31.852l-15.926-49.864zm186.341-49.866-15.926 49.864h31.852zM256 79.949c-97.075 0-176.051 78.977-176.051 176.051S158.925 432.051 256 432.051c56.986 0 110.71-27.792 143.712-74.342 2.61-3.681 1.741-8.78-1.94-11.39s-8.781-1.742-11.39 1.94C356.438 390.494 307.698 415.71 256 415.71c-88.065 0-159.71-71.646-159.71-159.71S167.935 96.29 256 96.29 415.71 167.935 415.71 256c0 22.728-4.678 44.687-13.905 65.266a8.17 8.17 0 0 0 14.91 6.686c10.175-22.695 15.335-46.904 15.335-71.951.001-97.076-78.975-176.052-176.05-176.052"/></svg>