<svg xmlns="http://www.w3.org/2000/svg" xml:space="preserve" width="800" height="800" viewBox="0 0 512 512"><circle cx="256" cy="256" r="247.83" style="fill:#fcde65"/><circle cx="256" cy="256" r="220.596" style="fill:#c9a413"/><path d="M307.303 99.684c-52.238 0-94.587 42.348-94.587 94.586q0 2.45.123 4.867h-42.498c-19.444 0-35.207 15.763-35.207 35.207 0 17.708 13.073 32.356 30.095 34.833l128.326 18.681c4.488.654 9.078.998 13.748.998 52.239 0 94.587-42.348 94.587-94.587.001-52.237-42.347-94.585-94.587-94.585" style="fill:#fcde65"/><path d="M437.019 74.981C388.667 26.628 324.38 0 256 0S123.332 26.628 74.981 74.981C26.628 123.332 0 187.62 0 256s26.628 132.668 74.981 181.019C123.332 485.372 187.62 512 256 512s132.667-26.628 181.019-74.981C485.372 388.668 512 324.38 512 256s-26.628-132.668-74.981-181.019M256 495.66C123.851 495.66 16.34 388.15 16.34 256S123.851 16.34 256 16.34 495.66 123.851 495.66 256 388.149 495.66 256 495.66m-77.488-261.315c0 4.791-3.898 8.69-8.69 8.69s-8.69-3.898-8.69-8.69 3.898-8.69 8.69-8.69 8.69 3.899 8.69 8.69M307.303 91.513c-55.553 0-100.951 44.318-102.704 99.454h-34.257c-23.919 0-43.377 19.459-43.377 43.377 0 8.909 2.774 17.303 7.53 24.294l-38.876 38.876a8.17 8.17 0 0 0 5.777 13.947 8.14 8.14 0 0 0 5.777-2.393l38.854-38.854a42.84 42.84 0 0 0 18.026 7.049l128.325 18.681c.817.119 1.638.214 2.46.313v43.652h-24.912c-4.513 0-8.17 3.658-8.17 8.17s3.657 8.17 8.17 8.17h13.357l-9.445 9.445a8.17 8.17 0 0 0 5.778 13.947 8.15 8.15 0 0 0 5.778-2.393l23.393-23.393.037-.041q.263-.267.502-.557c.083-.1.156-.206.232-.309.083-.111.168-.218.244-.332.082-.121.153-.247.227-.371.062-.105.127-.206.185-.314.069-.126.125-.256.185-.386.053-.112.11-.223.158-.339.053-.126.095-.256.141-.385.045-.123.092-.245.13-.37.039-.13.069-.263.101-.393.032-.127.069-.252.094-.382.031-.154.049-.309.071-.465.015-.109.036-.215.047-.326q.04-.405.04-.814v-51.127c15.376-.573 29.902-4.533 42.844-11.166v54.128h-24.912a8.17 8.17 0 0 0-8.17 8.17 8.17 8.17 0 0 0 8.17 8.17h13.358l-9.446 9.445a8.17 8.17 0 0 0 5.778 13.947c2.09 0 4.182-.797 5.778-2.393l23.393-23.393q.018-.02.037-.041.263-.267.503-.557c.082-.1.155-.206.231-.309.082-.111.167-.218.244-.332.082-.121.153-.247.225-.371.063-.105.129-.206.186-.314.069-.126.124-.256.186-.386.052-.112.109-.223.157-.339.052-.126.095-.256.142-.385.044-.123.09-.245.129-.37.039-.13.069-.263.101-.393.032-.127.069-.252.094-.382.029-.154.049-.309.07-.465.016-.109.036-.215.048-.326q.04-.405.04-.814v-72.727c24.144-18.82 39.7-48.165 39.7-81.077-.006-56.654-46.104-102.751-102.764-102.751m63.057 161.758v-5.846c0-4.512-3.657-8.17-8.17-8.17s-8.17 3.658-8.17 8.17v19.488c-13.482 8.701-29.514 13.774-46.717 13.774a87.5 87.5 0 0 1-12.572-.913l-128.325-18.681c-13.169-1.916-23.101-13.415-23.101-26.748 0-14.908 12.129-27.037 27.037-27.037h42.498a8.17 8.17 0 0 0 8.16-8.584 89 89 0 0 1-.112-4.452c0-47.651 38.766-86.417 86.416-86.417s86.417 38.766 86.417 86.417c-.001 22.794-8.888 43.542-23.361 58.999m35.451 92.793a8.17 8.17 0 0 1 11.216-2.773 8.17 8.17 0 0 1 2.773 11.217c-16.732 27.724-40.389 50.941-68.415 67.138-28.904 16.706-61.888 25.537-95.386 25.537-14.688 0-29.353-1.69-43.585-5.021a8.17 8.17 0 0 1 3.724-15.91 175 175 0 0 0 39.861 4.591c60.847 0 118.252-32.485 149.812-84.779m-219.292 70.351a8.17 8.17 0 0 1-6.517 14.985c-36.195-15.741-67.378-43.048-87.805-76.893a8.172 8.172 0 0 1 13.991-8.444c18.69 30.968 47.218 55.953 80.331 70.352M484.766 256c0 126.142-102.624 228.766-228.766 228.766S27.234 382.142 27.234 256c0-54.746 19.725-107.756 55.542-149.265a8.17 8.17 0 1 1 12.372 10.674C61.89 155.953 43.574 205.171 43.574 256c0 117.131 95.294 212.426 212.426 212.426S468.426 373.131 468.426 256c0-110.676-86.395-203.727-196.684-211.842a8.17 8.17 0 0 1-7.549-8.748c.331-4.5 4.259-7.882 8.746-7.549 57.402 4.223 110.767 29.851 150.264 72.161 39.701 42.528 61.563 97.922 61.563 155.978M105.886 94.3a8.17 8.17 0 0 1 .849-11.523c37.447-32.312 83.204-51.301 132.326-54.915 4.5-.329 8.418 3.049 8.748 7.549a8.17 8.17 0 0 1-7.549 8.748c-45.597 3.354-88.078 20.987-122.851 50.99a8.14 8.14 0 0 1-5.334 1.985 8.16 8.16 0 0 1-6.189-2.834"/></svg>