<svg xmlns="http://www.w3.org/2000/svg" xml:space="preserve" width="800" height="800" viewBox="0 0 512 512"><circle cx="256" cy="256" r="247.742" style="fill:#ffad38"/><path d="M40.74 166.836 166.836 40.74h178.328L471.26 166.836v178.328L345.164 471.26H166.836L40.74 345.164z" style="fill:#fcde65"/><path d="M366.703 212.786c-10.628-51.374-56.226-90.108-110.703-90.108s-100.075 38.735-110.704 90.108c-30.087 8.029-52.255 35.461-52.255 68.079 0 38.92 31.55 70.469 70.469 70.469s70.469-31.549 70.469-70.469c0-33.413-23.262-61.373-54.469-68.622 10.196-33.162 41.245-56.533 76.491-56.533 35.243 0 66.295 23.371 76.492 56.533-31.208 7.248-54.47 35.209-54.47 68.622 0 38.92 31.55 70.469 70.469 70.469s70.469-31.549 70.469-70.469c-.002-32.618-22.17-60.049-52.258-68.079" style="fill:#fd9a0c"/><path d="M272.516 240.311v-90.84h-33.032v90.84c-33.707 7.534-58.908 37.608-58.908 73.587 0 41.656 33.768 75.424 75.424 75.424s75.424-33.768 75.424-75.424c0-35.979-25.201-66.054-58.908-73.587" style="fill:#ffad38"/><circle cx="232.404" cy="313.895" r="13.522" style="fill:#ca7b0a"/><path d="M437.019 74.981C388.666 26.628 324.38 0 256 0S123.334 26.628 74.981 74.981C26.63 123.333 0 187.62 0 256s26.63 132.667 74.981 181.019C123.334 485.372 187.62 512 256 512s132.666-26.628 181.019-74.981C485.371 388.667 512 324.38 512 256s-26.629-132.667-74.981-181.019M495.484 256c0 30.283-5.665 59.264-15.966 85.96V170.04c10.301 26.696 15.966 55.677 15.966 85.96m-20.674-97.293L353.293 37.19c53.957 24.087 97.43 67.559 121.517 121.517M341.96 32.482H170.04c26.696-10.301 55.676-15.966 85.96-15.966s59.264 5.665 85.96 15.966M158.707 37.19 37.19 158.707c24.087-53.958 67.559-97.43 121.517-121.517M32.482 170.04v101.633c0 4.561 3.696 8.258 8.258 8.258s8.258-3.697 8.258-8.258V170.257L170.257 48.998h171.486l121.259 121.259v171.486L341.743 463.002H170.257L48.998 341.743v-37.038c0-4.561-3.696-8.258-8.258-8.258s-8.258 3.697-8.258 8.258v37.255C22.181 315.264 16.516 286.283 16.516 256s5.665-59.264 15.966-85.96m4.708 183.253 121.516 121.516c-53.957-24.086-97.429-67.558-121.516-121.516m132.85 126.225h171.921c-26.696 10.301-55.677 15.966-85.96 15.966-30.285 0-59.265-5.665-85.961-15.966m183.253-4.708 121.516-121.516c-24.086 53.957-67.559 97.429-121.516 121.516m21.348-90.865a8.26 8.26 0 0 1-.987 11.637c-32.84 27.707-74.623 42.967-117.654 42.967s-84.814-15.259-117.653-42.965a8.258 8.258 0 0 1 10.649-12.624c29.864 25.197 67.866 39.073 107.004 39.073s77.14-13.877 107.004-39.075a8.26 8.26 0 0 1 11.637.987M80.378 280.866c0-3.314 1.957-6.165 4.774-7.48 2.933-30.771 23.759-57.203 53.163-67.115C151.711 152.759 200.423 114.42 256 114.42s104.289 38.338 117.685 91.851c29.403 9.912 50.229 36.344 53.162 67.116a8.25 8.25 0 0 1 4.774 7.479 8.25 8.25 0 0 1-4.765 7.475c-3.439 35.936-31.4 65.624-67.722 70.537q-.566.076-1.119.076a8.26 8.26 0 0 1-1.096-16.444c27.897-3.773 49.545-26.055 53.223-53.387H359.28c-4.562 0-8.258-3.697-8.258-8.258s3.696-8.258 8.258-8.258h50.864c-3.294-24.61-21.105-45.314-45.569-51.842a8.26 8.26 0 0 1-5.958-6.306c-10.014-48.397-53.171-83.523-102.617-83.523s-92.604 35.127-102.616 83.523a8.26 8.26 0 0 1-5.958 6.306c-24.465 6.529-42.276 27.232-45.57 51.842h50.865c4.562 0 8.258 3.697 8.258 8.258s-3.696 8.258-8.258 8.258h-50.863c3.678 27.332 25.325 49.614 53.223 53.388a8.26 8.26 0 0 1 7.077 9.291c-.612 4.519-4.762 7.694-9.291 7.077-36.321-4.913-64.283-34.601-67.723-70.538-2.813-1.317-4.766-4.164-4.766-7.475m110.599-19.631c-10.428 12.853-16.787 28.616-18.3 45.044a8.258 8.258 0 0 0 .003 15.24c3.865 42.581 39.748 76.061 83.32 76.061s79.455-33.478 83.319-76.061c2.981-1.245 5.076-4.188 5.076-7.621s-2.093-6.373-5.073-7.619c-1.513-16.428-7.872-32.191-18.3-45.044-6.055-7.462-13.349-13.788-21.468-18.746 4.547-5.783 10.092-10.773 16.373-14.638a61.7 61.7 0 0 1 18.427-7.578 8.26 8.26 0 0 0 6.025-10.473c-8.776-28.511-31.294-50.524-59.606-58.8v-1.529a8.257 8.257 0 0 0-8.258-8.258 8.257 8.257 0 0 0-8.258 8.258v90.84a8.26 8.26 0 0 0 6.457 8.059c27.676 6.186 48.433 29.594 51.924 57.27h-70.094c-3.261-7.924-11.058-13.523-20.145-13.523s-16.883 5.598-20.144 13.523H189.36c3.492-27.677 24.249-51.084 51.925-57.27a8.26 8.26 0 0 0 6.457-8.059v-90.84a8.257 8.257 0 0 0-8.258-8.258 8.257 8.257 0 0 0-8.258 8.258V151c-28.313 8.276-50.83 30.288-59.605 58.8a8.26 8.26 0 0 0 6.025 10.473 61.7 61.7 0 0 1 18.426 7.579c6.281 3.865 11.826 8.854 16.372 14.635-8.117 4.959-15.413 11.286-21.467 18.748m130.701-54.405a78.4 78.4 0 0 0-14.406 6.954 79.3 79.3 0 0 0-22.907 21.406 83 83 0 0 0-3.592-1.217v-65.598a71.85 71.85 0 0 1 40.905 38.455M256 381.063c-34.238 0-62.554-25.757-66.639-58.908h22.896c3.261 7.924 11.057 13.522 20.144 13.522s16.884-5.598 20.145-13.522h70.094c-4.086 33.152-32.402 58.908-66.64 58.908m-23.6-72.429a5.27 5.27 0 0 1 5.264 5.258v.014a5.27 5.27 0 0 1-5.264 5.258 5.27 5.27 0 0 1-5.264-5.264 5.27 5.27 0 0 1 5.264-5.266m-27.668-94.847a78.4 78.4 0 0 0-14.409-6.956 71.85 71.85 0 0 1 40.903-38.455v65.598a82 82 0 0 0-3.592 1.217 79.3 79.3 0 0 0-22.902-21.404m42.579-134.664a8.26 8.26 0 0 1 2.29-11.451l3.635-2.422a8.26 8.26 0 0 1 12.838 6.87v24.224c0 4.561-3.696 8.258-8.258 8.258s-8.258-3.697-8.258-8.258V81.388a8.2 8.2 0 0 1-2.247-2.265"/></svg>