<svg xmlns="http://www.w3.org/2000/svg" xml:space="preserve" width="800" height="800" viewBox="0 0 512 512"><circle cx="256" cy="256" r="247.83" style="fill:#ffad66"/><circle cx="256" cy="256" r="220.596" style="fill:#f70"/><path d="M339.238 229.459v-39.435c0-9.122-7.396-16.518-16.518-16.518h-53.733v-27.967c0-7.046-5.712-12.758-12.758-12.758s-12.758 5.712-12.758 12.758v27.967h-33.137v-27.967c0-7.046-5.712-12.758-12.758-12.758s-12.758 5.712-12.758 12.758v153.175c0 9.123 7.396 16.518 16.518 16.518h93.126v41.781c0 9.122 7.396 16.518 16.518 16.518h11.738c9.123 0 16.518-7.396 16.518-16.518v-41.781h20.404c9.122 0 16.518-7.395 16.518-16.518v-69.256h-36.922v.001zM118.369 229.459v69.256c0 9.123 7.396 16.518 16.518 16.518s16.518-7.395 16.518-16.518v-69.256z" style="fill:#ffc066"/><path d="M437.019 74.981C388.668 26.628 324.38 0 256 0S123.332 26.628 74.981 74.981C26.628 123.332 0 187.62 0 256s26.628 132.668 74.981 181.019C123.332 485.372 187.62 512 256 512s132.668-26.628 181.019-74.981C485.372 388.668 512 324.38 512 256s-26.628-132.668-74.981-181.019M256 495.66C123.851 495.66 16.34 388.15 16.34 256S123.851 16.34 256 16.34 495.66 123.851 495.66 256 388.149 495.66 256 495.66m-20.698-350.121v19.797h-16.797v-19.797c0-11.54-9.388-20.928-20.928-20.928s-20.928 9.388-20.928 20.928v153.175c0 13.614 11.076 24.688 24.688 24.688h84.956v33.61c0 13.614 11.076 24.688 24.688 24.688h11.738c13.613 0 24.688-11.076 24.688-24.688v-33.61h12.234c13.613 0 24.688-11.076 24.688-24.688v-61.086h9.534a8.17 8.17 0 0 0 0-16.34h-46.454v-31.264c0-13.614-11.076-24.689-24.688-24.689h-45.563v-19.796c0-11.54-9.388-20.928-20.928-20.928s-20.928 9.388-20.928 20.928m25.515 0v27.967a8.17 8.17 0 0 0 8.17 8.17h53.733c4.603 0 8.348 3.745 8.348 8.349v39.434a8.17 8.17 0 0 0 8.17 8.17h28.752v61.086c0 4.604-3.745 8.348-8.348 8.348h-20.404a8.17 8.17 0 0 0-8.17 8.17v41.78c0 4.604-3.745 8.348-8.348 8.348h-11.738c-4.604 0-8.348-3.745-8.348-8.348v-41.78a8.17 8.17 0 0 0-8.17-8.17h-93.126c-4.604 0-8.348-3.744-8.348-8.348V145.539c0-2.53 2.058-4.587 4.587-4.587s4.587 2.058 4.587 4.587v27.967a8.17 8.17 0 0 0 8.17 8.17h33.137a8.17 8.17 0 0 0 8.17-8.17v-27.967a4.59 4.59 0 0 1 4.587-4.587 4.59 4.59 0 0 1 4.589 4.587m-142.448 75.75a8.17 8.17 0 0 0-8.17 8.17v69.256c0 13.614 11.076 24.688 24.688 24.688 13.613 0 24.688-11.076 24.688-24.688v-69.256a8.17 8.17 0 0 0-8.17-8.17zm24.865 77.425c0 4.604-3.745 8.348-8.348 8.348s-8.348-3.744-8.348-8.348v-61.086h16.696zm165.058 118.178a8.17 8.17 0 0 1 0 16.34H203.707a8.17 8.17 0 0 1 0-16.34zM271.603 86.233a8.17 8.17 0 0 1-7.399-8.874c.407-4.494 4.394-7.804 8.874-7.399 46.23 4.193 89.048 25.403 120.565 59.723 31.716 34.535 49.183 79.396 49.183 126.317a8.17 8.17 0 0 1-16.34 0c-.001-88.775-66.586-161.759-154.883-169.767m-23.807-8.874a8.17 8.17 0 0 1-7.399 8.874C152.1 94.241 85.515 167.225 85.515 256a8.17 8.17 0 0 1-16.34 0c0-46.921 17.467-91.782 49.181-126.318 31.517-34.32 74.335-55.53 120.565-59.723 4.493-.41 8.469 2.906 8.875 7.4M484.766 256c0 126.142-102.624 228.766-228.766 228.766-58.151 0-113.576-21.841-156.061-61.5-42.272-39.46-67.87-92.847-72.08-150.329a8.17 8.17 0 0 1 7.551-8.745c4.493-.334 8.415 3.051 8.745 7.551C52.232 382.033 145.285 468.426 256 468.426c117.131 0 212.426-95.294 212.426-212.426S373.131 43.574 256 43.574c-110.715 0-203.768 86.393-211.844 196.682-.329 4.5-4.245 7.887-8.745 7.551a8.17 8.17 0 0 1-7.551-8.745c4.209-57.481 29.808-110.869 72.08-150.329 42.486-39.658 97.91-61.5 156.061-61.5C382.142 27.234 484.766 129.858 484.766 256"/></svg>