<svg xmlns="http://www.w3.org/2000/svg" xml:space="preserve" width="800" height="800" viewBox="0 0 512 512"><circle cx="256" cy="256" r="247.83" style="fill:#a8a2a2"/><circle cx="256" cy="256" r="194.996" style="fill:#bcb6b8"/><path d="M391.494 300.713c-18.759 56.878-72.331 97.929-135.494 97.929s-116.735-41.053-135.494-97.929H93.698c19.583 71.25 84.831 123.594 162.302 123.594s142.717-52.343 162.302-123.592z" style="fill:#8c8484"/><path d="M398.707 376.561a8.17 8.17 0 0 0 .963 11.515 8.17 8.17 0 0 0 11.513-.962c30.941-36.588 47.982-83.152 47.982-131.113 0-112.026-91.139-203.166-203.166-203.166S52.834 143.974 52.834 256 143.973 459.166 256 459.166c47.962 0 94.525-17.041 131.111-47.982a8.17 8.17 0 0 0-10.55-12.477c-31.559 26.689-71.193 42.13-112.391 43.938V432.28c75.826-3.518 141.76-55.732 162.01-129.402a8.17 8.17 0 0 0-7.878-10.336h-26.807a8.17 8.17 0 0 0-7.76 5.611C365.523 353.371 314.19 390.472 256 390.472s-109.523-37.1-127.735-92.318a8.17 8.17 0 0 0-7.76-5.611l-26.807-.001a8.17 8.17 0 0 0-7.878 10.336c20.249 73.671 86.182 125.884 162.01 129.403v10.355C148.59 438.344 69.174 356.278 69.174 256c0-103.015 83.81-186.826 186.826-186.826S442.826 152.984 442.826 256c0 44.104-15.669 86.92-44.119 120.561m-1.427-67.678h9.921c-21.358 61.112-78.14 103.717-143.032 107.035v-9.351c59.882-3.205 112.091-41.412 133.111-97.684m-292.482 0h9.92c21.024 56.272 73.231 94.479 133.111 97.684v9.351c-64.891-3.318-121.673-45.922-143.031-107.035M437.019 74.981C388.667 26.628 324.38 0 256 0S123.333 26.628 74.981 74.981C26.628 123.332 0 187.62 0 256s26.628 132.668 74.981 181.019C123.333 485.372 187.62 512 256 512s132.667-26.628 181.019-74.981C485.372 388.668 512 324.38 512 256s-26.628-132.668-74.981-181.019M256 495.66C123.851 495.66 16.34 388.15 16.34 256S123.851 16.34 256 16.34 495.66 123.851 495.66 256 388.149 495.66 256 495.66m-61.597-26.77a8.175 8.175 0 0 1-7.758 5.615 8.2 8.2 0 0 1-2.559-.413c-36.089-11.893-69.013-32.877-95.21-60.682-26.291-27.903-45.298-62.146-54.968-99.03a8.17 8.17 0 1 1 15.806-4.144c18.395 70.16 70.539 125.613 139.487 148.335a8.173 8.173 0 0 1 5.202 10.319m106.331 4.156a8.17 8.17 0 0 1-6.715 9.402A232 232 0 0 1 256 485.582a232 232 0 0 1-38.026-3.136 8.17 8.17 0 0 1 2.687-16.118c23.184 3.866 47.485 3.867 70.671.001a8.17 8.17 0 0 1 9.402 6.717M478.092 314.38c-9.67 36.884-28.677 71.127-54.968 99.031-26.198 27.805-59.121 48.788-95.209 60.682a8.2 8.2 0 0 1-2.559.413 8.17 8.17 0 0 1-7.758-5.615 8.17 8.17 0 0 1 5.202-10.317c68.947-22.722 121.091-78.175 139.486-148.336a8.17 8.17 0 0 1 9.975-5.831 8.167 8.167 0 0 1 5.831 9.973m7.491-58.38c0 4.512-3.657 8.17-8.17 8.17s-8.17-3.658-8.17-8.17c0-117.582-95.66-213.243-213.243-213.243S42.757 138.418 42.757 256c0 4.512-3.657 8.17-8.17 8.17s-8.17-3.658-8.17-8.17c0-126.593 102.99-229.583 229.583-229.583S485.583 129.407 485.583 256m-214.821-35.88c20.502-2.142 41.366 5.459 55.627 21.231 18.464 20.417 22.21 50.471 9.319 74.785a8.17 8.17 0 0 1-11.045 3.392 8.17 8.17 0 0 1-3.391-11.045c9.681-18.262 6.867-40.835-7.002-56.172-10.22-11.303-24.957-17.017-39.664-16.12 14.457 14.694 21.525 35.745 18.087 56.73-4.451 27.165-25.614 48.831-52.66 53.914a8.172 8.172 0 0 1-3.018-16.061c20.312-3.817 36.207-20.091 39.551-40.496 2.464-15.04-2.256-30.122-12.127-41.061-2.474 20.466-14.527 39.116-33.076 49.51-9.992 5.599-21.044 8.343-32.044 8.343-15.438 0-30.772-5.402-42.939-15.899a8.171 8.171 0 0 1 10.674-12.372c15.65 13.503 38.287 15.782 56.32 5.673 13.299-7.452 22.15-20.553 24.545-35.095a66.1 66.1 0 0 1-34.667 9.846 65.3 65.3 0 0 1-24.666-4.824c-25.493-10.384-41.908-35.836-40.845-63.335a8.17 8.17 0 0 1 8.479-7.849 8.17 8.17 0 0 1 7.848 8.48c-.797 20.654 11.532 39.771 30.681 47.571 14.114 5.749 29.87 4.503 42.731-2.685-19.402-6.966-34.902-22.866-40.91-43.264-7.777-26.406 1.889-55.109 24.052-71.422a8.17 8.17 0 0 1 9.687 13.159c-16.645 12.253-23.905 33.812-18.065 53.647 4.305 14.619 15.103 26.16 28.742 31.734-6.649-19.513-3.882-41.545 8.319-58.958 15.798-22.542 44.262-32.881 70.836-25.726a8.17 8.17 0 0 1-4.248 15.778c-19.961-5.376-41.339 2.392-53.204 19.325-8.745 12.481-11.037 28.118-6.891 42.256 11.109-17.366 30.06-28.939 51.283-30.256 27.502-1.703 53.306 14.105 64.279 39.342a8.171 8.171 0 0 1-14.985 6.517c-8.242-18.955-27.663-30.83-48.281-29.549-15.209.94-28.863 8.899-37.332 20.956M99.178 239.069a8.17 8.17 0 0 1 8.17 8.17v16.433c0 4.512-3.657 8.17-8.17 8.17s-8.17-3.658-8.17-8.17v-16.433a8.17 8.17 0 0 1 8.17-8.17m313.644 0a8.17 8.17 0 0 1 8.17 8.17v16.433c0 4.512-3.657 8.17-8.17 8.17s-8.17-3.658-8.17-8.17v-16.433a8.17 8.17 0 0 1 8.17-8.17"/></svg>