<svg xmlns="http://www.w3.org/2000/svg" xml:space="preserve" width="800" height="800" viewBox="0 0 512 512"><circle cx="256" cy="256" r="247.83" style="fill:#bcb6b8"/><circle cx="256" cy="256" r="220.596" style="fill:#d2cfce"/><path d="M344.931 191.625H294.31c0 17.769-12.098 32.706-28.505 37.037V202.03c-13.776 0-25.015 10.853-25.638 24.477-13.254-6.026-22.476-19.373-22.476-34.882-16.371-.971-50.25 0-50.25 0 0 50.602 33.772 80.479 72.695 87.492l-8.804 60.661h49.337l-8.805-60.661c41.541-7.484 73.067-43.793 73.067-87.492" style="fill:#8c8484"/><path d="M437.019 74.981C388.668 26.628 324.38 0 256 0S123.332 26.628 74.981 74.981C26.628 123.332 0 187.62 0 256s26.628 132.668 74.981 181.019C123.332 485.372 187.62 512 256 512s132.668-26.628 181.019-74.981C485.372 388.668 512 324.38 512 256s-26.628-132.668-74.981-181.019M256 495.66C123.851 495.66 16.34 388.15 16.34 256S123.851 16.34 256 16.34 495.66 123.851 495.66 256 388.149 495.66 256 495.66m54.341-72.08a8.17 8.17 0 0 1-5.729 10.034c-15.764 4.305-32.119 6.488-48.612 6.488-16.49 0-32.844-2.182-48.608-6.487a8.17 8.17 0 1 1 4.304-15.764c14.362 3.923 29.268 5.911 44.304 5.911 15.039 0 29.945-1.989 44.307-5.911a8.17 8.17 0 0 1 10.034 5.729m17.503-6.729a8.17 8.17 0 0 1 3.614-10.975c56.934-28.724 92.303-86.153 92.303-149.875 0-92.504-75.257-167.762-167.762-167.762S88.238 163.496 88.238 256c0 63.724 35.37 121.154 92.307 149.878a8.171 8.171 0 0 1-7.359 14.59 184.7 184.7 0 0 1-73.168-66.633c-18.396-29.271-28.12-63.101-28.12-97.835 0-101.514 82.588-184.102 184.102-184.102S440.102 154.486 440.102 256c0 34.732-9.724 68.562-28.119 97.832a184.7 184.7 0 0 1-73.165 66.633 8.17 8.17 0 0 1-10.974-3.614M484.221 256c0 125.842-102.379 228.221-228.221 228.221S27.779 381.842 27.779 256c0-54.682 19.643-107.58 55.31-148.95a8.171 8.171 0 0 1 12.376 10.67C62.354 156.125 44.119 205.234 44.119 256c0 116.832 95.049 211.881 211.881 211.881S467.881 372.832 467.881 256 372.832 44.119 256 44.119c-50.768 0-99.876 18.235-138.279 51.346a8.17 8.17 0 0 1-11.523-.853 8.17 8.17 0 0 1 .853-11.523c41.37-35.667 94.267-55.31 148.95-55.31 125.841 0 228.22 102.379 228.22 228.221M238.026 143.897a8.17 8.17 0 0 1 8.17-8.17h19.609a8.17 8.17 0 0 1 0 16.34h-19.609a8.17 8.17 0 0 1-8.17-8.17m90.718 200.272a8.14 8.14 0 0 0 5.777-2.393 8.17 8.17 0 0 0 0-11.554L287.7 283.401a96.66 96.66 0 0 0 39.081-25.276h29.01a8.17 8.17 0 0 0 0-16.34h-16.62a97 97 0 0 0 6.478-12.823h27.067a8.17 8.17 0 0 0 0-16.34h-21.905a97 97 0 0 0 1.949-12.823h24.852a8.17 8.17 0 0 0 0-16.34h-83.304a8.17 8.17 0 0 0-8.17 8.17c0 9.749-4.688 18.637-12.164 24.199v-47.963a8.17 8.17 0 0 0-8.17-8.17h-19.609a8.17 8.17 0 0 0 0 16.34h11.438v18.835a33.8 33.8 0 0 0-22.501 18.485c-5.813-5.595-9.272-13.41-9.272-21.728a8.17 8.17 0 0 0-8.17-8.17h-83.304a8.17 8.17 0 0 0 0 16.34h24.852a97 97 0 0 0 1.949 12.823h-21.905a8.17 8.17 0 0 0 0 16.34h27.067a97 97 0 0 0 6.478 12.823h-16.62a8.17 8.17 0 0 0 0 16.34h29.01a96.65 96.65 0 0 0 39.081 25.276l-46.821 46.821a8.17 8.17 0 0 0 5.777 13.947c2.09 0 4.182-.797 5.777-2.393l39.485-39.484-5.27 36.312v.001l-.84 5.789a8.172 8.172 0 0 0 8.096 9.346 8.17 8.17 0 0 0 7.799-5.79h9.53v24.511a8.17 8.17 0 0 0 16.34 0v-24.511h9.53a8.17 8.17 0 0 0 8.983 5.704 8.17 8.17 0 0 0 6.912-9.26l-.84-5.789v-.001l-5.27-36.312 39.484 39.484a8.13 8.13 0 0 0 5.774 2.395m-87.971-12.56 7.448-51.318c.009-.061.01-.122.017-.183q.026-.21.04-.423.014-.2.02-.397.003-.186-.001-.373a7.7 7.7 0 0 0-.189-1.553 8 8 0 0 0-.211-.776 7.122 7.122 0 0 0-.286-.749 7 7 0 0 0-.352-.706 7 7 0 0 0-.181-.305 7 7 0 0 0-.465-.672 7 7 0 0 0-.234-.295 8 8 0 0 0-.318-.352c-.051-.054-.097-.113-.15-.167-.023-.023-.047-.04-.069-.063a9 9 0 0 0-.387-.35c-.072-.062-.143-.127-.217-.186a8 8 0 0 0-.413-.304c-.08-.056-.157-.115-.239-.169-.133-.086-.271-.163-.409-.242-.094-.053-.186-.112-.281-.161-.122-.063-.249-.117-.375-.173-.117-.053-.232-.111-.352-.159-.106-.042-.215-.075-.322-.112-.145-.051-.289-.106-.435-.148-.097-.027-.197-.047-.295-.072-.16-.04-.321-.082-.484-.112l-.051-.012c-18.474-3.329-34.502-12.785-46.182-26.04a8 8 0 0 0-.857-.97 80.6 80.6 0 0 1-18.898-44.271h34.6c2.669 14.856 12.497 27.765 26.536 34.148a8.168 8.168 0 0 0 11.544-7.063 17.44 17.44 0 0 1 9.305-14.668v16.452q.002.456.052.9c.009.077.024.151.035.228.031.222.066.441.114.658q.03.125.064.249.079.31.18.608.043.126.091.249a8.3 8.3 0 0 0 .668 1.363c.045.072.086.146.132.217q.204.31.435.599.039.054.081.108.275.335.585.638c.059.059.123.112.184.168a9 9 0 0 0 .477.413q.043.037.087.075c.05.039.106.069.157.107q.24.176.491.336.125.079.252.153.272.156.554.292.111.056.224.108.337.148.688.267.065.024.13.047.425.137.869.227.03.004.061.01.392.077.796.113c.113.011.227.012.34.017.141.007.281.022.424.022.039 0 .077-.005.115-.005.122-.001.245-.011.367-.019q.272-.015.537-.046a7 7 0 0 0 .324-.049q.298-.049.589-.12c.05-.012.102-.017.153-.031.06-.016.117-.037.176-.053q.147-.042.293-.089c17.441-4.802 30.295-19.23 33.399-36.624h34.595a80.6 80.6 0 0 1-18.898 44.271 8 8 0 0 0-.857.97c-11.679 13.255-27.708 22.712-46.182 26.04q-.025.006-.05.012c-.167.03-.33.073-.495.114-.094.024-.192.042-.284.07-.154.045-.303.1-.453.154-.101.036-.205.068-.304.107-.126.05-.249.112-.374.169-.118.053-.237.103-.352.163-.102.053-.202.115-.302.173-.132.075-.264.148-.389.23q-.13.088-.254.181c-.134.095-.269.188-.397.291q-.116.098-.231.2c-.126.11-.253.219-.371.337-.024.023-.05.042-.073.066-.057.057-.105.118-.159.176q-.156.164-.304.337a8 8 0 0 0-.246.309q-.116.15-.224.305a8.6 8.6 0 0 0-.62 1.057 8.4 8.4 0 0 0-.543 1.434 8.6 8.6 0 0 0-.267 1.534 8 8 0 0 0-.021.805 8 8 0 0 0 .059.821c.008.058.008.113.016.172l7.448 51.318h-30.453v-.008z"/></svg>