<svg xmlns="http://www.w3.org/2000/svg" xml:space="preserve" width="800" height="800" viewBox="0 0 512 512"><circle cx="256" cy="256" r="247.83" style="fill:#d2cfce"/><path d="M256 35.404C134.169 35.404 35.404 134.168 35.404 256c0 91.836 56.12 170.566 135.935 203.766l212.884-24.242C440.148 395.508 476.596 330.01 476.596 256c0-121.832-98.765-220.596-220.596-220.596" style="fill:#a8a2a2"/><path d="M168.963 235.363v15.658l-16.144 28.378a8.17 8.17 0 1 0 14.204 8.08l1.941-3.413v41.487l-17.436 15.483v21.757l41.407-16.532 37.491-.133s4.555 12.852 10.63 29.014l57.428-36.393V231.71z" style="fill:#d2cfce"/><path d="m307.81 266.708-113.18-69.853-29.433-42.878c-15.92 50.014 3.272 106.336 49.833 135.428s105.596 21.649 143.567-14.588z" style="fill:#ebeaea"/><path d="M256 476.596c47.821 0 92.084-15.222 128.219-41.078-8.485-47.687-41.874-83.823-79.705-107.829l-72.146 86.982-61.025 45.083c26.069 10.844 54.661 16.842 84.657 16.842" style="fill:#bcb6b8"/><path d="m306.582 326.132-90.049 66.758c3.39 4.322 9.276 15.223 15.835 21.781l91.305-68.542c3.61-2.709-8.824-15.253-17.091-19.997M321.405 119.154c-38.901-24.315-90.156-12.484-114.47 26.428-9.935 15.916-13.835 33.879-12.299 51.233l113.174 69.893.065.174c15.981-6.287 30.164-17.571 39.969-33.258 24.304-38.911 12.473-90.166-26.439-114.47" style="fill:#ebeaea"/><path d="M304.531 146.16c33.89 21.166 44.195 65.797 23.018 99.677-5.294 8.475-12.048 15.469-19.739 20.872l.065.174c-23.661 9.314-51.276 7.68-74.501-6.83-22.996-14.38-36.537-38.149-38.738-63.237 1.416-9.543 4.782-18.944 10.218-27.637 21.167-33.891 65.798-44.197 99.677-23.019" style="fill:#d2cfce"/><path d="M437.019 74.981C388.668 26.628 324.38 0 256 0S123.332 26.628 74.981 74.981C26.628 123.332 0 187.62 0 256s26.628 132.668 74.981 181.019C123.332 485.372 187.62 512 256 512s132.668-26.628 181.019-74.981C485.372 388.668 512 324.38 512 256s-26.628-132.668-74.981-181.019M256 495.66C123.851 495.66 16.34 388.15 16.34 256S123.851 16.34 256 16.34 495.66 123.851 495.66 256 388.149 495.66 256 495.66m0-468.426C129.858 27.234 27.234 129.858 27.234 256c0 94.77 57.928 176.261 140.232 210.935a8.2 8.2 0 0 0 1.584.648c26.821 11.062 56.182 17.182 86.95 17.182 126.142 0 228.766-102.624 228.766-228.766S382.142 27.234 256 27.234M388.238 422.12a192 192 0 0 0-6.815-17.542c19.582-16.569 35.989-37.146 47.66-59.876a8.17 8.17 0 0 0-3.536-11 8.17 8.17 0 0 0-11 3.536c-10.091 19.653-24.044 37.555-40.666 52.27-13.567-24.361-32.377-45.581-55.319-62.151l2.537-1.904a8.17 8.17 0 0 0-9.808-13.068l-4.635 3.479v-3.801c21.099-5.031 41.045-15.551 57.584-31.334a8.17 8.17 0 0 0 2.16-8.339 8.18 8.18 0 0 0-6.513-5.64l-27.416-4.378a91.2 91.2 0 0 0 22.301-24.422c26.66-42.667 13.637-99.069-29.03-125.728-42.667-26.661-99.069-13.639-125.728 29.03a91.2 91.2 0 0 0-12.251 31.157l-15.827-23.056a8.17 8.17 0 0 0-14.522 2.146c-9.181 28.843-7.44 59.007 3.381 85.561v29.396l-12.942 22.748a8.17 8.17 0 0 0 7.095 12.212 8.19 8.19 0 0 0 5.848-2.466v22.933l-14.691 13.045a8.17 8.17 0 0 0 10.85 12.218l17.436-15.483a8.17 8.17 0 0 0 2.745-6.109v-8.329h6.4a8.17 8.17 0 0 0 0-16.34h-6.4v-35.187a125.8 125.8 0 0 0 33.568 30.638c20.592 12.868 43.735 19.163 66.732 19.163 4.304 0 8.603-.229 12.88-.668v13.3l-45.365 34.056c-4.03-10.913-6.786-18.686-6.822-18.785-1.159-3.272-4.246-5.411-7.73-5.442l-37.491.133a8.2 8.2 0 0 0-3 .583l-41.408 16.53a8.17 8.17 0 0 0 6.058 15.176l39.962-15.955 30.162-.107a1967 1967 0 0 0 6.632 18.101l-18.565 13.936a8.17 8.17 0 1 0 9.81 13.068l69.568-52.224 11.261-8.453 1.429-1.072c25.419 17.273 45.641 40.626 58.973 67.77q.197.47.456.918a175 175 0 0 1 10.092 25.963c-33.841 22.785-74.563 36.098-118.337 36.098-23.702 0-46.508-3.904-67.813-11.099l20.951-15.728.076-.058 57.416-43.101a8.17 8.17 0 0 0-9.808-13.068l-54.116 40.624c-45.263-14.186-83.475-46.344-105.252-88.756a8.17 8.17 0 0 0-11-3.536 8.17 8.17 0 0 0-3.536 11c22.007 42.859 59.397 76.122 104.039 93.114l-16.68 12.522C95.723 417.325 43.574 342.643 43.574 256c0-117.131 95.294-212.426 212.426-212.426S468.426 138.869 468.426 256c0 67.179-31.354 127.166-80.188 166.12M176.673 232.68a8 8 0 0 0-.487-1.131c-7.456-17.962-10.117-37.859-7.227-57.656l17.771 25.888a93 93 0 0 0 1.758 10.347c5.484 23.747 19.886 43.937 40.555 56.852 14.684 9.176 31.278 13.897 48.175 13.897 6.886 0 13.825-.785 20.701-2.373a93 93 0 0 0 11.096-3.33l30.269 4.833c-35.418 24.305-82.504 25.849-119.923 2.47a109.4 109.4 0 0 1-42.688-49.797m35.108-59.176c18.75-30.008 58.418-39.166 88.426-20.418 30.008 18.75 39.168 58.417 20.418 88.426-4.518 7.23-10.297 13.366-17.168 18.259-21.03 7.785-45.31 6.128-65.755-6.647-20.434-12.768-32.568-33.849-34.8-56.149a63.7 63.7 0 0 1 8.879-23.471m133.906 46.814c4.953-31.001-8.568-63.436-36.823-81.09-28.279-17.668-63.391-15.581-89.088 2.504 14.528-17.511 35.926-27.014 57.735-27.014a74.47 74.47 0 0 1 39.569 11.361c32.107 20.062 43.746 60.635 28.607 94.239M103.633 163.71C86.792 191.453 77.889 223.366 77.889 256a8.17 8.17 0 0 1-16.34 0c0-35.625 9.723-70.47 28.116-100.769a8.17 8.17 0 0 1 13.968 8.479M450.451 256a8.17 8.17 0 0 1-16.34 0c0-98.21-79.9-178.111-178.111-178.111-51.236 0-100.031 22.097-133.871 60.625a8.17 8.17 0 1 1-12.277-10.783C146.794 85.672 200.063 61.549 256 61.549c107.22 0 194.451 87.231 194.451 194.451"/></svg>