<svg xmlns="http://www.w3.org/2000/svg" xml:space="preserve" width="800" height="800" viewBox="0 0 512 512"><circle cx="256" cy="256" r="247.83" style="fill:#ffc066"/><path d="m256 118.838-32.779 56.778 65.536-.033z" style="fill:#fd9a0c"/><path d="M288.757 175.583a107 107 0 0 0-32.692-5.087c-11.449 0-22.495 1.787-32.844 5.12l-67.137 116.278 79.491 18.16h40.851l79.491-18.16z" style="fill:#ffad38"/><path d="m296.851 256 38.52 40.306h-77.04z" style="fill:#ffc066"/><path d="m256 256-38.52 40.306h77.04z" style="fill:#fd9a0c"/><path d="m215.149 256-38.52 40.306h77.04z" style="fill:#ffc066"/><path d="M355.916 291.894H156.084l-18.868 32.681h237.568z" style="fill:#fd9a0c"/><circle cx="256" cy="214.027" r="19.064" style="fill:#fd9a0c"/><path d="M437.019 74.981C388.667 26.628 324.38 0 256 0S123.332 26.628 74.981 74.981C26.628 123.332 0 187.62 0 256s26.628 132.668 74.981 181.019C123.332 485.372 187.62 512 256 512s132.667-26.628 181.019-74.981C485.372 388.668 512 324.38 512 256s-26.628-132.668-74.981-181.019M256 495.66C123.851 495.66 16.34 388.15 16.34 256S123.851 16.34 256 16.34 495.66 123.851 495.66 256 388.149 495.66 256 495.66m-8.715-460.256c0-4.805 3.91-8.715 8.715-8.715s8.715 3.91 8.715 8.715-3.91 8.715-8.715 8.715-8.715-3.91-8.715-8.715m-45.672 6.639c-.995-4.709 2.015-9.34 6.705-10.341a8.65 8.65 0 0 1 6.564 1.215 8.66 8.66 0 0 1 3.779 5.506c.482 2.273.05 4.6-1.217 6.55a8.66 8.66 0 0 1-5.505 3.779 8.7 8.7 0 0 1-1.812.192c-4.014-.001-7.642-2.81-8.514-6.901m-43.299 15.975c-1.953-4.39.029-9.552 4.421-11.505a8.65 8.65 0 0 1 6.664-.174 8.65 8.65 0 0 1 4.841 4.595c1.952 4.387-.028 9.547-4.415 11.503a8.7 8.7 0 0 1-3.535.753c-3.343 0-6.534-1.93-7.976-5.172m-39.026 24.641a8.65 8.65 0 0 1-1.558-6.493 8.66 8.66 0 0 1 3.491-5.688 8.66 8.66 0 0 1 6.484-1.551 8.66 8.66 0 0 1 5.688 3.491 8.65 8.65 0 0 1 1.552 6.478 8.66 8.66 0 0 1-3.475 5.68 8.7 8.7 0 0 1-5.124 1.665 8.7 8.7 0 0 1-7.058-3.582m-33.7 19.903c3.215-3.572 8.736-3.862 12.308-.648l.008.008c3.563 3.215 3.851 8.733.639 12.3a8.65 8.65 0 0 1-6.488 2.886 8.65 8.65 0 0 1-5.827-2.245c-3.564-3.207-3.855-8.729-.64-12.301m-28.176 38.782c2.403-4.16 7.743-5.593 11.906-3.189 4.161 2.403 5.592 7.744 3.189 11.906a8.72 8.72 0 0 1-11.904 3.188c-4.164-2.403-5.595-7.744-3.191-11.905m-3.446 42.532a8.65 8.65 0 0 1 .527 6.64 8.67 8.67 0 0 1-4.34 5.084 8.68 8.68 0 0 1-6.648.521 8.66 8.66 0 0 1-5.069-4.329 8.66 8.66 0 0 1-.523-6.654 8.65 8.65 0 0 1 4.332-5.07 8.65 8.65 0 0 1 6.639-.526 8.65 8.65 0 0 1 5.082 4.334m-24.124 54.552a8.66 8.66 0 0 1-1.897-6.397 8.67 8.67 0 0 1 3.183-5.863 8.66 8.66 0 0 1 6.407-1.892c4.772.509 8.245 4.801 7.744 9.577-.47 4.471-4.26 7.805-8.66 7.805a9 9 0 0 1-.916-.048 8.67 8.67 0 0 1-5.861-3.182m7.681 49.297a8.65 8.65 0 0 1-6.394-1.894 8.66 8.66 0 0 1-3.182-5.851 8.66 8.66 0 0 1 1.894-6.409 8.66 8.66 0 0 1 5.861-3.181c4.786-.501 9.075 2.978 9.578 7.757.502 4.781-2.978 9.077-7.757 9.578m16.966 33.748a8.67 8.67 0 0 1-.523 6.653 8.66 8.66 0 0 1-5.082 4.335 8.7 8.7 0 0 1-2.69.428 8.7 8.7 0 0 1-3.949-.954 8.67 8.67 0 0 1-4.332-5.07 8.66 8.66 0 0 1 .523-6.654 8.66 8.66 0 0 1 5.069-4.329 8.66 8.66 0 0 1 6.648.521 8.65 8.65 0 0 1 4.336 5.07m18.017 40.466c2.403 4.161.973 9.502-3.189 11.906a8.717 8.717 0 0 1-11.904-3.188c-2.403-4.161-.973-9.503 3.189-11.906 4.159-2.403 9.5-.973 11.904 3.188m26.043 35.846c3.204 3.56 2.917 9.078-.646 12.293a8.7 8.7 0 0 1-5.836 2.239 8.7 8.7 0 0 1-6.48-2.88c-3.213-3.569-2.925-9.084.639-12.3a8.67 8.67 0 0 1 6.295-2.232 8.65 8.65 0 0 1 6.028 2.88m36.396 35.317a8.66 8.66 0 0 1-1.564 6.495 8.65 8.65 0 0 1-5.676 3.475 8.65 8.65 0 0 1-6.491-1.556 8.65 8.65 0 0 1-3.485-5.682 8.65 8.65 0 0 1 1.556-6.49l.002-.002c2.821-3.881 8.277-4.75 12.165-1.93a8.66 8.66 0 0 1 3.493 5.69m39.293 27.965a8.66 8.66 0 0 1-4.841 4.595 8.7 8.7 0 0 1-3.124.583 8.7 8.7 0 0 1-3.544-.759c-4.385-1.951-6.368-7.111-4.415-11.503 1.953-4.391 7.116-6.375 11.505-4.421 4.391 1.957 6.371 7.117 4.419 11.505m43.206 5.961a8.66 8.66 0 0 1 1.215 6.565 8.65 8.65 0 0 1-3.776 5.491 8.65 8.65 0 0 1-6.565 1.214c-4.691-1.001-7.7-5.632-6.709-10.325l.003-.016c1.002-4.699 5.639-7.709 10.341-6.705a8.65 8.65 0 0 1 5.491 3.776m47.271 9.568c0 4.805-3.91 8.715-8.715 8.715s-8.715-3.91-8.715-8.715 3.91-8.715 8.715-8.715 8.715 3.91 8.715 8.715m45.678-6.612a8.65 8.65 0 0 1-1.216 6.533 8.66 8.66 0 0 1-5.497 3.782q-.917.193-1.817.192c-4.022 0-7.648-2.808-8.521-6.898a8.65 8.65 0 0 1 1.214-6.563 8.65 8.65 0 0 1 5.502-3.779 8.65 8.65 0 0 1 6.561 1.222 8.65 8.65 0 0 1 3.774 5.511m43.294-16.002c1.952 4.387-.028 9.547-4.415 11.503a8.7 8.7 0 0 1-3.545.759 8.7 8.7 0 0 1-3.124-.583 8.65 8.65 0 0 1-4.841-4.595 8.65 8.65 0 0 1-.172-6.668 8.67 8.67 0 0 1 4.598-4.839 8.65 8.65 0 0 1 6.658-.172 8.65 8.65 0 0 1 4.841 4.595m39.031-24.632a8.64 8.64 0 0 1 1.555 6.471 8.66 8.66 0 0 1-3.495 5.7 8.67 8.67 0 0 1-5.104 1.656 8.7 8.7 0 0 1-7.067-3.596c-2.817-3.886-1.952-9.341 1.93-12.164 3.9-2.828 9.361-1.956 12.181 1.933m33.695-19.912a8.7 8.7 0 0 1-6.483 2.881 8.68 8.68 0 0 1-5.826-2.233l-.008-.007c-3.563-3.216-3.85-8.733-.639-12.301a8.65 8.65 0 0 1 6.019-2.874 8.67 8.67 0 0 1 6.295 2.232c3.565 3.208 3.856 8.73.642 12.302m29.049-45.387a8.65 8.65 0 0 1-.88 6.617 8.64 8.64 0 0 1-5.28 4.047 8.668 8.668 0 0 1-6.619-.87 8.65 8.65 0 0 1-4.062-5.299 8.65 8.65 0 0 1 .88-6.617 8.64 8.64 0 0 1 5.28-4.047 8.66 8.66 0 0 1 6.619.869 8.66 8.66 0 0 1 4.062 5.3m18.102-43.841a8.65 8.65 0 0 1 .526 6.64 8.66 8.66 0 0 1-4.331 5.081 8.7 8.7 0 0 1-3.951.956 8.7 8.7 0 0 1-2.692-.428 8.66 8.66 0 0 1-5.083-4.335 8.65 8.65 0 0 1-.526-6.64c1.5-4.586 6.422-7.086 10.987-5.605a8.66 8.66 0 0 1 5.07 4.331m8.599-46.631a8.65 8.65 0 0 1 1.889 6.403 8.64 8.64 0 0 1-3.18 5.848 8.65 8.65 0 0 1-6.394 1.897 8.67 8.67 0 0 1-5.871-3.187 8.66 8.66 0 0 1-1.889-6.404 8.64 8.64 0 0 1 3.173-5.841 8.67 8.67 0 0 1 6.4-1.902 8.64 8.64 0 0 1 5.872 3.186m-7.682-49.306a8.67 8.67 0 0 1 6.392 1.895 8.66 8.66 0 0 1 3.183 5.878 8.64 8.64 0 0 1-1.892 6.374 8.65 8.65 0 0 1-5.866 3.187h-.003a8.651 8.651 0 0 1-6.4-1.902 8.65 8.65 0 0 1-3.175-5.871 8.64 8.64 0 0 1 1.891-6.376 8.67 8.67 0 0 1 5.87-3.185m-16.965-33.732a8.67 8.67 0 0 1 .519-6.666 8.66 8.66 0 0 1 5.083-4.335 8.66 8.66 0 0 1 6.643.528 8.66 8.66 0 0 1 4.331 5.081 8.66 8.66 0 0 1-.526 6.64 8.66 8.66 0 0 1-5.069 4.33 8.7 8.7 0 0 1-2.687.428c-3.671 0-7.094-2.337-8.294-6.006m-2.922-49.187a8.63 8.63 0 0 1 .868 6.596 8.66 8.66 0 0 1-4.062 5.299 8.66 8.66 0 0 1-6.619.87 8.65 8.65 0 0 1-5.291-4.069 8.63 8.63 0 0 1-.868-6.596 8.66 8.66 0 0 1 4.062-5.299 8.65 8.65 0 0 1 6.619-.869 8.66 8.66 0 0 1 5.291 4.068m-41.144-27.139c-3.203-3.56-2.917-9.078.647-12.293 3.58-3.222 9.101-2.931 12.316.641 3.211 3.569 2.925 9.084-.641 12.3a8.65 8.65 0 0 1-6.297 2.233 8.66 8.66 0 0 1-6.025-2.881m-34.837-41.803c2.814-3.884 8.276-4.754 12.165-1.934a8.66 8.66 0 0 1 3.495 5.7 8.66 8.66 0 0 1-1.572 6.497 8.71 8.71 0 0 1-7.049 3.571 8.67 8.67 0 0 1-5.104-1.656c-3.895-2.831-4.759-8.291-1.935-12.178m-41.024-14.811a8.66 8.66 0 0 1 .172-6.668 8.66 8.66 0 0 1 4.841-4.595 8.66 8.66 0 0 1 6.669.178c4.386 1.954 6.367 7.115 4.415 11.503a8.66 8.66 0 0 1-4.841 4.595 8.7 8.7 0 0 1-3.124.583 8.7 8.7 0 0 1-3.545-.759 8.65 8.65 0 0 1-4.587-4.837m-43.033-12.63a8.65 8.65 0 0 1-1.214-6.563c1.003-4.698 5.646-7.703 10.338-6.706a8.66 8.66 0 0 1 5.497 3.782 8.65 8.65 0 0 1 1.215 6.538 8.65 8.65 0 0 1-3.772 5.507 8.65 8.65 0 0 1-6.571 1.22 8.65 8.65 0 0 1-5.493-3.778M256 110.668a8.17 8.17 0 0 0-7.075 4.085L130.139 320.496a8.172 8.172 0 0 0 7.075 12.255h237.57a8.17 8.17 0 0 0 7.075-12.255L263.075 114.753a8.17 8.17 0 0 0-7.075-4.085m0 24.511 17.045 29.524A95.7 95.7 0 0 0 256 163.157c-5.774 0-11.461.538-17.046 1.547zm78.651 148.551-31.893-33.375a8.17 8.17 0 0 0-11.813 0l-14.519 15.193-14.519-15.193a8.17 8.17 0 0 0-11.814 0l-14.519 15.192-14.519-15.192a8.17 8.17 0 0 0-11.814 0l-31.894 33.375h-7.114l57.053-98.818a78.3 78.3 0 0 1 28.712-5.414 78.4 78.4 0 0 1 28.714 5.416l57.051 98.816zm-40.851 0-6.074-6.356 9.126-9.548 15.199 15.905zm-40.85 0-6.074-6.356 9.124-9.548 15.199 15.905zm-22.602 0H199.95l15.199-15.905zm-78.982 32.681 9.434-16.34h190.4l9.434 16.34zM256 192.24c-12.013 0-21.787 9.774-21.787 21.787s9.774 21.787 21.787 21.787 21.787-9.774 21.787-21.787S268.013 192.24 256 192.24m0 27.234c-3.003 0-5.447-2.443-5.447-5.447s2.443-5.447 5.447-5.447 5.447 2.443 5.447 5.447-2.444 5.447-5.447 5.447M82.359 299.906a8.172 8.172 0 0 1-9.636-6.375 188.4 188.4 0 0 1-3.769-37.532c0-41.51 13.315-80.824 38.505-113.689 24.385-31.816 58.937-55.343 97.289-66.247 4.339-1.238 8.859 1.283 10.093 5.624a8.17 8.17 0 0 1-5.624 10.093C136.251 112.526 85.292 180.056 85.292 256c0 11.534 1.158 23.064 3.441 34.269a8.17 8.17 0 0 1-6.374 9.637M231.523 78.594a8.17 8.17 0 0 1 7.4-8.874 190.7 190.7 0 0 1 34.154 0 8.17 8.17 0 0 1 7.401 8.874c-.406 4.494-4.391 7.807-8.874 7.4a174.7 174.7 0 0 0-31.208 0 8.16 8.16 0 0 1-8.873-7.4m207.756 214.937a8.173 8.173 0 0 1-9.636 6.375 8.17 8.17 0 0 1-6.375-9.637 172 172 0 0 0 3.44-34.269c0-75.944-50.958-143.474-123.921-164.22-4.34-1.234-6.859-5.753-5.624-10.093s5.757-6.858 10.093-5.624c38.352 10.905 72.903 34.431 97.29 66.247 25.189 32.865 38.505 72.179 38.505 113.689a188.5 188.5 0 0 1-3.772 37.532M247.796 434.873a8.17 8.17 0 0 1-8.874 7.4 186.35 186.35 0 0 1-94.526-36.164c-27.11-20.189-48.27-47.297-61.189-78.394a8.17 8.17 0 0 1 4.41-10.679 8.17 8.17 0 0 1 10.68 4.41c24.416 58.762 78.865 98.826 142.101 104.554a8.17 8.17 0 0 1 7.398 8.873m180.997-107.157c-12.92 31.097-34.08 58.206-61.191 78.394a186.36 186.36 0 0 1-94.525 36.164q-.376.034-.747.034a8.17 8.17 0 0 1-.728-16.308c63.235-5.728 117.685-45.791 142.101-104.554a8.17 8.17 0 0 1 10.68-4.41 8.17 8.17 0 0 1 4.41 10.68"/></svg>