<svg xmlns="http://www.w3.org/2000/svg" xml:space="preserve" viewBox="0 0 512 512"><circle cx="256" cy="256" r="247.83" style="fill:#a8a2a2"/><circle cx="256" cy="256" r="220.596" style="fill:#ebeaea"/><path d="M240.444 178.111h31.12v112.204h-31.12z" style="fill:#a8a2a2"/><path d="M454.117 370.383q.22-.383.394-.779c19.242-33.491 30.255-72.286 30.255-113.604s-11.012-80.113-30.254-113.604a9 9 0 0 0-.394-.779 8 8 0 0 0-.538-.807 230 230 0 0 0-26.744-36.778 8.4 8.4 0 0 0-.828-1.106 8 8 0 0 0-.953-.889 230.8 230.8 0 0 0-33.66-30.313 8.4 8.4 0 0 0-.929-.799 8 8 0 0 0-1.016-.62 229 229 0 0 0-40.121-23.151c-.095-.046-.183-.098-.28-.142-.122-.054-.247-.095-.369-.143-28.348-12.611-59.707-19.635-92.68-19.635s-64.332 7.023-92.677 19.635c-.123.048-.248.089-.37.143-.096.042-.184.095-.278.141a229 229 0 0 0-40.123 23.152c-.348.182-.69.382-1.016.62a8 8 0 0 0-.929.799 231 231 0 0 0-33.663 30.317 8.3 8.3 0 0 0-.949.886 8 8 0 0 0-.825 1.101 230 230 0 0 0-26.747 36.782 8 8 0 0 0-.539.808 8 8 0 0 0-.394.778C38.246 175.886 27.234 214.681 27.234 256s11.012 80.114 30.255 113.605q.175.395.394.778c.156.269.332.519.512.764a230 230 0 0 0 26.774 36.827c.243.382.512.753.825 1.101.293.325.611.611.941.878a230.7 230.7 0 0 0 33.672 30.325c.288.283.592.555.929.8.329.239.673.441 1.024.625a229 229 0 0 0 40.115 23.146c.094.046.182.098.278.141.115.051.233.088.35.134 28.351 12.616 59.717 19.643 92.697 19.643 32.979 0 64.345-7.026 92.696-19.642.117-.046.236-.084.352-.135.097-.044.185-.096.28-.142a229 229 0 0 0 40.114-23.147c.35-.183.695-.386 1.023-.625.337-.245.641-.516.929-.798a230.7 230.7 0 0 0 33.669-30.321c.331-.268.651-.555.944-.881.314-.349.584-.721.828-1.106a230 230 0 0 0 26.768-36.819c.181-.247.358-.498.514-.768m-66.791 52.471-3.058-4.207a8.17 8.17 0 0 0-11.412-1.806 8.17 8.17 0 0 0-1.807 11.412l3.067 4.221a212 212 0 0 1-24.329 14.09l-2.137-4.802a8.171 8.171 0 0 0-14.928 6.646l2.149 4.827a211 211 0 0 1-26.744 8.712l-1.104-5.189a8.173 8.173 0 0 0-9.691-6.292 8.17 8.17 0 0 0-6.292 9.691l1.101 5.181a212.5 212.5 0 0 1-27.973 2.917v-5.277a8.17 8.17 0 0 0-16.34 0v5.275a212.5 212.5 0 0 1-27.974-2.917l1.101-5.182a8.17 8.17 0 0 0-6.293-9.69c-4.411-.94-8.753 1.88-9.69 6.293l-1.102 5.189a210 210 0 0 1-26.743-8.712l2.149-4.827a8.17 8.17 0 0 0-4.141-10.787 8.17 8.17 0 0 0-10.787 4.141l-2.137 4.802a212.5 212.5 0 0 1-24.329-14.09l3.067-4.221a8.17 8.17 0 0 0-1.808-11.412 8.17 8.17 0 0 0-11.412 1.808l-3.057 4.207a214 214 0 0 1-20.869-18.823l3.847-3.463a8.171 8.171 0 0 0-10.934-12.144l-3.855 3.471a213 213 0 0 1-16.547-22.72l4.522-2.61a8.17 8.17 0 1 0-8.171-14.151l-4.543 2.623a211 211 0 0 1-11.484-25.67l5.037-1.636a8.17 8.17 0 0 0 5.245-10.296 8.17 8.17 0 0 0-10.296-5.245l-5.049 1.641a211 211 0 0 1-5.83-27.517l5.263-.553a8.171 8.171 0 0 0-1.709-16.252l-5.25.552a214 214 0 0 1-.477-14.064c0-4.726.171-9.412.477-14.061l5.25.551q.436.046.864.046a8.17 8.17 0 0 0 .845-16.296l-5.263-.553a211 211 0 0 1 5.83-27.517l5.049 1.641c.84.272 1.69.402 2.526.402a8.172 8.172 0 0 0 2.523-15.943l-5.037-1.636a211 211 0 0 1 11.484-25.67l4.543 2.623a8.166 8.166 0 0 0 11.16-2.99 8.17 8.17 0 0 0-2.99-11.16l-4.522-2.61a213.5 213.5 0 0 1 16.547-22.72l3.855 3.472a8.15 8.15 0 0 0 5.464 2.098 8.171 8.171 0 0 0 5.469-14.242l-3.847-3.463a214.5 214.5 0 0 1 20.869-18.823l3.057 4.207a8.16 8.16 0 0 0 6.617 3.368 8.171 8.171 0 0 0 6.603-12.973l-3.067-4.221a213 213 0 0 1 24.329-14.09l2.137 4.802a8.17 8.17 0 0 0 7.469 4.849 8.172 8.172 0 0 0 7.459-11.495l-2.149-4.827a211 211 0 0 1 26.743-8.712l1.102 5.189a8.17 8.17 0 0 0 7.984 6.473q.846.001 1.706-.181a8.17 8.17 0 0 0 6.293-9.69l-1.101-5.182a212.5 212.5 0 0 1 27.974-2.917v5.274a8.17 8.17 0 0 0 16.34 0v-5.275a212.5 212.5 0 0 1 27.973 2.917l-1.101 5.181a8.172 8.172 0 0 0 7.999 9.872 8.17 8.17 0 0 0 7.983-6.473l1.104-5.189a210 210 0 0 1 26.744 8.712l-2.149 4.827a8.171 8.171 0 0 0 14.928 6.645l2.137-4.802a213 213 0 0 1 24.329 14.09l-3.067 4.221a8.17 8.17 0 0 0 13.218 9.606l3.058-4.207a214 214 0 0 1 20.869 18.823l-3.847 3.463a8.17 8.17 0 0 0-.606 11.539 8.15 8.15 0 0 0 6.074 2.703 8.15 8.15 0 0 0 5.465-2.098l3.855-3.472a213 213 0 0 1 16.548 22.72l-4.522 2.61a8.17 8.17 0 0 0 8.17 14.151l4.543-2.623a211 211 0 0 1 11.484 25.67l-5.036 1.636a8.17 8.17 0 0 0-5.245 10.296 8.17 8.17 0 0 0 7.768 5.647c.838 0 1.689-.13 2.526-.402l5.05-1.641a211 211 0 0 1 5.83 27.517l-5.263.553a8.17 8.17 0 1 0 1.709 16.25l5.25-.551c.305 4.649.477 9.336.477 14.061 0 4.726-.171 9.412-.477 14.061l-5.25-.552a8.17 8.17 0 0 0-8.98 7.272 8.17 8.17 0 0 0 7.271 8.98l5.263.553a211 211 0 0 1-5.83 27.517l-5.05-1.641a8.171 8.171 0 0 0-5.049 15.541l5.036 1.636a211 211 0 0 1-11.484 25.67l-4.543-2.623c-3.911-2.257-8.907-.917-11.16 2.99a8.17 8.17 0 0 0 2.99 11.161l4.522 2.61a214 214 0 0 1-16.548 22.72l-3.855-3.471a8.171 8.171 0 0 0-10.934 12.144l3.847 3.463a213 213 0 0 1-20.862 18.825m49.693-347.873C388.667 26.628 324.38 0 256 0S123.332 26.628 74.981 74.981C26.628 123.332 0 187.62 0 256s26.628 132.668 74.981 181.019C123.332 485.372 187.62 512 256 512s132.667-26.628 181.019-74.981C485.372 388.668 512 324.38 512 256s-26.628-132.668-74.981-181.019M256 495.66C123.851 495.66 16.34 388.15 16.34 256S123.851 16.34 256 16.34 495.66 123.851 495.66 256 388.149 495.66 256 495.66m146.66-153.925a8.17 8.17 0 0 0-10.183-5.462l-10.922 3.295a150.7 150.7 0 0 0 13.354-24.686l27.799-22.24a8.17 8.17 0 0 0-10.208-12.76l-8.817 7.055a151 151 0 0 0 3.155-27.819l17.584-30.883a8.171 8.171 0 0 0-14.201-8.085l-5.592 9.821a150.3 150.3 0 0 0-7.356-27.055l4.788-35.216a8.17 8.17 0 0 0-16.191-2.201l-1.511 11.11a151 151 0 0 0-16.941-22.419l-8.487-34.358a8.17 8.17 0 0 0-15.863 3.919l2.691 10.889a150 150 0 0 0-23.981-14.498l-20.751-28.786a8.172 8.172 0 0 0-13.256 9.556l6.581 9.129a151.5 151.5 0 0 0-21.085-3.927c-4.482-.514-8.532 2.708-9.044 7.192a8.17 8.17 0 0 0 7.193 9.043 134.1 134.1 0 0 1 41.041 11.463c.385.212.779.405 1.189.552a134.2 134.2 0 0 1 39.814 28.817 8.2 8.2 0 0 0 1.394 1.484 134.6 134.6 0 0 1 26.358 42.009q.073.196.156.387c5.928 15.209 9.17 31.727 9.17 48.941 0 .194-.007.386-.008.58q-.008.202-.005.403c-.454 63.064-44.513 115.945-103.468 129.929-4.77-12.512-16.888-21.43-31.057-21.43s-26.286 8.918-31.056 21.431c-58.955-13.984-103.015-66.868-103.468-129.934a9 9 0 0 0-.005-.394c-.001-.195-.008-.388-.008-.583 0-17.217 3.243-33.738 9.174-48.948.052-.124.105-.249.15-.377a134.6 134.6 0 0 1 26.363-42.013 8.1 8.1 0 0 0 1.39-1.479 134.2 134.2 0 0 1 39.817-28.819 8 8 0 0 0 1.185-.55 134.1 134.1 0 0 1 41.042-11.464 8.17 8.17 0 1 0-1.851-16.235 152 152 0 0 0-21.085 3.927l6.581-9.129a8.171 8.171 0 0 0-13.256-9.556l-20.75 28.785a150 150 0 0 0-23.981 14.499l2.69-10.888a8.17 8.17 0 0 0-15.863-3.919l-8.488 34.358a151.4 151.4 0 0 0-16.941 22.419l-1.51-11.11a8.17 8.17 0 0 0-9.196-6.995 8.17 8.17 0 0 0-6.995 9.196l4.788 35.217a150.3 150.3 0 0 0-7.356 27.053l-5.591-9.82a8.17 8.17 0 0 0-14.201 8.085l17.583 30.882a150.7 150.7 0 0 0 3.156 27.819l-8.818-7.055a8.17 8.17 0 0 0-10.208 12.76l27.798 22.239a151 151 0 0 0 13.354 24.687l-10.922-3.295a8.17 8.17 0 0 0-4.72 15.644l34.159 10.308a152 152 0 0 0 21.44 17.947l-11.361.967a8.171 8.171 0 0 0 1.387 16.282l35.523-3.024a149.6 149.6 0 0 0 27.143 8.854c2.223 16.177 16.128 28.68 32.906 28.68s30.683-12.504 32.906-28.68a149.6 149.6 0 0 0 27.143-8.854l35.523 3.024q.354.03.704.029a8.17 8.17 0 0 0 .684-16.311l-11.363-.967a152 152 0 0 0 21.441-17.947l34.16-10.309c4.32-1.308 6.766-5.867 5.463-10.186M256 381.821c6.03 0 11.316 3.186 14.303 7.955-4.701.499-9.471.76-14.303.76-4.831 0-9.602-.261-14.303-.76 2.987-4.768 8.273-7.955 14.303-7.955m0 33.77c-6.649 0-12.396-3.873-15.148-9.472a152 152 0 0 0 30.296 0c-2.752 5.6-8.499 9.472-15.148 9.472m-15.558-245.648h31.118a8.17 8.17 0 0 1 8.17 8.17v68.083a8.17 8.17 0 0 1-8.17 8.17 8.17 8.17 0 0 1-8.17-8.17v-59.913h-14.78v95.858h14.779v-3.265a8.17 8.17 0 0 1 8.17-8.17 8.17 8.17 0 0 1 8.17 8.17v3.266h.556a8.17 8.17 0 0 1 8.17 8.17 8.17 8.17 0 0 1-8.17 8.17h-48.569a8.17 8.17 0 0 1 0-16.34h.554v-71.547l-3.586 6.679a8.17 8.17 0 0 1-11.064 3.332 8.17 8.17 0 0 1-3.332-11.062l18.953-35.292q.198-.37.431-.716c.046-.069.099-.13.147-.197.106-.146.209-.294.325-.431.122-.149.254-.286.386-.425.049-.051.094-.107.145-.157.134-.134.277-.257.418-.381.058-.049.111-.103.17-.151.129-.105.263-.199.395-.295.083-.06.163-.124.249-.182.11-.073.223-.136.336-.204.118-.071.234-.145.355-.209.086-.046.175-.084.263-.126.153-.075.304-.15.462-.216.064-.026.132-.047.196-.072.182-.07.364-.138.551-.195.061-.019.124-.031.185-.048.191-.052.381-.105.576-.144.156-.032.313-.05.47-.072.103-.014.205-.036.309-.046q.415-.041.832-.042m-30.306 144.88h91.73a8.17 8.17 0 0 1 8.17 8.17 8.17 8.17 0 0 1-8.17 8.17h-91.73a8.17 8.17 0 0 1 0-16.34"/></svg>