<svg xmlns="http://www.w3.org/2000/svg" xml:space="preserve" viewBox="0 0 512 512"><circle cx="256" cy="256" r="247.83" style="fill:#bcb6b8"/><circle cx="256" cy="256" r="220.596" style="fill:#ebeaea"/><path d="M276.358 124.289c-19.553 0-35.404 15.851-35.404 35.404h70.809c-.001-19.552-15.851-35.404-35.405-35.404" style="fill:#bcb6b8"/><path d="M240.956 159.69h70.809v64.98h-70.809z" style="fill:#d2cfce"/><path d="M191.728 218.232h169.265v82.432H191.728z" style="fill:#8c8484"/><path d="M276.358 246.196c-10.61 0-19.211 8.602-19.211 19.211v35.257h38.422v-35.257c0-10.61-8.601-19.211-19.211-19.211" style="fill:#ebeaea"/><path d="M191.728 384V153.865H169.94l-42.896 42.898 32.003.676V384z" style="fill:#bcb6b8"/><path d="M430.298 256c0-96.108-78.19-174.298-174.298-174.298S81.702 159.892 81.702 256a8.17 8.17 0 0 1-16.34 0c0-105.118 85.52-190.638 190.638-190.638S446.638 150.882 446.638 256a8.17 8.17 0 0 1-16.34 0M512 256c0 68.38-26.628 132.668-74.981 181.019C388.668 485.372 324.38 512 256 512s-132.668-26.628-181.019-74.981C26.628 388.668 0 324.38 0 256S26.628 123.332 74.981 74.981C123.332 26.628 187.62 0 256 0s132.668 26.628 181.019 74.981C485.372 123.332 512 187.62 512 256m-16.34 0c0-132.149-107.51-239.66-239.66-239.66S16.34 123.851 16.34 256 123.851 495.66 256 495.66 495.66 388.149 495.66 256m-328.443-58.561V375.83h16.34V162.035h-10.233l-40.505 40.505a8.17 8.17 0 0 1-11.554 0 8.17 8.17 0 0 1 0-11.554l42.897-42.897a8.17 8.17 0 0 1 5.777-2.393h21.787a8.17 8.17 0 0 1 8.17 8.17v56.2h37.425v-41.951a8.15 8.15 0 0 1-3.268-6.525c0-2.946 1.564-5.519 3.901-6.957 2.811-15.55 14.852-27.923 30.232-31.211v-7.949a8.17 8.17 0 0 1 16.34 0v7.948c15.38 3.289 27.421 15.663 30.232 31.211a8.16 8.16 0 0 1 3.901 6.957 8.15 8.15 0 0 1-3.268 6.525v41.951h45.595a8.17 8.17 0 0 1 8.17 8.17v74.259h13.617a8.17 8.17 0 0 1 0 16.34H199.898v66.996h23.833a8.17 8.17 0 0 1 0 16.34h-96.688a8.17 8.17 0 0 1 0-16.34h23.834V197.439a8.17 8.17 0 0 1 16.34 0m120.182 67.968c0-6.087-4.952-11.041-11.041-11.041-6.088 0-11.041 4.952-11.041 11.041v27.087h22.081zm-32.19-111.989h42.299c-3.29-8.484-11.518-14.524-21.149-14.524s-17.86 6.041-21.15 14.524m-1.546 56.647h14.524v-15.433a8.17 8.17 0 0 1 16.34 0v15.433h14.524v-40.306h-45.39v40.306zm-53.765 16.34v66.088h24.024v-27.087a8.17 8.17 0 0 1 16.34 0v27.087h8.715v-27.087c0-15.097 12.283-27.381 27.381-27.381 15.097 0 27.381 12.283 27.381 27.381v27.087h8.715v-27.087a8.17 8.17 0 0 1 16.34 0v27.087h24.024v-66.088zM171.03 424.851h171.372a8.17 8.17 0 0 0 0-16.34H171.03a8.17 8.17 0 0 0 0 16.34m209.072-35.101a8.17 8.17 0 1 0 11.609-11.501l-32.373-32.681a8.17 8.17 0 0 0-11.61 0l-26.566 26.821-26.572-26.821a8.166 8.166 0 0 0-11.607.002l-32.376 32.681a8.17 8.17 0 1 0 11.608 11.499l26.572-26.822 26.572 26.822a8.17 8.17 0 0 0 11.609 0l26.566-26.821zm52.576-63.759a8.17 8.17 0 0 0-8.17-8.17H224.409a8.17 8.17 0 0 0 0 16.34h200.099a8.17 8.17 0 0 0 8.17-8.17m-3.381-219.327a8.17 8.17 0 0 0-11.523-.851 8.17 8.17 0 0 0-.851 11.523c33.211 38.507 51.503 87.751 51.503 138.664 0 117.131-95.294 212.426-212.426 212.426S43.574 373.131 43.574 256 138.869 43.574 256 43.574c50.912 0 100.157 18.291 138.665 51.503a8.17 8.17 0 0 0 11.523-.851 8.17 8.17 0 0 0-.851-11.523C363.864 46.933 310.829 27.234 256 27.234 129.858 27.234 27.234 129.858 27.234 256S129.858 484.766 256 484.766 484.766 382.142 484.766 256c0-54.829-19.699-107.864-55.469-149.336"/></svg>