<svg xmlns="http://www.w3.org/2000/svg" xml:space="preserve" width="800" height="800" viewBox="0 0 512 512"><circle cx="256" cy="256" r="247.83" style="fill:#8c8484"/><circle cx="256" cy="256" r="189.004" style="fill:#fbcd18"/><path d="M293.111 394.349h-74.222l-24.121-188.096h122.464z" style="fill:#fef7d8"/><path d="M317.662 134.45c-.005-.001-17.5-5.742-43.285-7.834h-36.755c-25.785 2.092-43.28 7.833-43.28 7.833-.004.001-76.346 125.839-76.346 125.839 28.457 8.766 49.152 35.485 49.152 66.794v15.527c0 28.575 23.165 51.74 51.74 51.74V176.15h74.224v218.199c28.574 0 51.74-23.165 51.74-51.74v-15.527c0-31.309 20.695-58.028 49.152-66.794z" style="fill:#ffe991"/><path d="M313.486 176.15c-2.483 22.593-5.751 48.596-8.888 62.17-4.195 18.214-21.275 33.999-48.596 33.999s-44.402-15.785-48.596-33.999c-3.137-13.573-6.405-39.577-8.889-62.17z" style="fill:#fcde65"/><path d="M313.486 184.32H198.514a8.17 8.17 0 0 1 0-16.34h114.971c4.513 0 8.17 3.658 8.17 8.17s-3.657 8.17-8.169 8.17" style="fill:#fef7d8"/><path d="M256 111.115c-11.058 0-20.022 0-20.022 12.064l7.31 15.284v37.693h25.424v-37.693l7.311-15.284c-.001-12.064-8.965-12.064-20.023-12.064" style="fill:#fef7d8"/><path d="M437.019 74.981C388.667 26.628 324.38 0 256 0S123.332 26.628 74.981 74.981C26.628 123.332 0 187.62 0 256s26.628 132.668 74.981 181.019C123.332 485.372 187.62 512 256 512s132.667-26.628 181.019-74.981C485.372 388.668 512 324.38 512 256s-26.628-132.668-74.981-181.019M256 495.66C123.851 495.66 16.34 388.15 16.34 256S123.851 16.34 256 16.34 495.66 123.851 495.66 256 388.149 495.66 256 495.66m37.111-211.797a8.17 8.17 0 0 0-8.17 8.17v102.316a8.17 8.17 0 0 0 8.17 8.17c33.035 0 59.911-26.876 59.911-59.911v-15.526c0-26.86 17.842-51.117 43.386-58.987a8.169 8.169 0 0 0 4.579-12.046l-76.34-125.838c-.022-.036-.048-.068-.07-.102a9 9 0 0 0-.3-.443q-.07-.1-.143-.198a8.3 8.3 0 0 0-1.006-1.09q-.116-.101-.235-.197a10 10 0 0 0-.344-.276 8 8 0 0 0-.622-.419 9 9 0 0 0-.663-.363q-.14-.07-.281-.134c-.136-.061-.276-.114-.416-.168q-.14-.056-.282-.106-.037-.015-.075-.028c-.664-.218-14.765-4.78-36.27-7.321-1.176-8.528-6.276-12.47-10.642-14.287-5.131-2.135-11.041-2.135-17.298-2.135s-12.167 0-17.297 2.135c-4.365 1.817-9.464 5.759-10.641 14.287-21.505 2.54-35.606 7.103-36.27 7.321q-.035.014-.069.026-.159.056-.316.119-.192.072-.379.153-.157.072-.313.149a7.892 7.892 0 0 0-.983.574q-.149.1-.294.207-.158.12-.308.246c-.089.074-.18.146-.267.224a9 9 0 0 0-.61.617 8 8 0 0 0-.387.462q-.077.105-.151.21a8 8 0 0 0-.294.434q-.036.052-.07.103L111.01 256.049a8.168 8.168 0 0 0 4.58 12.046c25.546 7.87 43.387 32.126 43.387 58.987v15.526c0 33.035 26.876 59.911 59.911 59.911a8.17 8.17 0 0 0 8.17-8.17V292.032a8.17 8.17 0 0 0-16.34 0v93.378c-20.132-3.836-35.4-21.569-35.4-42.802v-15.526c0-30.475-18.184-58.305-45.277-70.898l58.516-96.455c2.546 25.068 6.783 62.667 10.881 80.43 4.229 18.334 20.691 36.81 48.392 39.873v61.907a8.17 8.17 0 0 0 16.34 0l.001-61.907c27.699-3.063 44.162-21.539 48.392-39.873 4.097-17.763 8.334-55.361 10.879-80.43l58.516 96.455c-27.094 12.592-45.277 40.422-45.277 70.898v15.526c0 21.233-15.267 38.968-35.4 42.802v-93.378a8.17 8.17 0 0 0-8.17-8.169m-60.398-148.575 2.405 5.027v9.833a8.17 8.17 0 0 0 16.34 0v-11.687a8.16 8.16 0 0 0-.8-3.525l-6.407-13.394c.102-.708.251-1.069.315-1.156 1.187-1.101 7.602-1.101 11.433-1.101s10.245 0 11.423 1.09c.07.093.221.458.325 1.167l-6.407 13.393a8.2 8.2 0 0 0-.8 3.525v11.687c0 4.512 3.657 8.17 8.17 8.17s8.17-3.658 8.17-8.17v-9.833l2.404-5.027c13.024 1.385 23.441 3.64 29.615 5.198-.585 6.209-1.55 16.156-2.755 27.498H205.856a2348 2348 0 0 1-2.755-27.498c6.174-1.559 16.589-3.813 29.612-5.197m63.927 101.199c-2.606 11.299-12.643 24.267-32.468 27.088v-2.412a8.17 8.17 0 0 0-16.34 0v2.412c-19.825-2.821-29.864-15.79-32.47-27.088-2.637-11.437-5.408-32.246-7.701-52.162h96.681c-2.295 19.916-5.064 40.725-7.702 52.162M453.174 256c0 108.723-88.452 197.174-197.174 197.174-49.693 0-97.161-18.546-133.659-52.223-36.282-33.478-58.576-78.906-62.774-127.914a8.17 8.17 0 0 1 7.444-8.838c4.494-.388 8.452 2.948 8.838 7.444C83.782 364.274 162.914 436.834 256 436.834c99.713 0 180.834-81.121 180.834-180.834S355.713 75.166 256 75.166c-93.086 0-172.218 72.56-180.153 165.191a8.166 8.166 0 0 1-8.838 7.444 8.17 8.17 0 0 1-7.444-8.838c4.198-49.008 26.491-94.436 62.774-127.913 36.5-33.678 83.968-52.224 133.661-52.224 108.723 0 197.174 88.451 197.174 197.174"/></svg>