<svg xmlns="http://www.w3.org/2000/svg" xml:space="preserve" width="800" height="800" viewBox="0 0 512 512"><circle cx="256" cy="256" r="247.83" style="fill:#fd9a0c"/><circle cx="256" cy="256" r="220.596" style="fill:#ffad38"/><path d="M305.892 110.673c-38.643 0-72.158 21.942-88.776 54.044a38.8 38.8 0 0 0-16.949-3.873c-14.786 0-27.648 8.239-34.246 20.377a26.2 26.2 0 0 0-18.595-7.709c-9.861 0-18.449 5.434-22.946 13.467a13.5 13.5 0 0 0-4.56-.799c-7.521 0-13.617 6.097-13.617 13.617s6.096 13.617 13.617 13.617c1.602 0 3.132-.291 4.56-.799 4.497 8.033 13.085 13.466 22.946 13.466a26.2 26.2 0 0 0 18.595-7.708c6.598 12.138 19.459 20.377 34.246 20.377 3.641 0 7.159-.511 10.501-1.444 10.926 30.106 39.778 51.615 73.657 51.615 43.265 0 78.339-35.074 78.339-78.339h43.135c0-55.18-44.73-99.909-99.907-99.909" style="fill:#fcde65"/><path d="M307.28 210.579h65.839c0-37.069-30.158-67.226-67.226-67.226-25.238 0-48.136 13.943-59.754 36.387 24.638-1.633 47.904 10.146 61.141 30.839" style="fill:#fd9a0c"/><path d="M437.019 74.981C388.668 26.628 324.38 0 256 0S123.332 26.628 74.981 74.981C26.628 123.332 0 187.62 0 256s26.628 132.668 74.981 181.019C123.332 485.372 187.62 512 256 512s132.668-26.628 181.019-74.981C485.372 388.668 512 324.38 512 256s-26.628-132.668-74.981-181.019M256 495.66C123.851 495.66 16.34 388.15 16.34 256S123.851 16.34 256 16.34 495.66 123.851 495.66 256 388.149 495.66 256 495.66M484.766 256c0 126.142-102.624 228.766-228.766 228.766S27.234 382.142 27.234 256c0-54.746 19.725-107.756 55.542-149.265a8.17 8.17 0 1 1 12.372 10.674C61.89 155.953 43.574 205.171 43.574 256c0 117.131 95.294 212.426 212.426 212.426S468.426 373.131 468.426 256 373.131 43.574 256 43.574c-50.827 0-100.047 18.315-138.592 51.574a8.17 8.17 0 1 1-10.674-12.371c41.51-35.818 94.52-55.543 149.266-55.543 126.142 0 228.766 102.624 228.766 228.766m-78.967-37.251a8.17 8.17 0 0 0 8.17-8.17c0-59.595-48.483-108.077-108.077-108.077-38.115 0-72.899 19.77-92.448 52.064a47 47 0 0 0-13.278-1.893 47.1 47.1 0 0 0-36.193 16.94c-5.039-2.79-10.729-4.271-16.649-4.271-10.436 0-20.216 4.744-26.698 12.683q-.403-.015-.808-.015c-12.013 0-21.787 9.774-21.787 21.787s9.774 21.787 21.787 21.787q.405 0 .808-.015c6.482 7.938 16.263 12.683 26.698 12.683 5.919 0 11.609-1.483 16.649-4.271a47.11 47.11 0 0 0 41.681 16.617c13.972 30.469 44.751 50.493 78.67 50.493 44.947 0 81.998-34.453 86.127-78.339h35.347zm-121.475 61.999c-29.427 0-55.942-18.579-65.977-46.231a8.17 8.17 0 0 0-9.879-5.082 30.9 30.9 0 0 1-8.302 1.143 30.79 30.79 0 0 1-27.067-16.108 8.17 8.17 0 0 0-12.958-1.871 18 18 0 0 1-12.815 5.313 18.16 18.16 0 0 1-15.818-9.288 8.17 8.17 0 0 0-9.871-3.706 5.4 5.4 0 0 1-1.818.326c-3.003 0-5.447-2.443-5.447-5.447s2.443-5.447 5.447-5.447c.6 0 1.212.11 1.821.326a8.17 8.17 0 0 0 9.867-3.706 18.15 18.15 0 0 1 15.818-9.287c4.842 0 9.394 1.887 12.815 5.313a8.17 8.17 0 0 0 12.958-1.872 30.79 30.79 0 0 1 27.067-16.108c4.695 0 9.2 1.028 13.389 3.057a8.17 8.17 0 0 0 10.816-3.598c15.847-30.613 47.084-49.63 81.52-49.63 47.83 0 87.228 36.796 91.376 83.566h-85.681c-12.117-16.636-30.44-27.457-50.555-30.257 11.08-12.96 27.323-20.628 44.859-20.628 21.369 0 41.142 11.633 51.602 30.359a8.17 8.17 0 0 0 14.266-7.968c-13.345-23.891-38.583-38.732-65.867-38.732-28.305 0-53.981 15.635-67.01 40.802-.025.048-.042.097-.066.145a8.3 8.3 0 0 0-.745 2.352q-.027.177-.046.357a8 8 0 0 0-.05.789q-.003.25.008.499c.002.052 0 .103.002.156.003.057.015.112.02.168a9 9 0 0 0 .115.837q.036.188.083.376.052.22.115.432.045.147.096.293.08.239.174.47.053.125.11.248.105.239.227.467.064.12.135.239.124.221.264.432.084.124.173.246.138.195.286.382.105.127.212.249.151.174.313.34a10 10 0 0 0 .592.547q.115.094.233.185a8 8 0 0 0 .639.449q.25.159.511.297c.034.019.064.039.098.057q.04.018.08.036.368.185.752.333.058.024.117.047a8 8 0 0 0 1.779.431c.107.014.214.019.32.027.184.015.368.029.554.033.049 0 .098.009.146.009.071 0 .139-.012.21-.014.112-.003.223.002.337-.005 21.523-1.427 42.117 8.952 53.718 27.089a8.17 8.17 0 0 0 6.883 3.768h46.724c-4.059 34.85-33.748 61.995-69.675 61.995m-125.459 65.385v-54.27a8.171 8.171 0 0 1-7.855-13.872l10.531-9.566a8.17 8.17 0 0 1 13.664 6.047v71.659a8.17 8.17 0 0 1-8.17 8.17 8.17 8.17 0 0 1-8.17-8.168m2.12 34.54a8.17 8.17 0 0 1 .561-11.541 8.17 8.17 0 0 1 11.541.561l23.602 26.012 23.603-26.012a8.166 8.166 0 0 1 12.1 0l23.602 26.012 23.603-26.013a8.17 8.17 0 0 1 12.1 0l23.609 26.014 23.608-26.014a8.171 8.171 0 0 1 12.101 10.981l-29.658 32.681a8.166 8.166 0 0 1-12.1 0l-23.608-26.013-23.603 26.013a8.17 8.17 0 0 1-12.1 0l-23.602-26.012-23.603 26.012a8.166 8.166 0 0 1-12.1 0z"/></svg>