<svg xmlns="http://www.w3.org/2000/svg" xml:space="preserve" width="800" height="800" viewBox="0 0 512 512"><circle cx="256" cy="256" r="247.83" style="fill:#ffad38"/><circle cx="256" cy="256" r="220.596" style="fill:#fcde65"/><path d="M281.902 144.381c-1.672-10.779-10.424-19.215-21.368-20.36l-67.784-.001 13.449 31.718 41.416 14.286q1.127.531 2.315.949l16.611-.184a24.26 24.26 0 0 0 9.787-6.851c3.007-3.009 5.885-13.395 5.574-19.557" style="fill:#ca7b0a"/><path d="m377.641 298.794 4.826-2.289c11.034-5.238 18.667-16.477 18.667-29.501v-87.775s1.143-23.493-23.494-23.493l-16.34 6.127c-8.378 5.521-29.274 19.3-29.274 19.3-3.183 2.107-5.289 5.713-5.289 9.814 0 6.488 5.259 11.747 11.747 11.747h15.663v32.974l-89.769 9.394 26.619 94.78.268-.126 21.519-10.2 48.518-23.003c-.001-.001 12.317-5.842 16.339-7.749M200.66 218.599l-43.083 24.821-17.141 148.938h37.426z" style="fill:#fd9a0c"/><path d="M278.782 343.815c23.201-4.299 40.777-24.627 40.777-49.072 0-27.573-22.352-49.924-49.924-49.924-27.573 0-49.924 22.352-49.924 49.924 0 24.67 17.898 45.146 41.415 49.187z" style="fill:#ca7b0a"/><path d="M437.019 74.981C388.668 26.628 324.38 0 256 0S123.332 26.628 74.981 74.981C26.628 123.332 0 187.62 0 256s26.628 132.668 74.981 181.019C123.332 485.372 187.62 512 256 512s132.668-26.628 181.019-74.981C485.372 388.668 512 324.38 512 256s-26.628-132.668-74.981-181.019M256 495.66C123.851 495.66 16.34 388.15 16.34 256S123.851 16.34 256 16.34 495.66 123.851 495.66 256 388.149 495.66 256 495.66m129.812-180.156v-11.541l.16-.076a40.4 40.4 0 0 0 6.993-4.254v10.068a8.17 8.17 0 0 0 16.34 0V140.074a8.17 8.17 0 0 0-16.34 0v11.46a31.4 31.4 0 0 0-7.154-2.892v-8.567a8.17 8.17 0 0 0-16.34 0v8.581a31.5 31.5 0 0 0-9.243 4.133l.016.024c-.499.293-.971.604-1.418.899l-27.086 17.857c-16.95-2.377-32.166-11.926-41.465-26.04a32.3 32.3 0 0 0-28.89-29.632l-.008.073c-1.122-.118-2.361-.118-3.755-.118l-60.054-.001-10.337-23.484a8.17 8.17 0 0 0-7.477-4.879h-19.553a8.17 8.17 0 0 0 0 16.34h14.223l28.469 64.678c1.738 3.947 3.53 8.018 8.596 8.017q.545 0 1.142-.064l-.886-8.122-.001-.008 6.843-3.026 25.532 12.106a32.4 32.4 0 0 0 4.413 1.698l-3.753 21.873h-17.123a8.17 8.17 0 0 0 0 16.34h24.011a8.17 8.17 0 0 0 8.053-6.789l5.282-30.789c8.537-1.894 15.815-7.164 20.359-14.335 9.278 9.547 21.022 16.553 33.946 20.21a20 20 0 0 0-.741 5.36c0 10.983 8.935 19.917 19.917 19.917h7.493v17.444l-82.451 8.628c-28.809 3.019-50.726 26.575-51.928 55.291a131 131 0 0 1-16.086 20.607l11.94-93.228a8.172 8.172 0 0 0-12.233-8.088l-51.768 30.316a8.17 8.17 0 0 0-2.922 11.179 8.16 8.16 0 0 0 8.237 3.951l-11.676 91.161a131.5 131.5 0 0 1-34.689 5.105 8.17 8.17 0 0 0-8.069 8.27 8.17 8.17 0 0 0 8.168 8.069h.103a147.7 147.7 0 0 0 32.251-3.991l-2.659 20.758h-1.999a8.17 8.17 0 0 0 0 16.34h9.183l.016.001.023-.001h37.387l.016.001.023-.001H186a8.17 8.17 0 0 0 8.17-8.17c0-4.481-3.609-8.115-8.078-8.166l6.213-48.508a146 146 0 0 0 22.952-22.681c6.962 18.457 23.057 32.471 42.753 36.485l-26.434 65.781a8.17 8.17 0 0 0 7.581 11.216h104.177a8.17 8.17 0 0 0 0-16.34h-92.089l24.017-59.766q.24-.022.482-.046c.588-.061 1.171-.145 1.755-.223.406-.056.814-.105 1.217-.168.63-.099 1.254-.217 1.88-.337.353-.068.706-.133 1.057-.207a58 58 0 0 0 1.895-.438 54 54 0 0 0 2.87-.785c.266-.081.532-.16.795-.245l-17.801 45.629a8.17 8.17 0 0 0 4.642 10.581 8.1 8.1 0 0 0 2.967.561 8.175 8.175 0 0 0 7.614-5.203l23.813-61.039 61.015-28.927v7.178a8.17 8.17 0 0 0 2.393 5.777l27.962 27.961a8.15 8.15 0 0 0 5.777 2.393 8.14 8.14 0 0 0 5.777-2.393 8.17 8.17 0 0 0 0-11.554zM257.983 164.176c-2.402 0-4.715-.519-6.867-1.537l-41.643-19.745-4.713-10.705 55.303.001c7.997 1.025 13.98 7.806 13.98 15.925 0 8.857-7.205 16.061-16.06 16.061m-91.5 83.137 22.651-13.265-19.509 152.318h-20.952zm157.523 67.87a57.8 57.8 0 0 0 3.723-20.441 58.1 58.1 0 0 0-7.928-29.315 8.17 8.17 0 0 0-14.103 8.255 41.7 41.7 0 0 1 5.69 21.06c0 17.113-10.352 31.845-25.12 38.287-.167.072-.332.15-.499.22-.456.192-.921.371-1.386.547-.203.077-.405.156-.609.229q-.696.25-1.405.476-.305.099-.612.193a41 41 0 0 1-2.055.566q-.726.181-1.46.338c-.221.047-.443.087-.665.13q-.712.141-1.431.256c-.266.041-.533.074-.8.111-.441.06-.881.122-1.326.169-.369.038-.743.063-1.114.092-.351.027-.699.062-1.052.081a43 43 0 0 1-2.221.06c-23.023 0-41.754-18.73-41.754-41.754 0-21.443 16.056-39.294 37.348-41.525l89.769-9.394a8.17 8.17 0 0 0 7.319-8.126v-24.804h1.293a8.17 8.17 0 0 0 0-16.34h-25.126a3.58 3.58 0 0 1-3.576-3.576c0-1.204.608-2.326 1.617-2.994 10.943-7.216 31.758-20.94 32.635-21.514l.065-.044a15.24 15.24 0 0 1 8.415-2.52c8.449 0 15.324 6.874 15.324 15.323v87.778c0 6.543-2.668 12.734-7.154 17.257v-4.917a8.17 8.17 0 0 0-16.34 0v14.283c-10.759 5.099-28.946 13.723-45.462 21.553M484.766 256c0 54.746-19.725 107.756-55.542 149.265a8.171 8.171 0 0 1-12.372-10.674c33.258-38.544 51.574-87.762 51.574-138.591 0-117.131-95.294-212.426-212.426-212.426S43.574 138.869 43.574 256 138.869 468.426 256 468.426c50.829 0 100.047-18.315 138.592-51.574a8.167 8.167 0 0 1 11.523.849 8.17 8.17 0 0 1-.849 11.523c-41.51 35.817-94.521 55.542-149.267 55.542-126.141 0-228.765-102.624-228.765-228.766S129.858 27.234 256 27.234 484.766 129.858 484.766 256"/></svg>