<svg xmlns="http://www.w3.org/2000/svg" xml:space="preserve" width="800" height="800" viewBox="0 0 512 512"><circle cx="256" cy="256" r="247.83" style="fill:#8c8484"/><circle cx="256" cy="256" r="189.004" style="fill:#ffad38"/><path d="M133.265 235.524c0-20.123-16.371-36.494-36.494-36.494-8.958 0-17.168 3.251-23.526 8.626A189.3 189.3 0 0 0 66.995 256c0 20.458 3.264 40.152 9.277 58.603h56.993z" style="fill:#fd9a0c"/><circle cx="234.485" cy="256" r="66.088" style="fill:#fd9a0c"/><path d="M438.753 207.656c-11.803-11.003-27.631-17.745-45.04-17.745-36.499 0-66.088 29.589-66.088 66.088s29.588 66.088 66.088 66.088c17.409 0 33.236-6.742 45.041-17.745 4.071-15.432 6.25-31.633 6.25-48.344s-2.178-32.91-6.251-48.342" style="fill:#fd9a0c"/><circle cx="393.717" cy="256" r="66.088" style="fill:#fd9a0c"/><path d="M392.165 275.236c5.473 0 10.242-2.466 13.892-5.988 6.162-5.945-4.98 2.842-13.892 5.988v45.166s13.686 8.106 37.75-6.485 20.823-24.208 20.823-24.208c-7.886-30.528-30.623-52.695-58.573-52.694-10.554 0-19.11 8.556-19.11 19.11 0 .097.013.191.014.288l-11.686 12.329c-3.32 3.322 8.76 20.968 30.782 6.494" style="fill:#ffc066"/><circle cx="234.485" cy="256" r="66.088" style="fill:#fd9a0c"/><path d="M236.034 275.236c-5.473 0-10.241-2.466-13.892-5.988-6.162-5.945 4.979 2.842 13.892 5.988v45.166s-13.686 8.106-37.75-6.485-20.823-24.208-20.823-24.208c7.886-30.528 30.623-52.695 58.573-52.694 10.554 0 19.11 8.556 19.11 19.11 0 .097-.013.191-.014.288l11.686 12.329c3.32 3.322-8.76 20.968-30.782 6.494M135.171 316.977v-83.554c0-21.208-17.192-38.4-38.4-38.4s-38.4 17.192-38.4 38.4v83.554z" style="fill:#ffc066"/><path d="M437.019 74.981C388.668 26.628 324.38 0 256 0S123.332 26.628 74.981 74.981C26.628 123.332 0 187.62 0 256s26.628 132.668 74.981 181.019C123.332 485.372 187.62 512 256 512s132.668-26.628 181.019-74.981C485.372 388.668 512 324.38 512 256s-26.628-132.668-74.981-181.019M256 495.66C123.851 495.66 16.34 388.15 16.34 256S123.851 16.34 256 16.34 495.66 123.851 495.66 256 388.149 495.66 256 495.66m200.659-200.333a8.2 8.2 0 0 0 1.846-3.109A73.8 73.8 0 0 0 467.97 256c0-20.549-8.393-39.171-21.927-52.63C422.509 118.151 344.691 58.826 256 58.826c-43.315 0-84.42 13.778-118.87 39.847-32.607 24.673-57.136 59.506-69.31 98.314-10.725 8.538-17.619 21.695-17.619 36.437v75.64c-3.545.892-6.173 4.093-6.173 7.914a8.17 8.17 0 0 0 8.17 8.17h19.104C100.037 401.967 173.519 453.174 256 453.174c88.691 0 166.509-59.326 190.045-144.545a74.7 74.7 0 0 0 10.614-13.302m-6.073-28.411c-11.676-21.739-31.222-35.926-53.299-37.837l-4.647-9.109a8.17 8.17 0 0 0-10.991-3.564 8.17 8.17 0 0 0-3.564 10.991l2.147 4.208c-8.181 3.997-14.081 11.964-15.166 21.379l-9.61 10.141a8.171 8.171 0 0 0 11.859 11.242l11.687-12.33a8.17 8.17 0 0 0 2.228-6.099c.102-5.941 4.964-10.741 10.927-10.747l.016.001.017-.001c22.104.012 41.681 17.154 49.629 43.031-8.964 13.341-23.328 22.757-39.934 25.112V281.6a27.3 27.3 0 0 0 10.111-6.741 8.17 8.17 0 0 0-11.876-11.222 10.84 10.84 0 0 1-7.953 3.428 8.17 8.17 0 0 0-8.17 8.17c0 1.784.578 3.429 1.549 4.774v33.321c-28.083-3.983-49.751-28.168-49.751-57.33 0-31.936 25.982-57.918 57.918-57.918s57.918 25.982 57.918 57.918c0 3.732-.367 7.378-1.045 10.916M96.771 203.193c16.668 0 30.23 13.561 30.23 30.23v75.384h-22.06v-48.85l1.017.587a8.168 8.168 0 0 0 11.16-2.99 8.17 8.17 0 0 0-2.99-11.16l-1.017-.587 1.017-.587a8.17 8.17 0 0 0 2.99-11.16 8.17 8.17 0 0 0-11.161-2.99l-1.017.587v-1.174a8.17 8.17 0 0 0-16.34 0v1.174l-1.017-.587a8.171 8.171 0 0 0-8.171 14.15l1.017.587-1.017.587a8.17 8.17 0 0 0 4.093 15.246 8.1 8.1 0 0 0 4.077-1.096l1.017-.587v48.85h-22.06v-75.384c.002-16.668 13.564-30.23 30.232-30.23M256 436.834c-73.58 0-139.352-44.428-167.145-111.687h52.49a8.17 8.17 0 0 0 8.17-8.17c0-3.821-2.629-7.022-6.173-7.914v-75.641c0-25.678-20.892-46.57-46.57-46.57-2.8 0-5.538.263-8.204.739C116.052 120.605 182.551 75.166 256 75.166c74.333 0 140.345 45.429 167.641 112.896a73.8 73.8 0 0 0-29.927-6.32c-40.946 0-74.258 33.313-74.258 74.258s33.313 74.259 74.258 74.259a73.8 73.8 0 0 0 29.927-6.32C396.345 391.405 330.333 436.834 256 436.834m-21.515-255.093c-40.946 0-74.258 33.313-74.258 74.259a73.8 73.8 0 0 0 9.464 36.216 8.2 8.2 0 0 0 1.849 3.112c13.142 20.957 36.437 34.929 62.945 34.929 40.946 0 74.259-33.313 74.259-74.259s-33.313-74.257-74.259-74.257m8.17 131.589v-33.32a8.1 8.1 0 0 0 1.549-4.774 8.17 8.17 0 0 0-8.17-8.17c-3.04 0-5.864-1.218-7.953-3.428a8.17 8.17 0 0 0-11.549-.327 8.17 8.17 0 0 0-.327 11.549 27.3 27.3 0 0 0 10.111 6.741v31.73c-16.606-2.356-30.969-11.772-39.934-25.113 7.948-25.877 27.525-43.018 49.629-43.03l.017.001.016-.001c5.966.005 10.829 4.81 10.928 10.753q-.008.168-.012.338a8.18 8.18 0 0 0 2.239 5.756l11.686 12.33a8.17 8.17 0 0 0 11.86-11.241l-9.611-10.142c-1.085-9.415-6.986-17.382-15.165-21.379l2.146-4.208a8.17 8.17 0 1 0-14.555-7.427l-4.647 9.109c-22.077 1.912-41.622 16.097-53.298 37.836a58 58 0 0 1-1.046-10.915c0-31.936 25.982-57.918 57.918-57.918s57.918 25.982 57.918 57.918c-.002 29.164-21.67 53.349-49.75 57.332m178.157 86.732a8.17 8.17 0 0 1 .349 11.549c-20.991 22.299-45.776 39.851-73.67 52.166-28.884 12.753-59.667 19.22-91.489 19.22s-62.605-6.466-91.489-19.22c-27.894-12.315-52.68-29.867-73.67-52.166a8.17 8.17 0 1 1 11.898-11.199c40.212 42.718 94.64 66.245 153.262 66.245s113.051-23.526 153.262-66.245a8.166 8.166 0 0 1 11.547-.35M264.193 37.595c.333-4.5 4.267-7.883 8.75-7.546 56.572 4.182 109.208 29.308 148.217 70.749a8.17 8.17 0 1 1-11.897 11.2c-36.199-38.458-85.04-61.773-137.524-65.654a8.17 8.17 0 0 1-7.546-8.749M91.188 112.347a8.17 8.17 0 0 1-.349-11.549c39.009-41.441 91.646-66.567 148.217-70.749 4.488-.34 8.417 3.045 8.75 7.546a8.17 8.17 0 0 1-7.546 8.75c-52.483 3.88-101.324 27.196-137.524 65.654a8.15 8.15 0 0 1-5.95 2.57 8.15 8.15 0 0 1-5.598-2.222"/></svg>