<svg xmlns="http://www.w3.org/2000/svg" xml:space="preserve" width="800" height="800" viewBox="0 0 512 512"><circle cx="256" cy="256" r="247.83" style="fill:#8c8484"/><circle cx="256" cy="256" r="189.004" style="fill:#fbcd18"/><path d="m285.15 206.253-63.772 3.532-38.695 24.972h146.634z" style="fill:#fcde65"/><path d="M283.329 256v210.757c-8.924 1.293-18.046 2.114-27.329 2.114s-27.329-.048-27.329-.048V283.867zM256 99.677c-25.391 0-45.973 20.583-45.973 45.973l11.351 64.135h49.328c13.417 0 24.859-8.45 29.296-20.32l-8.924-8.165 10.894-8.166V153.82l-10.894-8.172 10.169-8.171c-3.855-21.492-22.646-37.8-45.247-37.8" style="fill:#ffe991"/><path d="M437.019 74.981C388.668 26.628 324.38 0 256 0S123.332 26.628 74.981 74.981C26.628 123.332 0 187.62 0 256s26.628 132.668 74.981 181.019C123.332 485.372 187.62 512 256 512s132.668-26.628 181.019-74.981C485.372 388.668 512 324.38 512 256s-26.628-132.668-74.981-181.019M256 495.66C123.851 495.66 16.34 388.15 16.34 256S123.851 16.34 256 16.34 495.66 123.851 495.66 256 388.149 495.66 256 495.66m203.841-140.598c-24.627 50.585-66.88 90.039-118.977 111.095a8.2 8.2 0 0 1-3.059.597 8.172 8.172 0 0 1-3.065-15.747c48.343-19.54 87.553-56.153 110.409-103.099a8.17 8.17 0 0 1 10.922-3.769 8.17 8.17 0 0 1 3.77 10.923M52.16 156.937c18.333-37.654 46.718-69.49 82.089-92.067C170.59 41.674 212.691 29.413 256 29.413s85.411 12.261 121.753 35.458c35.372 22.577 63.757 54.414 82.089 92.07a8.17 8.17 0 1 1-14.692 7.152C409.613 91.098 337.135 45.753 256 45.753S102.389 91.097 66.852 164.089a8.17 8.17 0 0 1-10.922 3.769 8.17 8.17 0 0 1-3.77-10.921m129.616 304.708a8.17 8.17 0 0 1-7.578 5.11 8.2 8.2 0 0 1-3.059-.597c-51.948-20.996-94.135-60.313-118.788-110.706a8.17 8.17 0 1 1 14.678-7.181c22.88 46.767 62.029 83.253 110.235 102.738a8.17 8.17 0 0 1 4.512 10.636m123.34-.993h-13.617V449.96c43.663-7.983 83.594-30.684 113.066-64.45 31.346-35.914 48.609-81.908 48.609-129.51 0-108.723-88.452-197.174-197.174-197.174-34.946 0-69.303 9.308-99.359 26.916-29.151 17.079-53.611 41.504-70.736 70.634a8.17 8.17 0 0 0 2.903 11.184 8.17 8.17 0 0 0 11.183-2.903c32.449-55.2 92.229-89.491 156.007-89.491 99.713 0 180.834 81.122 180.834 180.834 0 86.011-61.844 160.61-145.335 177.325V253.34a8.17 8.17 0 0 0-11.771-7.335l-76.446 37.52a8.171 8.171 0 0 0 7.201 14.669l10.017-4.916v140.047C137.009 416.61 75.166 342.011 75.166 256c0-21.688 3.827-42.925 11.374-63.12a8.17 8.17 0 0 0-4.793-10.513 8.17 8.17 0 0 0-10.513 4.793c-8.232 22.03-12.408 45.192-12.408 68.84 0 47.602 17.263 93.596 48.609 129.51 29.472 33.767 69.403 56.466 113.066 64.45v10.692h-13.617a8.17 8.17 0 0 0 0 16.34h98.233a8.17 8.17 0 1 0-.001-16.34m-68.275-175.395 38.318-18.807v194.202h-38.318zm-74.526 62.794h33.675a8.17 8.17 0 0 1 0 16.34h-33.675a8.17 8.17 0 0 1 0-16.34m153.695 0h33.675a8.17 8.17 0 0 1 0 16.34H316.01a8.17 8.17 0 0 1 0-16.34M175.819 239.188a8.164 8.164 0 0 0 11.296 2.435l36.673-23.667h42.21l3.934 6.797a8.167 8.167 0 0 0 11.164 2.98 8.17 8.17 0 0 0 2.978-11.164l-.458-.792c.265-.092.531-.18.793-.277l40.481 26.125a8.12 8.12 0 0 0 4.423 1.306 8.17 8.17 0 0 0 4.438-15.037l-34.463-22.242c6.721-7.075 10.859-16.627 10.859-27.133V145.65c-.002-29.855-24.291-54.143-54.146-54.143s-54.143 24.288-54.143 54.143q0 .716.125 1.424l10.404 58.79-34.134 22.029a8.17 8.17 0 0 0-2.434 11.295M285.17 153.82h8.632v17.388l-8.632-2.035zM256 107.847c18.039 0 33.158 12.704 36.903 29.633h-43.146a8.17 8.17 0 0 0 0 16.34h19.073v15.355l-18.533 4.368a8.17 8.17 0 0 0-6.078 9.827c1.035 4.392 5.434 7.117 9.827 6.078L277 184.037l14.956 3.525c-3.525 8.253-11.722 14.053-21.248 14.053H228.23l-10.026-56.648c.364-20.531 17.18-37.12 37.796-37.12"/></svg>