<svg xmlns="http://www.w3.org/2000/svg" xml:space="preserve" width="800" height="800" viewBox="0 0 512 512"><circle cx="256" cy="256" r="247.83" style="fill:#d2cfce"/><circle cx="256" cy="256" r="220.596" style="fill:#ebeaea"/><path d="m414.617 229.132-39.653-14.162-39.648 14.162-39.648-14.162L256 229.132l-39.668-14.162-39.648 14.162-39.648-14.162-39.653 14.162-25.821-9.221A189 189 0 0 0 68.087 256l187.913.545L443.915 256c0-12.346-1.204-24.408-3.476-36.089z" style="fill:#bcb6b8"/><path d="M311.557 412.436S286.683 444.027 256 444.027s-55.557-31.591-55.557-31.591c0-30.684 24.873-55.557 55.557-55.557 30.683-.001 55.557 24.874 55.557 55.557M155.187 358.81c11.68 3.796 24.288 18.362 20.492 30.044-3.795 11.681-22.559 16.052-34.239 12.255-11.68-3.795-18.073-16.342-14.276-28.023 3.796-11.68 16.342-18.072 28.023-14.276M381.191 394.943c-8.919 8.444-27.74 12.554-36.184 3.636-8.445-8.917-3.315-27.487 5.604-35.932s22.992-8.06 31.437.857 8.06 22.994-.857 31.439" style="fill:#a8a2a2"/><path d="M313.01 412.436s-24.873 31.591-55.557 31.591c-30.683 0-55.557-31.591-55.557-31.591 0-30.684 24.874-55.557 55.557-55.557 30.683-.001 55.557 24.874 55.557 55.557" style="fill:#a8a2a2"/><path d="M437.019 74.981C388.667 26.628 324.38 0 256 0S123.332 26.628 74.981 74.981C26.628 123.332 0 187.62 0 256s26.628 132.668 74.981 181.019C123.332 485.372 187.62 512 256 512s132.667-26.628 181.019-74.981C485.372 388.668 512 324.38 512 256s-26.628-132.668-74.981-181.019M256 495.66C123.851 495.66 16.34 388.15 16.34 256S123.851 16.34 256 16.34 495.66 123.851 495.66 256 388.149 495.66 256 495.66M484.766 256c0 54.83-19.7 107.865-55.469 149.336a8.17 8.17 0 1 1-12.374-10.672c33.212-38.506 51.503-87.751 51.503-138.664 0-117.131-95.294-212.426-212.426-212.426S43.574 138.869 43.574 256 138.869 468.426 256 468.426c50.912 0 100.158-18.291 138.665-51.503a8.171 8.171 0 0 1 10.672 12.374c-41.472 35.77-94.509 55.469-149.337 55.469-126.142 0-228.766-102.624-228.766-228.766S129.858 27.234 256 27.234 484.766 129.858 484.766 256M193.724 412.436c0 1.833.617 3.613 1.751 5.055 1.116 1.417 27.721 34.707 61.976 34.707 34.256 0 60.86-33.291 61.977-34.707a8.17 8.17 0 0 0 1.751-5.055c0-22.051-11.261-41.518-28.331-52.964.163-3.731-2.255-7.212-6.011-8.236a8.16 8.16 0 0 0-7.19 1.465 63.4 63.4 0 0 0-22.197-3.995 63.4 63.4 0 0 0-22.196 3.995 8.15 8.15 0 0 0-7.191-1.465c-3.754 1.023-6.173 4.505-6.01 8.236-17.067 11.446-28.329 30.913-28.329 52.964m80.087-44.465-11.532 42.317a8.17 8.17 0 0 0 5.735 10.031c.719.196 1.441.29 2.154.29a8.17 8.17 0 0 0 7.877-6.025l10.357-38.002c9.376 8.105 15.554 19.817 16.351 32.958-5.897 6.642-25.234 26.318-47.3 26.318-21.954 0-41.382-19.699-47.298-26.329.798-13.138 6.975-24.845 16.35-32.947l10.357 38.003a8.174 8.174 0 0 0 7.878 6.024 8.17 8.17 0 0 0 7.888-10.321l-11.532-42.317a47.1 47.1 0 0 1 16.358-2.922 47.1 47.1 0 0 1 16.357 2.922m-134.897 40.908c3.553 1.155 7.556 1.73 11.671 1.73 3.9 0 7.901-.517 11.719-1.547a8.14 8.14 0 0 0 5.167 5.04c.839.272 1.69.402 2.526.402a8.17 8.17 0 0 0 7.768-5.647l5.679-17.476.001-.004.001-.004 5.68-17.476a8.17 8.17 0 0 0-5.245-10.296 8.15 8.15 0 0 0-7.145 1.04c-5.105-6.326-12.108-11.354-19.028-13.603-15.947-5.183-33.136 3.576-38.318 19.52-2.511 7.725-1.863 15.966 1.825 23.202s9.975 12.609 17.699 15.119m-3.98-33.268c1.929-5.938 7.458-9.72 13.389-9.72 1.437 0 2.899.222 4.338.69 8.79 2.857 17.198 13.746 15.248 19.748-.881 2.711-4.185 5.202-8.838 6.661-5.001 1.57-10.931 1.706-15.105.35a13.98 13.98 0 0 1-8.187-6.993 13.98 13.98 0 0 1-.845-10.736m261.363 4.012c.221-8.119-2.733-15.838-8.317-21.736-5.585-5.898-13.132-9.267-21.251-9.489-8.114-.229-15.838 2.731-21.737 8.317-5.283 5.002-9.449 12.553-11.341 20.458a8.15 8.15 0 0 0-6.9 2.129 8.17 8.17 0 0 0-.315 11.551l25.275 26.693a8.15 8.15 0 0 0 5.934 2.552 8.14 8.14 0 0 0 5.617-2.238 8.15 8.15 0 0 0 2.5-6.773c7.998-1.459 15.763-5.207 21.046-10.211 5.898-5.586 9.268-13.133 9.489-21.253m-20.724 9.387c-6.71 6.354-20.296 8.534-24.633 3.952-1.961-2.07-2.568-6.163-1.626-10.947 1.013-5.144 3.728-10.418 6.915-13.435a13.96 13.96 0 0 1 10.055-3.848 13.97 13.97 0 0 1 9.83 4.39 13.98 13.98 0 0 1 3.849 10.056 13.98 13.98 0 0 1-4.39 9.832m-266.002-73.64a330 330 0 0 1 2.604-17.43H71a8.17 8.17 0 0 1 0-16.34h44.505a325 325 0 0 1 4.527-17.43h-52.06a8.17 8.17 0 0 1 0-16.34h57.278a317 317 0 0 1 9.147-23.242l-34.268 12.238a8.17 8.17 0 0 1-5.496 0l-25.931-9.261a8.17 8.17 0 1 1 5.495-15.389l23.184 8.28 36.905-13.18a8.17 8.17 0 0 1 5.496 0l2.436.869c18.793-36.764 44.62-69.259 76.251-95.323-20.708 1.406-40.037 13.423-49.891 32.493a8.17 8.17 0 0 1-7.265 4.422 8.17 8.17 0 0 1-7.252-11.921c7.894-15.279 20.918-27.612 36.676-34.727 9.532-4.304 19.838-6.563 30.209-6.752a60.4 60.4 0 0 0-21.86-12.591 8.17 8.17 0 0 1-5.267-10.284 8.166 8.166 0 0 1 10.284-5.267 76.7 76.7 0 0 1 38.448 27.829c13.434-6.341 28.538-8.717 43.312-6.679 17.127 2.364 33.11 10.506 45.005 22.926a8.17 8.17 0 1 1-11.801 11.301c-14.992-15.652-37.216-21.678-57.638-16.913 8.992 5.12 16.943 12.018 23.243 20.335 10.438 13.782 15.983 30.841 15.612 48.034a8.17 8.17 0 0 1-8.165 7.994q-.09 0-.18-.002a8.17 8.17 0 0 1-7.992-8.345c.578-26.824-17.108-51.055-42.518-59.003-35.087 25.641-63.525 59.268-83.686 98.017l18.94 6.765 36.901-13.18a8.17 8.17 0 0 1 5.496 0l36.905 13.18 36.905-13.18a8.17 8.17 0 0 1 5.496 0l28.053 10.018a8.17 8.17 0 1 1-5.496 15.389l-25.305-9.036-36.905 13.18a8.15 8.15 0 0 1-5.495 0l-36.905-13.18-36.901 13.18a8.17 8.17 0 0 1-5.497 0l-23.368-8.348a300 300 0 0 0-7.953 19.351H323.69c4.513 0 8.17 3.658 8.17 8.17s-3.657 8.17-8.17 8.17H137.101a307 307 0 0 0-4.787 17.43h7.851a8.17 8.17 0 0 1 0 16.34H128.8a313 313 0 0 0-2.76 17.43h33.534a8.17 8.17 0 0 1 0 16.34H80.478a8.17 8.17 0 0 1 0-16.34h29.093zM401.43 256a8.17 8.17 0 0 1 8.17-8.17h34.427c4.513 0 8.17 3.658 8.17 8.17s-3.657 8.17-8.17 8.17H409.6a8.17 8.17 0 0 1-8.17-8.17m10.433-19.174-17.836-6.37a8.17 8.17 0 1 1 5.496-15.389l15.089 5.388 23.196-8.284a8.171 8.171 0 0 1 5.496 15.389l-25.943 9.264a8.198 8.198 0 0 1-5.498.002m-88.108 78h-135.51a8.17 8.17 0 0 1 0-16.34h135.511a8.17 8.17 0 1 1-.001 16.34m40.786-114.928v47.932h11.739c4.513 0 8.17 3.658 8.17 8.17s-3.657 8.17-8.17 8.17h-11.739v42.485a8.17 8.17 0 0 1-8.17 8.17 8.17 8.17 0 0 1-8.17-8.17V191.728a8.17 8.17 0 0 1 8.17-8.17h39.82a8.17 8.17 0 0 1 8.17 8.17 8.17 8.17 0 0 1-8.17 8.17z"/></svg>