<svg xmlns="http://www.w3.org/2000/svg" xml:space="preserve" viewBox="0 0 512 512"><circle cx="256" cy="256" r="247.83" style="fill:#bcb6b8"/><circle cx="256" cy="256" r="189.004" style="fill:#ebeaea"/><path d="M176.226 201.063H256v65.514h-79.774z" style="fill:#a8a2a2"/><path d="M176.222 266.58v49.107c0 5.779.693 11.245 1.972 16.411H256V266.58z" style="fill:#bcb6b8"/><path d="M178.192 332.098c8.738 35.283 45.033 56.425 77.808 65.519v-65.519zM333.807 332.098c1.28-5.166 1.973-10.633 1.973-16.411V201.061H256v131.037z" style="fill:#a8a2a2"/><path d="M256 332.098v65.519c32.775-9.094 69.07-30.235 77.807-65.519zM255.996 154.619l32.242 19.472 27.881-16.838c-8.597-24.943-32.257-42.87-60.119-42.87s-51.521 17.927-60.119 42.87l27.878 16.838z" style="fill:#8c8484"/><path d="M453.174 256c0-108.723-88.452-197.174-197.174-197.174S58.826 147.277 58.826 256 147.277 453.174 256 453.174 453.174 364.723 453.174 256M256 436.834c-99.711 0-180.834-81.121-180.834-180.834S156.289 75.166 256 75.166 436.834 156.287 436.834 256 355.711 436.834 256 436.834M437.019 74.981C388.667 26.628 324.38 0 256 0S123.333 26.628 74.981 74.981C26.628 123.332 0 187.62 0 256s26.628 132.668 74.981 181.019C123.333 485.372 187.62 512 256 512s132.667-26.628 181.019-74.981C485.372 388.668 512 324.38 512 256s-26.628-132.668-74.981-181.019M256 495.66C123.851 495.66 16.34 388.15 16.34 256S123.851 16.34 256 16.34 495.66 123.851 495.66 256 388.149 495.66 256 495.66m-64.478-308.215a8.17 8.17 0 0 0 8.17-8.17v-10.177l19.844 11.985a8.17 8.17 0 0 0 8.449 0l28.012-16.921 28.018 16.921a8.17 8.17 0 0 0 8.447 0l19.848-11.986v10.178c0 4.512 3.657 8.17 8.17 8.17s8.17-3.658 8.17-8.17v-24.657a8.157 8.157 0 0 0-8.186-8.165c-11.917-24.383-36.826-40.241-64.465-40.241s-52.549 15.858-64.464 40.241a8.156 8.156 0 0 0-8.185 8.165v24.657a8.173 8.173 0 0 0 8.172 8.17M256 122.553c21.439 0 40.752 12.351 49.907 31.322l-17.669 10.67-28.018-16.921a8.17 8.17 0 0 0-8.448 0l-28.012 16.92-17.665-10.669c9.153-18.971 28.466-31.322 49.905-31.322m79.778 70.339H176.222a8.17 8.17 0 0 0-8.17 8.17v114.625c0 6.017.708 11.889 2.065 17.589q.127.865.425 1.665c4.001 15.222 12.798 29.122 26.059 40.883 14.534 12.89 34.751 23.391 56.95 29.589q.033.01.065.02.102.03.202.059c.044.012.089.016.133.027q.39.103.795.163.126.021.253.039c.329.039.661.068 1.002.068s.673-.027 1.002-.068q.127-.018.253-.039.405-.062.795-.163c.044-.011.089-.015.133-.027q.1-.03.202-.059.033-.01.065-.02c22.198-6.198 42.417-16.699 56.95-29.589 13.261-11.761 22.056-25.662 26.059-40.883a8 8 0 0 0 .425-1.665 75.7 75.7 0 0 0 2.065-17.589V201.062a8.17 8.17 0 0 0-8.172-8.17m-8.17 122.795c0 2.846-.191 5.591-.542 8.241H304.06v-26.53c4.059-.477 7.208-3.923 7.208-8.109s-3.15-7.632-7.208-8.109v-15.697c4.059-.477 7.208-3.923 7.208-8.109s-3.15-7.632-7.208-8.109v-12.913a8.17 8.17 0 0 0-8.17-8.17 8.17 8.17 0 0 0-8.17 8.17v12.913c-4.059.477-7.208 3.923-7.208 8.109s3.15 7.632 7.208 8.109v15.697c-4.059.477-7.208 3.923-7.208 8.109s3.15 7.632 7.208 8.109v26.53h-23.55V209.233h63.438zm-143.216 0V274.75h63.438v49.178h-62.895a62 62 0 0 1-.543-8.241m63.438-106.454v49.178h-63.438v-49.178zm-58.242 131.036h58.242v46.179c-17.913-6.404-46.576-20.303-58.242-46.179m74.582 46.179v-46.179h58.242c-11.666 25.876-40.329 39.775-58.242 46.179M482.587 256c0 49.403-15.619 96.352-45.169 135.773-28.572 38.115-69.245 66.8-114.531 80.772a8.2 8.2 0 0 1-2.412.365 8.17 8.17 0 0 1-2.405-15.98C406.699 429.585 466.247 348.838 466.247 256c0-115.93-94.316-210.247-210.247-210.247-48.725 0-96.216 17.047-133.727 48.002-3.479 2.872-8.63 2.378-11.503-1.102a8.17 8.17 0 0 1 1.102-11.501C152.305 47.787 203.489 29.413 256 29.413c124.94 0 226.587 101.647 226.587 226.587M199.329 467.147a8.17 8.17 0 0 1-7.804 5.764c-.799 0-1.61-.118-2.412-.365-45.285-13.972-85.959-42.657-114.531-80.772C45.032 352.352 29.413 305.403 29.413 256c0-44.371 12.839-87.355 37.129-124.304a8.17 8.17 0 1 1 13.654 8.976C57.664 174.948 45.753 214.829 45.753 256c0 92.838 59.548 173.585 148.176 200.931a8.17 8.17 0 0 1 5.4 10.216"/></svg>