<svg xmlns="http://www.w3.org/2000/svg" xml:space="preserve" width="800" height="800" viewBox="0 0 512 512"><path d="M477.988 315.482c5.274-19.449 25.841-29.659 25.841-59.482s-20.568-40.032-25.841-59.482c-5.158-19.48 7.55-38.605-7.362-64.432s-37.829-24.385-52.12-38.593c-14.207-14.291-12.764-37.208-38.592-52.119s-44.952-2.204-64.432-7.362C296.033 28.74 285.823 8.171 256 8.171s-40.032 20.568-59.482 25.841c-19.48 5.158-38.605-7.55-64.432 7.362s-24.384 37.829-38.592 52.12c-14.291 14.207-37.208 12.765-52.12 38.592s-2.204 44.952-7.362 64.432C28.738 215.968 8.17 226.178 8.17 256s20.568 40.032 25.841 59.482c5.158 19.48-7.55 38.605 7.362 64.432s37.829 24.385 52.119 38.593c14.207 14.291 12.765 37.208 38.593 52.12s44.952 2.203 64.432 7.362c19.451 5.273 29.66 25.84 59.482 25.84s40.032-20.568 59.482-25.841c19.48-5.158 38.605 7.549 64.432-7.362s24.384-37.829 38.592-52.12c14.291-14.207 37.208-12.765 52.12-38.593s2.205-44.951 7.363-64.431" style="fill:#d2cfce"/><path d="m213.08 249.653-10.351 40.507c-5.693 22.28 12.103 41.882 39.547 35.573l7.067-2.329L303 293.182l4.854-65.316z" style="fill:#8c8484"/><path d="M255.999 67.602c-34.565 0-62.587 28.022-62.587 62.587v97.677l125.173-28.775v-68.902c.001-34.566-28.019-62.587-62.586-62.587M303 293.181c6.472 6.471 6.472 16.964 0 23.436l-38.443 38.442 32.779 32.779a8.168 8.168 0 0 1-5.777 13.947H228.33a8.17 8.17 0 0 1 0-16.34h19.26c-8.778-8.655-16.467-16.245-18.539-18.316-6.471-6.472-6.471-16.965 0-23.435l46.872-46.872 3.641-3.641c6.472-6.471 16.965-6.471 23.436 0" style="fill:#a8a2a2"/><path d="M495.612 300.046C502.913 289.71 512 276.848 512 256s-9.087-33.71-16.388-44.046c-4.33-6.129-8.07-11.423-9.726-17.528-1.632-6.16-1.039-12.615-.354-20.089 1.156-12.601 2.594-28.283-7.83-46.338s-24.724-24.65-36.216-29.951c-6.815-3.144-12.701-5.857-17.186-10.316-4.493-4.519-7.207-10.404-10.35-17.22-5.3-11.492-11.896-25.793-29.951-36.217s-33.736-8.986-46.339-7.83c-7.473.686-13.926 1.278-20.041-.341-6.151-1.668-11.445-5.408-17.575-9.738C289.71 9.088 276.848.001 255.999.001s-33.709 9.086-44.045 16.387c-6.13 4.33-11.423 8.07-17.528 9.726-6.16 1.632-12.615 1.04-20.088.354-12.601-1.155-28.284-2.594-46.339 7.83-18.054 10.423-24.65 24.724-29.951 36.216-3.144 6.815-5.857 12.701-10.317 17.186-4.519 4.493-10.404 7.207-17.219 10.35-11.491 5.3-25.792 11.896-36.216 29.951s-8.986 33.736-7.83 46.338c.685 7.474 1.277 13.929-.342 20.042-1.668 6.151-5.408 11.445-9.738 17.574C9.087 222.291 0 235.153 0 256s9.087 33.71 16.388 44.046c4.33 6.129 8.07 11.423 9.726 17.528 1.632 6.16 1.039 12.615.354 20.089-1.156 12.601-2.594 28.283 7.83 46.338s24.724 24.65 36.216 29.951c6.815 3.143 12.701 5.858 17.186 10.316 4.494 4.52 7.207 10.406 10.351 17.221 5.3 11.491 11.896 25.792 29.951 36.216s33.735 8.985 46.339 7.83c7.473-.685 13.927-1.277 20.041.341 6.151 1.668 11.445 5.408 17.575 9.738C222.291 502.914 235.153 512 256 512s33.709-9.086 44.045-16.387c6.13-4.33 11.423-8.07 17.528-9.726 6.161-1.631 12.616-1.039 20.088-.354 12.602 1.155 28.284 2.594 46.339-7.83 18.054-10.423 24.65-24.724 29.951-36.216 3.144-6.815 5.858-12.701 10.316-17.186 4.519-4.493 10.404-7.207 17.22-10.35 11.492-5.3 25.793-11.896 36.216-29.951s8.986-33.736 7.83-46.338c-.684-7.463-1.275-13.909.346-20.061 1.67-6.142 5.407-11.432 9.733-17.555m-13.346-9.428c-4.788 6.778-9.738 13.786-12.163 22.727l-.012.046c-2.372 8.956-1.588 17.501-.83 25.763 1.089 11.888 2.12 23.116-5.709 36.675-7.829 13.56-18.068 18.283-28.908 23.283-7.535 3.476-15.326 7.069-21.93 13.634-6.532 6.57-10.125 14.362-13.601 21.896-5 10.84-9.723 21.08-23.283 28.908s-24.789 6.799-36.675 5.709c-8.263-.757-16.806-1.541-25.809.842-8.941 2.425-15.95 7.375-22.727 12.163-9.751 6.888-18.96 13.394-34.619 13.394s-24.867-6.506-34.617-13.394c-6.777-4.788-13.785-9.738-22.773-12.175-4.512-1.195-8.917-1.588-13.237-1.588-4.255 0-8.425.382-12.527.758-11.886 1.09-23.116 2.12-36.675-5.709s-18.283-18.068-23.283-28.908c-3.475-7.535-7.07-15.326-13.636-21.931-6.57-6.532-14.361-10.125-21.896-13.601-10.84-5-21.08-9.723-28.908-23.283-7.829-13.559-6.799-24.787-5.709-36.675.758-8.263 1.541-16.808-.842-25.81-2.425-8.941-7.375-15.949-12.163-22.727C22.846 280.868 16.34 271.658 16.34 256s6.506-24.867 13.394-34.617c4.788-6.778 9.738-13.786 12.175-22.773 2.372-8.956 1.588-17.501.83-25.763-1.089-11.888-2.12-23.116 5.709-36.675 7.829-13.56 18.068-18.283 28.908-23.283 7.535-3.475 15.326-7.069 21.93-13.634 6.532-6.57 10.126-14.362 13.601-21.897 5-10.84 9.723-21.079 23.283-28.908s24.791-6.798 36.675-5.709c8.264.757 16.807 1.543 25.809-.842 8.941-2.425 15.95-7.375 22.727-12.163 9.751-6.887 18.96-13.394 34.618-13.394s24.867 6.506 34.617 13.394c6.777 4.788 13.785 9.738 22.773 12.175 8.956 2.372 17.499 1.588 25.763.83 11.888-1.089 23.116-2.119 36.675 5.709 13.56 7.829 18.283 18.068 23.283 28.908 3.475 7.535 7.069 15.326 13.634 21.93 6.57 6.532 14.362 10.126 21.896 13.601 10.84 5 21.08 9.723 28.908 23.283 7.829 13.559 6.799 24.787 5.709 36.675-.758 8.263-1.541 16.808.842 25.81 2.425 8.941 7.375 15.949 12.163 22.727 6.888 9.75 13.394 18.959 13.394 34.617s-6.502 24.867-13.39 34.617M71.058 322.575a8.66 8.66 0 0 1-5.067 4.326 8.684 8.684 0 0 1-6.65-.522 8.66 8.66 0 0 1-4.335-5.071 8.65 8.65 0 0 1 .524-6.654 8.66 8.66 0 0 1 5.069-4.329l.009-.002c4.569-1.482 9.489 1.031 10.974 5.595a8.64 8.64 0 0 1-.524 6.657m17.02 30.388c2.394 4.147.967 9.486-3.187 11.891a8.7 8.7 0 0 1-4.352 1.169 8.72 8.72 0 0 1-7.56-4.354c-2.403-4.161-.973-9.502 3.189-11.906a8.64 8.64 0 0 1 6.616-.87 8.66 8.66 0 0 1 5.294 4.07m23.823 32.787c3.21 3.567 2.925 9.085-.639 12.301a8.7 8.7 0 0 1-5.838 2.236 8.69 8.69 0 0 1-6.47-2.869c-3.221-3.586-2.927-9.105.641-12.315a8.64 8.64 0 0 1 6.282-2.226 8.66 8.66 0 0 1 6.024 2.873m33.608 32.806a8.65 8.65 0 0 1-1.556 6.49 8.72 8.72 0 0 1-7.064 3.588 8.67 8.67 0 0 1-5.103-1.655c-3.896-2.838-4.756-8.295-1.935-12.178a8.65 8.65 0 0 1 5.693-3.486 8.66 8.66 0 0 1 6.489 1.565 8.65 8.65 0 0 1 3.476 5.676m119.205 40.065c0 4.805-3.91 8.715-8.715 8.715s-8.715-3.91-8.715-8.715 3.91-8.715 8.715-8.715 8.715 3.91 8.715 8.715m148.347-61.218a8.73 8.73 0 0 1-6.495 2.885 8.68 8.68 0 0 1-5.813-2.223l-.015-.014c-3.563-3.216-3.85-8.734-.638-12.301a8.66 8.66 0 0 1 6.024-2.872 8.6 8.6 0 0 1 6.29 2.233c3.56 3.203 3.854 8.72.647 12.292m25.961-35.734a8.72 8.72 0 0 1-11.904 3.188l-.007-.003c-4.155-2.405-5.583-7.744-3.181-11.901a8.65 8.65 0 0 1 5.289-4.059 8.66 8.66 0 0 1 6.622.875c4.153 2.399 5.584 7.74 3.181 11.9m17.446-47.014a8.65 8.65 0 0 1 .524 6.654 8.65 8.65 0 0 1-4.335 5.071 8.67 8.67 0 0 1-6.654.519 8.65 8.65 0 0 1-5.062-4.325 8.65 8.65 0 0 1-.525-6.657c1.485-4.564 6.408-7.076 10.974-5.595a8.67 8.67 0 0 1 5.078 4.333M55.532 197.346a8.65 8.65 0 0 1-.524-6.654 8.65 8.65 0 0 1 4.335-5.071 8.65 8.65 0 0 1 6.653-.52 8.65 8.65 0 0 1 5.062 4.325 8.65 8.65 0 0 1 .525 6.657c-1.196 3.677-4.622 6.02-8.295 6.02a8.7 8.7 0 0 1-2.688-.427 8.66 8.66 0 0 1-5.068-4.33m17.446-47.014c2.404-4.16 7.744-5.593 11.906-3.189 4.161 2.409 5.588 7.748 3.187 11.906a8.65 8.65 0 0 1-5.289 4.059 8.647 8.647 0 0 1-6.614-.871c-4.162-2.403-5.593-7.745-3.19-11.905m25.961-35.734c3.225-3.573 8.74-3.865 12.308-.661 3.579 3.229 3.865 8.748.654 12.315a8.66 8.66 0 0 1-6.487 2.884 8.64 8.64 0 0 1-5.819-2.238c-3.569-3.21-3.863-8.728-.656-12.3m301.16 11.653c-3.21-3.567-2.925-9.085.639-12.301l.015-.014c3.567-3.203 9.083-2.913 12.293.646 3.221 3.586 2.927 9.105-.641 12.315a8.64 8.64 0 0 1-6.282 2.226 8.65 8.65 0 0 1-6.024-2.872m23.823 32.787c-2.394-4.147-.967-9.486 3.187-11.891l.007-.003c4.161-2.403 9.501-.974 11.906 3.189 2.403 4.161.973 9.502-3.189 11.906a8.64 8.64 0 0 1-6.614.87 8.66 8.66 0 0 1-5.297-4.071m33.07 31.654a8.65 8.65 0 0 1-.524 6.654 8.66 8.66 0 0 1-5.069 4.329 8.7 8.7 0 0 1-2.686.427c-3.677 0-7.102-2.343-8.297-6.019a8.65 8.65 0 0 1 .525-6.657 8.66 8.66 0 0 1 5.062-4.325 8.65 8.65 0 0 1 6.653.52 8.65 8.65 0 0 1 4.336 5.071m-74.844 224.109c2.821 3.88 1.961 9.339-1.918 12.166a8.7 8.7 0 0 1-5.124 1.665 8.7 8.7 0 0 1-7.057-3.584l-.002-.002a8.66 8.66 0 0 1-1.556-6.49 8.66 8.66 0 0 1 3.491-5.688 8.64 8.64 0 0 1 6.473-1.553 8.66 8.66 0 0 1 5.693 3.486m-66.124-109.902a24.54 24.54 0 0 0-4.633-14.38l4.611-62.048a8.17 8.17 0 0 0-2.826-6.804 8.17 8.17 0 0 0-7.153-1.765L211.25 241.69a8.17 8.17 0 0 0-6.085 5.94l-10.351 40.508c-3.374 13.204-.081 26.526 8.811 35.635 5.999 6.147 13.903 9.872 22.822 10.974l-3.17 3.17c-9.646 9.646-9.646 25.343 0 34.99 1.632 1.632 6.672 6.611 12.68 12.54h-7.624a8.17 8.17 0 0 0 0 16.34h74.776a8.169 8.169 0 0 0 5.777-13.947l-32.776-32.774 32.67-32.67c4.67-4.675 7.244-10.888 7.244-17.497m-18.801 5.94-38.447 38.447a8.17 8.17 0 0 0 0 11.554l24.605 24.605h-24.153c-10.17-10.024-21.781-21.476-24.398-24.093-3.276-3.276-3.276-8.606 0-11.882l46.872-46.872a8.17 8.17 0 0 0 0-11.554 8.17 8.17 0 0 0-11.554 0l-25.208 25.208-4.845 1.597c-10.158 2.243-19.173.249-24.776-5.491-4.95-5.071-6.653-12.425-4.672-20.176l9.119-35.683 43.019-9.889c-2.439 17.734-13.456 32.48-30.277 39.744a8.17 8.17 0 0 0 6.478 15.001c24.176-10.44 39.263-32.518 40.551-58.597l19.349-4.448-4.033 54.264c-.007.092-.002.181-.007.272a7 7 0 0 0-.011.446c.001.135.011.269.02.403q.012.193.029.386.026.215.062.427.028.18.064.357.045.209.101.415a7 7 0 0 0 .236.741q.068.187.147.374.075.17.158.34.091.191.195.381.089.159.184.313.11.184.232.364.11.157.227.309c.082.108.163.217.252.321q.143.167.294.325c.064.069.12.141.186.206a8.34 8.34 0 0 1 2.461 5.94 8.35 8.35 0 0 1-2.46 5.945m-108.899-76.582a8.17 8.17 0 0 0 6.918 1.572l125.173-28.775a8.17 8.17 0 0 0 6.34-7.963v-68.902c0-39.015-31.742-70.757-70.757-70.757s-70.757 31.742-70.757 70.757v97.677a8.18 8.18 0 0 0 3.083 6.391m67.675-158.485c30.005 0 54.417 24.411 54.417 54.417v62.396l-108.832 25.019v-17.618h6.218a8.17 8.17 0 0 0 0-16.34h-6.218v-30.899h20.38a8.16 8.16 0 0 0 1.661 7.5 8.15 8.15 0 0 0 6.214 2.861 8.14 8.14 0 0 0 5.305-1.96l12.12-10.362a8.17 8.17 0 0 0-5.31-14.38h-40.372v-6.218c.002-30.005 24.413-54.416 54.417-54.416m17.231 82.553v-13.749a8.17 8.17 0 0 1 16.34 0v13.749a8.17 8.17 0 0 1-16.34 0m-157.758 56.687v81.979c0 4.513-3.658 8.17-8.17 8.17s-8.17-3.657-8.17-8.17v-66.436a8.17 8.17 0 0 1-5.142-14.019l7.626-7.391a8.169 8.169 0 0 1 13.856 5.867m281.055 81.977v-66.436a8.17 8.17 0 0 1-5.142-14.019l7.626-7.391a8.169 8.169 0 0 1 13.857 5.866v81.979c0 4.513-3.658 8.17-8.17 8.17s-8.171-3.655-8.171-8.169m-51.395 122.936a8.17 8.17 0 0 1-8.17 8.17H175.038a8.17 8.17 0 0 1 0-16.34h161.925a8.17 8.17 0 0 1 8.169 8.17"/></svg>