<svg xmlns="http://www.w3.org/2000/svg" xml:space="preserve" viewBox="0 0 512 512"><circle cx="256" cy="256" r="247.83" style="fill:#d2cfce"/><path d="M256 35.404c-121.637 0-220.596 98.96-220.596 220.596S134.363 476.596 256 476.596 476.596 377.636 476.596 256 377.637 35.404 256 35.404" style="fill:#ebeaea"/><path d="M185.715 114.566a8.17 8.17 0 0 0-8.17 8.17v30.859h16.34v-30.859a8.17 8.17 0 0 0-8.17-8.17" style="fill:#8c8484"/><path d="M185.715 142.702c-25.523 0-46.212 20.689-46.212 46.213h92.424c0-25.524-20.69-46.213-46.212-46.213" style="fill:#d2cfce"/><path d="M139.504 188.917h92.421v137.434h-92.421z" style="fill:#8c8484"/><path d="m139.504 326.353 4.699 25.497 83.842.041 3.882-25.538z" style="fill:#d2cfce"/><path d="M232.173 334.526h-92.917a8.17 8.17 0 0 1 0-16.34h92.917a8.17 8.17 0 0 1 8.17 8.17 8.17 8.17 0 0 1-8.17 8.17" style="fill:#ebeaea"/><path d="m144.203 351.85 41.512 38.936 42.33-38.895z" style="fill:#8c8484"/><path d="M439.769 236.251c-4.246-13.07-13.041-20.874-23.523-20.874-2.363 0-4.802.402-7.248 1.198-11.969 3.889-35.351 31.793-41.898 39.826-6.547-8.033-29.929-35.936-41.898-39.826-2.446-.795-4.885-1.198-7.248-1.198-10.482 0-19.275 7.804-23.523 20.874-2.034 6.264-2.528 12.372-1.43 17.668 1.656 7.981 6.897 13.784 14.759 16.339 2.071.673 4.773 1 8.26 1 16.916 0 46.437-7.873 51.081-9.142 4.643 1.269 34.166 9.142 51.081 9.142 3.487 0 6.189-.327 8.26-1 13.393-4.351 18.625-17.7 13.327-34.007" style="fill:#a8a2a2"/><path d="M424.44 288.087c-7.838-10.789-43.616-25.214-53.856-29.182 5.951-9.229 26.417-41.928 26.417-55.264 0-14.923-11.739-24.567-29.907-24.567s-29.906 9.644-29.906 24.567c0 13.336 20.465 46.036 26.417 55.264-10.24 3.967-46.018 18.393-53.856 29.182-8.772 12.074-4.942 26.776 9.755 37.454 6.649 4.832 13.624 7.385 20.168 7.385 7.48 0 13.865-3.348 18.467-9.68 4.484-6.17 7.274-21.402 8.956-35.362 1.682 13.96 4.473 29.192 8.956 35.362 4.601 6.332 10.986 9.68 18.467 9.68 6.545 0 13.519-2.553 20.168-7.385 6.757-4.91 11.372-10.85 13.345-17.18 2.187-7.019.947-14.029-3.591-20.274" style="fill:#8c8484"/><path d="M437.019 74.981C388.668 26.628 324.38 0 256 0S123.332 26.628 74.981 74.981C26.628 123.333 0 187.62 0 256s26.628 132.667 74.981 181.019C123.332 485.372 187.62 512 256 512s132.668-26.628 181.019-74.981C485.372 388.667 512 324.38 512 256s-26.628-132.667-74.981-181.019M256 495.66C123.851 495.66 16.34 388.15 16.34 256S123.851 16.34 256 16.34 495.66 123.851 495.66 256 388.149 495.66 256 495.66m-78.456-216.391V236c0-4.513 3.658-8.17 8.17-8.17s8.17 3.657 8.17 8.17v43.271a8.17 8.17 0 1 1-16.34-.002M59.915 256c0 108.121 87.964 196.085 196.085 196.085 34.437 0 68.336-9.097 98.032-26.307 28.795-16.688 53.073-40.595 70.208-69.139 2.323-3.867 1.069-8.887-2.8-11.211s-8.888-1.066-11.211 2.8c-32.407 53.982-91.505 87.516-154.23 87.516-80.649 0-149.057-53.391-171.748-126.681l47.081-10.288v19.794a8.17 8.17 0 0 0-5.693 7.786c0 4.206 3.18 7.666 7.266 8.117l1.661 7.648c-2.382 1.428-3.982 4.027-3.982 7.006a8.17 8.17 0 0 0 8.17 8.17h2.287l36.502 36.85v3.471c0 4.513 3.658 8.17 8.17 8.17s8.17-3.657 8.17-8.17v-3.471l36.501-36.849h2.287a8.17 8.17 0 0 0 8.17-8.17 8.16 8.16 0 0 0-3.982-7.006l1.662-7.65a8.168 8.168 0 0 0 1.572-15.903V264.17h24.36c4.512 0 8.17-3.657 8.17-8.17s-3.658-8.17-8.17-8.17h-24.36V196.7a8.17 8.17 0 0 0 5.694-7.785c0-3.862-2.68-7.088-6.279-7.943-3.464-23.566-22.092-42.264-45.626-45.825v-12.411c0-4.514-3.658-8.17-8.17-8.17s-8.17 3.656-8.17 8.17v12.411c-23.535 3.562-42.163 22.261-45.627 45.825-3.598.855-6.279 4.081-6.279 7.943a8.17 8.17 0 0 0 5.693 7.785v51.13H68.085a8.17 8.17 0 0 0-8.17 8.17m163.842-58.915v121.1h-76.083v-121.1zm-72.721 143.871-1.397-6.431h72.153l-1.398 6.432zm34.679 38.219-21.672-21.879 43.344.001zm0-228.303c18.172 0 33.399 12.81 37.148 29.872h-74.298c3.752-17.062 18.979-29.872 37.15-29.872m-54.382 131.177-51.189 11.186a179.3 179.3 0 0 1-3.695-29.064h54.884zm235.763-108.556c-21.334 0-35.668 12.195-35.668 30.347 0 2.685.659 5.94 1.768 9.523-3.065-2.16-5.958-3.793-8.511-4.623-9.017-2.93-18.082-1.642-25.525 3.633-6.429 4.555-11.395 11.785-14.36 20.91-2.463 7.579-3.043 15.068-1.677 21.659 2.195 10.579 9.126 18.265 19.517 21.641 2.555.831 5.849 1.21 9.601 1.265-3.001 2.247-5.446 4.491-7.024 6.663-10.669 14.685-6.241 32.977 11.018 45.517 7.642 5.552 15.772 8.478 23.54 8.478q.184 0 .369-.002c9.121-.109 17.213-4.393 22.786-12.064 1.578-2.172 2.958-5.193 4.168-8.742 1.21 3.55 2.589 6.57 4.168 8.742 5.573 7.67 13.665 11.956 22.786 12.064q.184.002.369.002c7.767 0 15.898-2.927 23.54-8.478 17.259-12.54 21.687-30.832 11.017-45.517-1.578-2.171-4.023-4.416-7.024-6.663 3.75-.054 7.046-.436 9.601-1.265 17.263-5.609 24.432-23.011 17.839-43.3-2.965-9.126-7.931-16.357-14.36-20.91-7.444-5.274-16.509-6.564-25.525-3.633-2.555.83-5.446 2.463-8.511 4.623 1.108-3.583 1.767-6.838 1.767-9.523-.001-18.152-14.335-30.347-35.669-30.347m0 16.34c4.534 0 19.327 1.011 19.327 14.007 0 6.188-9.117 24.202-19.327 40.946-10.211-16.743-19.327-34.758-19.327-40.946 0-12.997 14.793-14.007 19.327-14.007m-67.971 61.79c-.791-3.812-.37-8.408 1.217-13.29 1.843-5.672 4.778-10.156 8.265-12.626 2.053-1.455 4.243-2.179 6.621-2.179 1.401 0 2.867.251 4.409.752 5.885 1.912 20.2 16.149 32.971 31.035-19.076 4.538-39.024 7.64-44.915 5.728-4.773-1.549-7.575-4.631-8.568-9.42m50.583 65.215c-2.57 3.538-5.764 5.281-9.761 5.329-4.239.094-9.282-1.851-14.108-5.356-3.668-2.665-15.042-12.178-7.402-22.694 3.637-5.006 21.602-14.221 39.704-21.764-1.582 19.546-4.796 39.479-8.433 44.485m58.646-.029c-4.826 3.506-9.846 5.448-14.108 5.356-3.998-.048-7.191-1.791-9.761-5.329-3.636-5.006-6.85-24.939-8.431-44.486 18.102 7.545 36.067 16.76 39.703 21.764 7.639 10.518-3.735 20.031-7.403 22.695m6.204-92.528c4.159-1.351 7.766-.885 11.03 1.427 3.487 2.47 6.422 6.953 8.265 12.626 1.401 4.313 5.012 18.693-7.349 22.711-5.884 1.914-25.835-1.193-44.914-5.729 12.767-14.886 27.082-29.123 32.968-31.035m-20.444-107.347a8.17 8.17 0 0 1 .039 11.554 8.15 8.15 0 0 1-5.797 2.413 8.14 8.14 0 0 1-5.757-2.374c-29.857-29.656-69.265-47.974-110.962-51.585a8.17 8.17 0 0 1-7.436-8.843c.389-4.495 4.359-7.839 8.845-7.435 45.503 3.938 88.5 23.922 121.068 56.27M123.644 130.9c-2.1 0-4.199-.804-5.796-2.413a8.17 8.17 0 0 1 .039-11.554c32.569-32.346 75.566-52.331 121.069-56.268 4.494-.402 8.455 2.939 8.845 7.435a8.17 8.17 0 0 1-7.436 8.843c-41.696 3.609-81.104 21.928-110.962 51.583a8.15 8.15 0 0 1-5.759 2.374M484.766 256c0 126.142-102.624 228.766-228.766 228.766-52.094 0-101.21-17.139-142.038-49.564a8.17 8.17 0 0 1-1.316-11.479 8.173 8.173 0 0 1 11.48-1.317c37.905 30.107 83.508 46.019 131.874 46.019 117.131 0 212.426-95.294 212.426-212.426S373.131 43.574 256 43.574 43.574 138.869 43.574 256c0 54.015 20.387 105.534 57.407 145.066a8.17 8.17 0 0 1-11.927 11.168C49.189 369.663 27.234 314.177 27.234 256 27.234 129.858 129.858 27.234 256 27.234S484.766 129.858 484.766 256"/></svg>