<svg xmlns="http://www.w3.org/2000/svg" xml:space="preserve" width="800" height="800" viewBox="0 0 512 512"><circle cx="256" cy="256" r="247.83" style="fill:#bcb6b8"/><circle cx="256" cy="256" r="220.596" style="fill:#ebeaea"/><path d="M129.93 209.171v183.197s91.755 46.264 126.07 46.264 126.07-46.264 126.07-46.264V209.171L256 176.49z" style="fill:#d2cfce"/><path d="M207.164 298.65v51.384c0 26.972 21.863 48.837 48.836 48.837s48.836-21.866 48.836-48.837V298.65z" style="fill:#a8a2a2"/><path d="M256 77.725c-24.588 0-45.468 15.82-53.053 37.831v21.787h106.106v-21.787C301.468 93.545 280.588 77.725 256 77.725M357.043 200.23c-18.846-10.099-34.194-25.363-44.141-43.451l-78.236-10.898v10.894c22.004 46.991 73.303 70.897 121.937 60.143l10.894-8.343z" style="fill:#8c8484"/><path d="M199.098 156.779c-9.947 18.088-25.295 33.352-44.141 43.451l-10.454 8.345 10.894 8.343c48.633 10.754 99.932-13.153 121.937-60.143v-10.894zM113.271 223.366l-15.66 120.24s15.261 8.215 35.043 8.215 35.043-8.215 35.043-8.215l-15.658-120.242z" style="fill:#a8a2a2"/><path d="m398.729 223.366-38.768-.001-15.657 120.242s15.261 8.215 35.043 8.215 35.043-8.215 35.043-8.215z" style="fill:#8c8484"/><circle cx="132.652" cy="209.168" r="24.031" style="fill:#8c8484"/><circle cx="379.348" cy="209.168" r="24.031" style="fill:#a8a2a2"/><path d="m280.417 272.287-24.42-17.184-24.416 17.184-24.417-17.184v43.547h97.672v-43.547z" style="fill:#8c8484"/><path d="m284.449 130.416-28.452-17.184-28.449 17.184-28.45-17.184v43.546h113.804v-43.546z" style="fill:#bcb6b8"/><path d="M437.019 74.981C388.667 26.628 324.38 0 256 0S123.333 26.628 74.981 74.981C26.628 123.332 0 187.62 0 256s26.628 132.668 74.981 181.019C123.333 485.372 187.62 512 256 512s132.667-26.628 181.019-74.981C485.372 388.668 512 324.38 512 256s-26.628-132.668-74.981-181.019M256 495.66C123.851 495.66 16.34 388.15 16.34 256S123.851 16.34 256 16.34 495.66 123.851 495.66 256 388.149 495.66 256 495.66m-57.006-145.626c0 31.434 25.574 57.007 57.006 57.007s57.006-25.574 57.006-57.007V298.65a8.17 8.17 0 0 0-8.17-8.17h-97.672a8.17 8.17 0 0 0-8.17 8.17zm16.34-43.214h81.332v43.214c0 22.423-18.242 40.667-40.666 40.667s-40.666-18.244-40.666-40.667zm164.012-129.848c-10.168 0-19.245 4.743-25.15 12.127-13.74-8.745-25.071-20.537-33.123-34.497v-41.371a8.17 8.17 0 0 0-4.155-7.116 8.1 8.1 0 0 0-3.424-1.017c-9.562-19.134-28.096-32.3-49.324-35.015v-3.252c0-4.512-3.657-8.17-8.17-8.17s-8.17 3.658-8.17 8.17v3.252c-21.228 2.716-39.761 15.881-49.323 35.016a8.14 8.14 0 0 0-3.423 1.019 8.17 8.17 0 0 0-4.155 7.116v41.372c-8.056 13.96-19.384 25.75-33.124 34.496-5.905-7.384-14.982-12.127-25.15-12.127-17.754 0-32.199 14.444-32.199 32.199a32 32 0 0 0 4.328 16.093L89.51 342.551a8.17 8.17 0 0 0 4.23 8.25c.697.376 17.322 9.191 38.915 9.191s38.218-8.815 38.915-9.191a8.17 8.17 0 0 0 4.23-8.25l-15.15-116.342a116 116 0 0 0 17.982 1.404c17.636 0 35.252-3.983 51.287-11.763 9.471-4.595 18.22-10.467 26.056-17.36 21.519 18.791 49.445 29.088 77.691 29.088 5.899 0 11.814-.459 17.686-1.373L336.201 342.55a8.17 8.17 0 0 0 4.23 8.25c.697.376 17.322 9.191 38.915 9.191s38.218-8.815 38.915-9.191a8.17 8.17 0 0 0 4.23-8.25l-15.274-117.287a32 32 0 0 0 4.328-16.093c-.001-17.754-14.445-32.198-32.199-32.198m0 16.341c8.744 0 15.859 7.115 15.859 15.859s-7.114 15.859-15.859 15.859-15.859-7.115-15.859-15.859 7.114-15.859 15.859-15.859M207.27 148.607v-20.896l16.054 9.698a8.17 8.17 0 0 0 8.449 0l24.224-14.632 24.229 14.632a8.17 8.17 0 0 0 8.447 0l16.059-9.699v20.897zM256 85.895c18.25 0 34.715 10.351 42.783 26.32l-14.334 8.656-24.228-14.632a8.17 8.17 0 0 0-8.448 0l-24.224 14.632-14.331-8.656c8.067-15.968 24.532-26.32 42.782-26.32M132.654 193.313c8.744 0 15.859 7.115 15.859 15.859s-7.114 15.859-15.859 15.859-15.859-7.115-15.859-15.859 7.114-15.859 15.859-15.859m0 150.337c-11.044 0-20.626-2.916-26.152-5.046l13.029-100.042a32 32 0 0 0 13.124 2.807 32 32 0 0 0 13.124-2.807l13.029 100.04c-5.536 2.135-15.115 5.048-26.154 5.048m32.171-133.347c.013-.377.028-.753.028-1.133a32 32 0 0 0-.388-4.987c16.18-9.831 29.633-23.239 39.335-39.236h59.69c-21.062 32.686-59.944 50.756-98.665 45.356m102.664-23.461c5.75-6.691 10.772-14.023 14.901-21.893h25.81c9.701 15.996 23.155 29.404 39.334 39.236a32.4 32.4 0 0 0-.387 4.987c0 .379.015.755.028 1.132-28.405 3.932-57.786-4.717-79.686-23.462M379.346 343.65c-11.044 0-20.626-2.916-26.152-5.046l13.029-100.042a32 32 0 0 0 13.124 2.807 32 32 0 0 0 13.124-2.807l13.029 100.04c-5.537 2.135-15.115 5.048-26.154 5.048m-241.245 29.957v13.702c28.145 13.865 92.805 43.153 117.899 43.153 25.095 0 89.755-29.287 117.899-43.153v-13.702a8.17 8.17 0 0 1 8.17-8.17 8.17 8.17 0 0 1 8.17 8.17v18.76a8.17 8.17 0 0 1-4.491 7.295c-3.818 1.925-93.902 47.139-129.747 47.139s-125.93-45.214-129.747-47.139a8.17 8.17 0 0 1-4.491-7.295v-18.76a8.17 8.17 0 1 1 16.338 0M264.167 244.21v6.652l16.25 11.435 19.717-13.875a8.171 8.171 0 0 1 12.871 6.682v21.759a8.17 8.17 0 0 1-8.17 8.17 8.17 8.17 0 0 1-8.17-8.17v-6.019l-11.547 8.126a8.17 8.17 0 0 1-9.404 0l-19.719-13.875-19.713 13.874a8.17 8.17 0 0 1-9.404 0l-11.545-8.124v6.018c0 4.512-3.657 8.17-8.17 8.17s-8.17-3.658-8.17-8.17v-21.759a8.171 8.171 0 0 1 12.871-6.682l19.715 13.874 16.246-11.434v-6.653a8.17 8.17 0 0 1 8.17-8.17 8.17 8.17 0 0 1 8.172 8.171m152.347-127.328a8.17 8.17 0 0 1 .818-11.525 8.17 8.17 0 0 1 11.525.818c32.548 37.523 51.665 83.475 55.283 132.888a8.17 8.17 0 0 1-8.157 8.768 8.17 8.17 0 0 1-8.14-7.574c-3.358-45.873-21.108-88.535-51.329-123.375m67.627 156.055c-4.208 57.481-29.807 110.869-72.08 150.329-42.485 39.659-97.909 61.5-156.061 61.5-126.142 0-228.766-102.624-228.766-228.766S129.858 27.234 256 27.234c54.586 0 107.444 19.549 148.835 55.044a8.171 8.171 0 0 1-10.638 12.404C355.766 61.725 306.686 43.574 256 43.574 138.869 43.574 43.574 138.869 43.574 256S138.869 468.426 256 468.426c110.715 0 203.768-86.393 211.844-196.682.329-4.499 4.239-7.886 8.745-7.551a8.17 8.17 0 0 1 7.552 8.744"/></svg>