<svg xmlns="http://www.w3.org/2000/svg" xml:space="preserve" width="800" height="800" viewBox="0 0 512 512"><circle cx="256" cy="256" r="247.83" style="fill:#d2cfce"/><circle cx="256" cy="256" r="220.596" style="fill:#ebeaea"/><path d="m226.577 209.375-114.942.001h-8.17c0 47.546 30.512 78.058 78.058 78.058 8.58 0 17.055.531 25.189-1.951l37.533-36.734zM400.364 209.376l-114.942-.001-17.668 39.374 38.908 38.123c8.134 2.483 15.235.563 23.815.563 47.546 0 78.058-30.512 78.058-78.058h-8.17z" style="fill:#a8a2a2"/><path d="M254.911 235.121c-28.582 0-51.751 23.171-51.751 51.751v30.213h-39.787c3.601 36.295 34.224 64.644 71.466 64.644 39.666 0 71.822-32.156 71.822-71.822v-23.036c.001-28.579-23.169-51.75-51.75-51.75" style="fill:#bcb6b8"/><path d="M437.019 74.981C388.668 26.628 324.38 0 256 0S123.332 26.628 74.981 74.981C26.628 123.332 0 187.62 0 256s26.628 132.668 74.981 181.019C123.332 485.372 187.62 512 256 512s132.668-26.628 181.019-74.981C485.372 388.668 512 324.38 512 256s-26.628-132.668-74.981-181.019M256 495.66C123.851 495.66 16.34 388.15 16.34 256S123.851 16.34 256 16.34 495.66 123.851 495.66 256 388.149 495.66 256 495.66m-8.17-370.283V96.283a8.1 8.1 0 0 1-4.159-2.457 8.17 8.17 0 0 1 .553-11.541l6.282-5.707a8.169 8.169 0 0 1 13.664 6.047v42.75a8.17 8.17 0 0 1-16.34.002m152.534 55.314v20.516h-12.352v-20.516a8.17 8.17 0 0 0-16.34 0v20.516H359.32v-20.515a8.17 8.17 0 0 0-16.34 0v20.515h-12.352v-20.515a8.17 8.17 0 0 0-16.34 0v20.513h-28.864a8.17 8.17 0 0 0-7.455 4.826l-9.933 22.136c-3.889-.795-7.914-1.215-12.035-1.215s-8.146.418-12.035 1.215l-9.933-22.136a8.17 8.17 0 0 0-7.454-4.826h-28.864V180.69a8.17 8.17 0 0 0-16.34 0v20.515h-12.352V180.69a8.17 8.17 0 0 0-16.34 0v20.515h-12.352v-20.516a8.17 8.17 0 0 0-16.34 0v20.516h-12.352v-20.516a8.17 8.17 0 0 0-16.34 0v28.686c0 47.546 38.682 86.228 86.228 86.228 4.902 0 9.766-.425 14.555-1.24v14.551h-56.016a8.17 8.17 0 0 0 0 16.34h17.35c3.267 16.795 11.863 32.139 24.666 43.802a79.76 79.76 0 0 0 49.465 20.71l1.98 53.761a8.17 8.17 0 0 0 16.329-.602l-1.987-53.92a79.3 79.3 0 0 0 16.425-4.318l-2.146 58.238a8.17 8.17 0 0 0 8.17 8.47 8.17 8.17 0 0 0 8.159-7.87l2.489-67.551c21.086-14.419 34.957-38.652 34.957-66.069v-15.543a87 87 0 0 0 14.555 1.24c47.546 0 86.228-38.682 86.228-86.228v-28.686a8.17 8.17 0 0 0-8.17-8.17 8.174 8.174 0 0 0-8.172 8.173m-288.253 36.856h11.878v7.165a8.17 8.17 0 0 0 16.34 0v-7.165h12.352v7.166a8.17 8.17 0 0 0 16.34 0v-7.166h12.352v7.166a8.17 8.17 0 0 0 16.34 0v-7.167h23.575l7.228 16.107c-16.621 8.619-28.723 24.782-31.716 43.935a70.2 70.2 0 0 1-15.277 1.677c-35.772-.001-65.353-27.018-69.412-61.718m187.47 92.361c0 35.098-28.554 63.651-63.651 63.651-29.78 0-54.93-20.215-61.803-48.303h68.306a8.17 8.17 0 0 0 0-16.34H212.42v-22.043c0-24.03 19.551-43.58 43.581-43.58s43.581 19.55 43.581 43.58zm30.895-30.644a70 70 0 0 1-15.277-1.677c-2.992-19.153-15.094-35.316-31.716-43.935l7.228-16.107h23.575v7.166a8.17 8.17 0 0 0 16.34 0v-7.166h12.352v7.166a8.17 8.17 0 0 0 16.34 0v-7.166h12.352v7.165a8.17 8.17 0 0 0 16.34 0v-7.165h11.878c-4.058 34.702-33.639 61.719-69.412 61.719m-117.562 61.543c0 4.778-3.887 8.665-8.665 8.665s-8.665-3.887-8.665-8.665 3.887-8.665 8.665-8.665 8.665 3.887 8.665 8.665m8.393-194.452 69.335-.211h.025a8.17 8.17 0 0 1 .025 16.34l-69.335.211h-.025a8.17 8.17 0 0 1-.025-16.34m-28.865 277.772a8.17 8.17 0 0 1 4.741 10.536 8.17 8.17 0 0 1-7.641 5.275 8.1 8.1 0 0 1-2.897-.534C120.919 414.471 73.281 355.98 62.326 286.76a8.17 8.17 0 0 1 16.139-2.555c10.042 63.447 53.715 117.061 113.977 139.922m240.786-138.053a8.17 8.17 0 0 1 16.112 2.726c-11.547 68.265-59.055 125.974-123.987 150.605a8.1 8.1 0 0 1-2.897.534 8.17 8.17 0 0 1-7.641-5.275 8.17 8.17 0 0 1 4.741-10.536c59.533-22.585 103.089-75.483 113.672-138.054M484.766 256c0 126.142-102.624 228.766-228.766 228.766S27.234 382.142 27.234 256 129.858 27.234 256 27.234c54.829 0 107.864 19.699 149.336 55.469a8.17 8.17 0 1 1-10.672 12.374C356.157 61.866 306.912 43.574 256 43.574 138.869 43.574 43.574 138.869 43.574 256S138.869 468.426 256 468.426 468.426 373.131 468.426 256c0-50.912-18.291-100.157-51.503-138.665a8.17 8.17 0 0 1 .851-11.523 8.17 8.17 0 0 1 11.523.851c35.77 41.473 55.469 94.508 55.469 149.337"/></svg>