<svg xmlns="http://www.w3.org/2000/svg" xml:space="preserve" width="800" height="800" viewBox="0 0 512 512"><circle cx="256" cy="256" r="247.83" style="fill:#8c8484"/><path d="M169.865 214.695c0 27.503 11.593 52.299 30.159 69.767v-58.68l65.616-60.781V118.92c-52.895 0-95.775 42.88-95.775 95.775" style="fill:#ebeaea"/><path d="M325.197 213.664c0-5.867-.863-11.53-2.443-16.885l-7.681-16.34c-10.696-15.883-28.844-26.331-49.433-26.331-40.105 0-74.454 24.651-88.719 59.627l-6.459 33.089a8.1 8.1 0 0 0-.597 3.058c0 52.81 34.405 78.026 55.533 87.604V213.665h99.799z" style="fill:#d2cfce"/><path d="M265.64 337.486c0 26.19 16.32 47.423 35.22 47.423v-94.846c-18.901 0-35.22 21.232-35.22 47.423M173.865 213.664c-26.192 0-47.423 17.316-47.423 36.218h72.282l.002-31.144c-7.228-3.218-15.745-5.074-24.861-5.074" style="fill:#ebeaea"/><path d="m486.022 250.223-18.101-18.101 13.619-21.674a8.173 8.173 0 0 0-2.571-11.265l-21.674-13.618 8.456-24.162a8.17 8.17 0 0 0-5.012-10.41l-24.163-8.455 2.867-25.438a8.17 8.17 0 0 0-7.204-9.033l-25.438-2.866-2.866-25.437a8.17 8.17 0 0 0-9.034-7.204l-25.438 2.866-8.455-24.162a8.17 8.17 0 0 0-10.41-5.013l-24.162 8.455-13.619-21.675a8.18 8.18 0 0 0-5.1-3.619 8.19 8.19 0 0 0-6.165 1.047l-21.674 13.618-18.1-18.1a8.17 8.17 0 0 0-11.556 0l-18.1 18.1-21.675-13.619a8.174 8.174 0 0 0-11.265 2.572l-13.619 21.675-24.162-8.455a8.17 8.17 0 0 0-10.41 5.013l-8.455 24.162L117.1 72.56a8.16 8.16 0 0 0-6.009 1.731 8.16 8.16 0 0 0-3.025 5.473l-2.866 25.437-25.437 2.866a8.17 8.17 0 0 0-7.204 9.033l2.867 25.438-24.163 8.455a8.173 8.173 0 0 0-5.012 10.41l8.456 24.162-21.674 13.618a8.17 8.17 0 0 0-2.571 11.265l13.619 21.674-18.101 18.1a8.17 8.17 0 0 0 0 11.554l18.101 18.101-13.619 21.674a8.173 8.173 0 0 0 2.571 11.265l21.674 13.618-8.456 24.162a8.175 8.175 0 0 0 5.012 10.411l24.163 8.455-2.867 25.437a8.17 8.17 0 0 0 7.204 9.033l25.438 2.866 2.866 25.437a8.17 8.17 0 0 0 9.034 7.204l25.438-2.866 8.455 24.162a8.17 8.17 0 0 0 10.411 5.012l24.162-8.455 13.619 21.675a8.18 8.18 0 0 0 6.918 3.824 8.2 8.2 0 0 0 4.347-1.252l21.674-13.618 18.1 18.1a8.17 8.17 0 0 0 11.556 0l18.1-18.1 21.674 13.618a8.17 8.17 0 0 0 11.265-2.572l13.619-21.675 24.162 8.455a8.166 8.166 0 0 0 10.411-5.012l8.455-24.162 25.438 2.866q.458.052.915.051a8.173 8.173 0 0 0 8.119-7.255l2.866-25.437 25.438-2.866a8.17 8.17 0 0 0 7.204-9.033l-2.867-25.437 24.163-8.455a8.173 8.173 0 0 0 5.012-10.411l-8.456-24.162 21.674-13.618a8.17 8.17 0 0 0 2.571-11.265l-13.619-21.674 18.101-18.101a8.17 8.17 0 0 0-.004-11.553m-31.06-28.189-13.362-8.396 8.396-13.362 13.362 8.396zm-12.546-43.422-14.896-5.213 5.212-14.895 14.896 5.213zm-21.895-39.541-15.682-1.767 1.767-15.682 15.682 1.767zM388.61 89.712l1.767 15.682-15.682 1.767-1.767-15.682zm-40.327-25.339 5.213 14.895L338.6 84.48l-5.213-14.895zm-44.956-15.731 8.396 13.362-13.362 8.397-8.396-13.362zM256 43.31l11.158 11.158L256 65.626l-11.158-11.158zm-47.327 5.332 13.362 8.396-8.396 13.362-13.362-8.397zm-44.956 15.731 14.896 5.213L173.4 84.48l-14.896-5.213zM123.39 89.712l15.682 1.767-1.767 15.682-15.682-1.767zm-17.996 31.911 1.767 15.682-15.682 1.767-1.767-15.682zm-26.126 36.881 5.212 14.895-14.896 5.213-5.212-14.895zm-17.264 41.772 8.396 13.362-13.362 8.396-8.396-13.362zm-7.536 44.566L65.626 256l-11.158 11.158L43.31 256zm2.57 45.124 13.362 8.396-8.396 13.362-13.362-8.396zm12.546 43.422 14.896 5.213-5.212 14.895-14.896-5.213zm21.895 39.541 15.682 1.767-1.767 15.682-15.682-1.767zm31.911 49.359-1.767-15.682 15.682-1.767 1.767 15.682zm40.327 25.339-5.213-14.895 14.896-5.213 5.213 14.895zm44.956 15.731-8.396-13.362 13.362-8.397 8.396 13.362zM256 468.69l-11.158-11.158L256 446.374l11.158 11.158zm47.327-5.332-13.362-8.396 8.396-13.362 13.362 8.397zm-3.189-39.941a8.174 8.174 0 0 0-11.265 2.572l-11.633 18.515-15.461-15.461a8.17 8.17 0 0 0-11.556 0l-15.461 15.461-11.633-18.515a8.173 8.173 0 0 0-11.265-2.572l-18.516 11.634-7.221-20.639a8.17 8.17 0 0 0-10.41-5.013l-20.638 7.221-2.449-21.729a8.17 8.17 0 0 0-9.034-7.204l-21.728 2.449 2.448-21.729a8.17 8.17 0 0 0-7.204-9.033l-21.728-2.449 7.222-20.639a8.17 8.17 0 0 0-5.012-10.41l-20.64-7.222 11.634-18.515a8.173 8.173 0 0 0-2.571-11.265L67.499 277.24l15.461-15.462a8.17 8.17 0 0 0 0-11.554l-15.461-15.462 18.515-11.633a8.17 8.17 0 0 0 2.571-11.265l-11.634-18.515 20.64-7.222a8.173 8.173 0 0 0 5.012-10.41l-7.222-20.639 21.728-2.449a8.17 8.17 0 0 0 7.204-9.033l-2.448-21.729 21.728 2.449q.458.052.915.051a8.173 8.173 0 0 0 8.119-7.255l2.449-21.729 20.638 7.221a8.18 8.18 0 0 0 6.244-.35 8.18 8.18 0 0 0 4.167-4.662l7.221-20.639 18.516 11.634a8.17 8.17 0 0 0 11.265-2.572L234.76 67.5l15.461 15.461a8.17 8.17 0 0 0 11.556 0L277.238 67.5l11.633 18.515a8.18 8.18 0 0 0 6.918 3.824 8.2 8.2 0 0 0 4.347-1.252l18.516-11.634 7.221 20.639a8.17 8.17 0 0 0 10.411 5.012l20.638-7.221 2.449 21.729a8.17 8.17 0 0 0 9.034 7.204l21.728-2.449-2.448 21.729a8.17 8.17 0 0 0 7.204 9.033l21.728 2.449-7.222 20.639a8.17 8.17 0 0 0 5.012 10.41l20.64 7.222-11.634 18.515a8.173 8.173 0 0 0 2.571 11.265l18.515 11.633-15.461 15.462a8.17 8.17 0 0 0 0 11.554l15.461 15.462-18.515 11.633a8.17 8.17 0 0 0-2.571 11.265l11.634 18.515-20.64 7.222a8.173 8.173 0 0 0-5.012 10.41l7.222 20.639-21.728 2.449a8.17 8.17 0 0 0-7.204 9.033l2.448 21.729-21.728-2.449a8.16 8.16 0 0 0-6.009 1.731 8.16 8.16 0 0 0-3.025 5.473l-2.449 21.729-20.638-7.221a8.173 8.173 0 0 0-10.41 5.013l-7.221 20.639zm48.145 24.21-14.896-5.213 5.213-14.895 14.896 5.213zm40.327-25.339-15.682-1.767 1.767-15.682 15.682 1.767zm17.996-31.911-1.767-15.682 15.682-1.767 1.767 15.682zm26.126-36.881-5.212-14.895 14.896-5.213 5.211 14.895zm17.264-41.772-8.396-13.362 13.362-8.396 8.396 13.362zm7.536-44.566L446.374 256l11.158-11.158L468.69 256z" style="fill:#bcb6b8"/><path d="M169.865 249.881c0 52.81 37.03 78.026 55.533 87.604v-19.159M225.398 337.486v-19.159" style="fill:#d2cfce"/><path d="M437.019 74.981C388.667 26.628 324.38 0 256 0S123.333 26.628 74.981 74.981C26.628 123.332 0 187.62 0 256s26.628 132.668 74.981 181.019C123.333 485.372 187.62 512 256 512s132.667-26.628 181.019-74.981C485.372 388.668 512 324.38 512 256s-26.628-132.668-74.981-181.019M256 495.66C123.851 495.66 16.34 388.15 16.34 256S123.851 16.34 256 16.34 495.66 123.851 495.66 256 388.149 495.66 256 495.66m44.86-178.363a8.17 8.17 0 0 0 8.17-8.17v-10.894a8.17 8.17 0 0 0-8.17-8.17c-21.664 0-39.668 20.446-42.879 47.068a87 87 0 0 1-24.411-5.752V246.89h91.628c4.513 0 8.17-3.658 8.17-8.17s-3.657-8.17-8.17-8.17H233.57v-8.715h151.99c4.513 0 8.17-3.658 8.17-8.17s-3.657-8.17-8.17-8.17h-52.702a67.2 67.2 0 0 0-5.51-19.691 8 8 0 0 0-.528-1.166c-9.774-20.514-29.565-35.356-53.008-38.19V118.92a8.17 8.17 0 0 0-8.17-8.17c-29.649 0-54.88 10.536-72.967 30.468a8.17 8.17 0 0 0 .561 11.541c3.34 3.032 8.508 2.781 11.542-.56 13.246-14.599 31.342-23.081 52.695-24.787v18.846c-37.24 2.884-69.881 25.361-85.852 59.284-29.142.979-53.347 20.88-53.347 44.34a8.17 8.17 0 0 0 8.17 8.17h35.573c3.981 50.963 44.876 91.721 95.898 95.487 2.998 26.933 21.111 47.711 42.947 47.711a8.17 8.17 0 0 0 8.17-8.17v-51.272a8.17 8.17 0 0 0-8.17-8.17 8.17 8.17 0 0 0-8.17 8.17v41.116c-10.701-5.287-18.88-20.445-18.88-37.267 0-16.821 8.179-31.98 18.88-37.266v.736a8.167 8.167 0 0 0 8.168 8.17m-122.431-59.246h20.295c4.513 0 8.17-3.658 8.17-8.17s-3.657-8.17-8.17-8.17h-62.175c4.934-10.511 18.905-19.876 37.317-19.876 7.67 0 15.118 1.511 21.538 4.368a8.173 8.173 0 0 0 10.786-4.143c1.836-4.122-.02-8.951-4.142-10.787-4.049-1.802-8.387-3.185-12.89-4.155 15.353-27.548 44.325-44.841 76.482-44.841 15.674 0 29.722 7.061 39.154 18.161h-4.93c-4.513 0-8.17 3.658-8.17 8.17s3.657 8.17 8.17 8.17h14.3a51 51 0 0 1 2.207 8.715h-90.973a8.17 8.17 0 0 0-8.17 8.17v109.182c-21.464-14.285-36.287-37.776-38.799-64.794m307.593-7.828-18.101-18.101 13.619-21.674a8.173 8.173 0 0 0-2.571-11.265l-21.674-13.618 8.456-24.162a8.17 8.17 0 0 0-5.012-10.41l-24.163-8.455 2.867-25.438a8.17 8.17 0 0 0-7.204-9.033l-25.438-2.866-2.866-25.437a8.17 8.17 0 0 0-9.034-7.204l-25.438 2.866-8.455-24.162a8.17 8.17 0 0 0-10.41-5.013l-24.162 8.455-13.619-21.675a8.17 8.17 0 0 0-11.265-2.571l-21.674 13.618-18.1-18.1a8.17 8.17 0 0 0-11.556 0l-18.1 18.1-21.675-13.62a8.17 8.17 0 0 0-11.265 2.571l-13.619 21.675-24.162-8.455a8.17 8.17 0 0 0-10.41 5.013l-8.455 24.162-25.436-2.865a8.16 8.16 0 0 0-6.009 1.731 8.16 8.16 0 0 0-3.025 5.473L105.2 105.2l-25.437 2.867a8.17 8.17 0 0 0-7.204 9.033l2.867 25.438-24.163 8.455a8.173 8.173 0 0 0-5.012 10.41l8.456 24.162-21.674 13.618a8.17 8.17 0 0 0-2.571 11.265l13.619 21.674-18.101 18.1a8.17 8.17 0 0 0 0 11.554l18.101 18.101-13.619 21.674a8.173 8.173 0 0 0 2.571 11.265l21.674 13.618-8.456 24.162a8.175 8.175 0 0 0 5.012 10.411l24.163 8.455-2.867 25.437a8.17 8.17 0 0 0 7.204 9.033l25.438 2.866 2.866 25.437a8.17 8.17 0 0 0 9.034 7.204l25.438-2.866 8.455 24.162a8.17 8.17 0 0 0 10.411 5.012l24.162-8.455 13.619 21.675a8.16 8.16 0 0 0 11.264 2.572l21.674-13.618 18.1 18.1a8.17 8.17 0 0 0 11.556 0l18.1-18.1 21.674 13.618a8.13 8.13 0 0 0 4.339 1.253 8.16 8.16 0 0 0 6.925-3.825l13.619-21.675 24.162 8.455a8.166 8.166 0 0 0 10.411-5.012l8.455-24.162 25.438 2.866q.458.052.915.051a8.173 8.173 0 0 0 8.119-7.255l2.866-25.437 25.438-2.866a8.17 8.17 0 0 0 7.204-9.033l-2.867-25.437 24.163-8.455a8.173 8.173 0 0 0 5.012-10.411l-8.456-24.162 21.674-13.618a8.17 8.17 0 0 0 2.571-11.265l-13.619-21.674 18.101-18.101a8.17 8.17 0 0 0-.002-11.553m-31.06-28.189-13.362-8.396 8.396-13.362 13.362 8.396zm-12.546-43.422-14.896-5.213 5.212-14.895 14.896 5.213zm-21.895-39.541-15.682-1.767 1.767-15.682 15.682 1.767zM388.61 89.712l1.767 15.681-15.682 1.768-1.767-15.682zm-40.327-25.339 5.213 14.895L338.6 84.48l-5.213-14.895zm-44.956-15.731 8.396 13.362-13.362 8.397-8.396-13.362zM256 43.31l11.158 11.158L256 65.626l-11.158-11.158zm-47.327 5.332 13.362 8.396-8.396 13.362-13.362-8.397zm-44.956 15.731 14.896 5.213L173.4 84.48l-14.896-5.213zM123.39 89.712l15.682 1.767-1.767 15.682-15.682-1.768zm-17.996 31.911 1.767 15.682-15.682 1.767-1.767-15.682zm-26.126 36.881 5.212 14.895-14.896 5.213-5.212-14.895zm-17.264 41.772 8.396 13.362-13.362 8.396-8.396-13.362zm-7.536 44.566L65.626 256l-11.158 11.158L43.31 256zm2.57 45.124 13.362 8.396-8.396 13.362-13.362-8.396zm12.546 43.422 14.896 5.213-5.212 14.895-14.896-5.213zm21.895 39.541 15.682 1.767-1.767 15.682-15.682-1.767zm31.911 49.359-1.767-15.681 15.682-1.768 1.767 15.682zm40.327 25.339-5.213-14.895 14.896-5.213 5.213 14.895zm44.956 15.731-8.396-13.362 13.362-8.397 8.396 13.362zM256 468.69l-11.158-11.158L256 446.374l11.158 11.158zm47.327-5.332-13.362-8.396 8.396-13.362 13.362 8.397zm-3.189-39.941a8.174 8.174 0 0 0-11.265 2.572l-11.633 18.515-15.461-15.461a8.17 8.17 0 0 0-11.556 0l-15.461 15.461-11.633-18.515a8.173 8.173 0 0 0-11.265-2.572l-18.516 11.634-7.221-20.639a8.17 8.17 0 0 0-10.41-5.013l-20.638 7.221-2.449-21.729a8.17 8.17 0 0 0-9.034-7.204l-21.728 2.449 2.448-21.729a8.17 8.17 0 0 0-7.204-9.033l-21.728-2.449 7.222-20.639a8.17 8.17 0 0 0-5.012-10.41l-20.64-7.222 11.634-18.515a8.173 8.173 0 0 0-2.571-11.265L67.499 277.24l15.461-15.462a8.17 8.17 0 0 0 0-11.554l-15.461-15.462 18.515-11.633a8.17 8.17 0 0 0 2.571-11.265l-11.634-18.515 20.64-7.222a8.173 8.173 0 0 0 5.012-10.41l-7.222-20.639 21.728-2.449a8.17 8.17 0 0 0 7.204-9.033l-2.448-21.729 21.728 2.449q.458.052.915.051a8.173 8.173 0 0 0 8.119-7.255l2.449-21.729 20.638 7.221a8.18 8.18 0 0 0 6.244-.35 8.18 8.18 0 0 0 4.167-4.662l7.221-20.639 18.516 11.634a8.17 8.17 0 0 0 11.265-2.572L234.76 67.5l15.461 15.461a8.17 8.17 0 0 0 11.556 0L277.238 67.5l11.633 18.515a8.18 8.18 0 0 0 6.918 3.824 8.2 8.2 0 0 0 4.347-1.252l18.516-11.634 7.221 20.639a8.17 8.17 0 0 0 10.411 5.012l20.638-7.221 2.449 21.729a8.17 8.17 0 0 0 9.034 7.204l21.728-2.449-2.448 21.729a8.17 8.17 0 0 0 7.204 9.033l21.728 2.449-7.222 20.639a8.17 8.17 0 0 0 5.012 10.41l20.64 7.222-11.634 18.515a8.173 8.173 0 0 0 2.571 11.265l18.515 11.633-15.461 15.462a8.17 8.17 0 0 0 0 11.554l15.461 15.462-18.515 11.633a8.17 8.17 0 0 0-2.571 11.265l11.634 18.515-20.64 7.222a8.173 8.173 0 0 0-5.012 10.41l7.222 20.639-21.728 2.449a8.17 8.17 0 0 0-7.204 9.033l2.448 21.729-21.728-2.449a8.16 8.16 0 0 0-6.009 1.731 8.16 8.16 0 0 0-3.025 5.473l-2.449 21.729-20.638-7.221a8.173 8.173 0 0 0-10.41 5.013l-7.221 20.639zm48.145 24.21-14.896-5.213 5.213-14.895 14.896 5.213zm40.327-25.339-15.682-1.767 1.767-15.682 15.682 1.768zm17.996-31.911-1.767-15.682 15.682-1.767 1.767 15.682zm26.126-36.881-5.212-14.895 14.896-5.213 5.211 14.895zm17.264-41.772-8.396-13.362 13.362-8.396 8.396 13.362zm7.536-44.566L446.374 256l11.158-11.158L468.69 256z"/></svg>