<svg xmlns="http://www.w3.org/2000/svg" xml:space="preserve" width="800" height="800" viewBox="0 0 511.999 511.999"><path d="M169.888 500.182 37.956 389.479 8.05 219.871l86.112-149.15L256 11.817l161.838 58.904 86.112 149.15-29.907 169.608-131.932 110.703z" style="fill:#fd9a0c"/><path d="M399.483 92.596 256 40.372 112.517 92.596 36.171 224.829 62.686 375.2l116.968 98.149h152.691L449.313 375.2l26.515-150.371z" style="fill:#ffc066"/><path d="M344.429 318.052c-5.006-3.197-10.225-5.507-15.35-6.938V216.07c5.124-1.431 10.344-3.741 15.35-6.939 13.987-8.937 22.382-22.306 22.538-33.89-10.578-4.726-26.236-2.727-40.225 6.209-7.904 5.05-14.022 11.516-17.877 18.276v127.733c3.855 6.76 9.973 13.226 17.877 18.277 13.988 8.937 29.646 10.935 40.225 6.209-.155-11.586-8.55-24.957-22.538-33.893M234.601 338.534V188.649a75 75 0 0 0 3.51-6.703c8.598-18.66 8.407-38.201.828-50.375-14.18 2.147-29.158 14.696-37.757 33.357-6.907 14.988-8.143 30.545-4.434 42.394V319.86c-3.709 11.851-2.473 27.406 4.434 42.394 8.598 18.66 23.577 31.21 37.757 33.356 7.58-12.174 7.771-31.714-.828-50.374a75 75 0 0 0-3.51-6.702M184.512 237.401H139.02c-14.465 0-26.19 11.726-26.19 26.19s11.726 26.19 26.19 26.19h45.532z" style="fill:#ca7b0a"/><path d="M347.965 263.591c0 21.217-9.724 40.978-27.38 55.644-16.78 13.938-38.908 21.615-62.306 21.615s-45.525-7.676-62.306-21.615c-17.656-14.666-27.38-34.427-27.38-55.644s9.723-40.977 27.38-55.643c16.78-13.938 38.908-21.615 62.306-21.615s45.525 7.676 62.306 21.615c17.657 14.667 27.38 34.427 27.38 55.643" style="fill:#fd9a0c"/><path d="m510.921 215.846-86.112-149.15a8.06 8.06 0 0 0-4.218-3.54L258.753 4.252a8.05 8.05 0 0 0-5.506 0L91.409 63.156a8.04 8.04 0 0 0-4.218 3.54L1.079 215.846a8.04 8.04 0 0 0-.956 5.422l29.906 169.608a8.04 8.04 0 0 0 2.753 4.769l131.931 110.703a8.05 8.05 0 0 0 5.175 1.884h172.224a8.05 8.05 0 0 0 5.175-1.884l131.932-110.703a8.04 8.04 0 0 0 2.752-4.769l29.906-169.608a8.05 8.05 0 0 0-.956-5.422m-44.297 169.349L339.182 492.132H172.818L45.375 385.195 16.486 221.358 99.669 77.284 256 20.383l156.332 56.9 83.181 144.074zM406.455 88.571 482.8 220.804a8.04 8.04 0 0 1 .956 5.422l-12.297 69.741a8.047 8.047 0 0 1-9.325 6.53 8.05 8.05 0 0 1-6.529-9.325l11.787-66.856-73.414-127.158L256 48.939 118.023 99.158 44.608 226.317l25.497 144.601 112.48 94.381h146.83l112.48-94.381 8.118-46.035a8.05 8.05 0 1 1 15.854 2.795l-8.626 48.921a8.05 8.05 0 0 1-2.752 4.769l-116.968 98.147a8.05 8.05 0 0 1-5.175 1.884H179.654a8.05 8.05 0 0 1-5.175-1.884L57.512 381.368a8.04 8.04 0 0 1-2.753-4.769L28.244 226.226a8.05 8.05 0 0 1 .956-5.422l76.346-132.233a8.05 8.05 0 0 1 4.218-3.54l143.483-52.224a8.05 8.05 0 0 1 5.506 0l143.484 52.224a8.06 8.06 0 0 1 4.218 3.54m-115.871 165.66v18.711l20.226 11.677a8.05 8.05 0 1 1-8.05 13.942l-20.226-11.677-16.204 9.355v16.368a8.05 8.05 0 1 1-16.1 0V296.24l-16.204-9.355-20.225 11.677a8.048 8.048 0 0 1-10.996-2.946 8.05 8.05 0 0 1 2.946-10.996l20.225-11.677v-18.711l-20.225-11.677a8.05 8.05 0 1 1 8.05-13.942l20.225 11.677 16.204-9.355v-16.411a8.05 8.05 0 0 1 8.05-8.05 8.05 8.05 0 0 1 8.05 8.05v21.059c0 .075-.01.147-.012.221q-.005.24-.024.478a8 8 0 0 1-.044.377q-.025.194-.059.383a9 9 0 0 1-.176.747q-.064.223-.141.441-.05.15-.109.296a8 8 0 0 1-.326.722 7 7 0 0 1-.196.358q-.099.17-.204.336-.097.152-.202.296a7.635 7.635 0 0 1-.472.602 10 10 0 0 1-.303.334q-.117.122-.244.238a6.161 6.161 0 0 1-.629.538q-.145.113-.294.221-.202.138-.412.266c-.061.038-.116.079-.179.116l-20.229 11.679v18.711l16.204 9.355 16.204-9.355v-23.359a8.05 8.05 0 0 1 4.025-6.971l24.251-14.001a8.05 8.05 0 0 1 10.996 2.946 8.05 8.05 0 0 1-2.946 10.996zm84.433-78.884a8.05 8.05 0 0 0-4.765-7.459c-13.514-6.039-31.848-3.443-47.843 6.776-6.356 4.061-11.821 9.016-16.132 14.548-14.497-7.12-30.942-10.93-47.996-10.93-3.425 0-6.822.166-10.188.469 6.795-18.774 6.05-37.992-2.321-51.435a8.05 8.05 0 0 0-8.038-3.704c-17.49 2.648-34.297 17.188-43.863 37.947-6.622 14.371-8.768 29.692-6.141 42.896-8.117 7.357-14.535 15.767-19.093 24.896h-29.616c-18.88 0-34.24 15.36-34.24 34.24s15.36 34.24 34.24 34.24h29.616c4.557 9.128 10.977 17.538 19.093 24.896-2.628 13.204-.483 28.525 6.141 42.896 9.566 20.759 26.373 35.3 43.863 37.947a8.054 8.054 0 0 0 8.039-3.704c8.371-13.443 9.116-32.661 2.321-51.435 3.366.303 6.763.469 10.188.469 17.054 0 33.5-3.809 47.996-10.93 4.313 5.531 9.776 10.486 16.132 14.548 10.283 6.57 21.53 9.988 31.844 9.988 5.729 0 11.172-1.055 15.999-3.212a8.05 8.05 0 0 0 4.764-7.459c-.2-14.803-10.259-30.347-26.253-40.567a68 68 0 0 0-6.59-3.713c7.48-10.85 12.064-23.051 13.414-35.915h9.805a8.05 8.05 0 0 0 8.05-8.05 8.05 8.05 0 0 0-8.05-8.05h-9.805c-1.35-12.864-5.934-25.063-13.414-35.914a68 68 0 0 0 6.59-3.713c15.994-10.218 26.054-25.762 26.253-40.566m-43.94 12.886c8.822-5.635 18.876-8.229 26.834-7.207-2.416 7.651-8.996 15.686-17.816 21.322a50.6 50.6 0 0 1-8.749 4.474 94 94 0 0 0-5.617-5.064c-1.769-1.47-3.609-2.856-5.481-4.196 3-3.486 6.692-6.686 10.829-9.329m-122.585-19.936c5.995-13.01 15.99-23.273 26.073-27.237 3.538 10.241 2.228 24.507-3.767 37.518a66 66 0 0 1-1.806 3.599c-9.318 2.534-18.149 6.277-26.227 11.14-.034-7.983 1.914-16.744 5.727-25.02M139.02 281.732c-10.002 0-18.14-8.138-18.14-18.14s8.138-18.14 18.14-18.14h23.704c-1.436 5.883-2.18 11.953-2.18 18.14s.743 12.257 2.18 18.14zm91.779 66.874c5.995 13.01 7.304 27.277 3.766 37.516-10.083-3.963-20.079-14.226-26.073-27.236-3.814-8.276-5.762-17.037-5.726-25.019 8.078 4.863 16.909 8.606 26.227 11.14a67 67 0 0 1 1.806 3.599m-29.681-35.564c-15.781-13.109-24.473-30.67-24.473-49.45s8.692-36.341 24.473-49.449c15.339-12.742 35.64-19.758 57.162-19.758 21.524 0 41.823 7.017 57.162 19.758 15.781 13.108 24.473 30.669 24.473 49.449s-8.692 36.342-24.473 49.45c-15.339 12.74-35.639 19.758-57.162 19.758-21.522-.001-41.823-7.018-57.162-19.758m156.794 33.115c-7.959 1.023-18.015-1.572-26.834-7.206-4.138-2.645-7.829-5.843-10.83-9.328 1.874-1.341 3.713-2.726 5.482-4.196a94 94 0 0 0 5.617-5.064 50.6 50.6 0 0 1 8.749 4.473c8.82 5.635 15.399 13.67 17.816 21.321m7.609 55.482a8.05 8.05 0 0 1-1.809 11.239c-31.49 22.76-68.737 34.79-107.714 34.79s-76.225-12.031-107.716-34.792a8.05 8.05 0 1 1 9.43-13.049c28.731 20.765 62.717 31.741 98.286 31.741s69.556-10.975 98.283-31.738a8.05 8.05 0 0 1 11.24 1.809m21.759-242.85c-32.095-40.148-79.945-63.174-131.282-63.174s-99.189 23.027-131.282 63.177a8.04 8.04 0 0 1-6.293 3.024 8.05 8.05 0 0 1-6.282-13.077c35.167-43.993 87.601-69.224 143.858-69.224 56.256 0 108.691 25.23 143.857 69.221a8.05 8.05 0 1 1-12.576 10.053"/></svg>