<svg xmlns="http://www.w3.org/2000/svg" xml:space="preserve" width="800" height="800" viewBox="0 0 512 512"><circle cx="256" cy="256" r="247.83" style="fill:#ebeaea"/><circle cx="256" cy="256" r="220.596" style="fill:#a8a2a2"/><path d="M272.635 285.101 256 309.384l-16.635-24.283h-79.672c16.602 36.622 53.478 62.097 96.305 62.097s79.703-25.475 96.305-62.097zM269.812 206.778 256 226.941l-13.812-20.162h-66.154c13.785 30.408 44.405 51.561 79.965 51.561s66.18-21.152 79.965-51.561zM266.989 138.992 256 155.034l-10.989-16.043h-52.635c10.968 24.195 35.331 41.024 63.624 41.024s52.656-16.83 63.624-41.024h-52.635z" style="fill:#ebeaea"/><path d="M437.019 74.981C388.667 26.628 324.38 0 256 0S123.333 26.628 74.981 74.981C26.628 123.332 0 187.62 0 256s26.628 132.668 74.981 181.019C123.333 485.372 187.62 512 256 512s132.667-26.628 181.019-74.981C485.372 388.668 512 324.38 512 256s-26.628-132.668-74.981-181.019M256 495.66C123.851 495.66 16.34 388.15 16.34 256S123.851 16.34 256 16.34 495.66 123.851 495.66 256 388.149 495.66 256 495.66m-9.894-215.176a8.17 8.17 0 0 0-6.741-3.552h-79.672a8.168 8.168 0 0 0-7.441 11.545c17.29 38.14 54.226 63.611 95.576 66.596v44.699a8.17 8.17 0 0 0 8.17 8.17 8.17 8.17 0 0 0 8.17-8.17v-44.699c41.35-2.986 78.286-28.457 95.576-66.596a8.172 8.172 0 0 0-7.441-11.545h-79.669a8.17 8.17 0 0 0-6.741 3.552L264.17 283v-16.855c34.314-2.946 64.849-24.258 79.236-55.993a8.172 8.172 0 0 0-7.441-11.544h-66.154a8.17 8.17 0 0 0-5.642 2.278V187.75c27.275-2.885 51.411-20.054 62.895-45.385a8.172 8.172 0 0 0-7.441-11.544h-52.635c-.976 0-1.928.18-2.819.508v-19.1a8.17 8.17 0 0 0-8.17-8.17 8.17 8.17 0 0 0-8.17 8.17v19.1a8.2 8.2 0 0 0-2.819-.508h-52.635a8.168 8.168 0 0 0-7.441 11.544c11.484 25.331 35.62 42.5 62.895 45.385v13.137a8.16 8.16 0 0 0-5.642-2.278h-66.154a8.168 8.168 0 0 0-7.441 11.544c14.387 31.735 44.922 53.049 79.236 55.993v16.855zm30.835 12.787h61.721c-17.674 28.156-48.868 45.756-82.662 45.756s-64.988-17.601-82.662-45.756h61.721l14.161 20.672.013.019.026.039c.02.027.041.05.061.078q.229.324.486.623.098.111.2.22.214.23.442.443.11.103.223.204.272.233.563.442c.05.036.096.075.147.109q.378.26.787.477c.038.021.077.036.115.056q.348.178.715.324.114.043.229.084a8.2 8.2 0 0 0 1.587.398c.083.012.164.028.249.038.307.035.618.058.935.058s.628-.023.935-.058q.125-.017.249-.038.344-.05.675-.125.131-.032.261-.068.332-.089.651-.205.116-.04.228-.084.368-.145.716-.324c.038-.02.077-.035.115-.056a9 9 0 0 0 .787-.477c.051-.035.097-.073.147-.109a8 8 0 0 0 .562-.442q.113-.1.224-.204.23-.215.442-.443.102-.108.2-.22.257-.3.486-.623l.061-.078.026-.039.013-.019zm-70.284-146.109h34.047l8.516 12.432.013.02.026.039c.02.027.041.05.061.078q.229.324.486.623.098.111.2.22.213.231.442.443.11.103.223.204.272.233.563.442c.05.036.096.075.147.109q.379.26.787.477c.038.02.077.036.115.056q.349.179.715.324.114.043.229.084.319.114.651.205l.261.068q.332.076.675.126.123.02.249.037c.307.035.618.058.935.058s.627-.023.935-.058q.125-.017.249-.037.344-.05.675-.126.131-.032.261-.068.331-.089.651-.205.115-.04.228-.084a8 8 0 0 0 .716-.324c.038-.02.077-.036.115-.056a9 9 0 0 0 .787-.477c.051-.035.097-.073.147-.109q.291-.208.562-.442.113-.1.224-.204.23-.215.442-.443.102-.109.2-.22.257-.3.486-.623l.061-.078.026-.039.013-.02 8.516-12.432h34.047c-11.503 15.308-29.73 24.684-49.343 24.684-19.609 0-37.836-9.376-49.339-24.684m-16.739 67.786h47.964L249.22 231.5l.013.019.026.039.061.078q.229.324.486.623.098.112.2.22.213.232.442.444.11.104.223.203.272.233.563.442c.05.035.096.074.147.109q.379.26.787.477c.038.021.077.036.115.056q.349.179.715.325.114.043.229.083.319.116.651.205.13.035.261.068.332.076.675.125c.083.012.164.028.249.038.307.035.618.057.935.057s.628-.023.935-.057c.084-.01.166-.026.249-.038q.344-.05.675-.125.131-.032.261-.068.331-.088.651-.205.115-.04.228-.083.368-.145.716-.325c.038-.02.077-.035.115-.056a9 9 0 0 0 .787-.477c.051-.035.097-.074.147-.109q.291-.208.562-.441.113-.1.224-.205.23-.213.442-.443.102-.107.2-.22.257-.3.486-.623c.02-.027.041-.05.061-.078l.026-.039.013-.019 11.338-16.552h47.964c-14.632 21.739-39.361 35.22-66.082 35.22-26.717.001-51.445-13.48-66.078-35.22m218.221-69.566a8.14 8.14 0 0 1-5.086 1.781 8.16 8.16 0 0 1-6.396-3.08C362.309 100.972 311.04 76.247 256 76.247s-106.309 24.726-140.657 67.837a8.174 8.174 0 0 1-11.482 1.299 8.173 8.173 0 0 1-1.299-11.482C140.03 86.877 195.955 59.906 256 59.906s115.97 26.97 153.439 73.995a8.17 8.17 0 0 1-1.3 11.481m8.536 191.274c12.659-25.169 19.079-52.306 19.079-80.656s-6.42-55.487-19.079-80.656a8.17 8.17 0 0 1 14.598-7.342c13.816 27.467 20.821 57.075 20.821 87.999s-7.006 60.53-20.821 87.999a8.17 8.17 0 0 1-10.97 3.627 8.17 8.17 0 0 1-3.628-10.971M95.325 175.344C82.665 200.513 76.246 227.649 76.246 256s6.42 55.488 19.079 80.656a8.17 8.17 0 0 1-14.598 7.343C66.911 316.53 59.905 286.924 59.905 256s7.006-60.53 20.821-87.999a8.172 8.172 0 0 1 14.599 7.343M256 435.753c55.04 0 106.309-24.725 140.658-67.837a8.173 8.173 0 0 1 11.481-1.299 8.17 8.17 0 0 1 1.298 11.482c-37.469 47.024-93.394 73.994-153.439 73.994S140.029 425.125 102.56 378.1a8.171 8.171 0 0 1 12.78-10.183c34.351 43.111 85.62 67.836 140.66 67.836m227.962-160.611c-4.726 56.998-30.533 109.853-72.668 148.833-42.378 39.202-97.529 60.791-155.294 60.791-126.142 0-228.766-102.624-228.766-228.766S129.858 27.234 256 27.234c58.535 0 114.226 22.094 156.814 62.212 42.399 39.941 67.781 93.859 71.466 151.821a8.17 8.17 0 0 1-7.634 8.672 8.17 8.17 0 0 1-8.674-7.635C460.885 130.867 367.774 43.574 256 43.574 138.869 43.574 43.574 138.869 43.574 256S138.869 468.426 256 468.426c109.65 0 202.63-85.493 211.677-194.633.374-4.497 4.335-7.842 8.817-7.466a8.17 8.17 0 0 1 7.468 8.815"/></svg>