<svg xmlns="http://www.w3.org/2000/svg" xml:space="preserve" width="800" height="800" viewBox="0 0 512 512"><circle cx="256" cy="256" r="247.83" style="fill:#a8a2a2"/><circle cx="256" cy="256" r="220.596" style="fill:#d2cfce"/><path d="M172.749 152.116v155.735c0 10.731 8.179 22.707 18.175 26.611L256 359.884l65.076-25.42c9.996-3.904 18.175-15.88 18.175-26.611V152.118H172.749z" style="fill:#8c8484"/><path d="M129.174 307.853c-17.919 0-32.444-14.527-32.444-32.446v-57.652c0-8.96 7.262-16.223 16.223-16.223 8.959 0 16.223 7.263 16.223 16.223v90.098zM382.826 307.853c17.919 0 32.444-14.527 32.444-32.446v-57.652c0-8.96-7.263-16.223-16.223-16.223s-16.223 7.263-16.223 16.223v90.098z" style="fill:#a8a2a2"/><path d="M437.019 74.981C388.667 26.628 324.38 0 256 0S123.333 26.628 74.981 74.981C26.628 123.332 0 187.62 0 256s26.628 132.668 74.981 181.019C123.333 485.372 187.62 512 256 512s132.667-26.628 181.019-74.981C485.372 388.668 512 324.38 512 256s-26.628-132.668-74.981-181.019M256 495.66C123.851 495.66 16.34 388.15 16.34 256S123.851 16.34 256 16.34 495.66 123.851 495.66 256 388.149 495.66 256 495.66m68.085-92.414a8.17 8.17 0 0 1-8.17 8.17h-119.83a8.17 8.17 0 0 1-8.17-8.17 8.17 8.17 0 0 1 8.17-8.17h119.83a8.17 8.17 0 0 1 8.17 8.17m23.336-95.393V152.117a8.17 8.17 0 0 0-8.17-8.17H172.749a8.17 8.17 0 0 0-8.17 8.17v155.735c0 14.07 10.267 29.102 23.373 34.221l65.075 25.42c.955.374 1.964.56 2.973.56a8.2 8.2 0 0 0 2.973-.56l65.075-25.42c13.106-5.119 23.373-20.15 23.373-34.22m-16.34 0c0 7.422-6.064 16.3-12.978 19.001L256 351.112l-62.103-24.259c-6.913-2.701-12.978-11.58-12.978-19.001V160.288h150.162zm-125.651 8.17h42.4v2.723c0 4.512 3.657 8.17 8.17 8.17s8.17-3.658 8.17-8.17v-2.723h42.4a8.17 8.17 0 0 0 8.17-8.17V190.638a8.17 8.17 0 0 0-8.17-8.17c-23.73 0-33.59 45.502-37.289 71.589h-5.111v-69.259c0-4.512-3.657-8.17-8.17-8.17s-8.17 3.658-8.17 8.17v69.259h-5.11c-3.699-26.088-13.559-71.589-37.289-71.589a8.17 8.17 0 0 0-8.17 8.17v117.214a8.17 8.17 0 0 0 8.169 8.171m90.42-102.25a71 71 0 0 1 2.55-5.535v45.819h-12.613c2.405-16.245 5.841-30.052 10.063-40.284m2.55 56.624v29.284h-34.23v-29.284zm-50.57 29.285H213.6v-29.284h34.23zm-31.68-85.909c4.222 10.232 7.658 24.038 10.062 40.284H213.6v-45.819a71 71 0 0 1 2.55 5.535m134.673-109.086-29.957 22.877a8.17 8.17 0 0 1-9.918 0l-25-19.09-24.993 19.089a8.17 8.17 0 0 1-9.918 0l-24.995-19.089-24.993 19.089a8.16 8.16 0 0 1-4.96 1.678 8.16 8.16 0 0 1-4.96-1.678l-29.953-22.877a8.172 8.172 0 0 1 9.92-12.986l24.993 19.089L221.082 91.7a8.17 8.17 0 0 1 9.918 0l24.995 19.089L280.988 91.7a8.17 8.17 0 0 1 9.918 0l25 19.09 24.999-19.09c3.585-2.74 8.713-2.05 11.452 1.535a8.17 8.17 0 0 1-1.534 11.452M96.729 182.468a8.17 8.17 0 0 0-8.17 8.17v84.768c0 19.738 14.155 36.226 32.845 39.862 1.927 18.447 10.876 36.875 24.778 50.466a8.14 8.14 0 0 0 5.71 2.328 8.14 8.14 0 0 0 5.842-2.459 8.17 8.17 0 0 0-.13-11.554c-12.687-12.405-20.261-29.674-20.261-46.198V190.638a8.17 8.17 0 0 0-8.17-8.17 8.17 8.17 0 0 0-8.17 8.17v4.095c-2.522-.885-5.231-1.372-8.053-1.372s-5.531.487-8.054 1.373v-4.096a8.165 8.165 0 0 0-8.167-8.17m8.171 35.287c0-4.44 3.611-8.053 8.053-8.053s8.053 3.612 8.053 8.053v80.508c-9.377-3.362-16.105-12.337-16.105-22.857v-57.631q-.002-.01-.001-.02m255.207 150.308c2.06 0 4.121-.775 5.71-2.328 13.901-13.591 22.852-32.02 24.778-50.466 18.689-3.636 32.845-20.124 32.845-39.862v-84.769a8.17 8.17 0 0 0-8.17-8.17 8.17 8.17 0 0 0-8.17 8.17v4.096c-2.523-.886-5.232-1.373-8.054-1.373s-5.53.487-8.053 1.372v-4.095a8.17 8.17 0 0 0-8.17-8.17 8.17 8.17 0 0 0-8.17 8.17v117.214c0 16.523-7.574 33.793-20.261 46.198a8.169 8.169 0 0 0 5.715 14.013m38.94-158.361c4.44 0 8.054 3.612 8.054 8.053v57.651c0 10.52-6.728 19.495-16.105 22.857v-80.508c0-4.441 3.611-8.053 8.051-8.053M484.221 256c0 54.683-19.642 107.58-55.309 148.95a8.171 8.171 0 0 1-12.376-10.671c33.11-38.402 51.345-87.511 51.345-138.278C467.881 139.169 372.832 44.12 256 44.12S44.119 139.168 44.119 256 139.168 467.881 256 467.881c50.768 0 99.876-18.235 138.28-51.345a8.17 8.17 0 0 1 10.67 12.376c-41.37 35.666-94.269 55.309-148.951 55.309-125.841 0-228.22-102.379-228.22-228.221S130.158 27.779 256 27.779 484.221 130.158 484.221 256"/></svg>