<svg xmlns="http://www.w3.org/2000/svg" xml:space="preserve" width="800" height="800" viewBox="0 0 512 512"><circle cx="256" cy="256" r="247.83" style="fill:#a8a2a2"/><circle cx="256" cy="256" r="220.596" style="fill:#ebeaea"/><path d="M161.081 296.258c9.038 43.698 46.346 77.883 94.857 94.137V285.372z" style="fill:#bcb6b8"/><path d="m256 285.365-.063.008v105.023c48.51-16.253 85.818-50.44 94.857-94.137z" style="fill:#a8a2a2"/><path d="M312.496 179.272c-18.033 4.765-36.966 7.315-56.496 7.315a221 221 0 0 1-56.599-7.342c-35.262 41.578-45.356 83.007-38.32 117.014h86.687v94.137a8.17 8.17 0 0 0 16.34 0v-94.137h86.687c7.033-34-3.057-75.418-38.299-116.987" style="fill:#8c8484"/><path d="m256 86.203 8.556 18.31 18.995-6.897-6.898 18.996 18.311 8.555-18.311 8.554 6.898 18.997-18.995-6.898L256 164.131l-8.556-18.311-18.996 6.898 6.899-18.997-18.311-8.554 18.311-8.555-6.899-18.996 18.996 6.897z" style="fill:#bcb6b8"/><path d="M139.665 153.477c-14.492 13.432-40.022 58.758-40.022 94.2 0 51.778 20.997 87.489 58.245 115.099-14.283-16.042-22.011-34.339-27.393-53.759-8.411-30.341-5.8-83.025 34.547-137.346zM371.4 153.477c14.493 13.432 40.022 58.758 40.022 94.2 0 51.778-20.996 87.489-58.244 115.099 14.282-16.042 22.009-34.339 27.393-53.759 8.411-30.341 5.799-83.025-34.547-137.346z" style="fill:#a8a2a2"/><path d="M437.019 74.981C388.667 26.628 324.38 0 256 0S123.332 26.628 74.981 74.981C26.628 123.332 0 187.62 0 256s26.628 132.668 74.981 181.019C123.332 485.372 187.62 512 256 512s132.667-26.628 181.019-74.981C485.372 388.668 512 324.38 512 256s-26.628-132.668-74.981-181.019M256 495.66C123.851 495.66 16.34 388.15 16.34 256S123.851 16.34 256 16.34 495.66 123.851 495.66 256 388.149 495.66 256 495.66m104.425-97.242-21.968 4.227 4.265 2.832a8.171 8.171 0 0 1-2.459 14.712c-24.068 6.275-55.579 10.021-84.29 10.021s-60.223-3.746-84.29-10.021a8.169 8.169 0 0 1-2.458-14.712l4.265-2.832-21.969-4.227a8.172 8.172 0 0 1 3.087-16.047l41.592 8.001a8.17 8.17 0 0 1 2.977 14.829l-4.833 3.209c19.272 3.478 41.169 5.458 61.632 5.458s42.36-1.979 61.632-5.458l-4.835-3.21a8.168 8.168 0 0 1 2.978-14.829l41.591-8.001c4.433-.857 8.715 2.048 9.567 6.48a8.176 8.176 0 0 1-6.484 9.568M484.766 256c0 126.142-102.624 228.766-228.766 228.766S27.234 382.142 27.234 256 129.858 27.234 256 27.234c32.921 0 64.699 6.849 94.455 20.355a8.17 8.17 0 0 1-6.754 14.879C316.08 49.931 286.574 43.574 256 43.574 138.869 43.574 43.574 138.869 43.574 256S138.869 468.426 256 468.426 468.426 373.131 468.426 256c0-72.34-36.306-139.042-97.119-178.427a8.17 8.17 0 0 1 8.883-13.715C445.671 106.267 484.766 178.095 484.766 256m-220.659-18.553v-2.157h4.345c4.513 0 8.17-3.658 8.17-8.17s-3.657-8.17-8.17-8.17h-4.345v-4.345a8.17 8.17 0 0 0-16.34 0v4.345h-4.345a8.17 8.17 0 0 0 0 16.34h4.345v2.157l-16.063 27.822a8.172 8.172 0 0 0 7.075 12.255h34.315a8.17 8.17 0 0 0 7.075-12.255zm-11.176 23.737 3.007-5.207 3.007 5.207zm-44.064-136.017a8.17 8.17 0 0 0 4.711 7.402l11.537 5.39-4.347 11.97a8.17 8.17 0 0 0 10.469 10.469l11.971-4.347 5.39 11.537a8.169 8.169 0 0 0 14.804 0l5.39-11.537 11.97 4.347a8.172 8.172 0 0 0 10.468-10.469l-4.347-11.97 11.539-5.39a8.169 8.169 0 0 0 0-14.804l-11.539-5.39 4.347-11.971a8.172 8.172 0 0 0-10.468-10.469l-11.97 4.347-5.39-11.537a8.17 8.17 0 0 0-14.804 0l-5.39 11.537-11.971-4.347a8.17 8.17 0 0 0-10.469 10.469l4.347 11.971-11.537 5.39a8.17 8.17 0 0 0-4.711 7.402m29.937-1.153a8.17 8.17 0 0 0 4.221-10.19l-.93-2.561 2.561.93a8.17 8.17 0 0 0 10.19-4.221l1.154-2.467 1.154 2.467a8.17 8.17 0 0 0 10.19 4.221l2.56-.93-.93 2.561a8.17 8.17 0 0 0 4.221 10.19l2.467 1.153-2.467 1.153a8.17 8.17 0 0 0-4.221 10.191l.93 2.559-2.56-.929a8.17 8.17 0 0 0-10.19 4.221L256 144.83l-1.153-2.467a8.163 8.163 0 0 0-10.19-4.222l-2.561.93.93-2.56a8.17 8.17 0 0 0-4.221-10.191l-2.467-1.153zM420.43 250.14c0-37.903-15.045-74.255-42.363-102.358l-.023-.021c-.133-.136-.273-.259-.414-.386-.065-.058-.125-.12-.192-.175-.144-.12-.294-.227-.443-.336-.07-.051-.138-.109-.21-.158-.133-.09-.272-.169-.411-.251-.094-.056-.185-.118-.28-.169-.111-.06-.226-.108-.339-.162-.127-.062-.253-.129-.385-.182-.085-.036-.173-.063-.259-.095-.16-.061-.32-.125-.483-.175-.081-.025-.163-.041-.246-.064-.17-.047-.341-.096-.515-.132-.121-.025-.244-.039-.366-.059-.134-.022-.268-.048-.404-.063a9 9 0 0 0-.676-.042q-.051-.003-.1-.005a8.2 8.2 0 0 0-2.23.281q-.051.012-.103.023c-.163.046-.325.106-.487.162-.09.032-.183.058-.272.093-.112.044-.219.098-.329.147-.137.061-.277.118-.411.186-.077.039-.151.088-.228.13-.161.09-.325.179-.481.28-.071.047-.139.101-.21.15-.155.108-.309.214-.459.333l-.024.017c-5.804 4.67-12.545 8.867-20.155 12.586l-16.971-16.971a8.17 8.17 0 0 0-11.555 11.554l12.193 12.193c-6.36 2.226-13.165 4.195-20.412 5.893-.022.005-.045.005-.068.011-17.117 4.007-35.347 6.037-54.183 6.037-18.837 0-37.067-2.032-54.182-6.037-.023-.005-.046-.005-.069-.011-7.248-1.699-14.053-3.668-20.412-5.893l12.193-12.193a8.17 8.17 0 0 0 0-11.554 8.17 8.17 0 0 0-11.554 0l-16.972 16.972c-7.61-3.72-14.35-7.917-20.155-12.588q-.012-.01-.024-.017a8 8 0 0 0-.477-.345c-.064-.045-.125-.094-.19-.136a8 8 0 0 0-.519-.301c-.064-.035-.125-.075-.19-.109-.157-.081-.318-.148-.48-.218-.086-.037-.17-.081-.257-.115-.125-.049-.254-.087-.381-.13-.126-.042-.251-.09-.379-.126-.085-.023-.171-.038-.257-.06-.171-.042-.342-.087-.515-.118-.06-.011-.121-.014-.182-.024a8 8 0 0 0-.597-.077c-.074-.005-.148-.003-.221-.008-.186-.01-.374-.022-.56-.019-.134.001-.267.015-.4.024-.126.008-.254.01-.379.023a9 9 0 0 0-.592.093c-.06.011-.12.016-.18.028a9 9 0 0 0-.624.16c-.046.013-.092.022-.136.035a8 8 0 0 0-.539.196c-.069.026-.137.046-.205.074-.137.058-.27.127-.404.193-.106.051-.215.097-.318.154-.095.051-.185.113-.279.168-.138.082-.28.161-.414.253-.068.046-.13.099-.196.147-.155.112-.309.223-.458.346-.062.052-.12.112-.182.167-.144.129-.288.255-.424.394l-.022.02c-27.318 28.102-42.363 64.454-42.363 102.358 0 46.564 22.438 90.005 61.559 119.185a8.15 8.15 0 0 0 4.883 1.621 8.17 8.17 0 0 0 6.362-13.299c-11.952-14.819-20.435-31.073-25.214-48.314-6.349-22.901-6.108-46.811.714-71.067 5.535-19.679 15.515-39.426 29.672-58.779 5.121 2.015 10.517 3.856 16.176 5.521-35.458 46.206-38.154 85.637-32.521 112.895v.004a109 109 0 0 0 1.706 7.06c11.509 41.521 48.356 76.353 98.562 93.174q.02.004.04.01.558.183 1.15.284.11.019.219.034c.388.057.782.096 1.186.096s.797-.039 1.186-.096q.11-.015.219-.034a8 8 0 0 0 1.151-.284q.02-.004.039-.01c50.208-16.821 87.053-51.653 98.563-93.175a109 109 0 0 0 1.704-7.054l.003-.015c5.632-27.257 2.935-66.686-32.522-112.891 5.658-1.665 11.054-3.506 16.175-5.521 14.157 19.351 24.137 39.099 29.672 58.778 6.822 24.257 7.061 48.167.712 71.067-4.779 17.24-13.262 33.496-25.214 48.314a8.171 8.171 0 0 0 11.244 11.679c39.127-29.177 61.563-72.618 61.563-119.181m-296.414-16.299c-7.127 25.34-7.821 50.416-2.076 74.622-9.229-17.974-14.156-37.819-14.156-58.324 0-31.32 11.632-61.492 32.893-85.714 4.195 2.915 8.72 5.637 13.56 8.169-14.267 20.064-24.421 40.627-30.221 61.247m47.672 70.588h76.08v74.224c-37.975-15.514-65.784-42.545-76.08-74.224m92.419 74.223v-74.224h76.081c-10.297 31.68-38.106 58.711-76.081 74.224m79.794-90.564H167.974c-4.232-31.553 7.704-65.345 34.998-98.699 16.879 3.563 34.671 5.368 52.965 5.368s36.086-1.805 52.966-5.368c27.295 33.354 39.23 67.146 34.998 98.699m13.736-115.493c4.839-2.532 9.366-5.254 13.56-8.168 21.26 24.221 32.892 54.393 32.892 85.713 0 20.505-4.927 40.349-14.156 58.324 5.744-24.207 5.051-49.283-2.075-74.622-5.799-20.62-15.953-41.184-30.221-61.247"/></svg>