<svg xmlns="http://www.w3.org/2000/svg" xml:space="preserve" width="800" height="800" viewBox="0 0 512.001 512.001"><path d="M146.281 21.595C113.33 37.463 17.602 157.503 9.464 193.159s26.027 185.343 48.829 213.937c22.803 28.594 161.135 95.211 197.708 95.211s174.905-66.618 197.707-95.211c22.803-28.594 56.968-178.281 48.83-213.937S398.671 37.463 365.72 21.595s-186.487-15.868-219.439 0" style="fill:#fd9a0c"/><path d="M256 37.223c-54.299 0-89.863 5.365-97.774 9.175s-34.281 28.27-68.135 70.723-51.834 73.603-53.789 82.164.729 44.428 12.812 97.365 25.228 86.417 30.703 93.281 35.189 27.13 84.111 50.689S247.22 474.776 256 474.776s43.152-10.598 92.072-34.156 78.636-43.823 84.111-50.689 18.62-40.345 30.703-93.281c12.083-52.938 14.766-88.805 12.812-97.365-1.953-8.559-19.935-39.712-53.789-82.164s-60.223-66.913-68.135-70.723c-7.91-3.81-43.475-9.175-97.774-9.175" style="fill:#ffad38"/><path d="M312.803 182.334c-6.432 8.704-16.754 14.396-28.414 14.396-11.664 0-21.983-5.692-28.389-14.396-6.458 8.704-16.754 14.396-28.414 14.396-11.664 0-21.983-5.692-28.389-14.396v45.848L256 239.194l56.803-11.012z" style="fill:#fd9a0c"/><path d="M264.259 228.183h-65.062v47.619c0 43.3 37.785 32.822 56.803 46.383 19.018-13.56 56.803-3.082 56.803-46.383v-47.619z" style="fill:#fcde65"/><path d="M510.589 191.321c-4.809-21.072-34.509-63.672-60.698-96.513-26.19-32.841-61.114-71.276-80.588-80.653S298.006 1.436 256 1.436s-93.829 3.341-113.303 12.719S88.3 61.966 62.109 94.808c-26.188 32.841-55.888 75.441-60.697 96.513s3.464 72.339 12.812 113.293c9.347 40.952 24.137 90.732 37.612 107.631s58.717 42.394 96.563 60.62 85.987 37.7 107.601 37.7 69.755-19.475 107.601-37.701 83.088-43.721 96.562-60.62c13.476-16.899 28.266-66.679 37.613-107.631s17.623-92.22 12.813-113.292m-63.34 210.626c-21.278 26.683-157.119 92.1-191.249 92.1s-169.97-65.417-191.25-92.1-54.83-173.676-47.236-206.95S119.115 43.845 149.863 29.036c30.75-14.809 181.523-14.809 212.273 0 30.749 14.809 124.754 132.687 132.349 165.961s-25.956 180.266-47.236 206.95m-329.205-81.321 10.989 3.316a152.6 152.6 0 0 1-13.438-24.932l-28.109-22.487a8.26 8.26 0 0 1 10.32-12.898l8.937 7.15a152.6 152.6 0 0 1-3.206-28.125l-17.783-31.233a8.26 8.26 0 0 1 14.355-8.173l5.67 9.959a152.6 152.6 0 0 1 7.425-27.327l-4.848-35.65a8.259 8.259 0 0 1 16.367-2.225l1.537 11.3a153 153 0 0 1 17.075-22.572l8.619-34.891a8.26 8.26 0 0 1 16.036 3.962l-2.751 11.137c4.29-3.185 8.743-6.16 13.361-8.883a8.26 8.26 0 0 1 11.31 2.916 8.26 8.26 0 0 1-2.916 11.31c-41.319 24.379-66.988 69.288-66.988 117.202 0 .206.009.41.009.616q.007.158.007.317c.24 35.131 14.026 68.392 37.911 93.264l.095.097a136.6 136.6 0 0 0 21.361 18.077 8.26 8.26 0 0 1-9.316 13.64 153 153 0 0 1-22.389-18.668l-34.409-10.383a8.26 8.26 0 0 1-5.521-10.293 8.253 8.253 0 0 1 10.29-5.523m223.887 44.864a8.23 8.23 0 0 1-4.651 1.44 8.26 8.26 0 0 1-4.666-15.08 136.5 136.5 0 0 0 21.456-18.174c23.884-24.872 37.671-58.133 37.911-93.263q0-.158.006-.316c.001-.206.01-.41.01-.617 0-47.914-25.669-92.824-66.99-117.203a8.26 8.26 0 0 1 8.394-14.226 153 153 0 0 1 13.363 8.884l-2.751-11.137a8.26 8.26 0 0 1 6.037-9.999 8.26 8.26 0 0 1 9.999 6.037l8.619 34.892a153 153 0 0 1 17.075 22.572l1.537-11.3a8.26 8.26 0 0 1 16.367 2.225l-4.846 35.65c3.317 8.849 5.799 18 7.425 27.327l5.67-9.959a8.26 8.26 0 0 1 14.355 8.173l-17.784 31.234a152.3 152.3 0 0 1-3.206 28.125l8.938-7.151a8.26 8.26 0 0 1 10.32 12.898l-28.11 22.488a152.6 152.6 0 0 1-13.436 24.931l10.989-3.316a8.263 8.263 0 0 1 10.294 5.521 8.26 8.26 0 0 1-5.521 10.293l-34.409 10.383a153.4 153.4 0 0 1-22.395 18.668M155.04 377.229a8.26 8.26 0 0 1 11.222-3.235l16.652 9.199c23.445-8.251 48.013-12.432 73.086-12.432s49.641 4.181 73.086 12.432l16.652-9.199a8.26 8.26 0 0 1 11.222 3.235 8.257 8.257 0 0 1-3.235 11.222l-19.931 11.012a8.25 8.25 0 0 1-6.87.513c-22.676-8.425-46.539-12.697-70.924-12.697s-48.248 4.271-70.924 12.697a8.25 8.25 0 0 1-6.87-.513l-19.931-11.012a8.256 8.256 0 0 1-3.235-11.222m328.71-179.782c2.547 11.158-1.035 49.448-12.812 101.04-11.775 51.592-25.161 87.645-32.296 96.593-5.35 6.707-21.756 17.239-31.059 22.921a8.26 8.26 0 0 1-11.353-2.744 8.26 8.26 0 0 1 2.743-11.353c17.737-10.831 25.256-17.245 26.754-19.123 4.188-5.251 17.025-37.034 29.108-89.97 12.083-52.938 14.305-87.141 12.812-93.69s-18.339-36.399-52.193-78.853c-33.856-42.452-59.21-65.518-65.261-68.431-6.051-2.914-39.893-8.357-94.192-8.357s-88.14 5.442-94.191 8.357-31.407 25.979-65.262 68.431c-33.854 42.453-50.699 72.305-52.193 78.853s.729 40.752 12.812 93.69c12.083 52.936 24.921 84.719 29.109 89.971s32.315 24.838 81.236 48.397c48.923 23.56 81.774 33.338 88.489 33.338s39.567-9.778 88.489-33.338a749 749 0 0 0 26.19-13.236 8.26 8.26 0 0 1 7.748 14.588 765 765 0 0 1-26.772 13.529c-47.679 22.961-84.211 34.974-95.656 34.974s-47.977-12.014-95.656-34.974c-47.679-22.961-79.849-44.03-86.986-52.979-7.136-8.949-20.521-45.003-32.296-96.594-11.776-51.593-15.359-89.882-12.812-101.04s22.388-44.101 55.382-85.476c32.996-41.374 60.698-68.048 71.009-73.014s48.437-9.992 101.357-9.992 91.047 5.027 101.359 9.993 38.014 31.64 71.007 73.014c32.998 41.374 52.839 74.317 55.386 85.475m-347.227 42.035c0 65.88 53.597 119.477 119.477 119.477s119.477-53.597 119.477-119.477c0-63.104-49.177-114.929-111.218-119.186v-17.292h9.934a8.26 8.26 0 0 0 8.259-8.259 8.26 8.26 0 0 0-8.259-8.259h-9.934v-9.934c0-4.561-3.697-8.259-8.259-8.259s-8.259 3.698-8.259 8.259v9.934h-9.934a8.26 8.26 0 0 0-8.259 8.259 8.26 8.26 0 0 0 8.259 8.259h9.934v17.293c-62.04 4.255-111.218 56.082-111.218 119.185M256 342.441c-53.992 0-98.406-41.776-102.628-94.701h37.566v28.06c0 36.266 23.997 42.102 41.519 46.364 7.253 1.764 14.104 3.43 18.747 6.742a8.25 8.25 0 0 0 9.59 0c4.645-3.311 11.494-4.978 18.747-6.742 17.522-4.262 41.519-10.099 41.519-46.364v-28.06h37.566c-4.219 52.926-48.633 94.701-102.626 94.701m-48.543-106h97.088v39.36c0 23.284-11.498 26.081-28.905 30.315-6.661 1.62-13.499 3.283-19.639 6.439-6.14-3.155-12.978-4.819-19.639-6.439-17.406-4.234-28.905-7.031-28.905-30.315zm97.087-16.517h-40.285v-.58a8.26 8.26 0 0 0-8.259-8.259 8.26 8.26 0 0 0-8.259 8.259v.58h-40.285v-19.912c6.15 3.221 13.053 4.978 20.129 4.978 10.624 0 20.586-3.772 28.426-10.575 7.83 6.734 17.915 10.575 28.378 10.575 7.082 0 13.994-1.763 20.155-4.992zm54.085 11.299h-37.566v-48.889a8.259 8.259 0 0 0-14.901-4.908c-5.187 7.02-13.122 11.046-21.771 11.046-8.526 0-16.653-4.125-21.738-11.034a8.26 8.26 0 0 0-6.635-3.363h-.017a8.26 8.26 0 0 0-6.632 3.338c-5.214 7.028-13.154 11.059-21.781 11.059-8.525 0-16.652-4.125-21.737-11.034a8.26 8.26 0 0 0-9.228-2.95 8.26 8.26 0 0 0-5.682 7.846v48.889h-37.569c4.014-50.313 44.349-90.548 94.706-94.399 1.003 3.43 4.167 5.938 7.922 5.938s6.919-2.507 7.922-5.938c50.357 3.851 90.693 44.087 94.707 94.399m-83.909 39.092c0-4.857 3.952-8.809 8.809-8.809s8.809 3.952 8.809 8.809-3.952 8.809-8.809 8.809-8.809-3.951-8.809-8.809m-55.059 0c0-4.857 3.952-8.809 8.809-8.809s8.809 3.952 8.809 8.809-3.952 8.809-8.809 8.809-8.809-3.951-8.809-8.809m27.53 14.315c0-4.857 3.952-8.809 8.809-8.809s8.809 3.952 8.809 8.809-3.952 8.809-8.809 8.809-8.809-3.951-8.809-8.809m0-28.631c0-4.857 3.952-8.809 8.809-8.809s8.809 3.952 8.809 8.809-3.952 8.809-8.809 8.809-8.809-3.95-8.809-8.809"/></svg>