<svg xmlns="http://www.w3.org/2000/svg" xml:space="preserve" width="800" height="800" viewBox="0 0 512 512"><path d="M256 8.17C119.127 8.17 8.17 119.127 8.17 256S119.127 503.83 256 503.83 503.83 392.873 503.83 256 392.873 8.17 256 8.17m0 308.29c-33.391 0-60.46-27.068-60.46-60.46s27.068-60.46 60.46-60.46 60.46 27.068 60.46 60.46-27.069 60.46-60.46 60.46" style="fill:#bcb6b8"/><path d="M256 35.404C134.169 35.404 35.404 134.168 35.404 256S134.169 476.596 256 476.596 476.596 377.832 476.596 256 377.831 35.404 256 35.404m0 270.162c-27.375 0-49.566-22.191-49.566-49.566s22.191-49.566 49.566-49.566 49.566 22.191 49.566 49.566-22.191 49.566-49.566 49.566" style="fill:#ebeaea"/><path d="M256 94.549c-24.588 0-45.468 15.82-53.054 37.832l10.894 21.787h84.32l10.894-21.787c-7.586-22.012-28.466-37.832-53.054-37.832" style="fill:#8c8484"/><path d="m284.449 147.24-28.452-17.183-28.449 17.183-28.45-17.183 10.894 43.546h92.016l10.894-43.546z" style="fill:#a8a2a2"/><path d="M116.179 336.726c12.295 21.294 36.435 31.466 59.29 27.03l13.422-20.328-42.16-73.023-24.315 1.46c-15.27 17.574-18.531 43.567-6.237 64.861" style="fill:#8c8484"/><path d="m147.587 285.743-.656 33.232 29.107 16.045-.657 33.23 32.264-31.207-46.008-79.689-43.158 12.339z" style="fill:#a8a2a2"/><path d="M395.821 336.726c12.295-21.294 9.033-47.286-6.237-64.862l-24.316-1.46-42.159 73.023 13.421 20.329c22.856 4.435 46.996-5.736 59.291-27.03" style="fill:#8c8484"/><path d="m335.965 335.018 29.107-16.049-.658-33.229 29.107-16.047-43.158-12.339-46.008 79.689 32.264 31.207z" style="fill:#a8a2a2"/><path d="M313.926 256c0-31.94-25.986-57.926-57.926-57.926S198.074 224.06 198.074 256 224.06 313.926 256 313.926 313.926 287.94 313.926 256M256 297.585c-22.93 0-41.585-18.655-41.585-41.585S233.07 214.415 256 214.415 297.585 233.07 297.585 256 278.93 297.585 256 297.585M437.019 74.981C388.668 26.628 324.38 0 256 0S123.332 26.628 74.981 74.981C26.628 123.332 0 187.62 0 256s26.628 132.668 74.981 181.019C123.332 485.372 187.62 512 256 512s132.668-26.628 181.019-74.981C485.372 388.668 512 324.38 512 256s-26.628-132.668-74.981-181.019M256 495.66C123.851 495.66 16.34 388.15 16.34 256S123.851 16.34 256 16.34 495.66 123.851 495.66 256 388.149 495.66 256 495.66M89.645 160.362l.642-.037-.29-.574a8.17 8.17 0 0 1 3.624-10.971c4.03-2.031 8.941-.407 10.972 3.623l5.887 11.693a8.17 8.17 0 0 1-6.83 11.832l-13.07.748a8.171 8.171 0 0 1-.935-16.314m173.538 291.212h-14.367a8.17 8.17 0 0 1 0-16.34h14.367a8.17 8.17 0 0 1 0 16.34m158.82-291.823-.29.574.642.037a8.17 8.17 0 1 1-.935 16.314l-13.07-.748a8.17 8.17 0 0 1-6.83-11.832l5.887-11.693a8.17 8.17 0 0 1 10.972-3.623 8.17 8.17 0 0 1 3.624 10.971m-291.164-43.515a8.17 8.17 0 0 0-11.161 2.99c-6.546 11.337-7.142 25.056-1.68 38.631 5.183 12.882 15.313 24.176 28.521 31.802 10.642 6.144 22.344 9.366 33.681 9.366a57.5 57.5 0 0 0 8.121-.568c12.666-1.797 23.111-7.663 29.912-16.685h75.537c6.801 9.019 17.245 14.882 29.907 16.679a58 58 0 0 0 8.121.568c11.336 0 23.04-3.222 33.68-9.366 13.209-7.626 23.337-18.92 28.521-31.802 5.463-13.575 4.866-27.294-1.68-38.631a8.17 8.17 0 1 0-14.15 8.171c3.981 6.895 4.219 15.546.671 24.36-3.826 9.509-11.473 17.943-21.532 23.751s-21.187 8.215-31.334 6.771c-6.417-.911-11.885-3.312-15.978-6.933l10.833-43.302a8.17 8.17 0 0 0-3.071-8.555 8.15 8.15 0 0 0-4.265-1.565c-9.562-19.134-28.096-32.298-49.324-35.013v-6.519a8.17 8.17 0 0 0-16.34 0v6.52c-21.227 2.717-39.757 15.881-49.319 35.014a8.15 8.15 0 0 0-4.265 1.564 8.17 8.17 0 0 0-3.071 8.555l10.833 43.304c-4.093 3.622-9.562 6.024-15.981 6.936-10.146 1.44-21.276-.964-31.334-6.771s-17.705-14.242-21.532-23.75c-3.547-8.815-3.308-17.467.672-24.36a8.176 8.176 0 0 0-2.993-11.162m125.158 23.365 24.229 14.632a8.16 8.16 0 0 0 8.448 0l11.495-6.943-4.538 18.141h-79.26l-4.538-18.14 11.492 6.941a8.16 8.16 0 0 0 8.448 0zm42.786-10.563-14.334 8.657-20.282-12.25v-22.019a47.98 47.98 0 0 1 34.616 25.612m-50.956-25.611v22.018l-20.278 12.25-14.331-8.656a47.98 47.98 0 0 1 34.609-25.612m-42.116 322.678a8.17 8.17 0 0 0 0 16.34c26.234 0 47.576-26.226 47.576-58.462 0-30.205-18.739-55.132-42.681-58.152l-37.779-65.435c9.349-22.244-2.869-50.931-29.025-66.033-27.919-16.119-61.301-10.748-74.418 11.971a8.171 8.171 0 0 0 14.151 8.171c8.611-14.914 31.983-17.603 52.097-5.99 17.116 9.883 26.434 26.982 23.528 41.051l-42.928 12.273a8.17 8.17 0 0 0-5.873 6.936 8.14 8.14 0 0 0 .778 4.476c-11.79 17.848-13.924 40.481-5.66 60.223l-5.646 3.259a8.17 8.17 0 0 0 4.093 15.246 8.1 8.1 0 0 0 4.077-1.096l5.644-3.258c12.185 15.998 31.166 25.33 51.128 25.329 1.28 0 2.565-.052 3.853-.131a8.14 8.14 0 0 0 3.49 2.914 8.175 8.175 0 0 0 8.945-1.616l32.095-31.042c13.64 4.515 23.792 21.136 23.792 40.902-.001 23.228-14.013 42.124-31.237 42.124M124.657 282.43l14.664 8.085-.467 23.689-19.069 11.01a47.97 47.97 0 0 1 4.872-42.784m3.298 56.934 19.069-11.009 20.747 11.437-.331 16.739a47.97 47.97 0 0 1-39.485-17.167m55.986 9.24.266-13.422a8.17 8.17 0 0 0-4.225-7.316l-24.784-13.663.558-28.298a8.17 8.17 0 0 0-4.223-7.316l-11.76-6.484 17.98-5.14 39.63 68.641zm155.231-88.207-37.779 65.435c-23.939 3.025-42.674 27.95-42.674 58.151 0 32.235 21.343 58.462 47.576 58.462a8.17 8.17 0 0 0 0-16.34c-17.224 0-31.235-18.896-31.235-42.121 0-19.763 10.148-36.383 23.786-40.9l32.093 31.04a8.175 8.175 0 0 0 8.944 1.617 8.14 8.14 0 0 0 3.49-2.914 65 65 0 0 0 3.853.13c19.963 0 38.949-9.335 51.132-25.336l5.643 3.258a8.168 8.168 0 0 0 11.161-2.99 8.17 8.17 0 0 0-2.99-11.161l-5.646-3.26c8.261-19.741 6.125-42.37-5.664-60.217a8.16 8.16 0 0 0 .778-4.476 8.17 8.17 0 0 0-5.873-6.937l-42.931-12.274c-2.91-14.071 6.409-31.173 23.527-41.056 10.059-5.807 21.189-8.212 31.334-6.771 9.408 1.336 16.782 5.867 20.762 12.762a8.17 8.17 0 0 0 11.161 2.99 8.17 8.17 0 0 0 2.99-11.161c-6.545-11.337-18.128-18.713-32.616-20.77-13.749-1.951-28.594 1.173-41.802 8.799-26.156 15.102-38.375 43.795-29.02 66.04m5.389 96.136-.33-16.743 20.749-11.44 19.07 11.01a47.97 47.97 0 0 1-39.489 17.173m42.781-74.104a47.98 47.98 0 0 1 4.876 42.778l-19.068-11.009-.468-23.686zm-26.872-3.844a8.17 8.17 0 0 0-4.223 7.316l.56 28.295-24.786 13.666a8.17 8.17 0 0 0-4.223 7.316l.265 13.426-13.442-13 39.63-68.641 17.978 5.14zM484.766 256c0 58.151-21.842 113.575-61.501 156.061-39.46 42.272-92.847 67.871-150.329 72.08a8.171 8.171 0 0 1-1.195-16.296C382.033 459.768 468.426 366.715 468.426 256c0-117.131-95.294-212.426-212.426-212.426S43.574 138.869 43.574 256c0 110.715 86.393 203.768 196.682 211.844a8.17 8.17 0 0 1 7.551 8.745c-.33 4.5-4.252 7.88-8.745 7.551-57.481-4.209-110.869-29.808-150.329-72.08-39.658-42.486-61.5-97.91-61.5-156.061C27.234 129.858 129.858 27.234 256 27.234S484.766 129.858 484.766 256"/></svg>