<svg xmlns="http://www.w3.org/2000/svg" xml:space="preserve" width="800" height="800" viewBox="0 0 512 512"><circle cx="256" cy="256" r="247.83" style="fill:#a8a2a2"/><circle cx="256" cy="256" r="220.596" style="fill:#ebeaea"/><path d="m236.059 146.301 4.236 30.627h31.384l4.263-30.627z" style="fill:#a8a2a2"/><path d="M256 176.928c-46.032 0-86.872 20.335-112.37 51.72l-10.894 70.454h246.526l-10.894-70.454c-25.496-31.385-66.336-51.72-112.368-51.72" style="fill:#8c8484"/><path d="M357.597 249.711c0 11.121 6.988 20.607 16.81 24.318-8.463 9.488-20.649 15.062-33.366 15.062-12.9 0-24.831-5.449-33.338-15.058 9.827-3.709 16.818-13.197 16.818-24.321 0-14.355-11.637-25.991-25.991-25.991s-25.991 11.637-25.991 25.991c0 11.121 6.988 20.607 16.81 24.318-8.462 9.488-20.649 15.062-33.366 15.062-12.73 0-24.905-5.572-33.339-15.058 9.827-3.708 16.818-13.195 16.818-24.321 0-14.355-11.637-25.991-25.991-25.991s-25.991 11.637-25.991 25.991c0 11.121 6.988 20.607 16.81 24.318-8.536 9.611-20.478 15.062-33.367 15.062-12.729 0-24.905-5.572-33.337-15.058 9.827-3.708 16.818-13.195 16.818-24.321 0-14.355-11.637-25.991-25.991-25.991v112.106h255.176V223.723c-14.355-.003-25.992 11.634-25.992 25.988" style="fill:#bcb6b8"/><path d="M423.761 221.17C407.432 142.093 336.879 84.698 256 84.698c-81.026 0-151.604 57.52-167.822 136.77a8.174 8.174 0 0 1-9.642 6.367 8.17 8.17 0 0 1-6.366-9.643c8.538-41.727 31.434-79.721 64.47-106.984C170.122 83.576 212.513 68.357 256 68.357c43.43 0 85.776 15.182 119.238 42.75 33.01 27.195 55.926 65.109 64.525 106.759a8.17 8.17 0 0 1-16.002 3.304M512 256c0 68.38-26.628 132.668-74.981 181.019C388.668 485.372 324.38 512 256 512s-132.668-26.628-181.019-74.981C26.628 388.668 0 324.38 0 256S26.628 123.332 74.981 74.981C123.332 26.628 187.62 0 256 0s132.668 26.628 181.019 74.981C485.372 123.332 512 187.62 512 256m-16.34 0c0-132.149-107.51-239.66-239.66-239.66S16.34 123.851 16.34 256 123.851 495.66 256 495.66 495.66 388.149 495.66 256m-378.142 87.996a8.17 8.17 0 0 1 0-16.34h2.723V223.721a8.17 8.17 0 0 1 8.17-8.17c4.737 0 9.25.971 13.353 2.72 22.795-25.459 54.045-42.071 88.788-47.532l-2.614-23.535a8.17 8.17 0 0 1 8.12-9.072h11.771v-20.481a8.17 8.17 0 0 1 16.34 0v20.48h11.772a8.17 8.17 0 0 1 8.119 9.077l-2.631 23.526c34.748 5.459 66.005 22.072 88.804 47.534a34 34 0 0 1 13.354-2.72 8.17 8.17 0 0 1 8.17 8.17v103.935h2.723a8.17 8.17 0 0 1 0 16.34H117.518zm248.249-94.285c0 6.884 3.924 12.869 9.651 15.836v-31.671c-5.728 2.968-9.651 8.951-9.651 15.835m-118.963-80.695a166 166 0 0 1 9.197-.259c3.079 0 6.139.09 9.18.258l1.626-14.543h-21.619zm-91.929 59.12c4.808 5.887 7.699 13.399 7.699 21.575 0 13.188-7.517 24.647-18.486 30.338 7.668 5.781 17.092 9.042 26.835 9.042 9.888 0 19.222-3.204 26.889-9.033-10.977-5.689-18.502-17.152-18.502-30.345 0-18.837 15.324-34.161 34.161-34.161s34.161 15.324 34.161 34.161c0 13.188-7.517 24.647-18.486 30.338 7.668 5.781 17.092 9.042 26.836 9.042 9.738 0 19.171-3.264 26.856-9.05-10.961-5.694-18.47-17.148-18.47-30.329 0-18.837 15.325-34.161 34.161-34.161s34.161 15.324 34.161 34.161c0 13.201-7.532 24.669-18.519 30.354 7.648 5.824 16.976 9.025 26.868 9.025 9.739 0 19.171-3.264 26.856-9.05-10.961-5.694-18.47-17.148-18.47-30.329 0-8.176 2.89-15.688 7.699-21.575-24.92-27.073-62.154-43.038-101.125-43.038-38.97-.003-76.204 15.962-101.124 43.035m161.476 21.575c0-9.827-7.995-17.821-17.821-17.821s-17.821 7.994-17.821 17.821 7.995 17.821 17.821 17.821 17.821-7.994 17.821-17.821m-85.06 0c0-9.827-7.995-17.821-17.821-17.821s-17.821 7.994-17.821 17.821 7.994 17.821 17.821 17.821 17.821-7.994 17.821-17.821m-94.709 15.836c5.728-2.967 9.651-8.952 9.651-15.836s-3.924-12.869-9.651-15.835zm0 62.109h238.836v-32.91c-10.044 6.858-22.028 10.684-34.378 10.684-16.156 0-31.203-6.219-42.533-17.334-11.327 10.987-26.625 17.334-42.525 17.334-15.914 0-31.205-6.346-42.508-17.334-11.355 11.116-26.409 17.334-42.553 17.334-12.346 0-24.316-3.819-34.34-10.663v32.888h.001zm111.248 73.532v34.284a8.17 8.17 0 0 0 16.34 0v-34.284a8.17 8.17 0 0 0-16.34 0m100.354-32.681a8.17 8.17 0 0 0-8.17-8.17H171.986a8.17 8.17 0 0 0 0 16.34h168.028a8.17 8.17 0 0 0 8.17-8.17M256 27.234C129.858 27.234 27.234 129.858 27.234 256S129.858 484.766 256 484.766c69.447 0 134.339-31.027 178.038-85.125a8.17 8.17 0 0 0-1.222-11.49 8.17 8.17 0 0 0-11.49 1.222c-40.581 50.238-100.84 79.052-165.326 79.052-117.131 0-212.426-95.294-212.426-212.426S138.869 43.574 256 43.574 468.426 138.869 468.426 256c0 37.853-10.092 75.025-29.184 107.497a8.17 8.17 0 0 0 2.902 11.184 8.17 8.17 0 0 0 11.184-2.902c20.567-34.981 31.438-75.017 31.438-115.78 0-126.141-102.624-228.765-228.766-228.765"/></svg>