<svg xmlns="http://www.w3.org/2000/svg" xml:space="preserve" width="800" height="800" viewBox="0 0 512.001 512.001"><path d="M146.281 490.406C113.33 474.538 17.602 354.498 9.464 318.842S35.49 133.499 58.293 104.905 219.428 9.695 256 9.695s174.904 66.618 197.707 95.211 56.968 178.281 48.83 213.937S398.671 474.539 365.72 490.407s-186.487 15.868-219.439-.001" style="fill:#d2cfce"/><path d="M462.886 215.351c-12.083-52.937-25.228-86.417-30.703-93.281s-35.189-27.13-84.111-50.689S264.78 37.224 256 37.224s-43.152 10.598-92.072 34.156-78.636 43.823-84.111 50.689-18.62 40.345-30.703 93.281c-12.083 52.938-14.766 88.805-12.812 97.365 1.953 8.559 19.935 39.712 53.789 82.164s60.223 66.913 68.135 70.723c7.911 3.809 43.475 9.175 97.774 9.175s89.863-5.365 97.774-9.175 34.281-28.27 68.135-70.723 51.834-73.603 53.789-82.164c1.955-8.56-.729-44.427-12.812-97.364" style="fill:#ebeaea"/><path d="m252.71 217.992 82.073 34.919v-49.224z" style="fill:#bcb6b8"/><path d="M368.186 254.278v-18.143L252.71 217.992l-9.293-76.405a80.05 80.05 0 0 0-42.662-12.254c-15.676 0-30.294 4.499-42.663 12.254l-13.781 113.308c-3.141 25.82 8.863 48.38 29.014 59.812l-12.1 51.771s17.868 5.177 40.338 5.177c22.469 0 40.338-5.177 40.338-5.177l-10.239-43.809h123.31c7.297 0 13.214-6.036 13.214-13.334 0-7.187-5.743-13.139-12.888-13.318v-28.425c7.147-.176 12.888-6.126 12.888-13.314" style="fill:#a8a2a2"/><path d="M201.562 293.433c-15.72 0-28.512-12.79-28.512-28.512 0-15.72 12.79-28.51 28.512-28.51s28.512 12.79 28.512 28.51-12.791 28.512-28.512 28.512m0-40.505c-6.614 0-11.994 5.38-11.994 11.993s5.38 11.994 11.994 11.994 11.994-5.38 11.994-11.994c0-6.612-5.38-11.993-11.994-11.993" style="fill:#8c8484"/><path d="M355.298 267.595c-21.207 0-42.416 14.212-42.416 14.212s21.209 14.212 42.416 14.212a24.84 24.84 0 0 0 4.447-14.212 24.84 24.84 0 0 0-4.447-14.212" style="fill:#fff"/><path d="M285.385 165.475v-46.289a8.25 8.25 0 0 1-7.698-3.638 8.26 8.26 0 0 1 2.29-11.452l9.086-6.056a8.26 8.26 0 0 1 12.84 6.871v60.564c0 4.561-3.697 8.259-8.259 8.259s-8.259-3.698-8.259-8.259M510.589 320.68c-4.809 21.072-34.509 63.672-60.698 96.513-26.19 32.841-61.114 71.276-80.588 80.653S298.007 510.565 256 510.565s-93.829-3.341-113.303-12.719-54.397-47.812-80.588-80.653C35.921 384.352 6.221 341.752 1.412 320.68s3.464-72.339 12.812-113.292 24.137-90.733 37.613-107.632c13.474-16.899 58.716-42.394 96.562-60.62S234.386 1.436 256 1.436s69.755 19.475 107.601 37.701 83.088 43.721 96.563 60.62 28.265 66.679 37.612 107.632c9.348 40.951 17.623 92.219 12.813 113.291M447.25 110.054C425.971 83.372 290.13 17.953 256 17.953S86.03 83.372 64.752 110.054c-21.28 26.684-54.831 173.676-47.237 206.95s101.601 151.152 132.349 165.961c30.751 14.807 181.522 14.807 212.273 0 30.749-14.809 124.754-132.687 132.349-165.961s-25.957-180.266-47.236-206.95m-95.593-46.115c-47.679-22.961-84.211-34.974-95.656-34.974s-47.977 12.014-95.656 34.974c-47.681 22.962-79.849 44.033-86.986 52.981-7.136 8.948-20.521 45.002-32.296 96.593a764 764 0 0 0-6.175 29.693 8.26 8.26 0 0 0 16.238 3.031 747 747 0 0 1 6.04-29.049c12.083-52.937 24.921-84.719 29.109-89.97 4.187-5.251 32.315-24.838 81.236-48.398C216.434 55.26 249.285 45.482 256 45.482s39.567 9.778 88.489 33.338 77.049 43.146 81.236 48.397c4.189 5.253 17.026 37.035 29.109 89.971 12.083 52.938 14.305 87.141 12.812 93.69s-18.339 36.399-52.193 78.853c-33.856 42.452-59.211 65.518-65.262 68.431s-39.892 8.357-94.191 8.357-88.141-5.443-94.192-8.357-31.405-25.978-65.261-68.431c-33.854-42.453-50.699-72.305-52.193-78.853-.529-2.32-.858-12.104 1.689-32.519a8.26 8.26 0 0 0-7.173-9.218c-4.514-.557-8.653 2.645-9.218 7.173-1.338 10.717-3.298 29.935-1.401 38.24 2.547 11.158 22.388 44.101 55.383 85.476 32.994 41.374 60.696 68.048 71.007 73.014s48.438 9.993 101.358 9.993 91.047-5.027 101.357-9.992 38.014-31.64 71.009-73.014 52.835-74.318 55.382-85.476-1.035-49.448-12.812-101.04c-11.775-51.591-25.161-87.643-32.297-96.594-7.133-8.949-39.303-30.021-86.981-52.982m-95.706 112.302 3.907 32.122 73.509-12.812a8.261 8.261 0 0 1 9.678 8.137v20.138l26.425 4.151q.398.064.785.164c.091.023.181.055.271.081q.243.068.479.152c.107.039.208.084.313.126.135.056.271.111.402.173q.162.079.317.162a8 8 0 0 1 .665.391 9 9 0 0 1 .618.443q.165.133.324.274.125.108.246.22.165.161.322.33.102.104.199.214c.119.137.229.277.339.421.043.056.09.111.131.168q.447.618.775 1.311c.034.07.062.144.094.216.069.16.138.318.198.482q.052.153.1.308.067.206.126.414.045.18.081.362a7 7 0 0 1 .131.778 9 9 0 0 1 .054.781c.002.063.009.123.009.185v18.143c0 7.499-3.922 14.193-9.81 18.07a33.2 33.2 0 0 1 1.368 9.459 33.2 33.2 0 0 1-1.368 9.459c5.889 3.877 9.81 10.571 9.81 18.07 0 11.907-9.633 21.593-21.473 21.593H242.072l6.379 27.291h98.589v-3.49c0-4.561 3.697-8.259 8.259-8.259s8.259 3.698 8.259 8.259v11.748a8.26 8.26 0 0 1-8.259 8.259H243.006c-4.513 1.191-21.129 5.177-41.444 5.177-23.373 0-41.861-5.278-42.636-5.503a8.26 8.26 0 0 1-5.744-9.813l10.762-46.047c-20.442-14.23-31.019-38.447-27.832-64.652l13.781-113.308a8.26 8.26 0 0 1 3.812-6c14.103-8.841 30.373-13.515 47.05-13.515s32.946 4.673 47.049 13.515a8.26 8.26 0 0 1 3.812 6l3.882 31.919c.214.586.372 1.2.449 1.847.077.642.071 1.271.004 1.886m103.976 133.096c0-2.724-2.169-4.995-4.835-5.061l-.019-.001c-23.37-.095-45.842-14.97-46.789-15.606a8.26 8.26 0 0 1 0-13.72c.947-.635 23.42-15.51 46.789-15.606l.019-.001c2.666-.067 4.835-2.338 4.835-5.061V243.2l-108.508-17.047c-.105-.017-.204-.044-.306-.064q-.203-.037-.405-.085a9 9 0 0 1-.482-.141c-.097-.03-.195-.057-.291-.091a9 9 0 0 1-.569-.23q-.087-.036-.175-.076a8 8 0 0 1-.635-.335q-.04-.025-.084-.046a8.27 8.27 0 0 1-3.969-6.151l-4.06-33.383c-11.377 4.202-20.161 13.83-23.073 25.288h6.472c4.562 0 8.259 3.698 8.259 8.259s-3.697 8.259-8.259 8.259h-15.768a8.26 8.26 0 0 1-8.259-8.259c0-23.146 16.393-43.778 38.599-50.232l-2.704-22.236c-10.67-5.92-22.676-9.033-34.955-9.033s-24.285 3.113-34.956 9.033L152.51 255.898c-2.633 21.644 6.905 41.428 24.891 51.632a8.26 8.26 0 0 1 3.966 9.063l-10.219 43.724c6.941 1.386 17.977 3.084 30.415 3.084s23.474-1.698 30.415-3.084l-8.359-35.763a8.257 8.257 0 0 1 8.041-10.138h123.311c2.688-.005 4.956-2.328 4.956-5.079m-9.445-21.853a16.6 16.6 0 0 0 1.003-5.678c0-1.957-.347-3.867-1.001-5.671-6.99.79-14.063 3.131-19.981 5.673 5.735 2.49 12.793 4.885 19.979 5.676m-23.956-73.973-23.294 4.06 23.294 3.66zm-96.452 51.411c0 15.721-12.79 28.512-28.512 28.512s-28.512-12.79-28.512-28.512c0-15.72 12.79-28.51 28.512-28.51s28.512 12.789 28.512 28.51m-16.518 0c0-6.613-5.38-11.993-11.994-11.993s-11.994 5.38-11.994 11.993 5.38 11.994 11.994 11.994 11.994-5.381 11.994-11.994m126.518 133.456c-25.194 15.636-54.266 23.9-84.075 23.9-29.805 0-58.877-8.263-84.07-23.898a8.26 8.26 0 0 0-11.373 2.663 8.257 8.257 0 0 0 2.663 11.372c27.811 17.259 59.894 26.381 92.78 26.381 32.889 0 64.974-9.123 92.785-26.383a8.26 8.26 0 0 0 2.662-11.373c-2.404-3.877-7.497-5.065-11.372-2.662"/></svg>