<svg xmlns="http://www.w3.org/2000/svg" xml:space="preserve" width="800" height="800" viewBox="0 0 512 512"><circle cx="256" cy="256" r="247.83" style="fill:#bcb6b8"/><path d="M256 35.404c-121.637 0-220.596 98.96-220.596 220.596S134.363 476.596 256 476.596 476.596 377.636 476.596 256 377.637 35.404 256 35.404" style="fill:#ebeaea"/><path d="M311.111 251.64a7 7 0 0 0-.419-.447l-72.24-77.021a6.78 6.78 0 0 0-4.94-2.14l-26.495-.09-1.203 13.631c-.212 1.358-.4 2.72-.535 4.088-3.936 39.787 25.242 75.357 65.041 79.291a72.5 72.5 0 0 0 33.977-4.782z" style="fill:#8c8484"/><path d="M344.938 373.855c-1.559-1.361-3.399-2.499-5.47-3.381-5.505-2.349-17.307-1.962-28.376-.873 9.828-3.674 19.71-8.159 23.408-12.397 7.944-9.103 5.916-21.235-5.166-30.907-11.082-9.671-23.377-10.038-31.321-.934-3.696 4.235-6.801 14.626-9.111 24.857-.42-11.11-1.634-22.847-4.704-27.981-1.156-1.931-2.533-3.6-4.091-4.962-6.914-6.034-17.205-5.948-27.531.229-4.947 2.961-8.789 6.705-11.113 10.829-3.502 6.218-3.386 13.061.329 19.273.979 1.635 2.573 3.406 4.873 5.413 5.756 5.023 14.928 10.593 22.982 15.063-11.822-3.649-26.53-7.372-33.327-5.816-11.779 2.696-17.27 13.702-13.988 28.04 1.485 6.488 4.38 11.76 8.372 15.242 4.562 3.982 10.24 5.339 16.418 3.926 6.02-1.378 15.831-9.183 24.287-16.803-6.405 9.412-12.811 20.187-13.362 26.339-.564 6.313 1.549 11.754 6.111 15.735 3.993 3.485 9.606 5.641 16.235 6.232 6.736.604 12.713-.564 17.286-3.375 5.072-3.117 8.046-8.055 8.604-14.278.621-6.947-5.06-21.019-10.275-32.239 5.52 7.376 12.283 15.715 18.041 20.739 2.3 2.008 4.269 3.345 6.023 4.095 11.34 4.839 22.475-.953 28.366-14.759 4.721-11.066 3.413-21.274-3.5-27.307M195.881 239.137c-3.674-11.31-11.283-18.062-20.351-18.062-2.045 0-4.155.349-6.27 1.036-5.457 1.773-13.653 9.315-21.016 17.07 4.914-9.162 9.266-18.844 9.266-24.41 0-12.226-9.618-20.127-24.503-20.127s-24.503 7.901-24.503 20.127c0 5.563 4.349 15.24 9.26 24.397-7.361-7.75-15.551-15.284-21.004-17.056-2.116-.687-4.226-1.036-6.27-1.036-9.069 0-16.678 6.752-20.353 18.062-1.76 5.42-2.187 10.704-1.238 15.285 1.433 6.907 5.968 11.927 12.77 14.139 1.793.582 4.13.864 7.146.864 7.972 0 19.177-2.021 28.38-4.038-11.775 5.137-26.793 12.547-31.172 18.575-7.187 9.894-4.049 21.939 7.993 30.687 5.448 3.958 11.163 6.05 16.525 6.05 6.128 0 11.36-2.742 15.13-7.931 3.673-5.056 5.96-17.534 7.338-28.972 1.378 11.437 3.664 23.916 7.337 28.972 3.769 5.19 9.001 7.931 15.13 7.931 5.362 0 11.076-2.093 16.523-6.05 5.536-4.023 9.317-8.89 10.934-14.077 1.793-5.75.776-11.494-2.941-16.611-4.379-6.027-19.403-13.441-31.178-18.577 9.205 2.019 20.416 4.04 28.392 4.04 3.016 0 5.354-.282 7.146-.864 11.586-3.768 16.113-15.316 11.529-29.424" style="fill:#d2cfce"/><path d="M233.641 331.81c-1.863-.624-3.893-.952-6.032-.972-5.402-.05-14.89 4.143-23.811 8.842 7.397-6.972 14.405-14.579 16.135-19.738 3.823-11.406-2.679-21.783-16.564-26.437s-25.327-.292-29.149 11.113c-1.729 5.157-.722 15.443.976 25.459-4.284-9.122-9.326-18.177-13.664-21.391-1.718-1.273-3.535-2.235-5.399-2.86-8.266-2.771-17.263 1.059-24.067 10.243-3.259 4.4-5.265 9.087-5.798 13.553-.804 6.732 1.794 12.692 7.319 16.786 1.455 1.077 3.499 2.05 6.249 2.972 7.461 2.501 18.681 4.103 27.823 5.068-12.727 1.074-29.889 3.293-36.043 7.679-9.798 6.981-10.638 19.197-2.139 31.123 3.844 5.396 8.521 9.134 13.522 10.811 5.717 1.916 11.455.993 16.593-2.667 5.008-3.567 11.042-14.493 15.904-24.731-2.291 11.1-4.06 23.455-2.215 29.319 1.894 6.019 5.917 10.213 11.633 12.129 5.001 1.677 10.985 1.512 17.306-.477 6.423-2.02 11.471-5.379 14.6-9.711 3.471-4.803 4.318-10.48 2.451-16.413-2.269-7.209-14.63-19.327-24.138-27.855 7.877 4.74 17.802 10.229 25.267 12.731 2.748.922 4.966 1.379 6.777 1.395 11.713.108 19.367-9.036 19.498-23.294.104-11.43-4.768-19.906-13.034-22.677" style="fill:#8c8484"/><path d="M437.019 74.981C388.668 26.628 324.38 0 256 0S123.332 26.628 74.981 74.981C26.628 123.333 0 187.62 0 256s26.628 132.667 74.981 181.019C123.332 485.372 187.62 512 256 512s132.668-26.628 181.019-74.981C485.372 388.667 512 324.38 512 256s-26.628-132.667-74.981-181.019M256 495.66C123.851 495.66 16.34 388.15 16.34 256S123.851 16.34 256 16.34 495.66 123.851 495.66 256 388.149 495.66 256 495.66m133.326-383.325a8.17 8.17 0 0 1-11.12 11.974C344.839 93.321 301.437 76.255 256 76.255s-88.839 17.066-122.207 48.054a8.17 8.17 0 0 1-11.119-11.975c36.4-33.802 83.75-52.419 133.326-52.419s96.926 18.617 133.326 52.42m-61.544 313.328c4.253 0 8.422-1.12 12.254-3.348 5.89-3.424 10.713-9.233 13.947-16.798 3.234-7.568 4.1-15.068 2.506-21.691-1.872-7.768-7.098-13.84-14.718-17.098-1.291-.551-2.82-.98-4.519-1.314 1.385-1.037 2.577-2.086 3.501-3.144 10.419-11.925 8.079-28.099-5.825-40.244-6.196-5.415-13.063-8.556-19.856-9.086-7.958-.62-15.356 2.474-20.808 8.715-.924 1.057-1.804 2.38-2.646 3.892-.558-1.638-1.189-3.098-1.907-4.302-4.251-7.114-10.969-11.479-18.919-12.29-2.72-.28-5.529-.127-8.371.405l28.243-32.294a87.1 87.1 0 0 0 25.382-5.921l20.597 21.966a8.15 8.15 0 0 0 5.962 2.582 8.17 8.17 0 0 0 5.957-13.758l-24.296-25.912a8 8 0 0 0-.505-.539l-87.157-92.954a8.17 8.17 0 0 0-5.96-2.582h-23.303l-13.295.001a8.17 8.17 0 0 0 0 16.34h3.178a88 88 0 0 0-.646 4.934c-3.643 36.836 16.24 70.655 47.369 86.562l-24.293 27.778c-3.49-3.392-7.959-6.177-13.246-8.16-6.788-2.547-13.439-3.255-19.403-2.096a26.8 26.8 0 0 0-3.532-6.61c-.825-1.136-1.917-2.288-3.203-3.443 1.721-.18 3.28-.472 4.615-.905h.001c15.06-4.893 21.346-19.979 15.641-37.537-5.706-17.558-19.656-26.067-34.718-21.174-1.336.434-2.769 1.118-4.267 1.984.362-1.693.569-3.269.569-4.672 0-15.835-12.405-26.475-30.866-26.475s-30.866 10.64-30.866 26.475c0 1.403.207 2.979.569 4.672-1.498-.867-2.933-1.55-4.267-1.984-15.063-4.896-29.012 3.616-34.718 21.174-2.11 6.493-2.601 12.926-1.424 18.607 1.919 9.255 7.98 15.978 17.065 18.93 1.336.434 2.893.726 4.615.905-1.285 1.157-2.378 2.307-3.203 3.443-9.308 12.81-5.526 28.709 9.41 39.56 6.744 4.9 13.764 7.319 20.293 7.318 2.706 0 5.324-.426 7.807-1.252-2.597 10.069.358 19.782 8.786 26.501 1.098.876 2.46 1.696 4.009 2.47-1.612.631-3.041 1.325-4.214 2.098v.001c-13.216 8.725-15.262 24.939-5.092 40.345 3.76 5.696 8.485 10.094 13.661 12.714 3.755 1.901 7.63 2.848 11.478 2.848 4.791 0 9.54-1.468 13.961-4.386 1.172-.773 2.373-1.814 3.586-3.048.102 1.728.321 3.301.695 4.654 3.313 12.003 13.162 18.867 25.871 18.867 3.455 0 7.122-.508 10.926-1.558 11.394-3.145 19.225-9.836 22.286-18.247 1.272 1.683 2.67 3.215 4.217 4.534 4.54 3.873 10.038 5.878 15.896 5.878a27.3 27.3 0 0 0 6.06-.698c1.368-.313 2.858-.865 4.428-1.594-.512 1.654-.86 3.204-.985 4.603-.743 8.253 2.128 15.733 8.081 21.062 5.076 4.544 12.092 7.335 20.286 8.072q2.01.18 3.965.181c5.305 0 10.255-.996 14.493-2.934 8.596-3.93 13.801-11.335 14.658-20.849.126-1.398.061-2.985-.147-4.703 1.414.997 2.781 1.807 4.072 2.358 3.397 1.451 6.865 2.172 10.279 2.171m12.82-38.011c.754 3.133.17 7.195-1.645 11.443-1.815 4.245-4.348 7.475-7.133 9.095-2.47 1.436-4.977 1.525-7.895.278-4.136-1.768-13.876-13.212-22.827-25.553 15.102-2.059 30.107-2.928 34.244-1.159 2.917 1.244 4.587 3.118 5.256 5.896m-34.033-55.246c1.899-2.174 3.973-3.205 6.48-3.205q.37.001.753.029c3.213.251 6.897 2.062 10.374 5.102 3.289 2.874 10.289 10.3 4.27 17.188-2.96 3.388-16.856 9.116-31.359 13.814 2.707-14.999 6.518-29.535 9.482-32.928m-88.196 36.92c-6.522-3.098-14.868-8.176-22.222-13.04 13.413-7.233 27.159-13.262 31.642-13.113 2.497.113 4.392.871 5.873 2.338a26.7 26.7 0 0 0 3.05 7.393c.72 1.205 1.706 2.451 2.884 3.719-1.731.024-3.313.173-4.681.486l.001-.001c-7.326 1.675-13.121 5.982-16.547 12.218m-81.737-48.953c1.188-1.489 3.214-3.718 5.71-5.289q.504-.25.956-.556c1.465-.778 3.062-1.296 4.733-1.296 1.803 0 3.691.599 5.581 2.105 3.518 2.805 9.862 16.429 15.205 30.706-15.107-2.033-29.801-5.188-33.318-7.993-7.151-5.703-1.59-14.262 1.133-17.677m27.169-17.813c-6.067-4.838-13.016-6.562-19.879-5.373-1.638-7.025-2.867-16.69-3.648-25.451 14.019 5.977 27.335 12.923 29.979 16.562 1.47 2.022 2.058 3.977 1.833 6.05a26.7 26.7 0 0 0-3.879 6.996c-.493 1.313-.853 2.862-1.11 4.572-1.096-1.336-2.199-2.48-3.296-3.356m105.327 22.649c2.842.291 4.924 1.694 6.55 4.416 2.307 3.862 3.461 18.845 3.448 34.09-13.432-7.213-26.078-15.327-28.387-19.19-1.626-2.722-1.876-5.22-.784-7.861 1.231-2.976 4.092-5.922 8.056-8.289 3.514-2.1 7.014-3.221 9.997-3.221q.573.001 1.12.055m-56.29-142.377c.217-2.195.535-4.38.951-6.544h13.312l76.713 81.815a71.1 71.1 0 0 1-27.159 2.551c-39.05-3.86-67.679-38.772-63.817-77.822m56.867 93.373-44.43 50.802q-.707.084-1.449.207c.935-1.46 1.683-2.864 2.178-4.18 1.473-3.924 1.998-7.901 1.604-11.744l32.524-37.191a87 87 0 0 0 9.573 2.106m-76.975 24.9c2.405 0 5.121.538 7.937 1.595 4.324 1.622 7.664 4.009 9.407 6.719 1.546 2.403 1.746 4.905.633 7.874v.001c-1.581 4.211-12.576 14.456-24.503 23.951-2.735-14.999-4.276-29.947-2.695-34.159 1.114-2.97 2.912-4.721 5.656-5.513 1.077-.313 2.277-.468 3.565-.468m-21.87-69.928c8.697-2.829 12.777 6.529 14.127 10.682s3.549 14.121-5.149 16.948c-4.278 1.388-19.146-.821-34.006-4.227 10.016-11.487 20.743-22.011 25.028-23.403m-39.616-28.363c4.367 0 14.526.988 14.526 10.134 0 4.499-6.695 17.954-14.526 31.033-7.83-13.079-14.526-26.534-14.526-31.033.001-9.146 10.159-10.134 14.526-10.134m-54.704 49.284c-.602-2.903-.269-6.445.964-10.239 1.178-3.623 4.432-11.205 11.018-11.205.964 0 1.999.162 3.109.523 4.279 1.39 15.006 11.915 25.025 23.404-14.858 3.405-29.722 5.617-34.002 4.226-3.455-1.123-5.398-3.255-6.114-6.709m21.491 52.94c-3.534-2.567-11.171-9.337-5.794-16.738 2.644-3.64 15.97-10.59 29.993-16.568-1.351 15.18-3.842 29.999-6.492 33.645-5.375 7.397-14.174 2.226-17.707-.339m52.081 88.236c-3.031 2.002-5.909 2.193-9.056.598-2.645-1.339-5.206-3.807-7.403-7.138-2.405-3.645-7.178-12.666.456-17.706v.001c3.754-2.478 18.671-4.303 33.901-4.972-6.603 13.74-14.143 26.738-17.898 29.217m45.733 16.803c-4.21 1.159-14.266 2.909-16.699-5.905-1.197-4.337 1.679-19.089 5.746-33.781 11.027 10.52 21.06 21.709 22.258 26.051 2.435 8.818-7.096 12.472-11.305 13.635m49.17-8.713c-3.089.705-5.544.17-7.717-1.683-2.451-2.09-4.367-5.721-5.396-10.224-1.028-4.502-.877-8.604.425-11.552 1.155-2.613 3.132-4.159 6.222-4.865l.001-.001c.505-.113 1.147-.17 1.909-.17 5.844 0 18.754 3.246 31.577 7.426-11.007 10.547-22.634 20.068-27.021 21.069m52.288 23.008c-.326 3.619-1.972 5.987-5.179 7.454-2.698 1.234-6.222 1.698-10.196 1.339-4.599-.413-8.455-1.826-10.854-3.973-2.13-1.905-2.988-4.264-2.704-7.422.403-4.481 8.277-17.279 17.249-29.606 6.626 13.728 12.089 27.727 11.684 32.208m139.934-210.726h-94.685c-4.512 0-8.17-3.657-8.17-8.17s3.658-8.17 8.17-8.17h94.685c4.512 0 8.17 3.657 8.17 8.17s-3.657 8.17-8.17 8.17m-81.069 24.51a8.17 8.17 0 0 1 8.17-8.17h51.111a8.17 8.17 0 0 1 8.17 8.17 8.17 8.17 0 0 1-8.17 8.17h-51.111a8.17 8.17 0 0 1-8.17-8.17m8.17-73.532h51.111c4.512 0 8.17 3.657 8.17 8.17s-3.658 8.17-8.17 8.17h-51.111c-4.512 0-8.17-3.657-8.17-8.17s3.658-8.17 8.17-8.17M484.766 256c0 27.802-4.973 55.015-14.782 80.882a8.17 8.17 0 0 1-15.279-5.793c9.105-24.01 13.72-49.273 13.72-75.089 0-117.131-95.294-212.426-212.426-212.426S43.574 138.869 43.574 256 138.869 468.426 256 468.426c76.687 0 147.724-41.701 185.39-108.828a8.17 8.17 0 0 1 14.25 7.995C415.086 439.868 338.589 484.766 256 484.766 129.858 484.766 27.234 382.142 27.234 256S129.858 27.234 256 27.234 484.766 129.858 484.766 256"/></svg>