<svg xmlns="http://www.w3.org/2000/svg" xml:space="preserve" width="800" height="800" viewBox="0 0 512 512"><circle cx="256" cy="256" r="247.83" style="fill:#d2cfce"/><path d="M437.019 74.981C388.668 26.628 324.38 0 256 0S123.332 26.628 74.981 74.981C26.628 123.332 0 187.62 0 256s26.628 132.668 74.981 181.019C123.332 485.372 187.62 512 256 512s132.668-26.628 181.019-74.981C485.372 388.668 512 324.38 512 256s-26.628-132.668-74.981-181.019M256 495.66C123.851 495.66 16.34 388.15 16.34 256S123.851 16.34 256 16.34 495.66 123.851 495.66 256 388.149 495.66 256 495.66m167.239-196.361c-7.561-1.679-16.072.045-23.246 2.882-3.065-7.079-7.864-14.315-14.399-18.476-5.013-3.191-10.698-4.713-16.283-4.472a115.8 115.8 0 0 0 2.345-23.234c0-7.959-.808-15.731-2.346-23.243.381.016.761.042 1.143.042 5.215 0 10.47-1.532 15.142-4.506 6.535-4.16 11.334-11.396 14.399-18.476 7.173 2.837 15.685 4.562 23.246 2.882 8.155-1.811 14.93-6.88 18.588-13.911 3.312-6.363 3.625-13.511.886-20.128-2.741-6.617-8.018-11.449-14.859-13.607-7.558-2.385-15.934-1.179-22.979 3.307-6.535 4.16-11.334 11.397-14.399 18.474-7.171-2.837-15.682-4.56-23.245-2.882-5.82 1.293-10.931 4.253-14.714 8.394a116.6 116.6 0 0 0-32.863-32.863c4.141-3.783 7.102-8.894 8.394-14.713 1.68-7.565-.045-16.074-2.882-23.246 7.079-3.065 14.315-7.864 18.474-14.399 4.486-7.046 5.691-15.422 3.307-22.979-2.158-6.841-6.99-12.118-13.607-14.859s-13.764-2.427-20.128.885c-7.03 3.658-12.1 10.433-13.911 18.587-1.68 7.563.046 16.072 2.882 23.246-7.079 3.065-14.315 7.864-18.476 14.399-3.191 5.012-4.713 10.698-4.472 16.283a115.8 115.8 0 0 0-23.234-2.345c-7.956 0-15.726.808-23.234 2.345.241-5.585-1.281-11.271-4.472-16.283-4.16-6.535-11.397-11.334-18.476-14.399 2.837-7.172 4.562-15.682 2.882-23.245-1.811-8.155-6.88-14.93-13.911-18.588-6.364-3.312-13.512-3.626-20.128-.885-6.617 2.741-11.449 8.017-13.607 14.859-2.384 7.558-1.179 15.933 3.307 22.979 4.16 6.536 11.396 11.334 18.474 14.399-2.837 7.172-4.562 15.682-2.882 23.245 1.293 5.82 4.253 10.931 8.394 14.714a116.6 116.6 0 0 0-32.863 32.863c-3.783-4.141-8.894-7.102-14.713-8.394-7.565-1.679-16.074.046-23.246 2.882-3.065-7.078-7.864-14.315-14.399-18.474-7.046-4.486-15.421-5.692-22.979-3.307-6.841 2.158-12.118 6.99-14.859 13.607s-2.427 13.765.886 20.128c3.658 7.03 10.433 12.1 18.587 13.911 7.562 1.68 16.072-.045 23.246-2.882 3.065 7.079 7.864 14.315 14.399 18.476 4.672 2.974 9.926 4.506 15.141 4.506.381 0 .761-.026 1.143-.042a115.8 115.8 0 0 0-2.346 23.243c0 7.956.808 15.726 2.345 23.234-5.585-.241-11.271 1.281-16.283 4.472-6.535 4.16-11.334 11.397-14.399 18.476-7.173-2.837-15.682-4.561-23.246-2.882-8.155 1.811-14.93 6.88-18.588 13.911-3.312 6.363-3.625 13.511-.886 20.128 2.741 6.617 8.018 11.449 14.859 13.607a26 26 0 0 0 7.837 1.199c5.215 0 10.471-1.533 15.142-4.507 6.535-4.16 11.334-11.397 14.399-18.475 7.172 2.837 15.685 4.562 23.245 2.882 5.82-1.293 10.931-4.253 14.714-8.393a116.6 116.6 0 0 0 32.863 32.863c-4.141 3.783-7.102 8.894-8.394 14.713-1.68 7.563.045 16.072 2.882 23.246-7.079 3.065-14.315 7.864-18.474 14.399-4.486 7.046-5.691 15.422-3.307 22.979 2.158 6.841 6.99 12.118 13.607 14.859 2.98 1.234 6.069 1.85 9.145 1.85 3.752 0 7.486-.914 10.983-2.734 7.03-3.658 12.1-10.433 13.911-18.587 1.68-7.563-.046-16.072-2.882-23.246 7.079-3.065 14.315-7.864 18.476-14.399 3.191-5.012 4.713-10.698 4.472-16.283a115.8 115.8 0 0 0 23.234 2.345c7.956 0 15.726-.808 23.234-2.345-.241 5.585 1.281 11.271 4.472 16.283 4.16 6.535 11.397 11.334 18.476 14.399-2.837 7.172-4.562 15.682-2.882 23.246 1.811 8.155 6.88 14.93 13.911 18.588 3.497 1.82 7.23 2.734 10.983 2.734 3.075 0 6.165-.614 9.145-1.85 6.617-2.741 11.449-8.018 13.607-14.859 2.384-7.558 1.179-15.933-3.307-22.979-4.16-6.536-11.396-11.334-18.475-14.399 2.837-7.172 4.562-15.682 2.882-23.245-1.293-5.82-4.253-10.931-8.394-14.714a116.6 116.6 0 0 0 32.863-32.863c3.783 4.141 8.894 7.102 14.713 8.394 7.568 1.68 16.074-.045 23.246-2.882 3.065 7.078 7.864 14.315 14.399 18.474 4.672 2.974 9.927 4.507 15.142 4.507 2.65 0 5.29-.395 7.837-1.199 6.841-2.158 12.118-6.99 14.859-13.607s2.427-13.765-.886-20.128c-3.659-7.032-10.433-12.102-18.587-13.912m-9.592-117.152c2.918-1.857 6.389-2.422 9.288-1.508 2.219.699 3.792 2.138 4.678 4.277s.791 4.268-.283 6.332c-1.402 2.695-4.256 4.752-7.633 5.501-3.681.819-9.275-.2-14.644-2.488 2.178-5.415 5.412-10.089 8.594-12.114m-50.512 23.262c1.402-2.695 4.256-4.752 7.634-5.501.85-.188 1.802-.28 2.83-.28 3.424 0 7.685 1.009 11.814 2.768-2.179 5.414-5.413 10.089-8.595 12.115-2.919 1.858-6.391 2.422-9.288 1.508-2.219-.7-3.792-2.14-4.678-4.277-.884-2.138-.791-4.27.283-6.333M315.251 92.304c.749-3.378 2.806-6.231 5.501-7.633q1.7-.883 3.446-.883c.956 0 1.922.2 2.887.6 2.137.886 3.577 2.46 4.277 4.678.914 2.898.351 6.369-1.508 9.288-2.026 3.182-6.701 6.416-12.115 8.595-2.287-5.369-3.306-10.963-2.488-14.645m-17.762 42.878c2.026-3.182 6.701-6.417 12.115-8.596 2.288 5.368 3.306 10.961 2.488 14.644-.749 3.378-2.806 6.231-5.501 7.633-2.064 1.075-4.194 1.17-6.332.284s-3.577-2.46-4.277-4.678c-.913-2.897-.35-6.368 1.507-9.287m-95.094-8.595c5.414 2.179 10.089 5.413 12.115 8.595 1.858 2.919 2.422 6.391 1.508 9.288-.7 2.219-2.14 3.792-4.277 4.678s-4.269.79-6.332-.284c-2.695-1.402-4.752-4.256-5.501-7.634-.82-3.682.199-9.276 2.487-14.643m-20.248-28.234c-1.858-2.918-2.422-6.39-1.508-9.288.699-2.219 2.138-3.792 4.277-4.678q1.45-.6 2.887-.6c1.162 0 2.314.295 3.446.883 2.695 1.402 4.752 4.256 5.501 7.633.817 3.682-.2 9.276-2.488 14.644-5.416-2.178-10.09-5.412-12.115-8.594m-89.843 98.396c-3.378-.749-6.231-2.806-7.633-5.501-1.074-2.063-1.169-4.194-.283-6.332s2.46-3.577 4.678-4.277a9.5 9.5 0 0 1 2.878-.43c2.155 0 4.412.666 6.411 1.937 3.182 2.026 6.416 6.701 8.595 12.115-5.37 2.287-10.965 3.306-14.646 2.488m42.878 17.762c-3.182-2.026-6.417-6.701-8.596-12.115 5.368-2.288 10.962-3.306 14.644-2.488 3.378.749 6.231 2.806 7.633 5.501 1.074 2.064 1.17 4.194.284 6.332s-2.46 3.577-4.678 4.277c-2.896.913-6.37.35-9.287-1.507M98.353 329.853c-2.918 1.858-6.39 2.422-9.288 1.508-2.219-.699-3.792-2.138-4.678-4.277-.886-2.138-.791-4.268.283-6.332 1.402-2.695 4.256-4.752 7.633-5.501.851-.188 1.802-.28 2.83-.28 3.423 0 7.685 1.009 11.814 2.768-2.178 5.415-5.412 10.089-8.594 12.114m50.512-23.262c-1.402 2.695-4.256 4.752-7.634 5.501-3.681.819-9.275-.2-14.643-2.488 2.179-5.414 5.413-10.089 8.595-12.115 2.918-1.857 6.391-2.421 9.288-1.508 2.219.7 3.792 2.139 4.678 4.277s.79 4.27-.284 6.333m47.884 113.105c-.749 3.378-2.806 6.231-5.501 7.633-2.063 1.074-4.194 1.17-6.332.283-2.137-.886-3.577-2.46-4.277-4.678-.914-2.898-.351-6.37 1.508-9.288 2.026-3.182 6.701-6.416 12.115-8.595 2.286 5.369 3.305 10.963 2.487 14.645m17.762-42.878c-2.026 3.182-6.701 6.417-12.115 8.596-2.288-5.368-3.306-10.961-2.488-14.644.749-3.378 2.806-6.231 5.501-7.633q1.7-.884 3.446-.885c.956 0 1.921.2 2.886.6 2.137.886 3.577 2.46 4.277 4.678.913 2.898.35 6.369-1.507 9.288m95.094 8.595c-5.414-2.179-10.089-5.413-12.115-8.595-1.858-2.918-2.422-6.391-1.508-9.288.7-2.219 2.139-3.792 4.277-4.678q1.449-.6 2.886-.6c1.162 0 2.315.295 3.446.885 2.695 1.402 4.752 4.256 5.501 7.634.82 3.681-.199 9.275-2.487 14.642m20.248 28.234c1.858 2.918 2.422 6.39 1.508 9.288-.699 2.219-2.138 3.792-4.277 4.678s-4.269.79-6.332-.283c-2.695-1.402-4.752-4.256-5.501-7.633-.817-3.682.2-9.276 2.488-14.644 5.415 2.178 10.089 5.412 12.114 8.594M256 355.315c-54.762 0-99.315-44.553-99.315-99.315s44.553-99.315 99.315-99.315 99.315 44.553 99.315 99.315-44.553 99.315-99.315 99.315m114.769-43.222c-3.378-.749-6.231-2.806-7.633-5.501-1.074-2.064-1.17-4.194-.284-6.332s2.46-3.577 4.678-4.277a9.6 9.6 0 0 1 2.878-.429c2.155 0 4.412.664 6.41 1.937 3.182 2.026 6.417 6.701 8.596 12.115-5.37 2.287-10.963 3.306-14.645 2.487m56.845 14.991c-.886 2.137-2.46 3.577-4.678 4.277-2.897.915-6.369.351-9.288-1.508-3.182-2.026-6.416-6.701-8.595-12.115 5.368-2.289 10.962-3.305 14.644-2.488 3.378.749 6.231 2.806 7.633 5.501 1.073 2.065 1.169 4.196.284 6.333M484.766 256c0-.524-.022-1.044-.053-1.56-.264-6.174-2.004-11.973-3.571-17.132-1.138-3.747-2.214-7.288-2.646-10.593-.451-3.443-.327-7.217-.196-11.213.199-6.067.405-12.341-1.303-18.71-1.742-6.494-5.093-11.866-8.335-17.062-2.083-3.338-4.049-6.49-5.341-9.598-1.32-3.175-2.179-6.835-3.088-10.708-1.39-5.924-2.828-12.049-6.153-17.786-3.348-5.777-7.959-10.08-12.419-14.242-2.894-2.701-5.628-5.252-7.698-7.946-2.085-2.711-3.856-6.02-5.73-9.522-2.276-4.253-4.628-8.614-7.838-12.582a24.7 24.7 0 0 0-5.742-5.742c-3.967-3.209-8.327-5.56-12.578-7.835-3.503-1.875-6.812-3.645-9.523-5.73-2.694-2.072-5.244-4.805-7.945-7.699-4.161-4.46-8.465-9.072-14.242-12.419-5.738-3.325-11.863-4.763-17.787-6.154-3.874-.909-7.533-1.768-10.708-3.087-3.108-1.292-6.261-3.259-9.597-5.341-5.195-3.242-10.568-6.593-17.063-8.335-6.369-1.707-12.642-1.501-18.71-1.303-3.996.131-7.769.255-11.214-.196-3.304-.432-6.844-1.508-10.592-2.646-5.159-1.567-10.958-3.307-17.132-3.571a25 25 0 0 0-1.561-.054c-.524 0-1.044.022-1.56.053-6.174.264-11.973 2.004-17.132 3.571-3.747 1.138-7.288 2.214-10.593 2.646-3.443.452-7.217.328-11.213.196-6.068-.199-12.342-.405-18.71 1.303-6.494 1.742-11.866 5.093-17.062 8.335-3.338 2.083-6.49 4.049-9.598 5.341-3.175 1.32-6.835 2.179-10.71 3.088-5.924 1.39-12.048 2.828-17.786 6.153-5.776 3.348-10.079 7.959-14.241 12.418-2.701 2.894-5.252 5.628-7.946 7.7-2.711 2.085-6.02 3.856-9.522 5.73-4.253 2.276-8.612 4.627-12.581 7.837a24.6 24.6 0 0 0-5.742 5.742c-3.209 3.967-5.561 8.327-7.836 12.579-1.875 3.503-3.645 6.812-5.73 9.523-2.072 2.694-4.805 5.244-7.699 7.945-4.46 4.161-9.072 8.465-12.419 14.242-3.325 5.738-4.763 11.863-6.154 17.787-.909 3.874-1.768 7.533-3.087 10.708-1.292 3.108-3.259 6.261-5.341 9.597-3.242 5.195-6.593 10.568-8.335 17.063-1.708 6.369-1.502 12.643-1.303 18.711.132 3.996.255 7.769-.195 11.213-.432 3.304-1.508 6.843-2.646 10.592-1.568 5.159-3.308 10.959-3.572 17.133a24 24 0 0 0-.054 1.56c0 .524.022 1.044.053 1.56.264 6.174 2.004 11.973 3.571 17.132 1.138 3.747 2.214 7.288 2.646 10.593.451 3.443.327 7.217.196 11.213-.199 6.067-.405 12.341 1.303 18.71 1.742 6.494 5.093 11.866 8.335 17.062 2.083 3.338 4.049 6.49 5.341 9.598 1.32 3.176 2.179 6.835 3.088 10.708 1.39 5.924 2.828 12.049 6.153 17.787 3.348 5.776 7.959 10.08 12.419 14.241 2.894 2.701 5.628 5.252 7.699 7.946 2.085 2.711 3.856 6.02 5.73 9.522 2.276 4.253 4.628 8.614 7.838 12.582a25 25 0 0 0 2.632 3.108c.877.878 1.818 1.651 2.789 2.369 4.052 3.344 8.533 5.763 12.899 8.099 3.503 1.875 6.812 3.645 9.523 5.73 2.694 2.072 5.244 4.805 7.945 7.698 4.161 4.46 8.465 9.072 14.242 12.419 5.738 3.325 11.863 4.763 17.787 6.154 3.874.909 7.533 1.768 10.708 3.087 3.108 1.292 6.261 3.259 9.597 5.341 5.195 3.242 10.568 6.593 17.063 8.335 6.368 1.707 12.643 1.502 18.71 1.303 3.995-.131 7.769-.256 11.214.195 3.304.432 6.844 1.508 10.592 2.646 5.159 1.566 10.958 3.308 17.132 3.571.517.034 1.037.056 1.561.056s1.044-.022 1.56-.053c6.174-.264 11.973-2.004 17.132-3.571 3.747-1.138 7.288-2.214 10.593-2.646 3.443-.451 7.218-.327 11.213-.195 6.068.197 12.341.404 18.71-1.303 6.494-1.742 11.866-5.093 17.062-8.335 3.338-2.083 6.49-4.049 9.598-5.341 3.176-1.32 6.835-2.179 10.71-3.088 5.924-1.391 12.048-2.829 17.786-6.154 5.776-3.348 10.079-7.959 14.241-12.418 2.701-2.894 5.252-5.628 7.946-7.7 2.711-2.085 6.02-3.856 9.522-5.73 4.369-2.338 8.851-4.757 12.906-8.106a25 25 0 0 0 2.783-2.364 24.6 24.6 0 0 0 2.633-3.109c3.209-3.967 5.561-8.327 7.836-12.579 1.875-3.503 3.645-6.812 5.73-9.523 2.072-2.694 4.805-5.244 7.698-7.945 4.46-4.161 9.072-8.465 12.419-14.242 3.325-5.738 4.763-11.863 6.154-17.787.909-3.874 1.768-7.533 3.087-10.708 1.292-3.108 3.259-6.261 5.341-9.597 3.242-5.195 6.593-10.568 8.335-17.063 1.708-6.37 1.502-12.643 1.303-18.711-.132-3.996-.255-7.769.195-11.213.432-3.304 1.508-6.843 2.646-10.592 1.568-5.159 3.308-10.959 3.572-17.133.033-.515.055-1.035.055-1.559m-19.026 5.742c-2.327 1.954-5.747 2.765-9.158 2.161-3.715-.654-8.493-3.734-12.577-7.902 4.084-4.168 8.862-7.25 12.577-7.903 3.409-.599 6.831.209 9.157 2.161 1.782 1.495 2.686 3.426 2.686 5.741.001 2.315-.904 4.246-2.685 5.742m-57.371-149.991c-.265 3.026-2.113 6.018-4.948 8.004-3.088 2.165-8.648 3.384-14.481 3.305-.06-5.835 1.139-11.393 3.305-14.481 1.986-2.833 4.977-4.683 8.004-4.948 1.731-.148 3.291.219 4.652 1.098q.648.551 1.236 1.135.585.587 1.135 1.235c.878 1.362 1.247 2.92 1.097 4.652M261.742 46.26c1.953 2.327 2.762 5.75 2.161 9.158-.654 3.715-3.734 8.493-7.902 12.577-4.168-4.084-7.25-8.862-7.903-12.577-.599-3.408.208-6.831 2.161-9.157 1.495-1.782 3.426-2.686 5.741-2.686 2.315-.001 4.246.904 5.742 2.685m0 64.726c-1.496 1.782-3.427 2.685-5.742 2.685s-4.246-.904-5.742-2.685c-1.952-2.327-2.76-5.75-2.16-9.157.654-3.715 3.734-8.493 7.902-12.577 4.168 4.084 7.25 8.862 7.903 12.577.599 3.408-.209 6.83-2.161 9.157m-157.014-3.883a21 21 0 0 1 1.137-1.239q.57-.568 1.198-1.106c1.171-.768 2.489-1.16 3.941-1.16q.368 0 .747.033c3.026.265 6.018 2.113 8.004 4.948 2.165 3.088 3.364 8.646 3.305 14.481-5.831.065-11.393-1.141-14.481-3.305-2.833-1.986-4.683-4.977-4.948-8.004-.15-1.732.218-3.289 1.097-4.648M46.26 261.742c-1.781-1.496-2.685-3.427-2.685-5.742s.904-4.246 2.685-5.742c1.82-1.528 4.313-2.356 6.945-2.356.731 0 1.473.064 2.214.195 3.715.654 8.493 3.734 12.577 7.902-4.084 4.168-8.862 7.25-12.577 7.903-3.41.603-6.832-.207-9.159-2.16m57.371 138.507c.265-3.026 2.113-6.018 4.948-8.004 3.016-2.113 8.385-3.307 14.068-3.307q.207 0 .413.002c.06 5.835-1.139 11.393-3.305 14.481-1.986 2.833-4.977 4.683-8.004 4.948-1.732.148-3.291-.219-4.652-1.098a21 21 0 0 1-1.236-1.135 21 21 0 0 1-1.135-1.235c-.878-1.362-1.247-2.92-1.097-4.652m146.627 65.491c-1.953-2.327-2.762-5.75-2.161-9.158.654-3.715 3.734-8.493 7.902-12.577 4.168 4.084 7.25 8.862 7.903 12.577.599 3.408-.208 6.831-2.161 9.157-1.495 1.782-3.426 2.686-5.741 2.686-2.315.001-4.246-.904-5.742-2.685m0-64.726c1.496-1.782 3.427-2.685 5.742-2.685s4.246.904 5.742 2.685c1.952 2.327 2.76 5.75 2.16 9.157-.654 3.715-3.734 8.493-7.902 12.577-4.168-4.084-7.25-8.862-7.903-12.577-.599-3.408.209-6.83 2.161-9.157m157.014 3.883a21 21 0 0 1-1.137 1.239q-.588.584-1.238 1.136c-1.358.878-2.913 1.246-4.648 1.096-3.026-.264-6.018-2.113-8.004-4.948-2.165-3.088-3.364-8.646-3.305-14.481 5.806-.072 11.393 1.141 14.481 3.305 2.833 1.986 4.683 4.977 4.948 8.004.15 1.733-.218 3.29-1.097 4.649m54.696-107.863c.168 5.099.326 9.915-.754 13.942-1.111 4.143-3.688 8.273-6.415 12.644-2.34 3.75-4.759 7.628-6.567 11.975-1.833 4.411-2.887 8.902-3.906 13.246-1.17 4.983-2.275 9.689-4.384 13.328-2.132 3.678-5.676 6.986-9.43 10.488-3.251 3.034-6.611 6.17-9.504 9.931a49 49 0 0 0-1.762 2.457 29 29 0 0 0-6.448-6.183c-6.346-4.447-14.867-6.11-22.579-6.233-.124-7.713-1.788-16.235-6.233-22.579-4.793-6.841-12.071-11.16-19.966-11.849-7.148-.623-13.87 1.821-18.933 6.885-5.063 5.063-7.509 11.788-6.885 18.933.688 7.895 5.008 15.173 11.849 19.967 6.344 4.446 14.865 6.108 22.579 6.233.123 7.712 1.787 16.234 6.233 22.578a29 29 0 0 0 6.183 6.449 49 49 0 0 0-2.458 1.762c-3.76 2.892-6.898 6.254-9.931 9.504-3.502 3.753-6.811 7.299-10.487 9.43-3.64 2.109-8.346 3.214-13.327 4.384-4.344 1.02-8.836 2.074-13.248 3.908-4.347 1.807-8.225 4.227-11.975 6.567-4.372 2.728-8.501 5.304-12.643 6.415-4.026 1.08-8.843.921-13.942.754-4.476-.147-9.104-.3-13.871.325a49 49 0 0 0-2.994.497 29 29 0 0 0-.174-9.04c-1.343-7.63-6.193-14.833-11.558-20.373 5.366-5.54 10.216-12.743 11.558-20.373 1.449-8.226-.643-16.425-5.738-22.495-4.612-5.495-11.096-8.521-18.258-8.521s-13.645 3.026-18.258 8.521c-5.095 6.07-7.187 14.27-5.739 22.494 1.342 7.63 6.193 14.833 11.558 20.373-5.366 5.54-10.215 12.743-11.558 20.373a29 29 0 0 0-.175 9.04 49 49 0 0 0-2.992-.497c-2.669-.35-5.293-.455-7.873-.455-2.028 0-4.028.066-5.999.131-5.098.167-9.915.326-13.941-.754-4.143-1.111-8.273-3.688-12.644-6.415-3.75-2.34-7.628-4.759-11.975-6.567-4.411-1.833-8.902-2.887-13.246-3.906-4.983-1.17-9.689-2.275-13.328-4.385-3.678-2.132-6.986-5.676-10.488-9.43-3.034-3.251-6.17-6.61-9.931-9.504a48 48 0 0 0-2.457-1.76 29 29 0 0 0 6.183-6.448c4.447-6.346 6.109-14.867 6.233-22.579 7.713-.125 16.235-1.789 22.58-6.233 6.84-4.793 11.159-12.071 11.848-19.966.624-7.146-1.821-13.87-6.885-18.933-5.063-5.064-11.79-7.512-18.933-6.885-7.895.688-15.173 5.008-19.967 11.849-4.445 6.344-6.108 14.867-6.232 22.579-7.712.123-16.235 1.788-22.579 6.233a29 29 0 0 0-6.448 6.183 49 49 0 0 0-1.763-2.458c-2.892-3.76-6.253-6.898-9.504-9.931-3.753-3.502-7.298-6.811-9.43-10.488-2.109-3.64-3.214-8.346-4.384-13.328-1.02-4.343-2.074-8.836-3.908-13.247-1.807-4.347-4.227-8.225-6.567-11.975-2.728-4.372-5.304-8.501-6.415-12.643-1.08-4.026-.922-8.842-.754-13.942.147-4.476.3-9.104-.325-13.871a48 48 0 0 0-.5-3.014c1.295.182 2.608.295 3.937.295a29.5 29.5 0 0 0 5.106-.449c7.63-1.343 14.833-6.193 20.373-11.558 5.54 5.366 12.743 10.216 20.373 11.558 8.226 1.448 16.425-.644 22.495-5.738 5.495-4.612 8.521-11.096 8.521-18.258s-3.026-13.645-8.521-18.258c-6.07-5.094-14.27-7.187-22.494-5.739-7.63 1.342-14.833 6.193-20.373 11.558-5.54-5.366-12.743-10.215-20.373-11.558a29 29 0 0 0-9.04-.176c.193-.986.364-1.98.497-2.991.624-4.766.472-9.396.325-13.871-.168-5.099-.326-9.916.754-13.942 1.111-4.143 3.687-8.273 6.415-12.644 2.34-3.75 4.759-7.628 6.567-11.975 1.833-4.411 2.887-8.902 3.906-13.246 1.17-4.983 2.275-9.689 4.384-13.328 2.132-3.678 5.676-6.986 9.43-10.488 3.251-3.033 6.611-6.17 9.504-9.931a48 48 0 0 0 1.761-2.457 29 29 0 0 0 6.448 6.183c6.346 4.447 14.867 6.11 22.579 6.233.124 7.713 1.788 16.235 6.233 22.58 4.793 6.84 12.071 11.159 19.966 11.848q1.098.096 2.18.096c6.325 0 12.208-2.436 16.753-6.981 5.063-5.063 7.509-11.788 6.885-18.933-.688-7.895-5.008-15.173-11.849-19.967-6.344-4.446-14.865-6.108-22.579-6.232-.123-7.713-1.787-16.234-6.233-22.579a29 29 0 0 0-6.183-6.448 49 49 0 0 0 2.458-1.763c3.76-2.892 6.898-6.254 9.931-9.504 3.502-3.753 6.811-7.298 10.487-9.43 3.64-2.109 8.346-3.214 13.327-4.382 4.344-1.02 8.836-2.074 13.248-3.908 4.347-1.807 8.225-4.227 11.975-6.567 4.372-2.728 8.501-5.304 12.643-6.415 4.027-1.081 8.842-.921 13.942-.754 4.476.147 9.104.3 13.871-.325a49 49 0 0 0 2.994-.497 29 29 0 0 0 .174 9.04c1.343 7.63 6.193 14.833 11.558 20.373-5.366 5.54-10.216 12.743-11.558 20.373-1.449 8.226.643 16.425 5.738 22.495 4.612 5.495 11.096 8.521 18.258 8.521s13.645-3.026 18.258-8.521c5.095-6.07 7.187-14.27 5.739-22.494-1.342-7.63-6.193-14.833-11.558-20.374 5.366-5.54 10.215-12.743 11.558-20.373.538-3.053.585-6.102.175-9.04a49 49 0 0 0 2.992.497c4.767.625 9.396.474 13.872.325 5.1-.166 9.916-.326 13.941.754 4.143 1.111 8.273 3.687 12.644 6.415 3.75 2.34 7.628 4.759 11.975 6.567 4.411 1.833 8.902 2.887 13.246 3.906 4.983 1.17 9.689 2.275 13.328 4.384 3.678 2.132 6.986 5.676 10.488 9.43 3.034 3.251 6.17 6.611 9.931 9.504.806.62 1.629 1.202 2.457 1.761a29 29 0 0 0-6.183 6.448c-4.447 6.344-6.109 14.867-6.233 22.579-7.713.124-16.235 1.788-22.58 6.233-6.84 4.793-11.159 12.071-11.848 19.966-.624 7.146 1.821 13.87 6.885 18.933 4.545 4.546 10.427 6.981 16.753 6.981q1.083 0 2.18-.096c7.895-.688 15.173-5.008 19.967-11.849 4.445-6.344 6.108-14.867 6.232-22.579 7.712-.123 16.235-1.788 22.579-6.233a29 29 0 0 0 6.448-6.183c.56.829 1.142 1.651 1.763 2.458 2.892 3.76 6.253 6.898 9.504 9.931 3.753 3.503 7.298 6.811 9.43 10.488 2.109 3.64 3.214 8.346 4.384 13.328 1.02 4.343 2.074 8.836 3.908 13.247 1.807 4.347 4.227 8.225 6.567 11.975 2.728 4.372 5.304 8.501 6.415 12.643 1.08 4.026.922 8.842.754 13.942-.147 4.476-.3 9.105.325 13.871.133 1.011.304 2.007.497 2.992a29 29 0 0 0-9.04.175c-7.63 1.343-14.833 6.193-20.373 11.558-5.54-5.366-12.743-10.216-20.373-11.558-8.226-1.449-16.425.644-22.495 5.738-5.495 4.612-8.521 11.096-8.521 18.258s3.026 13.645 8.521 18.258c4.808 4.036 10.952 6.188 17.388 6.188a29.5 29.5 0 0 0 5.106-.449c7.63-1.342 14.833-6.193 20.373-11.558 5.54 5.366 12.743 10.215 20.373 11.558 3.052.537 6.102.585 9.04.174a48 48 0 0 0-.497 2.994c-.624 4.765-.471 9.394-.324 13.869m-88.059 76.875c-5.831.053-11.393-1.141-14.481-3.305-2.835-1.986-4.683-4.978-4.948-8.005-.203-2.318.525-4.323 2.161-5.959 1.458-1.458 3.208-2.194 5.213-2.194q.367 0 .746.033c3.026.265 6.019 2.113 8.005 4.948 2.163 3.089 3.363 8.647 3.304 14.482m-235.818 0c-.059-5.835 1.141-11.393 3.305-14.481 1.986-2.835 4.978-4.683 8.005-4.948 2.319-.203 4.321.524 5.959 2.161 1.636 1.636 2.363 3.641 2.161 5.959-.265 3.026-2.113 6.019-4.948 8.004-3.089 2.165-8.624 3.373-14.482 3.305M89.252 256c4.084-4.168 8.862-7.25 12.577-7.903 3.409-.599 6.83.208 9.157 2.161 1.782 1.496 2.685 3.427 2.685 5.742s-.904 4.246-2.685 5.742c-2.327 1.953-5.75 2.763-9.157 2.16-3.716-.652-8.492-3.734-12.577-7.902m48.839-117.909c5.855-.038 11.393 1.141 14.481 3.305 2.835 1.986 4.683 4.978 4.948 8.005.203 2.317-.525 4.323-2.161 5.959s-3.635 2.362-5.959 2.161c-3.026-.264-6.019-2.113-8.005-4.948-2.163-3.089-3.363-8.647-3.304-14.482m235.818 0c.059 5.835-1.141 11.393-3.305 14.481-1.986 2.835-4.978 4.684-8.005 4.948-2.32.197-4.323-.525-5.959-2.161s-2.363-3.641-2.161-5.959c.265-3.026 2.113-6.019 4.948-8.005 3.016-2.113 8.386-3.307 14.071-3.307zM422.747 256c-4.084 4.168-8.862 7.25-12.577 7.903-3.409.598-6.83-.208-9.157-2.161-1.782-1.496-2.685-3.427-2.685-5.742s.904-4.246 2.685-5.742c1.82-1.528 4.313-2.355 6.944-2.355.731 0 1.473.064 2.214.195 3.716.652 8.492 3.734 12.576 7.902m-228.296-22.877v45.753a8.17 8.17 0 0 1-16.34 0v-45.753a8.17 8.17 0 0 1 16.34 0m39.762-8.17c-17.119 0-31.047 13.927-31.047 31.047s13.927 31.047 31.047 31.047S265.26 273.119 265.26 256s-13.928-31.047-31.047-31.047m0 45.753c-8.109 0-14.706-6.597-14.706-14.706s6.597-14.706 14.706-14.706 14.706 6.597 14.706 14.706-6.597 14.706-14.706 14.706m70.808-45.753c-17.119 0-31.047 13.927-31.047 31.047s13.927 31.047 31.047 31.047 31.047-13.928 31.047-31.047-13.927-31.047-31.047-31.047m0 45.753c-8.109 0-14.706-6.597-14.706-14.706s6.597-14.706 14.706-14.706 14.706 6.597 14.706 14.706-6.597 14.706-14.706 14.706"/></svg>