<svg xmlns="http://www.w3.org/2000/svg" xml:space="preserve" width="800" height="800" viewBox="0 0 512 512"><circle cx="256" cy="256" r="247.83" style="fill:#fd9a0c"/><path d="M415.323 154.281C381.742 101.791 322.935 66.996 256 66.996c-104.384 0-189.004 84.62-189.004 189.004S151.616 445.004 256 445.004c72.765 0 135.915-41.127 167.504-101.398z" style="fill:#d2cfce"/><path d="m199.626 383.183 45.623-268.514-58.515 20.04-41.54 248.474z" style="fill:#8c8484"/><path d="M294.672 216.953c-6.317 0-11.438 5.121-11.438 11.438v38.116h11.438c6.317 0 11.438-5.121 11.438-11.438v-26.677c.001-6.318-5.12-11.439-11.438-11.439" style="fill:#a8a2a2"/><path d="M445.004 256c0-37.449-10.894-72.353-29.681-101.719l-66.954 14.653c-5.267 1.153-9.578 6.508-9.578 11.9v15.583c0 5.392 4.311 8.862 9.578 7.708l16.34-3.576 37.81-8.275v42.346l-20.153 3.133-.284 23.531-45.729 7.746c-10.043 1.7-18.259 11.426-18.259 21.612v22.821h-59.37v22.774c0 16.395 13.29 29.685 29.685 29.685 13.851 0 25.487-9.486 28.763-22.317h106.331c13.725-26.188 21.501-55.986 21.501-87.605" style="fill:#a8a2a2"/><path d="M437.019 74.981C388.668 26.628 324.38 0 256 0S123.332 26.628 74.981 74.981C26.628 123.332 0 187.62 0 256s26.628 132.668 74.981 181.019C123.332 485.372 187.62 512 256 512s132.668-26.628 181.019-74.981C485.372 388.668 512 324.38 512 256s-26.628-132.668-74.981-181.019M256 495.66C123.851 495.66 16.34 388.15 16.34 256S123.851 16.34 256 16.34 495.66 123.851 495.66 256 388.149 495.66 256 495.66m54.263-451.43c1.282-4.327 5.83-6.792 10.155-5.512 42.176 12.503 79.619 36.936 108.284 70.659a8.17 8.17 0 1 1-12.451 10.583c-26.605-31.301-61.35-53.977-100.477-65.575a8.17 8.17 0 0 1-5.511-10.155M428.7 402.625c-28.664 33.721-66.107 58.153-108.28 70.656a8.2 8.2 0 0 1-2.326.339 8.171 8.171 0 0 1-2.319-16.006c39.127-11.598 73.871-34.273 100.475-65.572a8.171 8.171 0 0 1 12.45 10.583m-92.087-149.761a8.17 8.17 0 0 1-8.17-8.17v-5.183a8.17 8.17 0 0 1 16.34 0v5.183a8.17 8.17 0 0 1-8.17 8.17m-41.941 21.814c10.812 0 19.609-8.797 19.609-19.609v-26.677c0-10.812-8.797-19.609-19.609-19.609s-19.609 8.797-19.609 19.609v38.116a8.17 8.17 0 0 0 8.17 8.17zm-3.268-46.287c0-1.802 1.466-3.268 3.268-3.268s3.268 1.466 3.268 3.268v26.677a3.27 3.27 0 0 1-3.268 3.268h-3.268zm-38.127 0a8.17 8.17 0 0 1 16.34 0v20.66a8.17 8.17 0 0 1-16.34 0zM453.174 256c0-108.723-88.452-197.174-197.174-197.174-34.946 0-69.303 9.308-99.359 26.916-29.151 17.079-53.611 41.504-70.736 70.634a8.17 8.17 0 0 0 2.903 11.183 8.17 8.17 0 0 0 11.184-2.903c32.448-55.199 92.228-89.49 156.006-89.49 59.667 0 112.667 29.053 145.623 73.749l-55.001 12.037c-8.972 1.964-16.001 10.698-16.001 19.882v15.583c0 5.057 2.136 9.676 5.861 12.674 1.133.912 2.39 1.624 3.717 2.177v6.605a8.17 8.17 0 0 0 16.34 0v-7.171l37.81-8.275v25.292l-27.714 4.695a8.172 8.172 0 0 0 1.355 16.226q.681 0 1.374-.115l4.548-.77v6.629l-38.923 6.594c-14.055 2.38-25.065 15.412-25.065 29.668v14.651h-51.2a8.17 8.17 0 0 0-8.17 8.17v22.775c0 20.873 16.982 37.855 37.855 37.855a37.84 37.84 0 0 0 34.534-22.318h18.974v12.49a8.17 8.17 0 0 0 16.34 0v-12.491h51.061c-32.001 51.042-88.757 85.057-153.318 85.057-46.717 0-89.353-17.808-121.477-46.991h10.668l.013.001.023-.001h54.598l.038.001.036-.001h30.186a8.17 8.17 0 0 0 0-16.34h-20.541l44.652-260.4a8.17 8.17 0 0 0-11.001-9l-84.472 32.685a8.17 8.17 0 1 0 5.897 15.239l11.677-4.518-38.012 225.994H118.66C91.562 341.874 75.166 300.819 75.166 256c0-21.688 3.827-42.925 11.374-63.12a8.17 8.17 0 0 0-15.306-5.72c-8.232 22.03-12.408 45.192-12.408 68.84 0 108.723 88.452 197.174 197.174 197.174S453.174 364.723 453.174 256m-136.002 79.436a8.17 8.17 0 0 0-7.916 6.149c-2.431 9.52-11.005 16.168-20.847 16.168-11.863 0-21.515-9.652-21.515-21.515v-14.605h51.2a8.17 8.17 0 0 0 8.17-8.17v-22.821c0-6.189 5.352-12.523 11.454-13.557l45.729-7.746a8.17 8.17 0 0 0 6.806-8.056v-16.299l13.632-2.309a8.17 8.17 0 0 0 6.805-8.056v-42.346a8.17 8.17 0 0 0-9.918-7.982l-53.811 11.778v-15.236c0-1.539 1.651-3.589 3.155-3.92l61.22-13.398c16.181 27.077 25.498 58.711 25.498 92.484 0 28.484-6.629 55.444-18.41 79.436zM194.02 140.652l41.637-16.111-42.69 248.963h-38.111z"/></svg>